<svg xmlns="http://www.w3.org/2000/svg" width="120" height="120" viewBox="0 0 120 120">
  <g id="Grupo_1113475" data-name="Grupo 1113475" transform="translate(-1236.5 -460)">
    <g id="Elipse_12108" data-name="Elipse 12108" transform="translate(1241.5 465)" fill="#fe9ab8" stroke="rgba(255,255,255,0.4)" stroke-width="5">
      <circle cx="55" cy="55" r="55" stroke="none"/>
      <circle cx="55" cy="55" r="57.5" fill="none"/>
    </g>
    <g id="Grupo_1114382" data-name="Grupo 1114382" transform="translate(1263.553 487.053)">
      <g id="Grupo_1114380" data-name="Grupo 1114380" transform="translate(1.028 1.028)">
        <path id="Trazado_919082" data-name="Trazado 919082" d="M34.952,144.169V131.892c0-3-2.671-4.7-5.71-5.456a31.213,31.213,0,0,0-15.533,0c-3.032.78-5.711,2.455-5.711,5.456v12.277Z" transform="translate(-7.998 -110.337)" fill="#76e2f8" fill-rule="evenodd"/>
        <path id="Trazado_919083" data-name="Trazado 919083" d="M126.186,144.17V131.894c0-3-2.671-4.7-5.71-5.456a32.472,32.472,0,0,0-7.766-.982v18.715h13.477Z" transform="translate(-99.232 -110.338)" fill="#3aaaff" fill-rule="evenodd"/>
        <path id="Trazado_919084" data-name="Trazado 919084" d="M71.653,8C75,8,77.717,9.907,77.717,14.309S75,22.28,71.653,22.28s-6.065-3.569-6.065-7.971S68.3,8,71.653,8Z" transform="translate(-58.176 -7.998)" fill="#f6dccd" fill-rule="evenodd"/>
        <path id="Trazado_919085" data-name="Trazado 919085" d="M112.709,8c3.349,0,6.065,1.909,6.065,6.311s-2.715,7.971-6.065,7.971Z" transform="translate(-99.232 -7.998)" fill="#f1cbbc" fill-rule="evenodd"/>
      </g>
      <g id="Grupo_1114381" data-name="Grupo 1114381" transform="translate(37.912 31.075)">
        <path id="Trazado_919086" data-name="Trazado 919086" d="M321.533,377.311V365.034c0-3-2.671-4.7-5.71-5.456a31.213,31.213,0,0,0-15.533,0c-3.032.78-5.71,2.455-5.71,5.456v12.277Z" transform="translate(-294.579 -343.519)" fill="#73cbb1" fill-rule="evenodd"/>
        <path id="Trazado_919087" data-name="Trazado 919087" d="M412.769,377.312V365.036c0-3-2.671-4.7-5.71-5.456a32.466,32.466,0,0,0-7.766-.982v18.714Z" transform="translate(-385.815 -343.521)" fill="#539499" fill-rule="evenodd"/>
        <path id="Trazado_919088" data-name="Trazado 919088" d="M358.234,241.453c3.349,0,6.065,1.909,6.065,6.311s-2.715,7.971-6.065,7.971-6.065-3.569-6.065-7.971S354.884,241.453,358.234,241.453Z" transform="translate(-344.757 -241.453)" fill="#f6dccd" fill-rule="evenodd"/>
        <path id="Trazado_919089" data-name="Trazado 919089" d="M399.29,241.453c3.349,0,6.065,1.909,6.065,6.311s-2.715,7.971-6.065,7.971Z" transform="translate(-385.813 -241.453)" fill="#f1cbbc" fill-rule="evenodd"/>
      </g>
      <path id="Trazado_919090" data-name="Trazado 919090" d="M59.484,46.365a34.213,34.213,0,0,0-5.051-.848,9.309,9.309,0,0,0,4.018-8.044c0-4.459-2.675-7.229-6.981-7.229s-6.982,2.77-6.982,7.229a9.315,9.315,0,0,0,4,8.034,31.923,31.923,0,0,0-5.043.86c-4.13,1.062-6.4,3.314-6.4,6.342v12.3a.891.891,0,1,0,1.781,0v-12.3c0-2.74,2.755-4.023,5.066-4.617a30.623,30.623,0,0,1,15.165,0c1.889.468,5.06,1.692,5.06,4.615v12.3a.891.891,0,0,0,1.781,0v-12.3C65.9,49.688,63.559,47.376,59.484,46.365ZM46.268,37.473c0-3.462,1.9-5.448,5.2-5.448s5.2,1.986,5.2,5.448c0,3.923-2.333,7.115-5.2,7.115S46.268,41.4,46.268,37.473ZM44.974,55.536v9.469a.89.89,0,1,1-1.781,0V55.536a.89.89,0,1,1,1.781,0Zm14.771,0v9.469a.891.891,0,0,1-1.781,0V55.536a.891.891,0,1,1,1.781,0ZM33.879,10.909a.89.89,0,1,1-1.259,1.259L29.505,9.054a.89.89,0,0,1,0-1.259L32.62,4.681A.89.89,0,1,1,33.879,5.94L32.285,7.534h14.91A5.171,5.171,0,0,1,52.36,12.7V24.61a.891.891,0,1,1-1.781,0V12.7a3.388,3.388,0,0,0-3.384-3.384H32.285ZM32.3,57.63a.89.89,0,0,1,0,1.259L29.19,62a.89.89,0,0,1-1.259-1.259l1.594-1.594H18.505a5.171,5.171,0,0,1-5.165-5.164V39.975a.891.891,0,1,1,1.781,0V53.986a3.387,3.387,0,0,0,3.384,3.384H29.525l-1.594-1.594a.89.89,0,1,1,1.259-1.259ZM7.93,25.289v9.47a.891.891,0,1,1-1.781,0v-9.47a.891.891,0,1,1,1.781,0ZM21.809,24.4a.891.891,0,0,1,.891.891v9.47a.891.891,0,0,1-1.781,0v-9.47a.891.891,0,0,1,.891-.891Zm.2-6.551c1.889.468,5.06,1.692,5.06,4.615v12.3a.891.891,0,1,0,1.781,0v-12.3c0-3.021-2.337-5.333-6.412-6.344a34.2,34.2,0,0,0-5.051-.849,9.309,9.309,0,0,0,4.018-8.043C21.406,2.768,18.73,0,14.424,0S7.443,2.768,7.443,7.227a9.316,9.316,0,0,0,4,8.034,31.91,31.91,0,0,0-5.042.86C2.272,17.182,0,19.434,0,22.463v12.3a.891.891,0,1,0,1.781,0v-12.3c0-2.74,2.755-4.023,5.067-4.617a30.624,30.624,0,0,1,15.164,0ZM9.224,7.227c0-3.462,1.9-5.448,5.2-5.448s5.2,1.986,5.2,5.448c0,3.923-2.333,7.115-5.2,7.115s-5.2-3.192-5.2-7.115Z" fill-rule="evenodd"/>
    </g>
  </g>
</svg>
