<svg xmlns="http://www.w3.org/2000/svg" width="295" height="337" viewBox="0 0 295 337">
  <g id="Grupo_1114368" data-name="Grupo 1114368" transform="translate(-1125 -911.925)">
    <rect id="Rectángulo_411753" data-name="Rectángulo 411753" width="295" height="337" transform="translate(1125 911.925)" fill="#fe9ab8"/>
    <g id="_8497414_3937462" data-name="8497414_3937462" transform="translate(1102.444 879.393)">
      <g id="Background_Complete" transform="translate(22.556 54.952)">
        <g id="Grupo_1114323" data-name="Grupo 1114323">
          <rect id="Rectángulo_412312" data-name="Rectángulo 412312" width="294.816" height="0.147" transform="translate(0 227.916)" fill="#ebebeb"/>
          <rect id="Rectángulo_412313" data-name="Rectángulo 412313" width="23.053" height="0.174" transform="translate(263.487 239.106)" fill="#ebebeb"/>
          <rect id="Rectángulo_412314" data-name="Rectángulo 412314" width="6.05" height="0.174" transform="translate(197.887 240.995)" fill="#ebebeb"/>
          <rect id="Rectángulo_412315" data-name="Rectángulo 412315" width="13.358" height="0.174" transform="translate(249.432 232.643)" fill="#ebebeb"/>
          <rect id="Rectángulo_412316" data-name="Rectángulo 412316" width="30.062" height="0.174" transform="translate(9.919 233.812)" fill="#ebebeb"/>
          <rect id="Rectángulo_412317" data-name="Rectángulo 412317" width="4.408" height="0.174" transform="translate(46.179 233.812)" fill="#ebebeb"/>
          <rect id="Rectángulo_412318" data-name="Rectángulo 412318" width="65.199" height="0.174" transform="translate(64.912 236.751)" fill="#ebebeb"/>
          <path id="Trazado_918947" data-name="Trazado 918947" d="M176.577,251.815H42.18a3.978,3.978,0,0,1-3.973-3.973V58.925a3.978,3.978,0,0,1,3.973-3.973h134.4a3.977,3.977,0,0,1,3.972,3.973V247.842A3.977,3.977,0,0,1,176.577,251.815ZM42.18,55.127a3.8,3.8,0,0,0-3.8,3.8V247.843a3.8,3.8,0,0,0,3.8,3.8h134.4a3.8,3.8,0,0,0,3.8-3.8V58.925a3.8,3.8,0,0,0-3.8-3.8H42.18Z" transform="translate(-38.207 -54.952)" fill="#ebebeb"/>
          <path id="Trazado_918948" data-name="Trazado 918948" d="M392.874,251.815h-134.4a3.977,3.977,0,0,1-3.972-3.973V58.925a3.977,3.977,0,0,1,3.972-3.973h134.4a3.977,3.977,0,0,1,3.973,3.973V247.842A3.977,3.977,0,0,1,392.874,251.815ZM258.477,55.127a3.8,3.8,0,0,0-3.8,3.8V247.843a3.8,3.8,0,0,0,3.8,3.8h134.4a3.8,3.8,0,0,0,3.8-3.8V58.925a3.8,3.8,0,0,0-3.8-3.8h-134.4Z" transform="translate(-103.961 -54.952)" fill="#ebebeb"/>
        </g>
        <g id="Grupo_1114329" data-name="Grupo 1114329" transform="translate(11.358 6.576)">
          <g id="Grupo_1114324" data-name="Grupo 1114324" transform="translate(61.168 139.043)">
            <rect id="Rectángulo_412319" data-name="Rectángulo 412319" width="100.968" height="64.226" fill="#ebebeb"/>
            <rect id="Rectángulo_412320" data-name="Rectángulo 412320" width="100.968" height="4.352" fill="#e0e0e0"/>
            <circle id="Elipse_13983" data-name="Elipse 13983" cx="1.311" cy="1.311" r="1.311" transform="translate(96.844 0.865)" fill="#fafafa"/>
            <circle id="Elipse_13984" data-name="Elipse 13984" cx="1.311" cy="1.311" r="1.311" transform="translate(92.487 0.865)" fill="#fafafa"/>
            <circle id="Elipse_13985" data-name="Elipse 13985" cx="1.311" cy="1.311" r="1.311" transform="translate(88.13 0.865)" fill="#fafafa"/>
          </g>
          <g id="Grupo_1114325" data-name="Grupo 1114325" transform="translate(117.566 156.989)">
            <rect id="Rectángulo_412321" data-name="Rectángulo 412321" width="100.968" height="64.226" fill="#f5f5f5"/>
            <rect id="Rectángulo_412322" data-name="Rectángulo 412322" width="100.968" height="4.352" fill="#e0e0e0"/>
            <path id="Trazado_918949" data-name="Trazado 918949" d="M365.208,292.512A1.311,1.311,0,1,1,363.9,291.2,1.311,1.311,0,0,1,365.208,292.512Z" transform="translate(-265.742 -290.336)" fill="#fafafa"/>
            <path id="Trazado_918950" data-name="Trazado 918950" d="M358.949,292.512a1.311,1.311,0,1,1-1.311-1.311A1.311,1.311,0,0,1,358.949,292.512Z" transform="translate(-263.839 -290.336)" fill="#fafafa"/>
            <path id="Trazado_918951" data-name="Trazado 918951" d="M352.688,292.512a1.311,1.311,0,1,1-1.311-1.311A1.311,1.311,0,0,1,352.688,292.512Z" transform="translate(-261.936 -290.336)" fill="#fafafa"/>
          </g>
          <path id="Trazado_918952" data-name="Trazado 918952" d="M248.969,80.05c-.086,0-.17.008-.254.013a9.987,9.987,0,0,0-9.846-11.836c-.026,0-.051,0-.077,0a7.64,7.64,0,0,0-13.4.28,8.386,8.386,0,0,0-10.548,7.825,7.627,7.627,0,0,0,6.383,13.537h26.234a5.027,5.027,0,1,0,1.506-9.823Z" transform="translate(-102.324 -64.4)" fill="#ebebeb"/>
          <path id="Trazado_918953" data-name="Trazado 918953" d="M368.247,110.038c-.066,0-.13.006-.195.01a7.646,7.646,0,0,0-7.538-9.062l-.059,0a5.85,5.85,0,0,0-10.258.215,6.421,6.421,0,0,0-8.076,5.991,5.842,5.842,0,0,0,5.1,10.311h19.729a3.847,3.847,0,1,0,1.3-7.467Z" transform="translate(-141.235 -74.631)" fill="#ebebeb"/>
          <path id="Trazado_918954" data-name="Trazado 918954" d="M140.247,118.038c-.065,0-.13.006-.195.01a7.646,7.646,0,0,0-7.538-9.062l-.059,0a5.85,5.85,0,0,0-10.258.215,6.421,6.421,0,0,0-8.076,5.991,5.842,5.842,0,0,0,5.1,10.311h19.729a3.847,3.847,0,1,0,1.3-7.467Z" transform="translate(-71.923 -77.063)" fill="#ebebeb"/>
          <g id="Grupo_1114326" data-name="Grupo 1114326" transform="translate(0 194.607)">
            <path id="Trazado_918955" data-name="Trazado 918955" d="M71.408,345.938l-.876-1.217a1.694,1.694,0,0,0-1.363-.713H63a1.483,1.483,0,0,0-1.281.713l-.735,1.217a1.483,1.483,0,0,1-1.281.713h-3.68a1.49,1.49,0,0,0-1.5,1.6l1.192,20.6a1.714,1.714,0,0,0,1.683,1.6H86.57a1.488,1.488,0,0,0,1.5-1.6l-1.192-20.6a1.713,1.713,0,0,0-1.682-1.6H72.771A1.691,1.691,0,0,1,71.408,345.938Z" transform="translate(-54.526 -344.007)" fill="#e0e0e0"/>
            <path id="Trazado_918956" data-name="Trazado 918956" d="M89.44,350.626H62.719a2.243,2.243,0,0,0-2.2,2l-1.606,17.834a1.806,1.806,0,0,0,1.837,2H87.473a2.243,2.243,0,0,0,2.2-2l1.606-17.834A1.805,1.805,0,0,0,89.44,350.626Z" transform="translate(-55.858 -346.019)" fill="#f0f0f0"/>
          </g>
          <g id="Grupo_1114327" data-name="Grupo 1114327" transform="translate(235.898 194.9)">
            <path id="Trazado_918957" data-name="Trazado 918957" d="M410.341,346.359l-.876-1.218a1.694,1.694,0,0,0-1.363-.713h-6.167a1.483,1.483,0,0,0-1.281.713l-.734,1.218a1.483,1.483,0,0,1-1.281.713h-3.68a1.489,1.489,0,0,0-1.5,1.6l1.192,20.6a1.713,1.713,0,0,0,1.682,1.6H425.5a1.489,1.489,0,0,0,1.5-1.6l-1.192-20.6a1.713,1.713,0,0,0-1.682-1.6H411.7A1.694,1.694,0,0,1,410.341,346.359Z" transform="translate(-393.46 -344.428)" fill="#e0e0e0"/>
            <path id="Trazado_918958" data-name="Trazado 918958" d="M428.373,351.047H401.652a2.243,2.243,0,0,0-2.2,2l-1.606,17.835a1.806,1.806,0,0,0,1.837,2h26.721a2.243,2.243,0,0,0,2.2-2l1.606-17.835A1.807,1.807,0,0,0,428.373,351.047Z" transform="translate(-394.792 -346.44)" fill="#f0f0f0"/>
          </g>
          <g id="Grupo_1114328" data-name="Grupo 1114328" transform="translate(151.859 178.259)">
            <path id="Trazado_918959" data-name="Trazado 918959" d="M289.6,322.45l-.876-1.218a1.694,1.694,0,0,0-1.363-.713H281.19a1.483,1.483,0,0,0-1.281.713l-.735,1.218a1.483,1.483,0,0,1-1.281.713h-3.68a1.49,1.49,0,0,0-1.5,1.6l1.192,20.6a1.713,1.713,0,0,0,1.682,1.6h29.167a1.489,1.489,0,0,0,1.5-1.6l-1.192-20.6a1.713,1.713,0,0,0-1.682-1.6H290.958A1.7,1.7,0,0,1,289.6,322.45Z" transform="translate(-272.714 -320.519)" fill="#e0e0e0"/>
            <path id="Trazado_918960" data-name="Trazado 918960" d="M307.629,327.138H280.908a2.243,2.243,0,0,0-2.2,2L277.1,346.974a1.806,1.806,0,0,0,1.837,2h26.721a2.243,2.243,0,0,0,2.2-2l1.606-17.835A1.806,1.806,0,0,0,307.629,327.138Z" transform="translate(-274.046 -322.531)" fill="#f0f0f0"/>
          </g>
        </g>
      </g>
      <g id="Shadow_1_" transform="translate(35.017 298.527)">
        <ellipse id="_x3C_Path_x3E__359_" cx="134.947" cy="7.881" rx="134.947" ry="7.881" fill="#f5f5f5"/>
      </g>
      <g id="Script" transform="translate(37.429 105.107)">
        <g id="Grupo_1114333" data-name="Grupo 1114333">
          <g id="Grupo_1114330" data-name="Grupo 1114330">
            <path id="Trazado_918961" data-name="Trazado 918961" d="M130.6,251.525H61.227a1.651,1.651,0,0,1-1.651-1.651V128.665a1.651,1.651,0,0,1,1.651-1.651H130.6a1.651,1.651,0,0,1,1.651,1.651V249.874A1.651,1.651,0,0,1,130.6,251.525Z" transform="translate(-59.576 -127.014)" fill="#407bff"/>
            <path id="Trazado_918962" data-name="Trazado 918962" d="M130.6,251.525H61.227a1.651,1.651,0,0,1-1.651-1.651V128.665a1.651,1.651,0,0,1,1.651-1.651H130.6a1.651,1.651,0,0,1,1.651,1.651V249.874A1.651,1.651,0,0,1,130.6,251.525Z" transform="translate(-59.576 -127.014)" fill="#fff" opacity="0.7"/>
          </g>
          <g id="Grupo_1114331" data-name="Grupo 1114331" transform="translate(4.935 3.935)">
            <rect id="Rectángulo_412323" data-name="Rectángulo 412323" width="13.688" height="1.856" transform="translate(0 11.838)" fill="#407bff"/>
            <rect id="Rectángulo_412324" data-name="Rectángulo 412324" width="13.688" height="1.856" transform="translate(0 16.014)" fill="#407bff"/>
            <rect id="Rectángulo_412325" data-name="Rectángulo 412325" width="13.688" height="1.856" transform="translate(48.751 11.838)" fill="#407bff"/>
            <rect id="Rectángulo_412326" data-name="Rectángulo 412326" width="13.688" height="1.856" transform="translate(23.23 3.248)" fill="#407bff"/>
            <rect id="Rectángulo_412327" data-name="Rectángulo 412327" width="62.439" height="1.856" fill="#407bff"/>
            <rect id="Rectángulo_412328" data-name="Rectángulo 412328" width="55.474" height="1.856" transform="translate(6.964 21.808)" fill="#407bff"/>
            <rect id="Rectángulo_412329" data-name="Rectángulo 412329" width="62.439" height="1.856" transform="translate(0 25.52)" fill="#407bff"/>
            <rect id="Rectángulo_412330" data-name="Rectángulo 412330" width="62.439" height="1.856" transform="translate(0 29.232)" fill="#407bff"/>
            <rect id="Rectángulo_412331" data-name="Rectángulo 412331" width="62.439" height="1.856" transform="translate(0 32.944)" fill="#407bff"/>
            <rect id="Rectángulo_412332" data-name="Rectángulo 412332" width="55.474" height="1.856" transform="translate(0 36.656)" fill="#407bff"/>
            <rect id="Rectángulo_412333" data-name="Rectángulo 412333" width="55.474" height="1.856" transform="translate(6.964 43.398)" fill="#407bff"/>
            <rect id="Rectángulo_412334" data-name="Rectángulo 412334" width="62.439" height="1.856" transform="translate(0 47.11)" fill="#407bff"/>
            <rect id="Rectángulo_412335" data-name="Rectángulo 412335" width="62.439" height="1.856" transform="translate(0 50.821)" fill="#407bff"/>
            <rect id="Rectángulo_412336" data-name="Rectángulo 412336" width="62.439" height="1.856" transform="translate(0 54.534)" fill="#407bff"/>
            <rect id="Rectángulo_412337" data-name="Rectángulo 412337" width="55.474" height="1.856" transform="translate(0 58.246)" fill="#407bff"/>
            <rect id="Rectángulo_412338" data-name="Rectángulo 412338" width="55.474" height="1.856" transform="translate(6.964 64.987)" fill="#407bff"/>
            <rect id="Rectángulo_412339" data-name="Rectángulo 412339" width="62.439" height="1.856" transform="translate(0 68.699)" fill="#407bff"/>
            <rect id="Rectángulo_412340" data-name="Rectángulo 412340" width="62.439" height="1.856" transform="translate(0 72.411)" fill="#407bff"/>
            <rect id="Rectángulo_412341" data-name="Rectángulo 412341" width="62.439" height="1.856" transform="translate(0 76.123)" fill="#407bff"/>
            <rect id="Rectángulo_412342" data-name="Rectángulo 412342" width="55.474" height="1.856" transform="translate(0 79.835)" fill="#407bff"/>
            <rect id="Rectángulo_412343" data-name="Rectángulo 412343" width="55.474" height="1.856" transform="translate(6.964 87.273)" fill="#407bff"/>
            <rect id="Rectángulo_412344" data-name="Rectángulo 412344" width="62.439" height="1.856" transform="translate(0 90.985)" fill="#407bff"/>
            <rect id="Rectángulo_412345" data-name="Rectángulo 412345" width="62.439" height="1.856" transform="translate(0 94.697)" fill="#407bff"/>
            <rect id="Rectángulo_412346" data-name="Rectángulo 412346" width="62.439" height="1.856" transform="translate(0 98.409)" fill="#407bff"/>
            <rect id="Rectángulo_412347" data-name="Rectángulo 412347" width="55.474" height="1.856" transform="translate(0 102.121)" fill="#407bff"/>
            <rect id="Rectángulo_412348" data-name="Rectángulo 412348" width="13.688" height="1.856" transform="translate(48.751 112.822)" fill="#407bff"/>
          </g>
          <g id="Grupo_1114332" data-name="Grupo 1114332" transform="translate(4.935 3.935)" opacity="0.2">
            <rect id="Rectángulo_412349" data-name="Rectángulo 412349" width="13.688" height="1.856" transform="translate(0 11.838)" fill="#fff"/>
            <rect id="Rectángulo_412350" data-name="Rectángulo 412350" width="13.688" height="1.856" transform="translate(0 16.014)" fill="#fff"/>
            <rect id="Rectángulo_412351" data-name="Rectángulo 412351" width="13.688" height="1.856" transform="translate(48.751 11.838)" fill="#fff"/>
            <rect id="Rectángulo_412352" data-name="Rectángulo 412352" width="13.688" height="1.856" transform="translate(23.23 3.248)" fill="#fff"/>
            <rect id="Rectángulo_412353" data-name="Rectángulo 412353" width="62.439" height="1.856" fill="#fff"/>
            <rect id="Rectángulo_412354" data-name="Rectángulo 412354" width="55.474" height="1.856" transform="translate(6.964 21.808)" fill="#fff"/>
            <rect id="Rectángulo_412355" data-name="Rectángulo 412355" width="62.439" height="1.856" transform="translate(0 25.52)" fill="#fff"/>
            <rect id="Rectángulo_412356" data-name="Rectángulo 412356" width="62.439" height="1.856" transform="translate(0 29.232)" fill="#fff"/>
            <rect id="Rectángulo_412357" data-name="Rectángulo 412357" width="62.439" height="1.856" transform="translate(0 32.944)" fill="#fff"/>
            <rect id="Rectángulo_412358" data-name="Rectángulo 412358" width="55.474" height="1.856" transform="translate(0 36.656)" fill="#fff"/>
            <rect id="Rectángulo_412359" data-name="Rectángulo 412359" width="55.474" height="1.856" transform="translate(6.964 43.398)" fill="#fff"/>
            <rect id="Rectángulo_412360" data-name="Rectángulo 412360" width="62.439" height="1.856" transform="translate(0 47.11)" fill="#fff"/>
            <rect id="Rectángulo_412361" data-name="Rectángulo 412361" width="62.439" height="1.856" transform="translate(0 50.821)" fill="#fff"/>
            <rect id="Rectángulo_412362" data-name="Rectángulo 412362" width="62.439" height="1.856" transform="translate(0 54.534)" fill="#fff"/>
            <rect id="Rectángulo_412363" data-name="Rectángulo 412363" width="55.474" height="1.856" transform="translate(0 58.246)" fill="#fff"/>
            <rect id="Rectángulo_412364" data-name="Rectángulo 412364" width="55.474" height="1.856" transform="translate(6.964 64.987)" fill="#fff"/>
            <rect id="Rectángulo_412365" data-name="Rectángulo 412365" width="62.439" height="1.856" transform="translate(0 68.699)" fill="#fff"/>
            <rect id="Rectángulo_412366" data-name="Rectángulo 412366" width="62.439" height="1.856" transform="translate(0 72.411)" fill="#fff"/>
            <rect id="Rectángulo_412367" data-name="Rectángulo 412367" width="62.439" height="1.856" transform="translate(0 76.123)" fill="#fff"/>
            <rect id="Rectángulo_412368" data-name="Rectángulo 412368" width="55.474" height="1.856" transform="translate(0 79.835)" fill="#fff"/>
            <rect id="Rectángulo_412369" data-name="Rectángulo 412369" width="55.474" height="1.856" transform="translate(6.964 87.273)" fill="#fff"/>
            <rect id="Rectángulo_412370" data-name="Rectángulo 412370" width="62.439" height="1.856" transform="translate(0 90.985)" fill="#fff"/>
            <rect id="Rectángulo_412371" data-name="Rectángulo 412371" width="62.439" height="1.856" transform="translate(0 94.697)" fill="#fff"/>
            <rect id="Rectángulo_412372" data-name="Rectángulo 412372" width="62.439" height="1.856" transform="translate(0 98.409)" fill="#fff"/>
            <rect id="Rectángulo_412373" data-name="Rectángulo 412373" width="55.474" height="1.856" transform="translate(0 102.121)" fill="#fff"/>
            <rect id="Rectángulo_412374" data-name="Rectángulo 412374" width="13.688" height="1.856" transform="translate(48.751 112.822)" fill="#fff"/>
          </g>
        </g>
      </g>
      <g id="Data4" transform="translate(71.588 201.355)">
        <g id="Grupo_1114336" data-name="Grupo 1114336">
          <path id="Trazado_918963" data-name="Trazado 918963" d="M149.006,300.193H110.3a1.649,1.649,0,0,1-1.649-1.649V266.949A1.649,1.649,0,0,1,110.3,265.3h38.7a1.649,1.649,0,0,1,1.649,1.649v31.595A1.649,1.649,0,0,1,149.006,300.193Z" transform="translate(-108.655 -265.3)" opacity="0.1"/>
          <g id="Grupo_1114334" data-name="Grupo 1114334" transform="translate(5.18 6.604)">
            <path id="Trazado_918964" data-name="Trazado 918964" d="M156.449,309.681h-38.7a1.649,1.649,0,0,1-1.649-1.649v-31.6a1.649,1.649,0,0,1,1.649-1.649h38.7a1.649,1.649,0,0,1,1.649,1.649v31.6A1.649,1.649,0,0,1,156.449,309.681Z" transform="translate(-116.098 -274.788)" fill="#407bff"/>
            <path id="Trazado_918965" data-name="Trazado 918965" d="M156.449,309.681h-38.7a1.649,1.649,0,0,1-1.649-1.649v-31.6a1.649,1.649,0,0,1,1.649-1.649h38.7a1.649,1.649,0,0,1,1.649,1.649v31.6A1.649,1.649,0,0,1,156.449,309.681Z" transform="translate(-116.098 -274.788)" fill="#fff" opacity="0.3"/>
          </g>
          <g id="Grupo_1114335" data-name="Grupo 1114335" transform="translate(9.288 10.927)">
            <rect id="Rectángulo_412375" data-name="Rectángulo 412375" width="8.352" height="4.176" transform="translate(0 16.008)" fill="#407bff"/>
            <rect id="Rectángulo_412376" data-name="Rectángulo 412376" width="23.664" height="4.176" transform="translate(9.048 16.008)" fill="#407bff"/>
            <rect id="Rectángulo_412377" data-name="Rectángulo 412377" width="8.352" height="4.872" transform="translate(0 10.44)" fill="#407bff"/>
            <rect id="Rectángulo_412378" data-name="Rectángulo 412378" width="8.352" height="4.176" transform="translate(0 5.568)" fill="#407bff"/>
            <rect id="Rectángulo_412379" data-name="Rectángulo 412379" width="23.664" height="4.872" transform="translate(9.048 10.44)" fill="#407bff"/>
            <rect id="Rectángulo_412380" data-name="Rectángulo 412380" width="23.664" height="4.872" transform="translate(9.048 20.88)" fill="#407bff"/>
            <rect id="Rectángulo_412381" data-name="Rectángulo 412381" width="23.664" height="4.176" transform="translate(9.048 5.568)" fill="#407bff"/>
            <rect id="Rectángulo_412382" data-name="Rectángulo 412382" width="8.352" height="4.872" transform="translate(0 20.88)" fill="#407bff"/>
            <rect id="Rectángulo_412383" data-name="Rectángulo 412383" width="8.352" height="4.872" fill="#407bff"/>
            <rect id="Rectángulo_412384" data-name="Rectángulo 412384" width="23.664" height="4.872" transform="translate(9.048)" fill="#407bff"/>
          </g>
        </g>
      </g>
      <g id="Data3" transform="translate(83.608 139.376)">
        <g id="Grupo_1114339" data-name="Grupo 1114339" transform="translate(0 0)">
          <path id="Trazado_918966" data-name="Trazado 918966" d="M166.276,213.512h-38.7a1.649,1.649,0,0,1-1.649-1.649V180.268a1.649,1.649,0,0,1,1.649-1.649h38.7a1.649,1.649,0,0,1,1.649,1.649v31.595A1.649,1.649,0,0,1,166.276,213.512Z" transform="translate(-125.925 -176.971)" opacity="0.1"/>
          <g id="Grupo_1114337" data-name="Grupo 1114337" transform="translate(7.776)">
            <path id="Trazado_918967" data-name="Trazado 918967" d="M177.449,211.143h-38.7a1.649,1.649,0,0,1-1.649-1.649V177.9a1.649,1.649,0,0,1,1.649-1.649h38.7A1.649,1.649,0,0,1,179.1,177.9v31.6A1.649,1.649,0,0,1,177.449,211.143Z" transform="translate(-137.098 -176.251)" fill="#407bff"/>
            <path id="Trazado_918968" data-name="Trazado 918968" d="M177.449,211.143h-38.7a1.649,1.649,0,0,1-1.649-1.649V177.9a1.649,1.649,0,0,1,1.649-1.649h38.7A1.649,1.649,0,0,1,179.1,177.9v31.6A1.649,1.649,0,0,1,177.449,211.143Z" transform="translate(-137.098 -176.251)" fill="#fff" opacity="0.3"/>
          </g>
          <g id="Grupo_1114338" data-name="Grupo 1114338" transform="translate(12.58 4.697)">
            <rect id="Rectángulo_412385" data-name="Rectángulo 412385" width="10.44" height="4.872" transform="translate(22.272)" fill="#407bff"/>
            <rect id="Rectángulo_412386" data-name="Rectángulo 412386" width="10.44" height="4.872" transform="translate(11.136)" fill="#407bff"/>
            <rect id="Rectángulo_412387" data-name="Rectángulo 412387" width="10.44" height="20.88" transform="translate(11.136 4.872)" fill="#407bff"/>
            <rect id="Rectángulo_412388" data-name="Rectángulo 412388" width="10.44" height="20.88" transform="translate(22.272 4.872)" fill="#407bff"/>
            <rect id="Rectángulo_412389" data-name="Rectángulo 412389" width="10.44" height="4.872" fill="#407bff"/>
            <rect id="Rectángulo_412390" data-name="Rectángulo 412390" width="10.44" height="20.88" transform="translate(0 4.872)" fill="#407bff"/>
          </g>
        </g>
      </g>
      <g id="Data2" transform="translate(96.765 175.394)">
        <g id="Grupo_1114342" data-name="Grupo 1114342">
          <path id="Trazado_918969" data-name="Trazado 918969" d="M185.179,266.127h-38.7a1.649,1.649,0,0,1-1.649-1.649V232.883a1.649,1.649,0,0,1,1.649-1.649h38.7a1.649,1.649,0,0,1,1.649,1.649v31.595A1.65,1.65,0,0,1,185.179,266.127Z" transform="translate(-144.828 -228.983)" opacity="0.1"/>
          <g id="Grupo_1114340" data-name="Grupo 1114340" transform="translate(14.108 0.013)">
            <path id="Trazado_918970" data-name="Trazado 918970" d="M205.449,262.912h-38.7a1.649,1.649,0,0,1-1.649-1.649V229.668a1.649,1.649,0,0,1,1.649-1.649h38.7a1.649,1.649,0,0,1,1.649,1.649v31.595A1.649,1.649,0,0,1,205.449,262.912Z" transform="translate(-165.098 -228.019)" fill="#407bff"/>
            <path id="Trazado_918971" data-name="Trazado 918971" d="M205.449,262.912h-38.7a1.649,1.649,0,0,1-1.649-1.649V229.668a1.649,1.649,0,0,1,1.649-1.649h38.7a1.649,1.649,0,0,1,1.649,1.649v31.595A1.649,1.649,0,0,1,205.449,262.912Z" transform="translate(-165.098 -228.019)" fill="#fff" opacity="0.3"/>
          </g>
          <g id="Grupo_1114341" data-name="Grupo 1114341" transform="translate(18.912 4.872)">
            <rect id="Rectángulo_412391" data-name="Rectángulo 412391" width="16.008" height="11.832" transform="translate(16.704)" fill="#407bff"/>
            <rect id="Rectángulo_412392" data-name="Rectángulo 412392" width="16.008" height="11.832" fill="#407bff"/>
            <rect id="Rectángulo_412393" data-name="Rectángulo 412393" width="16.008" height="13.224" transform="translate(0 12.528)" fill="#407bff"/>
            <rect id="Rectángulo_412394" data-name="Rectángulo 412394" width="16.008" height="13.224" transform="translate(16.704 12.528)" fill="#407bff"/>
          </g>
          <path id="Trazado_918972" data-name="Trazado 918972" d="M217.4,229.663v23.393H202.972a2.886,2.886,0,0,1-2.972-3.1V228h16.057C216.969,228,217.4,228.752,217.4,229.663Z" transform="translate(-161.6 -228)" opacity="0.2"/>
        </g>
      </g>
      <g id="Data1" transform="translate(97.644 101.953)">
        <g id="Grupo_1114345" data-name="Grupo 1114345" transform="translate(0 0)">
          <path id="Trazado_918973" data-name="Trazado 918973" d="M186.442,166.38h-38.7a1.649,1.649,0,0,1-1.649-1.649v-31.6a1.649,1.649,0,0,1,1.649-1.649h38.7a1.649,1.649,0,0,1,1.649,1.649v31.6A1.648,1.648,0,0,1,186.442,166.38Z" transform="translate(-146.091 -125.219)" opacity="0.1"/>
          <g id="Grupo_1114343" data-name="Grupo 1114343" transform="translate(6.965)">
            <path id="Trazado_918974" data-name="Trazado 918974" d="M196.449,157.375h-38.7a1.649,1.649,0,0,1-1.649-1.649V124.131a1.649,1.649,0,0,1,1.649-1.649h38.7a1.649,1.649,0,0,1,1.649,1.649v31.595A1.65,1.65,0,0,1,196.449,157.375Z" transform="translate(-156.098 -122.482)" fill="#407bff"/>
            <path id="Trazado_918975" data-name="Trazado 918975" d="M196.449,157.375h-38.7a1.649,1.649,0,0,1-1.649-1.649V124.131a1.649,1.649,0,0,1,1.649-1.649h38.7a1.649,1.649,0,0,1,1.649,1.649v31.595A1.65,1.65,0,0,1,196.449,157.375Z" transform="translate(-156.098 -122.482)" fill="#fff" opacity="0.3"/>
          </g>
          <g id="Grupo_1114344" data-name="Grupo 1114344" transform="translate(11.769 4.537)">
            <rect id="Rectángulo_412395" data-name="Rectángulo 412395" width="13.224" height="3.48" transform="translate(11.832)" fill="#407bff"/>
            <rect id="Rectángulo_412396" data-name="Rectángulo 412396" width="6.264" height="21.576" transform="translate(11.832 4.176)" fill="#407bff"/>
            <rect id="Rectángulo_412397" data-name="Rectángulo 412397" width="6.96" height="3.48" transform="translate(25.752)" fill="#407bff"/>
            <rect id="Rectángulo_412398" data-name="Rectángulo 412398" width="6.96" height="21.576" transform="translate(25.752 4.176)" fill="#407bff"/>
            <rect id="Rectángulo_412399" data-name="Rectángulo 412399" width="6.264" height="21.576" transform="translate(18.792 4.176)" fill="#407bff"/>
            <rect id="Rectángulo_412400" data-name="Rectángulo 412400" width="11.136" height="21.576" transform="translate(0 4.176)" fill="#407bff"/>
            <rect id="Rectángulo_412401" data-name="Rectángulo 412401" width="11.136" height="3.48" fill="#407bff"/>
          </g>
        </g>
      </g>
      <g id="Visual4" transform="translate(209.636 183.533)">
        <g id="Grupo_1114348" data-name="Grupo 1114348">
          <g id="Grupo_1114347" data-name="Grupo 1114347" transform="translate(0.207)">
            <path id="Trazado_918976" data-name="Trazado 918976" d="M357.963,293.634H310.573a3.275,3.275,0,0,1-3.275-3.275V242.969a3.275,3.275,0,0,1,3.275-3.275h47.389a3.275,3.275,0,0,1,3.275,3.275v47.389A3.275,3.275,0,0,1,357.963,293.634Z" transform="translate(-307.298 -239.694)" fill="#407bff"/>
            <g id="Grupo_1114346" data-name="Grupo 1114346" transform="translate(7.047 7.047)">
              <rect id="Rectángulo_412402" data-name="Rectángulo 412402" width="40.074" height="39.846" fill="#fff" opacity="0.25"/>
              <path id="Trazado_918977" data-name="Trazado 918977" d="M317.423,298.893l10.2-8.388,3.335,2.686,10.564-8.923,5.189,5.109,10.783-9.044v18.56Z" transform="translate(-317.423 -259.095)" fill="#fff" opacity="0.25"/>
              <path id="Trazado_918978" data-name="Trazado 918978" d="M317.423,294.283l8.637-16.2,10.093,1.576,7.539-9.854,7.772,1.395,6.032-6.029v29.116Z" transform="translate(-317.423 -254.485)" fill="#fff" opacity="0.25"/>
              <path id="Trazado_918979" data-name="Trazado 918979" d="M317.423,303.352l19.923-2.46,6.462-3.236,6.96.7L357.5,295v8.352Z" transform="translate(-317.423 -263.554)" fill="#fff" opacity="0.25"/>
            </g>
          </g>
          <path id="Trazado_918980" data-name="Trazado 918980" d="M355.72,240v5.6a3.635,3.635,0,0,1-3.508,3.452H313.264V265.39a3.323,3.323,0,0,1-3.452,3.146H307V243.062A3.282,3.282,0,0,1,310.48,240Z" transform="translate(-307 -239.787)" opacity="0.2"/>
        </g>
      </g>
      <g id="Visual3" transform="translate(144.15 137.728)">
        <g id="Grupo_1114353" data-name="Grupo 1114353" transform="translate(0 0)">
          <g id="Grupo_1114352" data-name="Grupo 1114352">
            <path id="Trazado_918981" data-name="Trazado 918981" d="M263.576,227.823H216.186a3.275,3.275,0,0,1-3.275-3.275V177.158a3.275,3.275,0,0,1,3.275-3.275h47.389a3.275,3.275,0,0,1,3.275,3.275v47.389A3.275,3.275,0,0,1,263.576,227.823Z" transform="translate(-212.911 -173.883)" fill="#407bff"/>
            <g id="Grupo_1114351" data-name="Grupo 1114351" transform="translate(5.648 5.626)">
              <path id="Trazado_918982" data-name="Trazado 918982" d="M255.157,191.038H241.232a.606.606,0,0,1-.606-.606v-7.859a.606.606,0,0,1,.606-.606h13.925a.606.606,0,0,1,.606.606v7.859A.606.606,0,0,1,255.157,191.038Z" transform="translate(-226.984 -181.966)" fill="#fff" opacity="0.8"/>
              <path id="Trazado_918983" data-name="Trazado 918983" d="M241.158,216.926h-11.03a.606.606,0,0,1-.606-.606v-5.712a.606.606,0,0,1,.606-.606h11.03a.606.606,0,0,1,.606.606v5.712A.606.606,0,0,1,241.158,216.926Z" transform="translate(-223.609 -190.489)" fill="#fff" opacity="0.6"/>
              <path id="Trazado_918984" data-name="Trazado 918984" d="M267.847,216.926h-11.03a.606.606,0,0,1-.606-.606v-5.712a.606.606,0,0,1,.606-.606h11.03a.606.606,0,0,1,.606.606v5.712A.606.606,0,0,1,267.847,216.926Z" transform="translate(-231.722 -190.489)" fill="#fff" opacity="0.6"/>
              <g id="Grupo_1114349" data-name="Grupo 1114349" transform="translate(18.885 34.167)">
                <path id="Trazado_918985" data-name="Trazado 918985" d="M253.978,236.971h-5.213a.606.606,0,0,1-.606-.606v-4.7a.606.606,0,0,1,.606-.606h5.213a.606.606,0,0,1,.606.606v4.7A.607.607,0,0,1,253.978,236.971Z" transform="translate(-248.159 -231.056)" fill="#fff" opacity="0.4"/>
                <path id="Trazado_918986" data-name="Trazado 918986" d="M265.7,236.971H260.49a.606.606,0,0,1-.606-.606v-4.7a.606.606,0,0,1,.606-.606H265.7a.606.606,0,0,1,.606.606v4.7A.607.607,0,0,1,265.7,236.971Z" transform="translate(-251.723 -231.056)" fill="#fff" opacity="0.4"/>
                <path id="Trazado_918987" data-name="Trazado 918987" d="M277.429,236.971h-5.213a.606.606,0,0,1-.606-.606v-4.7a.606.606,0,0,1,.606-.606h5.213a.606.606,0,0,1,.606.606v4.7A.607.607,0,0,1,277.429,236.971Z" transform="translate(-255.288 -231.056)" fill="#fff" opacity="0.4"/>
              </g>
              <path id="Trazado_918988" data-name="Trazado 918988" d="M226.845,236.971h-5.213a.606.606,0,0,1-.606-.606v-4.7a.606.606,0,0,1,.606-.606h5.213a.606.606,0,0,1,.606.606v4.7A.606.606,0,0,1,226.845,236.971Z" transform="translate(-221.026 -196.889)" fill="#fff" opacity="0.4"/>
              <path id="Trazado_918989" data-name="Trazado 918989" d="M239.572,236.971h-5.213a.606.606,0,0,1-.606-.606v-4.7a.606.606,0,0,1,.606-.606h5.213a.606.606,0,0,1,.606.606v4.7A.607.607,0,0,1,239.572,236.971Z" transform="translate(-224.895 -196.889)" fill="#fff" opacity="0.4"/>
              <g id="Grupo_1114350" data-name="Grupo 1114350" transform="translate(2.766 9.072)" opacity="0.3">
                <path id="Trazado_918990" data-name="Trazado 918990" d="M256.1,205.44h.7v-4.872h-9.048V195h-.7v5.568H238v4.872h.7v-4.176h17.4Z" transform="translate(-228.952 -195)" fill="#fff"/>
                <path id="Trazado_918991" data-name="Trazado 918991" d="M234.048,224.176H225v3.48h.7v-2.784h8.352v2.784h.7V220h-.7Z" transform="translate(-225 -202.6)" fill="#fff"/>
                <path id="Trazado_918992" data-name="Trazado 918992" d="M261.048,224.872V220h-.7v4.872H252v2.784h.7v-2.088h7.656v2.088h.7v-2.088H268.7v2.088h.7v-2.784Z" transform="translate(-233.208 -202.6)" fill="#fff"/>
              </g>
            </g>
          </g>
          <path id="Trazado_918993" data-name="Trazado 918993" d="M271.76,177.195v15.6H233.529A3.654,3.654,0,0,1,230,189.34V174h38.774A2.975,2.975,0,0,1,271.76,177.195Z" transform="translate(-218.106 -173.919)" opacity="0.2"/>
        </g>
      </g>
      <g id="Visual2" transform="translate(217.988 114.146)">
        <g id="Grupo_1114362" data-name="Grupo 1114362">
          <g id="Grupo_1114361" data-name="Grupo 1114361" transform="translate(0.125 0.129)">
            <path id="Trazado_918994" data-name="Trazado 918994" d="M369.844,194.126H322.454a3.275,3.275,0,0,1-3.275-3.275V143.461a3.275,3.275,0,0,1,3.275-3.275h47.389a3.275,3.275,0,0,1,3.275,3.275v47.389A3.276,3.276,0,0,1,369.844,194.126Z" transform="translate(-319.179 -140.186)" fill="#407bff"/>
            <g id="Grupo_1114360" data-name="Grupo 1114360" transform="translate(6.933 7.047)">
              <rect id="Rectángulo_412403" data-name="Rectángulo 412403" width="40.074" height="39.846" fill="#fff" opacity="0.25"/>
              <g id="Grupo_1114359" data-name="Grupo 1114359" transform="translate(4.09 5.868)">
                <g id="Grupo_1114354" data-name="Grupo 1114354" transform="translate(0 18.626)">
                  <rect id="Rectángulo_412404" data-name="Rectángulo 412404" width="4.035" height="10.347" fill="#fff" opacity="0.35"/>
                  <rect id="Rectángulo_412405" data-name="Rectángulo 412405" width="4.035" height="15.352" fill="#fff" opacity="0.35"/>
                </g>
                <g id="Grupo_1114355" data-name="Grupo 1114355" transform="translate(6.964 11.373)">
                  <rect id="Rectángulo_412406" data-name="Rectángulo 412406" width="4.035" height="15.235" fill="#fff" opacity="0.35"/>
                  <rect id="Rectángulo_412407" data-name="Rectángulo 412407" width="4.035" height="22.605" fill="#fff" opacity="0.35"/>
                </g>
                <g id="Grupo_1114356" data-name="Grupo 1114356" transform="translate(13.929 15.834)">
                  <rect id="Rectángulo_412408" data-name="Rectángulo 412408" width="4.035" height="12.229" fill="#fff" opacity="0.35"/>
                  <rect id="Rectángulo_412409" data-name="Rectángulo 412409" width="4.035" height="18.144" fill="#fff" opacity="0.35"/>
                </g>
                <g id="Grupo_1114357" data-name="Grupo 1114357" transform="translate(20.893 9.57)">
                  <rect id="Rectángulo_412410" data-name="Rectángulo 412410" width="4.035" height="16.451" fill="#fff" opacity="0.35"/>
                  <rect id="Rectángulo_412411" data-name="Rectángulo 412411" width="4.035" height="24.408" fill="#fff" opacity="0.35"/>
                </g>
                <g id="Grupo_1114358" data-name="Grupo 1114358" transform="translate(27.857)">
                  <rect id="Rectángulo_412412" data-name="Rectángulo 412412" width="4.035" height="22.901" fill="#fff" opacity="0.35"/>
                  <rect id="Rectángulo_412413" data-name="Rectángulo 412413" width="4.035" height="33.978" fill="#fff" opacity="0.35"/>
                </g>
              </g>
            </g>
          </g>
          <path id="Trazado_918995" data-name="Trazado 918995" d="M333.616,140v29.51a3.287,3.287,0,0,1-3.362,3.2H319V143.4a3.5,3.5,0,0,1,3.4-3.4Z" transform="translate(-319 -140)" opacity="0.2"/>
        </g>
      </g>
      <g id="Visual1" transform="translate(173.634 77.282)">
        <g id="Grupo_1114364" data-name="Grupo 1114364" transform="translate(0 0)">
          <path id="Trazado_918996" data-name="Trazado 918996" d="M305.937,140.975H258.547a3.275,3.275,0,0,1-3.275-3.275V90.31a3.275,3.275,0,0,1,3.275-3.275h47.389a3.275,3.275,0,0,1,3.275,3.275V137.7A3.275,3.275,0,0,1,305.937,140.975Z" transform="translate(-255.272 -87.035)" fill="#407bff"/>
          <g id="Grupo_1114363" data-name="Grupo 1114363" transform="translate(6.681 6.676)">
            <circle id="Elipse_13986" data-name="Elipse 13986" cx="17.688" cy="17.688" r="17.688" transform="translate(0 34.92) rotate(-80.782)" fill="#fff" opacity="0.25"/>
            <path id="Trazado_918997" data-name="Trazado 918997" d="M286.3,118.059l17.377,3.3A17.688,17.688,0,1,1,286.3,100.371Z" transform="translate(-266.007 -97.765)" fill="#fff" opacity="0.25"/>
            <path id="Trazado_918998" data-name="Trazado 918998" d="M286.3,118.059l-.052,17.688a17.688,17.688,0,0,1,.052-35.376v17.688Z" transform="translate(-266.007 -97.765)" fill="#fff" opacity="0.25"/>
            <path id="Trazado_918999" data-name="Trazado 918999" d="M289.95,118.059l-9.324-15.032a17.688,17.688,0,0,1,9.267-2.657Z" transform="translate(-269.661 -97.765)" fill="#fff" opacity="0.25"/>
          </g>
        </g>
      </g>
      <g id="Character" transform="translate(207.509 95.776)">
        <g id="_x3C_Group_x3E__22_">
          <path id="Trazado_919000" data-name="Trazado 919000" d="M425.051,176s9.4,16.469,10.092,20.414-8,29.176-8,29.176,1.914,6.642-.174,7.758-5.736,3.378-6.261,1.464,0-8.227,0-8.227l1.569-1.343s5.546-26.363,5.554-27.276-10.1-16.46-10.1-16.46Z" transform="translate(-338.533 -132.574)" fill="#e4897b"/>
          <path id="Trazado_919001" data-name="Trazado 919001" d="M375.552,401.71l-5.645.592-.285-3.271-.773-8.9,5.645-.6.856,9.835Z" transform="translate(-323.675 -197.487)" fill="#e4897b"/>
          <path id="Trazado_919002" data-name="Trazado 919002" d="M416.373,400.528H410.9l-.049-1.239-.007-.153-.278-7.934-.007-.16L410.45,388h5.478Z" transform="translate(-336.321 -197.022)" fill="#e4897b"/>
          <path id="Trazado_919003" data-name="Trazado 919003" d="M374.495,389.53l.856,9.835-5.728-.334-.773-8.9Z" transform="translate(-323.675 -197.487)" opacity="0.2"/>
          <path id="Trazado_919004" data-name="Trazado 919004" d="M416.387,401.352h-.007l-5.478-.7H410.9L410.61,393h.007l5.484.439.278,7.673Z" transform="translate(-336.37 -198.542)" opacity="0.2"/>
          <path id="Trazado_919005" data-name="Trazado 919005" d="M429.063,178.639l-9.417,6.4-.181-.23-5.714-7.447-3.5-4.566,5.171-14.059C421.386,161.009,429.063,178.639,429.063,178.639Z" transform="translate(-336.26 -127.327)" fill="#263238"/>
          <path id="Trazado_919006" data-name="Trazado 919006" d="M420.994,189.874l-5.714-7.447,4.587-7.037S422.672,182.656,420.994,189.874Z" transform="translate(-337.789 -132.389)" opacity="0.2"/>
          <path id="Trazado_919007" data-name="Trazado 919007" d="M405.573,405.527h6.647a.481.481,0,0,1,.466.376l1.079,4.872a.807.807,0,0,1-.623.957.8.8,0,0,1-.177.017c-2.151-.035-3.717-.167-6.417-.167-1.663,0-6.682.174-8.978.174s-2.6-2.269-1.656-2.478c4.218-.919,7.392-2.192,8.742-3.4A1.323,1.323,0,0,1,405.573,405.527Z" transform="translate(-331.75 -202.35)" fill="#263238"/>
          <path id="Trazado_919008" data-name="Trazado 919008" d="M365.073,405.277h6.647a.481.481,0,0,1,.466.376l1.079,4.872a.807.807,0,0,1-.623.957.8.8,0,0,1-.177.017c-2.151-.035-3.717-.167-6.417-.167-1.663,0-6.682.174-8.978.174s-2.6-2.269-1.656-2.478c4.218-.919,7.392-2.192,8.742-3.4A1.323,1.323,0,0,1,365.073,405.277Z" transform="translate(-319.438 -202.274)" fill="#263238"/>
          <path id="Trazado_919009" data-name="Trazado 919009" d="M367.027,349.409h8.025S374.4,280.327,383.077,257c.612,7.712,1.3,15.714,1.977,22.382.425,4.127.842,7.673,1.239,10.373,2.526,17.4,8.9,60.353,8.9,60.353h7.927s-.94-41.158-1.879-58.259c-1.037-18.562-1.483-59.365-1.524-62.845H370.681C367.918,243.616,360.833,302.08,367.027,349.409Z" transform="translate(-322.37 -148.687)" fill="#407bff"/>
          <path id="Trazado_919010" data-name="Trazado 919010" d="M367.027,349.409h8.025S374.4,280.327,383.077,257c.612,7.712,1.3,15.714,1.977,22.382.425,4.127.842,7.673,1.239,10.373,2.526,17.4,8.9,60.353,8.9,60.353h7.927s-.94-41.158-1.879-58.259c-1.037-18.562-1.483-59.365-1.524-62.845H370.681C367.918,243.616,360.833,302.08,367.027,349.409Z" transform="translate(-322.37 -148.687)" fill="#fff" opacity="0.6"/>
          <g id="Grupo_1114365" data-name="Grupo 1114365" transform="translate(58.373)">
            <path id="Trazado_919011" data-name="Trazado 919011" d="M388.294,134.033a7.876,7.876,0,0,0,.236.774,7.7,7.7,0,0,0,3.7,4.219,6.857,6.857,0,0,0,8.191-1.3c2.742-2.769,2.669-5.965,2.977-11.376a7.421,7.421,0,0,0-10.24-7.4C387.848,121.11,387.121,129.161,388.294,134.033Z" transform="translate(-387.811 -115.057)" fill="#e4897b"/>
            <path id="Trazado_919012" data-name="Trazado 919012" d="M392.733,146.709a7.6,7.6,0,0,0,.99.612,6.9,6.9,0,0,0,5.928.262,8.092,8.092,0,0,0-.967-1.837A10.691,10.691,0,0,0,392.733,146.709Z" transform="translate(-389.308 -123.353)" opacity="0.2"/>
            <path id="Trazado_919013" data-name="Trazado 919013" d="M402.905,151.106c-2.666,2.422-9.2,1.526-9.2,1.526s-4.077-1.116-3.22-2.389c2.4-.4,3.563-1.517,4.044-2.951a6.98,6.98,0,0,0,.244-2.742,14.427,14.427,0,0,0-.2-1.531l8.074-5.979C401.59,140.986,400.3,148.246,402.905,151.106Z" transform="translate(-388.589 -120.731)" fill="#e4897b"/>
            <path id="Trazado_919014" data-name="Trazado 919014" d="M391,121.113c.058.152-.083.464-.184.823a7.993,7.993,0,0,0-.294,2.135,8.821,8.821,0,0,0,2.8,6.251,34.272,34.272,0,0,0,2.436,6.337.988.988,0,0,0,1.181.673l4.716-.164a.944.944,0,0,0,.761-.264,2,2,0,0,0,.173-.422c.427-1.019,2.224-.536,2.843-1.451a5.174,5.174,0,0,0,.365-1.29c.388-1.13,1.989-1.718,1.93-2.911-.034-.693-.667-1.324-.476-1.991s1.045-.876,1.365-1.476a2.038,2.038,0,0,0-.383-1.947,2.543,2.543,0,0,1-.6-1.929,4.466,4.466,0,0,1,.363-.74,2.559,2.559,0,0,0-.467-2.873,4.183,4.183,0,0,1-.864-.894c-.319-.61-.049-1.427-.437-2s-1.193-.59-1.875-.549a2.117,2.117,0,0,1-1.892-.514c-.291-.393-.28-.958-.6-1.325-.455-.521-1.294-.375-1.936-.118a2.608,2.608,0,0,1-1.989.3c-.433-.2-.7-.645-1.091-.912a1.575,1.575,0,0,0-1.853.1c-.351.3-.562.752-.956.991a2.539,2.539,0,0,1-1.889-.008,1.791,1.791,0,0,0-1.814.3c-.587.711.047,1.94-.551,2.641-.343.4-.965.455-1.336.831a1.075,1.075,0,0,0,.517,1.714c.21.044.48.054.558.254.032.083.017.177.042.262.077.269.457.285.72.193C390.761,120.971,390.952,120.986,391,121.113Z" transform="translate(-387.928 -113.607)" fill="#263238"/>
            <path id="Trazado_919015" data-name="Trazado 919015" d="M395.628,132.8a3.507,3.507,0,0,1-1.8,2.4c-1.1.468-1.826-1.085-1.667-2.712.151-1.442.9-3.472,2.077-3.2S396.012,131.349,395.628,132.8Z" transform="translate(-389.127 -118.368)" fill="#e4897b"/>
          </g>
          <path id="Trazado_919016" data-name="Trazado 919016" d="M391.165,262.948c.612,7.712,1.3,15.73,1.977,22.4.988-9.626,2.2-16.488,2.2-16.488s1.134-.933,4.253-5.909,0-14.268,0-14.268C399.691,257.31,391.165,262.948,391.165,262.948Z" transform="translate(-330.458 -154.669)" opacity="0.2"/>
          <path id="Trazado_919017" data-name="Trazado 919017" d="M402.508,211.657l-33.178-1.622a296.347,296.347,0,0,1,4.413-36.018,136.505,136.505,0,0,1,3.48-14.171,69.7,69.7,0,0,1,2.526-6.967s20.623,1.705,24.826,4.956S402.279,194.724,402.508,211.657Z" transform="translate(-323.821 -125.546)" fill="#263238"/>
          <path id="Trazado_919018" data-name="Trazado 919018" d="M392.138,152.652s3.152-2.474,9.068-2.343,6.5,2.343,6.5,2.343,6.5,3.241,1.392,8.577-15.153-8.186-15.153-8.186Z" transform="translate(-330.754 -124.763)" fill="#263238"/>
          <path id="Trazado_919019" data-name="Trazado 919019" d="M392.138,152.652s3.152-2.474,9.068-2.343,6.5,2.343,6.5,2.343,6.5,3.241,1.392,8.577-15.153-8.186-15.153-8.186Z" transform="translate(-330.754 -124.763)" fill="#fff" opacity="0.25"/>
          <path id="Trazado_919020" data-name="Trazado 919020" d="M382.2,163.315s-1.441,9.417-6.529,13.746a136.511,136.511,0,0,1,3.48-14.171Z" transform="translate(-325.748 -128.589)" opacity="0.2"/>
          <path id="Trazado_919021" data-name="Trazado 919021" d="M359.254,143.856s-20.607-4.214-23.507-5.318-18.212-15.753-18.212-15.753l-3.355,2.536s11.474,14.9,17.216,19.19,25.84,10.782,25.84,10.782Z" transform="translate(-307.055 -116.397)" fill="#e4897b"/>
          <path id="Trazado_919022" data-name="Trazado 919022" d="M377.079,151.628l-17.949-3.28-.464,12.4,13.415,5.452S380.539,157.715,377.079,151.628Z" transform="translate(-320.579 -124.168)" fill="#263238"/>
          <path id="Trazado_919023" data-name="Trazado 919023" d="M314.423,120.024c-1.653-1.882-7.67-5.957-8.54-6.305s-2.167,4.976-1.906,5.672,3.211,2.175,4.7,2.349a6.782,6.782,0,0,1,3.08,1.7Z" transform="translate(-303.943 -113.636)" fill="#e4897b"/>
          <g id="Grupo_1114366" data-name="Grupo 1114366" transform="translate(36.762 23.728)">
            <path id="Trazado_919024" data-name="Trazado 919024" d="M357.574,147.7l1.972.452-.9,12.629-1.885-.691Z" transform="translate(-356.762 -147.699)" fill="#263238"/>
            <path id="Trazado_919025" data-name="Trazado 919025" d="M357.574,147.7l1.972.452-.9,12.629-1.885-.691Z" transform="translate(-356.762 -147.699)" fill="#fff" opacity="0.25"/>
          </g>
          <g id="Grupo_1114367" data-name="Grupo 1114367" transform="translate(82.171 50.405)">
            <path id="Trazado_919026" data-name="Trazado 919026" d="M422,193.23l10.635-7.2.73,1.837-10.138,6.38Z" transform="translate(-422.004 -186.028)" fill="#263238"/>
            <path id="Trazado_919027" data-name="Trazado 919027" d="M422,193.23l10.635-7.2.73,1.837-10.138,6.38Z" transform="translate(-422.004 -186.028)" fill="#fff" opacity="0.25"/>
          </g>
          <path id="Trazado_919028" data-name="Trazado 919028" d="M366.813,398.75l.391,2.262h9.483v-2.088Z" transform="translate(-323.055 -200.29)" fill="#407bff"/>
          <path id="Trazado_919029" data-name="Trazado 919029" d="M407.267,400l.91,2.088h7.952l.522-2.088Z" transform="translate(-335.353 -200.67)" fill="#407bff"/>
        </g>
      </g>
    </g>
  </g>
</svg>
