<svg id="Grupo_1099309" data-name="Grupo 1099309" xmlns="http://www.w3.org/2000/svg" width="559" height="259" viewBox="0 0 559 259">
  <path id="Rect치ngulo_389225" data-name="Rect치ngulo 389225" d="M9,0H550a9,9,0,0,1,9,9V55a0,0,0,0,1,0,0H0a0,0,0,0,1,0,0V9A9,9,0,0,1,9,0Z" fill="#3a1d71"/>
  <path id="Rect치ngulo_389226" data-name="Rect치ngulo 389226" d="M0,0H559a0,0,0,0,1,0,0V195a9,9,0,0,1-9,9H9a9,9,0,0,1-9-9V0A0,0,0,0,1,0,0Z" transform="translate(0 55)" fill="#110628"/>
  <circle id="Elipse_11380" data-name="Elipse 11380" cx="8" cy="8" r="8" transform="translate(32 19)" fill="#fb130d"/>
  <circle id="Elipse_11381" data-name="Elipse 11381" cx="8" cy="8" r="8" transform="translate(53 19)" fill="#fecd02"/>
  <circle id="Elipse_11382" data-name="Elipse 11382" cx="8" cy="8" r="8" transform="translate(74 19)" fill="#43dfaa"/>
</svg>
