<svg xmlns="http://www.w3.org/2000/svg" width="120" height="120" viewBox="0 0 120 120">
  <g id="Grupo_1113306" data-name="Grupo 1113306" transform="translate(-1236.5 -460)">
    <g id="Elipse_12108" data-name="Elipse 12108" transform="translate(1241.5 465)" fill="#fe9ab8" stroke="rgba(255,255,255,0.4)" stroke-width="5">
      <circle cx="55" cy="55" r="55" stroke="none"/>
      <circle cx="55" cy="55" r="57.5" fill="none"/>
    </g>
    <g id="Grupo_1113920" data-name="Grupo 1113920" transform="translate(1262.3 485.948)">
      <g id="Grupo_1113914" data-name="Grupo 1113914" transform="translate(1.002 1.002)">
        <path id="Trazado_916920" data-name="Trazado 916920" d="M143.556,225.353a4.979,4.979,0,0,1-4.978,4.882H136.9v7.807a1.068,1.068,0,0,1-1.069,1.069H130.1c-4.638-6.26-5.809-14.2-5-22.309a5.082,5.082,0,0,0,2.345-4.557V210.69l9.448.712v8.876h1.583A5.057,5.057,0,0,1,143.556,225.353Z" transform="translate(-109.187 -183.693)" fill="#7293df"/>
        <path id="Trazado_916921" data-name="Trazado 916921" d="M28.416,239.111H10.586A3.086,3.086,0,0,1,7.5,236.025V211.4l9.413-.712v1.654c0,2.717,1.639,4.926,4.345,4.978a4.187,4.187,0,0,0,2.159-.52A67.963,67.963,0,0,0,28.416,239.111Z" transform="translate(-7.5 -183.693)" fill="#5c85da"/>
        <path id="Trazado_916922" data-name="Trazado 916922" d="M129.466,26.959h1.654l-.653,9.36h-7.807a1.069,1.069,0,0,0-1.069,1.069v.585a4.977,4.977,0,0,1-2.862,4.508c-2.751-11.252-1.06-26.018,4.894-33.87h6.844l.7,9.3H129.61c-2.792,0-5.13,1.858-5.077,4.649C124.585,25.267,126.748,26.959,129.466,26.959Z" transform="translate(-102.757 -8.61)" fill="#fbf198"/>
        <path id="Trazado_916923" data-name="Trazado 916923" d="M23.471,42.48a4.981,4.981,0,0,1-2.02.47,5.057,5.057,0,0,1-5.075-5.077v-.486a1.068,1.068,0,0,0-1.069-1.069H7.5V11.7A3.086,3.086,0,0,1,10.586,8.61H28.365C24.117,17.926,22.57,30.568,23.471,42.48Z" transform="translate(-7.5 -8.61)" fill="#f4e74d"/>
        <path id="Trazado_916924" data-name="Trazado 916924" d="M323.729,252.966h-7.807v-1.555a5.057,5.057,0,0,0-5.076-5.076,4.979,4.979,0,0,0-4.882,4.978v1.654h-7.807a1.069,1.069,0,0,0-1.069,1.069v6.739a1.069,1.069,0,0,0,1.069,1.069h.484a5.045,5.045,0,0,1,5.078,4.858,4.98,4.98,0,0,1-4.978,5.1h-.584a1.069,1.069,0,0,0-1.069,1.069v6.739a1.069,1.069,0,0,0,1.069,1.069h23.555a3.086,3.086,0,0,0,3.086-3.086V254.035A1.069,1.069,0,0,0,323.729,252.966Z" transform="translate(-258.401 -214.574)" fill="#fd7a6e"/>
        <path id="Trazado_916925" data-name="Trazado 916925" d="M171.9,8.607v7.807a1.069,1.069,0,0,1-1.069,1.069h-.487a5.057,5.057,0,0,0-5.076,5.076,4.979,4.979,0,0,0,4.978,4.882h.585A1.069,1.069,0,0,1,171.9,28.51v7.807H179.7a1.069,1.069,0,0,0,1.069-1.069v-.484a5.045,5.045,0,0,1,4.858-5.078,4.98,4.98,0,0,1,5.1,4.978v.584a1.069,1.069,0,0,0,1.069,1.069h6.739a1.069,1.069,0,0,0,1.069-1.069V11.693a3.086,3.086,0,0,0-3.086-3.086H171.9Z" transform="translate(-144.189 -8.607)" fill="#80e0b7"/>
      </g>
      <g id="Grupo_1113915" data-name="Grupo 1113915" transform="translate(0 0)">
        <path id="Trazado_916926" data-name="Trazado 916926" d="M318.3,245.466h-7.874v-.652a5.981,5.981,0,0,0-11.962,0v.652h-7.874a1,1,0,0,0-1,1v8.876a1,1,0,0,0,1,1h1.553a4.053,4.053,0,0,1,4.077,3.88,3.978,3.978,0,0,1-3.977,4.073h-1.652a1,1,0,0,0-1,1v8.876a1,1,0,0,0,1,1h24.624a4.092,4.092,0,0,0,4.088-4.088V246.468A1,1,0,0,0,318.3,245.466Zm-1,25.626a2.086,2.086,0,0,1-2.084,2.084H291.59V266.3h.65a5.982,5.982,0,0,0,5.98-6.125,6.069,6.069,0,0,0-6.08-5.836h-.551V247.47h7.874a1,1,0,0,0,1-1v-1.654a3.977,3.977,0,1,1,7.954,0v1.654a1,1,0,0,0,1,1H317.3Z" transform="translate(-250.899 -207.074)"/>
        <path id="Trazado_916927" data-name="Trazado 916927" d="M42.469,24.189a3.978,3.978,0,0,1,4.073,3.977v1.652a1,1,0,0,0,1,1h8.876a1,1,0,0,0,1-1V18.3a1,1,0,1,0-2,0V28.816H48.546v-.65a5.982,5.982,0,0,0-6.125-5.98,6.069,6.069,0,0,0-5.836,6.08v.551H29.713V20.943a1,1,0,0,0-1-1H27.058a3.977,3.977,0,0,1,0-7.954h1.654a1,1,0,0,0,1-1V3.111H53.335a2.086,2.086,0,0,1,2.084,2.084v8.431a1,1,0,1,0,2,0V5.195a4.092,4.092,0,0,0-4.088-4.088H4.088A4.092,4.092,0,0,0,0,5.195V54.442A4.092,4.092,0,0,0,4.088,58.53h8.431a1,1,0,0,0,0-2H4.088A2.086,2.086,0,0,1,2,54.442V30.82H8.876v.553a6.158,6.158,0,0,0,1.84,4.368,5.884,5.884,0,0,0,4.144,1.711h.114a6.011,6.011,0,0,0,5.865-5.98V30.82H27.71v7.874a1,1,0,0,0,1,1h1.681a3.977,3.977,0,0,1,0,7.954H28.712a1,1,0,0,0-1,1v7.874H17.195a1,1,0,0,0,0,2H28.712a1,1,0,0,0,1-1V49.654h.679a5.981,5.981,0,0,0,0-11.962h-.679V30.82h7.874a1,1,0,0,0,1-1V28.266a4.052,4.052,0,0,1,3.88-4.076ZM19.836,28.816a1,1,0,0,0-1,1v1.654a4,4,0,0,1-3.9,3.976,3.876,3.876,0,0,1-2.816-1.137,4.142,4.142,0,0,1-1.239-2.938V29.818a1,1,0,0,0-1-1H2V5.195A2.086,2.086,0,0,1,4.088,3.111H27.709V9.983h-.652a5.981,5.981,0,0,0,0,11.962h.652v6.872H19.836Z" transform="translate(0 -1.107)"/>
      </g>
    </g>
  </g>
</svg>
