<svg xmlns="http://www.w3.org/2000/svg" width="120" height="120" viewBox="0 0 120 120">
  <g id="Grupo_1113302" data-name="Grupo 1113302" transform="translate(-1236.5 -460)">
    <g id="Elipse_12108" data-name="Elipse 12108" transform="translate(1241.5 465)" fill="#fe9ab8" stroke="rgba(255,255,255,0.4)" stroke-width="5">
      <circle cx="55" cy="55" r="55" stroke="none"/>
      <circle cx="55" cy="55" r="57.5" fill="none"/>
    </g>
    <g id="Grupo_1113918" data-name="Grupo 1113918" transform="translate(1258.003 483.313)">
      <g id="Grupo_1113909" data-name="Grupo 1113909" transform="translate(1.326 1.702)">
        <g id="Grupo_1113907" data-name="Grupo 1113907">
          <path id="Trazado_916894" data-name="Trazado 916894" d="M52.834,34.78A26.513,26.513,0,0,1,60.607,38l5.051-2.241,5.951,5.951-2.241,5.051a26.509,26.509,0,0,1,3.222,7.773l5.154,1.984v8.419l-5.154,1.984a26.53,26.53,0,0,1-3.222,7.769l2.241,5.051L65.657,85.7l-5.051-2.244a26.526,26.526,0,0,1-7.773,3.225l-1.984,5.15H42.431l-1.984-5.154a26.537,26.537,0,0,1-7.769-3.221L27.627,85.7l-5.954-5.954,2.244-5.047a26.6,26.6,0,0,1-3.225-7.773l-5.15-1.984V56.519l5.15-1.984a26.518,26.518,0,0,1,3.225-7.773l-2.244-5.051,5.954-5.951L32.675,38a26.593,26.593,0,0,1,7.773-3.221l1.984-5.154H50.85Z" transform="translate(-15.542 -29.626)" fill="#837683" fill-rule="evenodd"/>
          <path id="Trazado_916895" data-name="Trazado 916895" d="M125.631,36.514l1.7-.753,5.951,5.951-2.241,5.051a26.51,26.51,0,0,1,3.222,7.773l5.154,1.984v8.419l-5.154,1.984a26.53,26.53,0,0,1-3.222,7.769l2.241,5.051L127.328,85.7l-1.7-.753,5.2-5.2-2.244-5.051a26.534,26.534,0,0,0,3.221-7.769l5.154-1.984V56.519l-5.154-1.984a26.514,26.514,0,0,0-3.221-7.773l2.244-5.051Zm-37.086,0,.753-.753L94.345,38c-.356.2-.709.4-1.054.621ZM114.5,34.78A26.513,26.513,0,0,1,122.277,38l-1.392.621a34.688,34.688,0,0,0-8.831-3.842l-1.984-5.154h2.45ZM94.349,83.452,89.3,85.7l-.753-.753,4.746-2.108q.518.32,1.058.617Zm27.929,0a26.526,26.526,0,0,1-7.773,3.225l-1.984,5.15h-2.45l1.984-5.15a34.765,34.765,0,0,0,8.834-3.842Z" transform="translate(-77.213 -29.626)" fill="#685e68" fill-rule="evenodd"/>
          <path id="Trazado_916896" data-name="Trazado 916896" d="M122.642,119.593a17.135,17.135,0,1,1-17.133,17.137A17.136,17.136,0,0,1,122.642,119.593Z" transform="translate(-91.544 -105.628)" fill="#eceff1" fill-rule="evenodd"/>
          <path id="Trazado_916897" data-name="Trazado 916897" d="M122.642,119.593c.39,0,.776.014,1.163.042a17.134,17.134,0,0,0,0,34.19c-.387.024-.773.038-1.163.038a17.135,17.135,0,0,1,0-34.27Z" transform="translate(-91.544 -105.628)" fill="#d1d1d6" fill-rule="evenodd"/>
        </g>
        <g id="Grupo_1113908" data-name="Grupo 1113908" transform="translate(37.171 33.351)">
          <path id="Trazado_916898" data-name="Trazado 916898" d="M273.592,281.659A18.591,18.591,0,1,0,255,263.069,18.628,18.628,0,0,0,273.592,281.659Z" transform="translate(-255 -244.477)" fill="#ffe177" fill-rule="evenodd"/>
          <path id="Trazado_916899" data-name="Trazado 916899" d="M365.524,244.477a18.591,18.591,0,1,1,0,37.182q-.86,0-1.7-.077a18.591,18.591,0,0,0,0-37.027Q364.665,244.477,365.524,244.477Z" transform="translate(-346.932 -244.477)" fill="#ffd064" fill-rule="evenodd"/>
          <path id="Trazado_916900" data-name="Trazado 916900" d="M360.912,294.341a2.6,2.6,0,1,1-2.6,2.6A2.6,2.6,0,0,1,360.912,294.341Zm-.121-4.768a2.032,2.032,0,0,1-2.03-1.959l-.514-14.226a2.033,2.033,0,0,1,2.03-2.106H361.3a2.033,2.033,0,0,1,2.03,2.106l-.514,14.226A2.032,2.032,0,0,1,360.79,289.573Z" transform="translate(-342.218 -267.121)" fill="#fe646f" fill-rule="evenodd"/>
        </g>
        <path id="Trazado_916901" data-name="Trazado 916901" d="M156.076,188.052l8.467-8.555a2.58,2.58,0,1,1,3.659,3.638c-3.436,3.467-6.845,6.954-10.3,10.405a2.585,2.585,0,0,1-3.654,0l-5.722-5.727a2.584,2.584,0,0,1,3.654-3.654Z" transform="translate(-127.247 -155.591)" fill="#8ac9fe" fill-rule="evenodd"/>
      </g>
      <path id="Trazado_916902" data-name="Trazado 916902" d="M45.884,80.4l-.965,2.508a1.242,1.242,0,0,1-1.159.8H35.3a1.242,1.242,0,0,1-1.159-.8l-1.763-4.58a28.039,28.039,0,0,1-6.982-2.892L20.9,77.429a1.242,1.242,0,0,1-1.381-.257l-5.983-5.983a1.242,1.242,0,0,1-.257-1.383l2-4.489a28.011,28.011,0,0,1-2.9-6.974L7.8,56.578A1.242,1.242,0,0,1,7,55.42V46.956A1.242,1.242,0,0,1,7.8,45.8l4.582-1.763a28.05,28.05,0,0,1,2.9-6.982l-2-4.49a1.242,1.242,0,0,1,.257-1.383l5.983-5.984a1.242,1.242,0,0,1,1.383-.257l4.49,2a27.849,27.849,0,0,1,6.975-2.89l1.771-4.59A1.242,1.242,0,0,1,35.3,18.66h8.464a1.242,1.242,0,0,1,1.159.8l1.763,4.588a27.845,27.845,0,0,1,6.974,2.89l4.49-2a1.242,1.242,0,0,1,1.383.257l5.984,5.984a1.242,1.242,0,0,1,.257,1.381L63.78,37.05a27.8,27.8,0,0,1,2.891,6.984l4.58,1.763a1.241,1.241,0,0,1,.8,1.159v6.825A19.967,19.967,0,1,1,45.884,80.4ZM69.563,52.878V47.808L65.176,46.12a1.242,1.242,0,0,1-.762-.873,25.329,25.329,0,0,0-3.088-7.459,1.242,1.242,0,0,1-.078-1.154l1.905-4.3-4.778-4.778-4.3,1.912a1.242,1.242,0,0,1-1.156-.077A25.375,25.375,0,0,0,45.467,26.3a1.242,1.242,0,0,1-.872-.763l-1.688-4.394H36.148l-1.7,4.4a1.242,1.242,0,0,1-.871.761,25.377,25.377,0,0,0-7.452,3.088,1.242,1.242,0,0,1-1.156.077l-4.3-1.912-4.777,4.777,1.912,4.3a1.242,1.242,0,0,1-.078,1.156,25.58,25.58,0,0,0-3.1,7.463,1.242,1.242,0,0,1-.761.869L9.484,47.808v6.759l4.387,1.688a1.242,1.242,0,0,1,.761.868,25.524,25.524,0,0,0,3.1,7.454,1.242,1.242,0,0,1,.079,1.158l-1.912,4.3,4.778,4.778,4.3-1.905a1.242,1.242,0,0,1,1.152.077,25.561,25.561,0,0,0,7.462,3.09,1.241,1.241,0,0,1,.873.762l1.688,4.386h6.759L44.6,76.837c.007-.019.015-.038.023-.056a20.017,20.017,0,0,1-.363-7.545,18.662,18.662,0,1,1,13.929-18.05q0,.915-.087,1.809a19.966,19.966,0,0,1,11.466-.118Zm-24.7,13.578a20.1,20.1,0,0,1,10.59-12.419,16.18,16.18,0,1,0-10.59,12.419Zm-7.624-15.5,7.589-7.668,0,0a3.822,3.822,0,0,1,5.422,5.388h0c-3.437,3.468-6.848,6.957-10.3,10.409a3.827,3.827,0,0,1-5.41,0l-5.722-5.727a3.826,3.826,0,0,1,0-5.408l0,0a3.827,3.827,0,0,1,5.41,0ZM36.361,53.6,32.468,49.7a1.342,1.342,0,0,0-1.9,1.9l5.723,5.727a1.342,1.342,0,0,0,1.9,0c3.45-3.45,6.858-6.935,10.292-10.4a1.338,1.338,0,1,0-1.9-1.889l-8.465,8.553a1.242,1.242,0,0,1-1.761,0ZM75.47,58.862A17.471,17.471,0,0,0,50.822,83.51L60.733,73.6l-.488-13.426v0a3.183,3.183,0,0,1,.916-2.381l0,0a3.167,3.167,0,0,1,2.347-.994h1.025a3.2,3.2,0,0,1,2.353.994l.006.007a3.151,3.151,0,0,1,.907,2.386l-.236,6.587Zm-22.891,26.4A17.471,17.471,0,0,0,77.226,60.619l-9.79,9.79-.142,3.957v0a3.267,3.267,0,0,1-5.781,1.964Zm12.41-15.922.332-9.261v0a.753.753,0,0,0-.216-.565.785.785,0,0,0-.568-.238H63.512a.765.765,0,0,0-.564.239.779.779,0,0,0-.22.575l.4,11.111Zm-1.689,5.2a.786.786,0,0,0,1.512-.272l.046-1.286Zm.727,5.119A3.836,3.836,0,1,1,60.185,83.5,3.838,3.838,0,0,1,64.027,79.663Zm0,2.484A1.353,1.353,0,1,0,65.38,83.5,1.355,1.355,0,0,0,64.027,82.147Z" transform="translate(-7 -18.66)" fill-rule="evenodd"/>
    </g>
  </g>
</svg>
