<svg xmlns="http://www.w3.org/2000/svg" width="120" height="120" viewBox="0 0 120 120">
  <g id="Grupo_1113092" data-name="Grupo 1113092" transform="translate(-1236.5 -460)">
    <g id="Elipse_12108" data-name="Elipse 12108" transform="translate(1241.5 465)" fill="#fe9ab8" stroke="rgba(255,255,255,0.4)" stroke-width="5">
      <circle cx="55" cy="55" r="55" stroke="none"/>
      <circle cx="55" cy="55" r="57.5" fill="none"/>
    </g>
    <g id="Grupo_1113917" data-name="Grupo 1113917" transform="translate(1259.353 483.279)">
      <g id="Grupo_1113873" data-name="Grupo 1113873" transform="translate(32.171 14.418)">
        <path id="Trazado_916859" data-name="Trazado 916859" d="M221.7,102.3v5.564a26.424,26.424,0,0,1,8.071,0V102.3Z" transform="translate(-221.705 -102.302)" fill="#a79ba7"/>
      </g>
      <g id="Grupo_1113875" data-name="Grupo 1113875" transform="translate(36.512 14.418)">
        <g id="Grupo_1113874" data-name="Grupo 1113874">
          <path id="Trazado_916860" data-name="Trazado 916860" d="M251.619,102.3v5.257a26.375,26.375,0,0,1,3.73.307V102.3h-3.73Z" transform="translate(-251.619 -102.301)" fill="#918291"/>
        </g>
      </g>
      <g id="Grupo_1113876" data-name="Grupo 1113876" transform="translate(28.468 6.966)">
        <path id="Trazado_916861" data-name="Trazado 916861" d="M196.188,56.365V53.121a2.177,2.177,0,0,1,2.177-2.177h11.123a2.177,2.177,0,0,1,2.177,2.177v3.244a2.177,2.177,0,0,1-2.177,2.177H198.365A2.177,2.177,0,0,1,196.188,56.365Z" transform="translate(-196.188 -50.944)" fill="#fd8087"/>
      </g>
      <g id="Grupo_1113877" data-name="Grupo 1113877" transform="translate(28.468 6.966)">
        <path id="Trazado_916862" data-name="Trazado 916862" d="M209.488,50.944h-1.914v2.62a2.177,2.177,0,0,1-2.177,2.177h-9.209v.624a2.177,2.177,0,0,0,2.177,2.177h11.123a2.177,2.177,0,0,0,2.177-2.177V53.121A2.177,2.177,0,0,0,209.488,50.944Z" transform="translate(-196.189 -50.944)" fill="#fe646f"/>
      </g>
      <g id="Grupo_1113881" data-name="Grupo 1113881" transform="translate(9.793 19.527)">
        <g id="Grupo_1113878" data-name="Grupo 1113878" transform="translate(16.088)">
          <path id="Trazado_916863" data-name="Trazado 916863" d="M188.681,137.509a26.328,26.328,0,0,0-10.325,2.1c.035.1.071.208.1.313a.866.866,0,0,0,.833.623h1.783a.581.581,0,0,1,.58.58l0,3.065a20.953,20.953,0,0,1,25.185,9.287l.271.47v-8.937A26.325,26.325,0,0,0,188.681,137.509Z" transform="translate(-178.356 -137.509)" fill="#fd8087"/>
        </g>
        <g id="Grupo_1113880" data-name="Grupo 1113880" transform="translate(0 16.348)">
          <g id="Grupo_1113879" data-name="Grupo 1113879">
            <path id="Trazado_916864" data-name="Trazado 916864" d="M108.368,275.593l-.1-.111-.109.1a20.949,20.949,0,0,1-34.073-22.148h-3.21a.581.581,0,0,1-.58-.58v-1.783a.865.865,0,0,0-.623-.833c-.066-.02-.132-.044-.2-.065a26.415,26.415,0,0,0,43.244,28.6A12.834,12.834,0,0,1,108.368,275.593Z" transform="translate(-67.489 -250.174)" fill="#fd8087"/>
          </g>
        </g>
      </g>
      <g id="Grupo_1113882" data-name="Grupo 1113882" transform="translate(9.793 45.94)">
        <path id="Trazado_916865" data-name="Trazado 916865" d="M108.368,334.889l-.1-.111-.109.1a20.947,20.947,0,0,1-35.208-15.345H67.489a26.305,26.305,0,0,0,45.127,18.485A12.833,12.833,0,0,1,108.368,334.889Z" transform="translate(-67.489 -319.534)" fill="#05e39c"/>
      </g>
      <g id="Grupo_1113885" data-name="Grupo 1113885" transform="translate(1.088 11.045)">
        <g id="Grupo_1113883" data-name="Grupo 1113883" transform="translate(0 0)">
          <path id="Trazado_916866" data-name="Trazado 916866" d="M35.737,94.166V91.151a.726.726,0,0,0-.726-.726H33.228a.725.725,0,0,1-.694-.52,11.315,11.315,0,0,0-.884-2.136.726.726,0,0,1,.123-.859l1.261-1.26a.725.725,0,0,0,0-1.026L30.17,81.761a.725.725,0,0,0-1.026,0l-1.261,1.261a.725.725,0,0,1-.859.123,11.33,11.33,0,0,0-2.136-.884.726.726,0,0,1-.52-.694V79.784a.726.726,0,0,0-.726-.726H19.593a.726.726,0,0,0-.726.726v1.783a.726.726,0,0,1-.52.694,11.311,11.311,0,0,0-2.136.884.726.726,0,0,1-.859-.123l-1.26-1.261a.725.725,0,0,0-1.026,0L10.2,84.625a.725.725,0,0,0,0,1.026l1.261,1.261a.726.726,0,0,1,.123.859,11.321,11.321,0,0,0-.884,2.136.726.726,0,0,1-.694.52H8.226a.726.726,0,0,0-.726.726V95.2a.726.726,0,0,0,.726.726h1.783a.725.725,0,0,1,.694.52,11.321,11.321,0,0,0,.884,2.136.726.726,0,0,1-.123.859L10.2,100.7a.725.725,0,0,0,0,1.026l2.864,2.864a.725.725,0,0,0,1.026,0l1.26-1.261a.725.725,0,0,1,.859-.123,11.334,11.334,0,0,0,2.136.884.726.726,0,0,1,.52.694v1.783a.726.726,0,0,0,.726.726h3.161A21.05,21.05,0,0,1,35.737,94.166Z" transform="translate(-7.5 -79.058)" fill="#978ecb"/>
        </g>
        <g id="Grupo_1113884" data-name="Grupo 1113884" transform="translate(11.368)">
          <path id="Trazado_916867" data-name="Trazado 916867" d="M101.985,90.426H100.2a.725.725,0,0,1-.694-.52,11.316,11.316,0,0,0-.884-2.136.726.726,0,0,1,.123-.859l1.261-1.26a.725.725,0,0,0,0-1.026l-2.864-2.864a.725.725,0,0,0-1.026,0l-1.261,1.261a.725.725,0,0,1-.859.123,11.32,11.32,0,0,0-2.136-.884.726.726,0,0,1-.52-.694V79.784a.726.726,0,0,0-.726-.726H86.568a.726.726,0,0,0-.726.726v.982a14.526,14.526,0,0,1,6.715,9.6,4.855,4.855,0,0,1,0,5.619,14.526,14.526,0,0,1-6.715,9.6v.982a.726.726,0,0,0,.726.726h3.161a21.05,21.05,0,0,1,12.982-13.128V91.151a.726.726,0,0,0-.726-.726Z" transform="translate(-85.842 -79.058)" fill="#8379c1"/>
        </g>
        <ellipse id="Elipse_13921" data-name="Elipse 13921" cx="4.86" cy="4.86" rx="4.86" ry="4.86" transform="translate(8.288 17.762) rotate(-76.881)" fill="#fff"/>
      </g>
      <g id="Grupo_1113890" data-name="Grupo 1113890" transform="translate(51.071 1.088)">
        <g id="Grupo_1113886" data-name="Grupo 1113886">
          <path id="Trazado_916868" data-name="Trazado 916868" d="M352.394,21.036h2.985V45.065a20.886,20.886,0,0,1,1.479,3.272l.058.164.151-.086a8.157,8.157,0,0,1,6.439-.723V21.036h2.985a.435.435,0,0,0,.352-.691l-7.048-9.725a.435.435,0,0,0-.7,0l-7.048,9.725a.435.435,0,0,0,.352.691Z" transform="translate(-351.957 -10.44)" fill="#05e39c"/>
        </g>
        <g id="Grupo_1113889" data-name="Grupo 1113889" transform="translate(5.674 0)">
          <g id="Grupo_1113887" data-name="Grupo 1113887">
            <path id="Trazado_916869" data-name="Trazado 916869" d="M400.268,20.345,393.22,10.62a.435.435,0,0,0-.7,0l-1.458,2.012,6.091,8.4h2.768A.435.435,0,0,0,400.268,20.345Z" transform="translate(-391.057 -10.44)" fill="#0ed290"/>
          </g>
          <g id="Grupo_1113888" data-name="Grupo 1113888" transform="translate(2.253 10.595)">
            <path id="Trazado_916870" data-name="Trazado 916870" d="M406.581,109.854a8.106,8.106,0,0,1,3.621.26V83.458h-2.9a.726.726,0,0,0-.726.726v25.67Z" transform="translate(-406.581 -83.458)" fill="#0ed290"/>
          </g>
        </g>
      </g>
      <g id="Grupo_1113891" data-name="Grupo 1113891" transform="translate(15.112 24.846)">
        <path id="Trazado_916871" data-name="Trazado 916871" d="M136.453,202.083a12.809,12.809,0,0,1,5.7-10.661l.028-.019.017-.029a8.209,8.209,0,0,1,2.995-2.975,21.1,21.1,0,1,0-5.484,22.208A12.769,12.769,0,0,1,136.453,202.083Z" transform="translate(-104.145 -174.166)" fill="#fff"/>
      </g>
      <g id="Grupo_1113894" data-name="Grupo 1113894" transform="translate(33.167 24.846)">
        <g id="Grupo_1113892" data-name="Grupo 1113892">
          <path id="Trazado_916872" data-name="Trazado 916872" d="M246.5,192.9a13.025,13.025,0,0,1,1.947-1.6,8.371,8.371,0,0,1,3.07-3.045,21.11,21.11,0,0,0-22.94-13.871A21.1,21.1,0,0,1,246.5,192.9Z" transform="translate(-228.573 -174.166)" fill="#f3f0f3"/>
        </g>
        <g id="Grupo_1113893" data-name="Grupo 1113893" transform="translate(0 32.265)">
          <path id="Trazado_916873" data-name="Trazado 916873" d="M243.429,396.522a21.1,21.1,0,0,1-14.856,9.7,21.261,21.261,0,0,0,3.039.219,21.018,21.018,0,0,0,14.358-5.642A12.959,12.959,0,0,1,243.429,396.522Z" transform="translate(-228.573 -396.522)" fill="#f3f0f3"/>
        </g>
      </g>
      <g id="Grupo_1113895" data-name="Grupo 1113895" transform="translate(50.256 36.141)">
        <ellipse id="Elipse_13922" data-name="Elipse 13922" cx="8.334" cy="8.334" rx="8.334" ry="8.334" transform="translate(0 16.251) rotate(-77.061)" fill="#b3dafe"/>
      </g>
      <g id="Grupo_1113896" data-name="Grupo 1113896" transform="translate(32.741 42.48)">
        <ellipse id="Elipse_13923" data-name="Elipse 13923" cx="2.822" cy="2.822" rx="2.822" ry="2.822" transform="translate(0 5.441) rotate(-74.574)" fill="#fd8087"/>
      </g>
      <g id="Grupo_1113897" data-name="Grupo 1113897" transform="translate(34.968 43.118)">
        <path id="Trazado_916874" data-name="Trazado 916874" d="M242.219,300.087a2.8,2.8,0,0,0-1.238.289,2.817,2.817,0,0,1,0,5.066,2.821,2.821,0,1,0,1.238-5.355Z" transform="translate(-240.981 -300.087)" fill="#fe646f"/>
      </g>
      <g id="Grupo_1113904" data-name="Grupo 1113904" transform="translate(47.275 36.141)">
        <path id="Trazado_916875" data-name="Trazado 916875" d="M345.966,292.255a8.334,8.334,0,1,1-14.4,0,12.966,12.966,0,1,0,14.4,0Z" transform="translate(-325.798 -286.415)" fill="#fff0ad"/>
        <g id="Grupo_1113898" data-name="Grupo 1113898" transform="translate(0.771 16.748)">
          <path id="Trazado_916876" data-name="Trazado 916876" d="M353.535,369.946l-5.554-2.52a8.162,8.162,0,0,1-9.35,0l-5.554,2.521a4.392,4.392,0,0,0-1.965,1.767,12.969,12.969,0,0,0,24.388,0A4.39,4.39,0,0,0,353.535,369.946Z" transform="translate(-331.113 -367.426)" fill="#8ac9fe"/>
        </g>
        <g id="Grupo_1113900" data-name="Grupo 1113900" transform="translate(9.977 16.748)">
          <g id="Grupo_1113899" data-name="Grupo 1113899">
            <path id="Trazado_916877" data-name="Trazado 916877" d="M407.773,369.946l-5.554-2.52a8.155,8.155,0,0,1-3.079,1.315l2.657,1.206a4.372,4.372,0,0,1,.705.4,2.171,2.171,0,0,1,.662,2.755,12.991,12.991,0,0,1-8.608,6.814,12.978,12.978,0,0,0,15.182-8.205A4.392,4.392,0,0,0,407.773,369.946Z" transform="translate(-394.557 -367.426)" fill="#60b7ff"/>
          </g>
        </g>
        <g id="Grupo_1113903" data-name="Grupo 1113903" transform="translate(2.981)">
          <g id="Grupo_1113901" data-name="Grupo 1113901">
            <ellipse id="Elipse_13924" data-name="Elipse 13924" cx="8.334" cy="8.334" rx="8.334" ry="8.334" transform="translate(0 16.251) rotate(-77.061)" fill="#b3dafe"/>
          </g>
          <g id="Grupo_1113902" data-name="Grupo 1113902" transform="translate(7.693 1.697)">
            <path id="Trazado_916878" data-name="Trazado 916878" d="M401.649,263.7a8.331,8.331,0,0,0-2.291.322,8.333,8.333,0,0,1,0,16.024,8.334,8.334,0,1,0,2.291-16.346Z" transform="translate(-399.358 -263.701)" fill="#8ac9fe"/>
          </g>
        </g>
      </g>
      <g id="Grupo_1113905" data-name="Grupo 1113905" transform="translate(0 0)">
        <path id="Trazado_916879" data-name="Trazado 916879" d="M227.565,245.527v-7.081a1.088,1.088,0,0,0-2.177,0v7.081a3.909,3.909,0,0,0,0,7.51v1.748a1.088,1.088,0,0,0,2.177,0v-1.748a3.909,3.909,0,0,0,0-7.51Zm-1.088,5.489a1.734,1.734,0,1,1,1.734-1.734A1.735,1.735,0,0,1,226.477,251.016Z" transform="translate(-190.271 -203.342)"/>
        <path id="Trazado_916880" data-name="Trazado 916880" d="M243.1,196.935a1.088,1.088,0,0,0,1.088-1.088v-.927a1.088,1.088,0,0,0-2.177,0v.927A1.088,1.088,0,0,0,243.1,196.935Z" transform="translate(-206.896 -166.131)"/>
        <path id="Trazado_916881" data-name="Trazado 916881" d="M243.1,423.848a1.088,1.088,0,0,0-1.088,1.088v.927a1.088,1.088,0,0,0,2.177,0v-.927A1.088,1.088,0,0,0,243.1,423.848Z" transform="translate(-206.896 -362.772)"/>
        <path id="Trazado_916882" data-name="Trazado 916882" d="M126.916,313.122a1.088,1.088,0,0,0-1.088-1.088H124.9a1.088,1.088,0,0,0,0,2.177h.927A1.088,1.088,0,0,0,126.916,313.122Z" transform="translate(-105.846 -267.182)"/>
        <path id="Trazado_916883" data-name="Trazado 916883" d="M184.943,210.211a1.088,1.088,0,0,0-1.885,1.088l.464.8a1.088,1.088,0,1,0,1.885-1.088Z" transform="translate(-156.37 -179.67)"/>
        <path id="Trazado_916884" data-name="Trazado 916884" d="M299.951,409.411a1.088,1.088,0,0,0-1.885,1.088l.464.8a1.088,1.088,0,1,0,1.885-1.088Z" transform="translate(-254.69 -349.964)"/>
        <path id="Trazado_916885" data-name="Trazado 916885" d="M140.993,368.085l-.8.464a1.088,1.088,0,1,0,1.088,1.885l.8-.464a1.088,1.088,0,1,0-1.088-1.885Z" transform="translate(-119.382 -314.976)"/>
        <path id="Trazado_916886" data-name="Trazado 916886" d="M339.935,255.573a1.083,1.083,0,0,0,.543-.146l.8-.463a1.088,1.088,0,0,0-1.088-1.885l-.8.463a1.088,1.088,0,0,0,.545,2.031Z" transform="translate(-289.677 -216.657)"/>
        <path id="Trazado_916887" data-name="Trazado 916887" d="M142.082,253.541l-.8-.463a1.088,1.088,0,1,0-1.088,1.885l.8.463a1.088,1.088,0,1,0,1.088-1.885Z" transform="translate(-119.383 -216.656)"/>
        <path id="Trazado_916888" data-name="Trazado 916888" d="M185.007,409.012a1.088,1.088,0,0,0-1.487.4l-.464.8a1.088,1.088,0,1,0,1.885,1.088l.464-.8A1.088,1.088,0,0,0,185.007,409.012Z" transform="translate(-156.369 -349.963)"/>
        <path id="Trazado_916889" data-name="Trazado 916889" d="M300.016,209.813a1.088,1.088,0,0,0-1.487.4l-.464.8a1.088,1.088,0,1,0,1.885,1.088l.464-.8A1.088,1.088,0,0,0,300.016,209.813Z" transform="translate(-254.69 -179.669)"/>
        <path id="Trazado_916890" data-name="Trazado 916890" d="M390.438,307.64a1.088,1.088,0,0,0,1.088-1.088v-1.466a1.088,1.088,0,1,0-2.177,0v1.466A1.088,1.088,0,0,0,390.438,307.64Z" transform="translate(-332.853 -260.313)"/>
        <path id="Trazado_916891" data-name="Trazado 916891" d="M427.034,307.64a1.088,1.088,0,0,0,1.088-1.088v-1.466a1.088,1.088,0,0,0-2.177,0v1.466A1.088,1.088,0,0,0,427.034,307.64Z" transform="translate(-364.138 -260.313)"/>
        <path id="Trazado_916892" data-name="Trazado 916892" d="M69.75,135.359a5.949,5.949,0,1,0,5.949,5.949A5.955,5.955,0,0,0,69.75,135.359Zm0,9.721a3.772,3.772,0,1,1,3.772-3.772A3.776,3.776,0,0,1,69.75,145.08Z" transform="translate(-54.543 -116.144)"/>
        <path id="Trazado_916893" data-name="Trazado 916893" d="M68.249,44.156a9.479,9.479,0,0,0-4.542-3.8V15.712h1.9a1.524,1.524,0,0,0,1.234-2.418L59.789,3.569a1.524,1.524,0,0,0-2.467,0l-7.048,9.725a1.524,1.524,0,0,0,1.234,2.418h1.9v3.634a1.088,1.088,0,1,0,2.177,0V14.624a1.088,1.088,0,0,0-1.088-1.088h-1.7l5.769-7.959,5.769,7.959H62.619a1.088,1.088,0,0,0-1.088,1.088V39.778a9.463,9.463,0,0,0-1.29-.089,9.366,9.366,0,0,0-3.543.692,22.181,22.181,0,0,0-1.118-2.308V24.424a1.088,1.088,0,1,0-2.177,0v3A27.31,27.31,0,0,0,41.33,21.856V18.591h.438a3.269,3.269,0,0,0,3.265-3.265V12.082a3.269,3.269,0,0,0-3.265-3.265H37a1.088,1.088,0,1,0,0,2.177h4.765a1.089,1.089,0,0,1,1.088,1.088v3.244a1.089,1.089,0,0,1-1.088,1.088H30.645a1.089,1.089,0,0,1-1.088-1.088V12.082a1.089,1.089,0,0,1,1.088-1.088h1.279a1.088,1.088,0,0,0,0-2.177H30.645a3.269,3.269,0,0,0-3.265,3.265v3.244a3.269,3.269,0,0,0,3.265,3.265h.438v3.265a27.266,27.266,0,0,0-4.445,1.235c-.1-.228-.2-.453-.317-.674l1.071-1.071a1.814,1.814,0,0,0,0-2.565l-2.864-2.864a1.816,1.816,0,0,0-2.565,0L20.892,16.99a12.449,12.449,0,0,0-1.846-.765V14.711A1.816,1.816,0,0,0,17.231,12.9H13.182a1.816,1.816,0,0,0-1.814,1.814v1.515a12.451,12.451,0,0,0-1.846.765L8.451,15.919a1.816,1.816,0,0,0-2.565,0L3.022,18.783a1.814,1.814,0,0,0,0,2.565l1.071,1.071a12.45,12.45,0,0,0-.765,1.847H1.814A1.816,1.816,0,0,0,0,26.079v4.049a1.816,1.816,0,0,0,1.814,1.814H3.328a12.449,12.449,0,0,0,.765,1.846L3.022,34.859a1.814,1.814,0,0,0,0,2.565l2.863,2.863a1.814,1.814,0,0,0,2.565,0l1.071-1.071c.26.133.527.256.8.371A27.6,27.6,0,0,0,9.5,55.443a1.088,1.088,0,1,0,2.114-.518,25.416,25.416,0,0,1-.7-4.957h3.144A22.181,22.181,0,0,0,50.509,65.833a14.147,14.147,0,0,0,2.55,1.946,25.326,25.326,0,0,1-39.84-8.26,1.088,1.088,0,0,0-1.975.916,27.505,27.505,0,0,0,43.914,8.371,14.053,14.053,0,0,0,13.09-24.65Zm-8.009-2.289A7.246,7.246,0,1,1,53,49.112a7.254,7.254,0,0,1,7.245-7.246Zm-6.817,13.74-3.861,1.752a5.429,5.429,0,0,0-.985.58,11.85,11.85,0,0,1,2.268-9.5c-.016.222-.027.445-.027.671a9.386,9.386,0,0,0,2.605,6.494ZM33.259,18.591h5.894v2.943a27.828,27.828,0,0,0-5.894,0V18.591Zm2.947,4.964a25.2,25.2,0,0,1,17.2,6.738v4.579a22.184,22.184,0,0,0-22.991-7.406V26.079a1.814,1.814,0,0,0-.979-1.608,25.279,25.279,0,0,1,6.772-.915ZM14.053,47.792H10.905a25.2,25.2,0,0,1,.782-5.269,1.813,1.813,0,0,0,1.494.787h1.551a22.109,22.109,0,0,0-.679,4.481Zm-.509-6.658v-1.42a1.8,1.8,0,0,0-1.3-1.737,10.26,10.26,0,0,1-1.931-.8,1.8,1.8,0,0,0-2.145.312l-1,1-2.351-2.35,1-1a1.8,1.8,0,0,0,.312-2.146,10.259,10.259,0,0,1-.8-1.931,1.8,1.8,0,0,0-1.737-1.3H2.177V26.441H3.6a1.8,1.8,0,0,0,1.737-1.3,10.266,10.266,0,0,1,.8-1.931,1.8,1.8,0,0,0-.312-2.145l-1-1,2.35-2.35,1,1a1.8,1.8,0,0,0,2.145.311,10.246,10.246,0,0,1,1.93-.8,1.8,1.8,0,0,0,1.3-1.737v-1.42h3.324v1.42a1.8,1.8,0,0,0,1.3,1.737,10.255,10.255,0,0,1,1.931.8,1.8,1.8,0,0,0,2.145-.312l1-1,2.35,2.35-1,1a1.8,1.8,0,0,0-.312,2.146,10.246,10.246,0,0,1,.8,1.93,1.8,1.8,0,0,0,1.737,1.3h1.42V28.18A22.3,22.3,0,0,0,15.421,41.134H13.544ZM36.206,68.885A20.005,20.005,0,1,1,54.78,41.44a9.5,9.5,0,0,0-2.548,2.716A14.04,14.04,0,0,0,49.06,64.207,19.931,19.931,0,0,1,36.206,68.885Zm24.035-1.3a11.894,11.894,0,0,1-10.968-7.324,3.281,3.281,0,0,1,1.19-.916l4.851-2.2a9.4,9.4,0,0,0,9.855,0l4.851,2.2a3.282,3.282,0,0,1,1.19.916A11.9,11.9,0,0,1,60.241,67.581ZM70.919,57.359l-3.861-1.752a9.386,9.386,0,0,0,2.605-6.494c0-.226-.011-.449-.027-.671a11.85,11.85,0,0,1,2.268,9.5A5.428,5.428,0,0,0,70.919,57.359Z" transform="translate(0 -2.94)"/>
      </g>
    </g>
  </g>
</svg>
