<svg xmlns="http://www.w3.org/2000/svg" width="120" height="120" viewBox="0 0 120 120">
  <g id="Grupo_1113924" data-name="Grupo 1113924" transform="translate(5 5)">
    <g id="Elipse_12108" data-name="Elipse 12108" fill="#fe9ab8" stroke="rgba(255,255,255,0.4)" stroke-width="5">
      <circle cx="55" cy="55" r="55" stroke="none"/>
      <circle cx="55" cy="55" r="57.5" fill="none"/>
    </g>
    <g id="Grupo_1113927" data-name="Grupo 1113927" transform="translate(22.61 17.962)">
      <path id="Trazado_916931" data-name="Trazado 916931" d="M53.457,14,41.156,1.7A4.973,4.973,0,0,0,37.687,0c-1.792,0-3.6,1.431-3.6,4.627V8.009A36.538,36.538,0,0,0,.017,39.99a2.17,2.17,0,0,0,3.905,1.546A30.618,30.618,0,0,1,34.088,29.445v3.724a5.663,5.663,0,0,0,.7,2.948,3.335,3.335,0,0,0,2.9,1.678,4.975,4.975,0,0,0,3.469-1.7l12.3-12.3a6.935,6.935,0,0,0,0-9.8Zm0,0" fill="#00d8e0" stroke="#000" stroke-width="3"/>
      <path id="Trazado_916932" data-name="Trazado 916932" d="M118.363,218.919a2.171,2.171,0,0,0-2.55.736,30.619,30.619,0,0,1-30.165,12.091v-3.724c0-3.2-1.808-4.627-3.6-4.627a4.971,4.971,0,0,0-3.468,1.7l-12.3,12.3a6.936,6.936,0,0,0,0,9.8l12.3,12.3a4.97,4.97,0,0,0,3.468,1.7c1.792,0,3.6-1.431,3.6-4.627v-3.382a36.537,36.537,0,0,0,34.07-31.981,2.17,2.17,0,0,0-1.355-2.282Zm0,0" transform="translate(-54.956 -187.116)" fill="#54e360" stroke="#000" stroke-width="3"/>
      <path id="Trazado_916933" data-name="Trazado 916933" d="M225.565,33.169a5.663,5.663,0,0,0,.7,2.948,3.335,3.335,0,0,0,2.9,1.678,4.975,4.975,0,0,0,3.469-1.7l12.3-12.3a6.935,6.935,0,0,0,0-9.8l-12.3-12.3A4.973,4.973,0,0,0,229.165,0c-1.792,0-3.6,1.431-3.6,4.627V8.01q-.854.051-1.7.141V29.19c.567.07,1.134.154,1.7.255Zm0,0" transform="translate(-191.478 0)" fill="#00acb3" stroke="#000" stroke-width="3"/>
      <path id="Trazado_916934" data-name="Trazado 916934" d="M254.885,218.919a2.171,2.171,0,0,0-2.55.736A30.59,30.59,0,0,1,223.867,232v21.039A36.539,36.539,0,0,0,256.24,221.2a2.17,2.17,0,0,0-1.355-2.282Zm0,0" transform="translate(-191.478 -187.116)" fill="#00ab5e" stroke="#000" stroke-width="3"/>
    </g>
  </g>
</svg>
