<svg xmlns="http://www.w3.org/2000/svg" width="50" height="55.31" viewBox="0 0 50 55.31">
  <g id="Grupo_1113985" data-name="Grupo 1113985" transform="translate(-70.772 -8.981)">
    <path id="Trazado_917026" data-name="Trazado 917026" d="M78.342,64.291a2.687,2.687,0,0,1-1.667-.471c-.906-.669-1.039-1.782-1.243-3.467l-.26-2.121-1.3-1.369a1.063,1.063,0,0,1,.161-1.606l2.881-2.01-2.818-.9a1.064,1.064,0,0,1-.741-1.013,5.741,5.741,0,0,1,.135-1.064,2.372,2.372,0,0,0,.05-1.252l-1.141-1.579c-.213-.3-.4-.548-.562-.767a3.883,3.883,0,0,1-1.057-2.059,3.282,3.282,0,0,1,.895-2.051c.205-.293.462-.656.757-1.108l2.316-3.548-.163-3.993V28.268a11.056,11.056,0,0,1,1.459-6.631c4.045-6.59,9.595-10.8,16.048-12.172a23.451,23.451,0,0,1,17.037,3.066,24,24,0,0,1,10.74,13.649c1.864,6.3.851,12.991-2.932,19.339a1.02,1.02,0,0,1-.161.207l-3.741,3.745c-.877,4.81.789,9.309,2.727,13.873l-1.958.831c-2.116-4.984-3.923-9.914-2.794-15.44a1.074,1.074,0,0,1,.29-.539l3.876-3.88c7.662-12.983,1.677-24.626-7.149-29.965-8.788-5.312-21.978-4.949-30.173,8.4-.754,1.226-1.237,2.622-1.144,5.464V33.85l.176,4.31a1.067,1.067,0,0,1-.172.624l-2.5,3.833c-.316.483-.583.863-.8,1.168-.191.272-.406.576-.488.734a10.407,10.407,0,0,0,.62.886c.167.226.36.486.579.79l1.158,1.6c.008.011.017.023.024.035a3.583,3.583,0,0,1,.29,2.762l4.019,1.279a1.063,1.063,0,0,1,.286,1.886l-3.631,2.534.691.726a1.057,1.057,0,0,1,.286.6l.3,2.474a6.691,6.691,0,0,0,.4,2.012c.039.026.315.15,1.691-.1l.576-.1.471-.085.375,2.094L80.59,64l-.582.1a9.6,9.6,0,0,1-1.665.184Z" transform="translate(0 0)" fill="#523dbf"/>
    <g id="Grupo_1113984" data-name="Grupo 1113984" transform="translate(79.414 13.995)">
      <path id="Trazado_917027" data-name="Trazado 917027" d="M186.945,111.936A10.653,10.653,0,1,1,197.6,101.281,10.667,10.667,0,0,1,186.945,111.936Zm0-19.179a8.526,8.526,0,1,0,8.524,8.524A8.535,8.535,0,0,0,186.945,92.757Z" transform="translate(-168.9 -83.238)" fill="#523dbf"/>
      <path id="Trazado_917028" data-name="Trazado 917028" d="M147.814,78.064h-4.242a1.064,1.064,0,0,1-.992-.681L141.233,73.9a14.332,14.332,0,0,1-2.2-.912L135.619,74.5a1.065,1.065,0,0,1-1.184-.222l-3-3a1.064,1.064,0,0,1-.22-1.182l1.509-3.414a14.724,14.724,0,0,1-.913-2.2l-3.482-1.346a1.064,1.064,0,0,1-.681-.992V57.9a1.064,1.064,0,0,1,.681-.992l3.482-1.346a14.41,14.41,0,0,1,.913-2.2l-1.509-3.413a1.065,1.065,0,0,1,.22-1.182l3-3a1.064,1.064,0,0,1,1.184-.222l3.417,1.512a14.33,14.33,0,0,1,2.2-.912l1.346-3.482a1.064,1.064,0,0,1,.992-.681h4.242a1.064,1.064,0,0,1,.992.681l1.346,3.482a14.557,14.557,0,0,1,2.2.912l3.412-1.512a1.062,1.062,0,0,1,1.184.22l3,3a1.064,1.064,0,0,1,.22,1.184l-1.512,3.413a14.557,14.557,0,0,1,.912,2.2l3.482,1.346a1.064,1.064,0,0,1,.681.992v4.242a1.064,1.064,0,0,1-.681.992L159.57,64.48a14.331,14.331,0,0,1-.912,2.2l1.512,3.417a1.064,1.064,0,0,1-.22,1.182l-3,3a1.067,1.067,0,0,1-1.184.22l-3.412-1.512a14.557,14.557,0,0,1-2.2.912l-1.346,3.482a1.064,1.064,0,0,1-.992.681ZM144.3,75.936h2.783l1.27-3.286a1.062,1.062,0,0,1,.705-.641,12.425,12.425,0,0,0,2.724-1.13,1.063,1.063,0,0,1,.953-.046l3.223,1.427,1.971-1.971L156.5,67.062a1.062,1.062,0,0,1,.047-.954,12.292,12.292,0,0,0,1.129-2.718,1.068,1.068,0,0,1,.641-.7l3.286-1.27V58.631l-3.286-1.27a1.062,1.062,0,0,1-.641-.7,12.425,12.425,0,0,0-1.13-2.724,1.063,1.063,0,0,1-.046-.953l1.427-3.223-1.971-1.971-3.223,1.427a1.068,1.068,0,0,1-.953-.046,12.456,12.456,0,0,0-2.724-1.13,1.068,1.068,0,0,1-.705-.641l-1.27-3.286H144.3l-1.27,3.286a1.062,1.062,0,0,1-.705.641,12.294,12.294,0,0,0-2.718,1.129,1.067,1.067,0,0,1-.954.047l-3.226-1.427-1.968,1.971,1.424,3.223a1.065,1.065,0,0,1-.046.951,12.435,12.435,0,0,0-1.13,2.726,1.068,1.068,0,0,1-.641.7l-3.286,1.27v2.783l3.286,1.27a1.062,1.062,0,0,1,.641.7,12.424,12.424,0,0,0,1.13,2.724,1.065,1.065,0,0,1,.046.951l-1.424,3.223,1.968,1.971,3.226-1.427a1.067,1.067,0,0,1,.954.047,12.294,12.294,0,0,0,2.718,1.129,1.068,1.068,0,0,1,.705.641l1.27,3.286Z" transform="translate(-127.65 -41.98)" fill="#523dbf"/>
    </g>
    <path id="Trazado_917031" data-name="Trazado 917031" d="M270.534,132.888a1.063,1.063,0,0,1-1.064-1.064V121.794a1.064,1.064,0,1,1,2.127,0v10.031A1.063,1.063,0,0,1,270.534,132.888Z" transform="translate(-168.508 -94.77)" fill="#523dbf"/>
    <path id="Trazado_917032" data-name="Trazado 917032" d="M240.484,154.191a1.063,1.063,0,0,1-1.064-1.064v-6.214a1.064,1.064,0,0,1,2.127,0v6.214A1.063,1.063,0,0,1,240.484,154.191Z" transform="translate(-143.024 -116.074)" fill="#523dbf"/>
    <path id="Trazado_917033" data-name="Trazado 917033" d="M210.434,172.654a1.063,1.063,0,0,1-1.064-1.064v-2.907a1.064,1.064,0,1,1,2.127,0v2.907A1.063,1.063,0,0,1,210.434,172.654Z" transform="translate(-117.539 -134.536)" fill="#523dbf"/>
  </g>
</svg>
