<svg xmlns="http://www.w3.org/2000/svg" width="120" height="120" viewBox="0 0 120 120">
  <g id="Grupo_1113334" data-name="Grupo 1113334" transform="translate(-1236.5 -460)">
    <g id="Elipse_12108" data-name="Elipse 12108" transform="translate(1241.5 465)" fill="#fe9ab8" stroke="rgba(255,255,255,0.4)" stroke-width="5">
      <circle cx="55" cy="55" r="55" stroke="none"/>
      <circle cx="55" cy="55" r="57.5" fill="none"/>
    </g>
    <g id="Grupo_1114029" data-name="Grupo 1114029" transform="translate(1250.105 471.686)">
      <g id="Grupo_1114030" data-name="Grupo 1114030" transform="translate(27.058 40.308)">
        <path id="Trazado_917233" data-name="Trazado 917233" d="M100.511,187.094H81.845a10.5,10.5,0,0,0-10.5,10.5v11.779h39.673V197.6A10.5,10.5,0,0,0,100.511,187.094Z" transform="translate(-71.342 -158.761)" fill="#72c2e9"/>
        <path id="Trazado_917234" data-name="Trazado 917234" d="M100.511,187.094H81.845a10.5,10.5,0,0,0-10.5,10.5v11.779h39.673V197.6A10.5,10.5,0,0,0,100.511,187.094Z" transform="translate(-71.342 -158.761)" fill="#fc5d3d"/>
        <path id="Trazado_917235" data-name="Trazado 917235" d="M163,235.879h7.582v5.2H163Z" transform="translate(-130.912 -190.466)" fill="#ffb69f"/>
        <path id="Trazado_917236" data-name="Trazado 917236" d="M120.735,115.067l-1.242,1.261H99.621v-2.879a4.51,4.51,0,0,1,4.512-4.508h10.715a3.412,3.412,0,0,0,3.351-2.775L120,107.4A5.023,5.023,0,0,1,120.735,115.067Z" transform="translate(-89.72 -106.167)" fill="#7c7b7a"/>
        <g id="Grupo_1114029-2" data-name="Grupo 1114029" transform="translate(0 10.161)">
          <path id="Trazado_917237" data-name="Trazado 917237" d="M113.328,139.49h-1.009v-4.3H92.446v4.3h-1a2.858,2.858,0,1,0,0,5.715h1.157a9.942,9.942,0,0,0,19.56,0h1.162a2.86,2.86,0,0,0,0-5.719Z" transform="translate(-82.55 -135.19)" fill="#ffb69f"/>
          <path id="Trazado_917238" data-name="Trazado 917238" d="M71.343,235.879h7.616v5.2H71.343Z" transform="translate(-71.343 -200.627)" fill="#ffb69f"/>
        </g>
      </g>
      <path id="Trazado_917239" data-name="Trazado 917239" d="M115.655,21.75A14.417,14.417,0,1,0,98.389,35.884l2.85,4.563,2.85-4.563A14.421,14.421,0,0,0,115.655,21.75Z" transform="translate(-54.343 -1.627)" fill="#efefef"/>
      <path id="Trazado_917240" data-name="Trazado 917240" d="M198.743,172.345c-1.306-.43-2.325-.708-3.008-3.648a.932.932,0,0,0-1.814,0c-.668,2.875-1.6,3.183-3.008,3.649a.932.932,0,0,0,0,1.768c2.341.773,2.606,1.917,3.008,3.648a.931.931,0,0,0,1.814,0c.667-2.875,1.649-3.2,3.008-3.648a.932.932,0,0,0,0-1.769Z" transform="translate(-121.577 -106.03)"/>
      <path id="Trazado_917241" data-name="Trazado 917241" d="M202.063,180.07a4.616,4.616,0,0,0-1.376,1.554,4.826,4.826,0,0,0-1.46-1.54,4.6,4.6,0,0,0,1.442-1.625A4.761,4.761,0,0,0,202.063,180.07Z" transform="translate(-127.395 -112.841)" fill="#f0c020"/>
      <path id="Trazado_917242" data-name="Trazado 917242" d="M48.189,172.345c-1.306-.43-2.325-.708-3.008-3.648a.932.932,0,0,0-1.814,0c-.668,2.875-1.6,3.183-3.008,3.649a.932.932,0,0,0,0,1.768c2.341.773,2.606,1.917,3.008,3.648a.931.931,0,0,0,1.814,0c.667-2.875,1.649-3.2,3.008-3.648a.932.932,0,0,0,0-1.769Z" transform="translate(-23.734 -106.03)"/>
      <path id="Trazado_917243" data-name="Trazado 917243" d="M51.509,180.07a4.616,4.616,0,0,0-1.376,1.554,4.826,4.826,0,0,0-1.46-1.54,4.6,4.6,0,0,0,1.442-1.625A4.761,4.761,0,0,0,51.509,180.07Z" transform="translate(-29.551 -112.841)" fill="#f0c020"/>
      <g id="Grupo_1114031" data-name="Grupo 1114031" transform="translate(4.077 23.678)">
        <path id="Trazado_917244" data-name="Trazado 917244" d="M30.971,79.984a13.768,13.768,0,1,0-3.953,3.953l5.744,1.792Z" transform="translate(-5.702 -58.667)" fill="#efefef"/>
      </g>
      <g id="Grupo_1114032" data-name="Grupo 1114032" transform="translate(8.279 27.879)">
        <circle id="Elipse_13953" data-name="Elipse 13953" cx="9.563" cy="9.563" r="9.563" fill="#72c2e9"/>
      </g>
      <circle id="Elipse_13954" data-name="Elipse 13954" cx="9.563" cy="9.563" r="9.563" transform="translate(37.332 10.56)" fill="#f0c020"/>
      <g id="Grupo_1114033" data-name="Grupo 1114033" transform="translate(62.184 23.678)">
        <path id="Trazado_917245" data-name="Trazado 917245" d="M177.882,83.935a13.767,13.767,0,1,0-3.953-3.952l-1.792,5.744Z" transform="translate(-171.67 -58.666)" fill="#efefef"/>
      </g>
      <circle id="Elipse_13955" data-name="Elipse 13955" cx="9.563" cy="9.563" r="9.563" transform="translate(66.386 27.879)" fill="#fc5d3d"/>
      <g id="Grupo_1114034" data-name="Grupo 1114034" transform="translate(36.686 71.267)">
        <path id="Trazado_917246" data-name="Trazado 917246" d="M125.385,205.852a.875.875,0,0,1-.875-.875v-2.505a6.134,6.134,0,0,0-6.127-6.127H104.268a.875.875,0,0,1,0-1.751h14.115a7.886,7.886,0,0,1,7.877,7.877v2.505A.875.875,0,0,1,125.385,205.852Zm-24.618-9.508h-1.05a.875.875,0,1,1,0-1.751h1.05a.875.875,0,0,1,0,1.751Z" transform="translate(-98.841 -194.594)" fill="#ffcbc3"/>
      </g>
      <path id="Trazado_917247" data-name="Trazado 917247" d="M124.2,165.538a.891.891,0,0,0-1.127.511,2.224,2.224,0,0,1-2.069,1.436H121a2.192,2.192,0,0,1-2.069-1.432.874.874,0,0,0-1.618-.059.86.86,0,0,0-.025.665v0a3.969,3.969,0,0,0,7.429,0,.878.878,0,0,0-.515-1.128Z" transform="translate(-74.107 -104.407)"/>
      <path id="Trazado_917248" data-name="Trazado 917248" d="M114.04,148.071a.875.875,0,0,0-1.751,0v.585a.875.875,0,0,0,1.751,0Z" transform="translate(-70.895 -92.523)"/>
      <path id="Trazado_917249" data-name="Trazado 917249" d="M139.576,147.2a.875.875,0,0,0-.875.875v.585a.875.875,0,1,0,1.751,0v-.585A.875.875,0,0,0,139.576,147.2Z" transform="translate(-88.06 -92.523)"/>
      <path id="Trazado_917250" data-name="Trazado 917250" d="M126.37,153.287a.875.875,0,0,0,.875-.875v-2.669a.875.875,0,1,0-1.751,0v2.669A.875.875,0,0,0,126.37,153.287Z" transform="translate(-79.477 -93.609)"/>
      <path id="Trazado_917251" data-name="Trazado 917251" d="M68.841,143.377v11.779a.875.875,0,0,0,1.751,0v-4.327h5.866v4.328a.875.875,0,1,0,1.751,0v-9.8a.875.875,0,1,0-1.751,0v3.721H70.592v-5.7a9.639,9.639,0,0,1,9.628-9.628H98.886a9.639,9.639,0,0,1,9.628,9.628v5.7h-5.83v-3.722a.875.875,0,1,0-1.751,0v9.8a.875.875,0,0,0,1.751,0v-4.328h5.83v4.327a.875.875,0,1,0,1.751,0V143.377A11.391,11.391,0,0,0,98.886,132H95.6a10.15,10.15,0,0,0,4.449-6.4h.449a3.736,3.736,0,1,0-.134-7.47v-3.062l.993-1.008a5.9,5.9,0,0,0-.864-9.008l-1.8-1.231a.876.876,0,0,0-1.354.559,2.538,2.538,0,0,1-2.485,2.062H92.182a.875.875,0,0,0,0,1.751h2.662a4.292,4.292,0,0,0,3.792-2.288l.866.592a4.148,4.148,0,0,1,.606,6.332l-.985,1H80.493v-2a3.638,3.638,0,0,1,3.636-3.632H85.18a.875.875,0,1,0,0-1.751H84.117a5.391,5.391,0,0,0-5.375,5.383c0,2.2,0,2.881,0,6.308a3.734,3.734,0,1,0-.122,7.466h.447a10.213,10.213,0,0,0,4.43,6.4H80.22A11.393,11.393,0,0,0,68.841,143.377Zm31.522-23.5a1.99,1.99,0,1,1-.032,3.969c.007-.09.032-.646.032-.855v-3.114Zm-23.734,1.987a1.991,1.991,0,0,1,2.109-1.982v3.111c0,.228.01.529.035.854A2,2,0,0,1,76.629,121.863Zm3.861,1.127c0-1.279,0-6.135,0-7.414H98.61v7.415a9.06,9.06,0,0,1-18.12,0Z" transform="translate(-42.658 -64.232)"/>
      <circle id="Elipse_13956" data-name="Elipse 13956" cx="0.875" cy="0.875" r="0.875" transform="translate(45.148 42.207)"/>
      <path id="Trazado_917252" data-name="Trazado 917252" d="M96.217,35.035l2.653,4.249a.876.876,0,0,0,1.485,0l2.653-4.249A15.294,15.294,0,0,0,99.615,4.83h0a15.278,15.278,0,0,0-5.1.871A.875.875,0,1,0,95.1,7.349,13.55,13.55,0,0,1,99.6,6.58h.008A13.543,13.543,0,0,1,102.291,33.4a.876.876,0,0,0-.57.395l-2.108,3.375-2.107-3.375a.876.876,0,0,0-.57-.395A13.571,13.571,0,0,1,86.071,20.122s0,0,0,0a13.5,13.5,0,0,1,3.589-9.18A.874.874,0,0,0,89.614,9.7a.9.9,0,0,0-1.239.049,15.244,15.244,0,0,0-4.054,10.37s0,0,0,.006A15.33,15.33,0,0,0,96.217,35.035Z" transform="translate(-52.718)"/>
      <path id="Trazado_917253" data-name="Trazado 917253" d="M103.229,11.782a.874.874,0,1,0,1.211.249.891.891,0,0,0-1.211-.249Z" transform="translate(-64.751 -4.429)"/>
      <path id="Trazado_917254" data-name="Trazado 917254" d="M17.841,85.445a14.575,14.575,0,0,0,7.68-2.178l5.356,1.67a.876.876,0,0,0,1.1-1.1L30.3,78.485a14.638,14.638,0,1,0-12.462,6.96Zm0-27.528a12.886,12.886,0,0,1,10.774,19.96.875.875,0,0,0-.1.742l1.295,4.151-4.151-1.295a.875.875,0,0,0-.742.1,12.888,12.888,0,1,1-7.071-23.662Z" transform="translate(0 -33.363)"/>
      <path id="Trazado_917255" data-name="Trazado 917255" d="M25.64,89.043A10.438,10.438,0,1,0,15.2,78.6,10.45,10.45,0,0,0,25.64,89.043Zm0-19.126A8.687,8.687,0,1,1,16.953,78.6a8.7,8.7,0,0,1,8.688-8.687Z" transform="translate(-7.799 -41.163)"/>
      <path id="Trazado_917256" data-name="Trazado 917256" d="M34.141,90.63a.875.875,0,0,0,.875-.875v-.379a.875.875,0,1,0-1.751,0v.379A.875.875,0,0,0,34.141,90.63Z" transform="translate(-19.538 -54.377)"/>
      <path id="Trazado_917257" data-name="Trazado 917257" d="M52.641,90.63a.875.875,0,0,0,.875-.875v-.379a.875.875,0,1,0-1.751,0v.379A.875.875,0,0,0,52.641,90.63Z" transform="translate(-31.561 -54.377)"/>
      <path id="Trazado_917258" data-name="Trazado 917258" d="M118.983,54.014a4.863,4.863,0,0,0,4.858-4.858.875.875,0,1,0-1.751,0,3.107,3.107,0,0,1-6.214,0,.875.875,0,1,0-1.751,0A4.863,4.863,0,0,0,118.983,54.014Z" transform="translate(-72.088 -28.239)"/>
      <path id="Trazado_917259" data-name="Trazado 917259" d="M98.186,29.136A10.438,10.438,0,1,0,108.624,18.7,10.45,10.45,0,0,0,98.186,29.136Zm10.438-8.688a8.688,8.688,0,1,1-8.688,8.688A8.7,8.7,0,0,1,108.624,20.449Z" transform="translate(-61.729 -9.013)"/>
      <path id="Trazado_917260" data-name="Trazado 917260" d="M117.125,41.161a.875.875,0,0,0,.875-.875v-.38a.875.875,0,1,0-1.751,0v.38A.875.875,0,0,0,117.125,41.161Z" transform="translate(-73.469 -22.228)"/>
      <path id="Trazado_917261" data-name="Trazado 917261" d="M135.625,41.161a.875.875,0,0,0,.875-.875v-.38a.875.875,0,0,0-1.751,0v.38A.875.875,0,0,0,135.625,41.161Z" transform="translate(-85.492 -22.228)"/>
      <path id="Trazado_917262" data-name="Trazado 917262" d="M198.449,70.806a14.639,14.639,0,1,0-27.1,7.68l-1.67,5.356a.876.876,0,0,0,1.1,1.1l5.356-1.67a14.638,14.638,0,0,0,22.32-12.462ZM176,81.476l-4.151,1.295,1.295-4.151a.875.875,0,0,0-.1-.742,12.894,12.894,0,1,1,3.7,3.7.875.875,0,0,0-.742-.1Z" transform="translate(-107.861 -33.364)"/>
      <path id="Trazado_917263" data-name="Trazado 917263" d="M202.046,78.6a10.438,10.438,0,1,0-10.438,10.438A10.45,10.45,0,0,0,202.046,78.6Zm-19.126,0a8.688,8.688,0,1,1,8.688,8.688A8.7,8.7,0,0,1,182.921,78.6Z" transform="translate(-115.66 -41.163)"/>
      <path id="Trazado_917264" data-name="Trazado 917264" d="M198.3,90.995l.98.117a.875.875,0,0,0,.207-1.738l-.98-.117a.875.875,0,1,0-.207,1.738Z" transform="translate(-126.288 -54.865)"/>
      <path id="Trazado_917265" data-name="Trazado 917265" d="M217.517,91.116a.879.879,0,0,0,.1-.006l.98-.117a.875.875,0,0,0-.207-1.738l-.98.117a.875.875,0,0,0,.1,1.745Z" transform="translate(-138.713 -54.864)"/>
      <path id="Trazado_917266" data-name="Trazado 917266" d="M38.579,103.876h3.37a.875.875,0,0,0,0-1.751h-3.37a.875.875,0,0,0,0,1.751Z" transform="translate(-22.423 -63.232)"/>
      <path id="Trazado_917267" data-name="Trazado 917267" d="M200.442,101.79a.875.875,0,0,0,1.238,0l1.2-1.2,1.2,1.2a.875.875,0,0,0,1.238-1.238L203.5,98.736a.875.875,0,0,0-1.238,0l-1.2,1.2-1.2-1.2a.875.875,0,0,0-1.238,0l-1.2,1.2-1.2-1.2a.875.875,0,0,0-1.238,0l-1.816,1.816a.875.875,0,0,0,1.238,1.238l1.2-1.2,1.2,1.2a.875.875,0,0,0,1.238,0l1.2-1.2Z" transform="translate(-123.296 -60.862)"/>
    </g>
  </g>
</svg>
