<svg xmlns="http://www.w3.org/2000/svg" width="120" height="120" viewBox="0 0 120 120">
  <g id="Grupo_1113336" data-name="Grupo 1113336" transform="translate(-1236.5 -460)">
    <g id="Elipse_12108" data-name="Elipse 12108" transform="translate(1241.5 465)" fill="#fe9ab8" stroke="rgba(255,255,255,0.4)" stroke-width="5">
      <circle cx="55" cy="55" r="55" stroke="none"/>
      <circle cx="55" cy="55" r="57.5" fill="none"/>
    </g>
    <g id="Grupo_1114036" data-name="Grupo 1114036" transform="translate(1262.282 486.109)">
      <path id="Trazado_917268" data-name="Trazado 917268" d="M264.328,235.447H275.54V196.3a73.226,73.226,0,0,1-11.212,6.492Zm0,0" transform="translate(-227.002 -168.787)" fill="#ffcd00"/>
      <path id="Trazado_917269" data-name="Trazado 917269" d="M392.328,90.6v44.487h11.211V79.574l-8.05,8.05c-1.031,1.031-2.085,2.018-3.161,2.971Zm0,0" transform="translate(-337.063 -68.422)" fill="#5eac24"/>
      <path id="Trazado_917270" data-name="Trazado 917270" d="M136.328,292.06H147.54V262.136a72.388,72.388,0,0,1-11.212,2.948Zm0,0" transform="translate(-116.94 -225.399)" fill="#ab2300"/>
      <path id="Trazado_917271" data-name="Trazado 917271" d="M8.328,289.866v25.786H19.54V289.574c-2.164.191-4.361.292-6.559.292Zm0,0" transform="translate(-6.879 -248.992)" fill="#00b6bd"/>
      <g id="Grupo_1114035" data-name="Grupo 1114035" transform="translate(0.328)">
        <path id="Trazado_917272" data-name="Trazado 917272" d="M256.976,188.522l-.648.3v34.5h13.454V180.887l-1.766,1.243a72.25,72.25,0,0,1-11.04,6.392Zm10.563,32.554H258.57V190.244a74.562,74.562,0,0,0,8.969-5.08Zm0,0" transform="translate(-220.451 -155.536)" fill="#231f20"/>
        <path id="Trazado_917273" data-name="Trazado 917273" d="M384.705,73.153l-.378.337V119.6h13.454V60.264l-9.964,9.963c-.973.972-2.019,1.957-3.112,2.925Zm10.834-7.48v51.685H386.57V74.5c.991-.889,1.942-1.794,2.833-2.682Zm0,0" transform="translate(-330.512 -51.819)" fill="#231f20"/>
        <path id="Trazado_917274" data-name="Trazado 917274" d="M129.252,254.282l-.924.161v29.038h13.454V250.855l-1.492.525a71.535,71.535,0,0,1-11.037,2.9Zm10.287,26.957h-8.969V256.317A73.62,73.62,0,0,0,139.54,254Zm0,0" transform="translate(-110.39 -215.699)" fill="#231f20"/>
        <path id="Trazado_917275" data-name="Trazado 917275" d="M6.1,281.235H.328v28.029H13.782V280.84l-1.22.112c-2.163.186-4.336.282-6.46.282Zm5.438,25.786H2.57V283.477H6.1c1.794,0,3.615-.067,5.438-.2Zm0,0" transform="translate(-0.328 -241.482)" fill="#231f20"/>
        <path id="Trazado_917276" data-name="Trazado 917276" d="M12.773,34.948a68.433,68.433,0,0,0,6.839-1.025A68,68,0,0,0,31,30.56a63.659,63.659,0,0,0,6.839-3.113,67.529,67.529,0,0,0,11.4-7.512,67.524,67.524,0,0,0,5.21-4.7l9.754-9.754L63.153,9.173l2.157.614L68.107,0,58.319,2.8l.614,2.157L62.622,3.9l-9.754,9.754A65.762,65.762,0,0,1,47.83,18.2,65.434,65.434,0,0,1,36.8,25.462a61.57,61.57,0,0,1-6.615,3.008,65.912,65.912,0,0,1-11.022,3.251c-2.175.438-4.4.771-6.615.991s-4.373.313-6.448.313H.328v2.242H6.1c2.147,0,4.388-.112,6.671-.32Zm0,0" transform="translate(-0.328)" fill="#231f20"/>
      </g>
    </g>
  </g>
</svg>
