<svg xmlns="http://www.w3.org/2000/svg" width="72.84" height="72.843" viewBox="0 0 72.84 72.843">
  <g id="Grupo_1113869" data-name="Grupo 1113869" transform="translate(-1 -0.997)">
    <path id="Trazado_916808" data-name="Trazado 916808" d="M2,32v4.7H7.06a30.373,30.373,0,0,0,5.522,13.317L9,53.6l6.646,6.646,3.583-3.583a30.373,30.373,0,0,0,13.318,5.523v5.06h9.4v-5.06a30.373,30.373,0,0,0,13.317-5.522l3.583,3.583L65.491,53.6l-3.583-3.583A30.373,30.373,0,0,0,67.43,36.7h5.06V32" transform="translate(0.175 5.42)" fill="#b5b5b5"/>
    <path id="Trazado_916809" data-name="Trazado 916809" d="M56.294,32A21.147,21.147,0,0,1,14,32" transform="translate(2.273 5.42)" fill="#f2f2f2"/>
    <path id="Trazado_916810" data-name="Trazado 916810" d="M20.8,37.245H2a35.245,35.245,0,0,1,70.49,0h-18.8" transform="translate(0.175 0.175)" fill="#3b5892"/>
    <circle id="Elipse_13910" data-name="Elipse 13910" cx="16.448" cy="16.448" r="16.448" transform="translate(20.972 20.973)" fill="#5e87ca"/>
    <path id="Trazado_916811" data-name="Trazado 916811" d="M25,25H41.448V41.448H25Z" transform="translate(4.196 4.197)" fill="#c0dafc"/>
    <path id="Trazado_916812" data-name="Trazado 916812" d="M29,29h7.049v7.049H29Z" transform="translate(4.895 4.896)" fill="#5e87ca"/>
    <path id="Trazado_916813" data-name="Trazado 916813" d="M33.7,32.525V29H29v4.7h3.525A1.175,1.175,0,0,0,33.7,32.525Z" transform="translate(4.895 4.896)" fill="#78a0d4"/>
    <path id="Trazado_916814" data-name="Trazado 916814" d="M36.224,28H29.175A1.175,1.175,0,0,0,28,29.175v7.049A1.175,1.175,0,0,0,29.175,37.4h7.049A1.175,1.175,0,0,0,37.4,36.224V29.175A1.175,1.175,0,0,0,36.224,28Zm-1.175,7.049h-4.7v-4.7h4.7Z" transform="translate(4.721 4.721)"/>
    <path id="Trazado_916815" data-name="Trazado 916815" d="M62.014,10.586,62,10.565H62a36.345,36.345,0,0,0-49.15,0v.008A36.328,36.328,0,0,0,1,37.42v4.7a1.175,1.175,0,0,0,1.175,1.175h4.07a31.747,31.747,0,0,0,4.977,12.012L8.344,58.189a1.175,1.175,0,0,0,0,1.661L14.99,66.5a1.175,1.175,0,0,0,1.661,0l2.883-2.877A31.746,31.746,0,0,0,31.546,68.6v4.07a1.175,1.175,0,0,0,1.175,1.175h9.4a1.175,1.175,0,0,0,1.175-1.175V68.6a31.747,31.747,0,0,0,12.012-4.977L58.189,66.5a1.175,1.175,0,0,0,1.661,0L66.5,59.855a1.175,1.175,0,0,0,0-1.661l-2.877-2.888A31.747,31.747,0,0,0,68.6,43.295h4.07A1.175,1.175,0,0,0,73.84,42.12v-4.7A36.331,36.331,0,0,0,62.014,10.586Zm-45.02,4.558A42.262,42.262,0,0,0,13.235,24.6a43.13,43.13,0,0,1-6.227-2.514,34.235,34.235,0,0,1,6.227-8.624,37.1,37.1,0,0,0,3.759,1.684Zm2.216.777a52.912,52.912,0,0,0,7.246,1.772q-.683,3.144-1.175,6.988a17.746,17.746,0,0,0-2,2.263,71.046,71.046,0,0,1-7.811-1.672,39.834,39.834,0,0,1,3.737-9.351Zm42.4-2.458a34.235,34.235,0,0,1,6.227,8.624A42.941,42.941,0,0,1,61.605,24.6a42.285,42.285,0,0,0-3.759-9.455,36.7,36.7,0,0,0,3.761-1.687Zm-2.239,11.8a70.929,70.929,0,0,1-7.811,1.672,17.666,17.666,0,0,0-2-2.263q-.489-3.849-1.175-6.988a52.912,52.912,0,0,0,7.248-1.768,39.834,39.834,0,0,1,3.736,9.347ZM37.42,22.148A15.273,15.273,0,1,1,22.147,37.42,15.273,15.273,0,0,1,37.42,22.148Zm-9.462.43q.377-2.372.869-4.529a65.6,65.6,0,0,0,8.593.564,65.466,65.466,0,0,0,8.608-.567c.312,1.44.6,2.95.854,4.532A17.494,17.494,0,0,0,27.958,22.578ZM47.841,15.4c-1.336-5.2-3.049-8.788-4.869-11.083a23.44,23.44,0,0,1,11.4,9.54A51.414,51.414,0,0,1,47.841,15.4Zm-2.4.352a63.452,63.452,0,0,1-8.025.508,63.478,63.478,0,0,1-8.032-.51c2.031-7.529,5.029-12.4,8.032-12.4s6,4.874,8.025,12.4ZM27,15.4a51.016,51.016,0,0,1-6.527-1.544,23.44,23.44,0,0,1,11.4-9.54c-1.82,2.3-3.533,5.887-4.87,11.083ZM21.9,29.09a17.5,17.5,0,0,0-2.041,7.156H13.944a48.017,48.017,0,0,1,.987-8.694A70.669,70.669,0,0,0,21.9,29.09ZM19.857,38.6a17.6,17.6,0,0,0,35.128,0h2.35a19.945,19.945,0,0,1-39.827,0Zm35.128-2.35a17.5,17.5,0,0,0-2.04-7.156c2.447-.418,4.777-.932,6.966-1.534a48.017,48.017,0,0,1,.987,8.694Zm8.263,0a50.059,50.059,0,0,0-1.084-9.356,45.738,45.738,0,0,0,6.658-2.669A33.822,33.822,0,0,1,71.47,36.246Zm-3.46-24.5c-1,.483-2.051.93-3.156,1.342a30.311,30.311,0,0,0-6.289-7.194A34.145,34.145,0,0,1,59.788,11.747ZM24.5,5.895a30.287,30.287,0,0,0-6.295,7.195c-1.1-.411-2.159-.859-3.157-1.343A34.169,34.169,0,0,1,24.5,5.895ZM6.021,24.22a45.792,45.792,0,0,0,6.658,2.669,50.06,50.06,0,0,0-1.084,9.356H3.371A33.822,33.822,0,0,1,6.021,24.22ZM67.6,40.945a1.175,1.175,0,0,0-1.161,1,29.371,29.371,0,0,1-5.309,12.806,1.175,1.175,0,0,0,.117,1.527l2.753,2.753L59.02,64.012l-2.753-2.753a1.175,1.175,0,0,0-1.527-.117,29.371,29.371,0,0,1-12.806,5.309,1.175,1.175,0,0,0-1,1.161v3.879H33.9V67.606a1.175,1.175,0,0,0-1-1.161,29.371,29.371,0,0,1-12.806-5.309,1.175,1.175,0,0,0-1.527.117l-2.753,2.753L10.836,59.02l2.753-2.753a1.175,1.175,0,0,0,.117-1.527,29.371,29.371,0,0,1-5.3-12.8,1.175,1.175,0,0,0-1.167-1H3.35V38.6H15.158a22.291,22.291,0,0,0,44.526,0H71.49v2.35Z"/>
    <path id="Trazado_916816" data-name="Trazado 916816" d="M24.525,42.147A1.175,1.175,0,0,0,25.7,43.322h2.35v3.525H30.4V43.322h2.35v3.525H35.1V43.322h2.35v3.525H39.8V43.322h2.35a1.175,1.175,0,0,0,1.175-1.175V39.8h3.525v-2.35H43.322V35.1h3.525v-2.35H43.322V30.4h3.525v-2.35H43.322V25.7a1.175,1.175,0,0,0-1.175-1.175H39.8V21h-2.35v3.525H35.1V21h-2.35v3.525H30.4V21h-2.35v3.525H25.7A1.175,1.175,0,0,0,24.525,25.7v2.35H21V30.4h3.525v2.35H21V35.1h3.525v2.35H21V39.8h3.525Zm2.35-15.273h14.1v14.1h-14.1Z" transform="translate(3.497 3.497)"/>
  </g>
</svg>
