<svg xmlns="http://www.w3.org/2000/svg" width="32" height="30.249" viewBox="0 0 32 30.249">
  <g id="Grupo_1114028" data-name="Grupo 1114028" transform="translate(0 -14.007)">
    <path id="Trazado_917232" data-name="Trazado 917232" d="M31.915,33.7l-3.028-6.636A11.132,11.132,0,0,0,9.61,20.037l-.808-1.4a2.8,2.8,0,1,0-2.14.995,2.771,2.771,0,0,0,.521-.05l1.187,2.056a11.081,11.081,0,0,0-1.4,3.242H5.547l-.421-.434a2.813,2.813,0,1,0-1.54,1.106l.893.919a.937.937,0,0,0,.672.284H6.658q-.033.426-.033.861a11.213,11.213,0,0,0,.112,1.577H5.151a.938.938,0,0,0-.712.328l-.77.9a2.818,2.818,0,1,0,1.495,1.137l.419-.489H7.171a11.1,11.1,0,0,0,2.178,3.845v8.4a.938.938,0,0,0,.937.938H20.647a.938.938,0,0,0,.938-.937v-2.51h3.038a3.637,3.637,0,0,0,3.584-2.9l.612-2.876h2.243a.937.937,0,0,0,.853-1.327ZM6.414,17.724a.938.938,0,1,1,.711-.094.932.932,0,0,1-.711.094ZM1.875,22.85a.937.937,0,1,1,.937.938A.939.939,0,0,1,1.875,22.85Zm.937,11.187A.937.937,0,1,1,3.75,33.1.939.939,0,0,1,2.812,34.037Zm25.247-.882a.938.938,0,0,0-.917.742l-.77,3.619a1.776,1.776,0,0,1-1.75,1.417H20.647a.938.938,0,0,0-.937.938v2.51H11.224V34.555a.937.937,0,0,0-.25-.638,9.252,9.252,0,0,1-1.808-2.848h3.272a.937.937,0,1,0,0-1.875h-3.8A9.309,9.309,0,0,1,8.5,27.617c0-.29.014-.577.04-.861h3.9a.938.938,0,0,0,0-1.875H8.912a9.233,9.233,0,0,1,1.17-2.437h6.542a.938.938,0,0,0,0-1.875H11.759a9.258,9.258,0,0,1,15.262,6.75.937.937,0,0,0,.084.36l2.5,5.477H28.06Z" fill="#523dbf"/>
  </g>
</svg>
