<svg xmlns="http://www.w3.org/2000/svg" width="32" height="28.481" viewBox="0 0 32 28.481">
  <g id="Grupo_1114027" data-name="Grupo 1114027" transform="translate(0 -28.153)">
    <path id="Trazado_917224" data-name="Trazado 917224" d="M30.447,28.153H25.708a.625.625,0,0,0,0,1.25h4.739a.307.307,0,0,1,.3.3V40.074a.307.307,0,0,1-.3.3H28.771a.625.625,0,0,0-.625.625v1.6l-3.617-1.975V35.565a1.9,1.9,0,0,0-1.9-1.9H15.051V29.706a.307.307,0,0,1,.3-.3h4.739a.625.625,0,1,0,0-1.25H15.354A1.555,1.555,0,0,0,13.8,29.706v3.958H1.9a1.9,1.9,0,0,0-1.9,1.9V49.806a1.9,1.9,0,0,0,1.9,1.9H3.575v3.025a.625.625,0,0,0,.925.549l6.544-3.573h2.065a2.974,2.974,0,0,0,.368.573,9.473,9.473,0,0,0,3.393,2.678l-.61.61a.625.625,0,1,0,.884.884l.989-.989a11.369,11.369,0,0,0,2.465.511h0c.359.034.72.052,1.082.052s.723-.018,1.082-.052h0a11.172,11.172,0,0,0,3.43-.878,9.527,9.527,0,0,0,3.69-2.814,1.743,1.743,0,0,0,0-2.5A9.473,9.473,0,0,0,26.5,47.1l.5-.5a.625.625,0,0,0-.884-.884l-.88.88q-.347-.114-.7-.205V42.056l3.942,2.153a.625.625,0,0,0,.925-.549V41.627h1.051A1.555,1.555,0,0,0,32,40.074V29.706a1.555,1.555,0,0,0-1.553-1.553ZM13.477,49.776a2.764,2.764,0,0,0-.415.681H10.885a.625.625,0,0,0-.3.076l-5.76,3.145v-2.6a.625.625,0,0,0-.625-.625H1.9a.651.651,0,0,1-.651-.651V35.565a.651.651,0,0,1,.651-.651H22.63a.658.658,0,0,1,.649.651V46.143a11.565,11.565,0,0,0-1.6-.112,11.307,11.307,0,0,0-4.514.93A9.529,9.529,0,0,0,13.477,49.776Zm.98,1.727a1,1,0,0,1-.26-.477c0-.067.045-.2.26-.475A8.355,8.355,0,0,1,17.48,48.2a5.067,5.067,0,0,0,0,5.656A8.356,8.356,0,0,1,14.457,51.5Zm3.411-.477a3.8,3.8,0,0,1,2.906-3.7c.3-.027.6-.041.908-.041s.608.014.908.041a3.818,3.818,0,0,1,1.314.6L18.576,53.25a3.815,3.815,0,0,1-.709-2.224ZM25.885,48.2a8.358,8.358,0,0,1,3.024,2.354c.214.269.259.406.259.473a.981.981,0,0,1-.26.477,8.355,8.355,0,0,1-3.024,2.353,5.067,5.067,0,0,0,0-5.656Zm-1.1.6a3.823,3.823,0,0,1-2.2,5.929c-.3.027-.6.041-.908.041s-.608-.014-.908-.041a3.817,3.817,0,0,1-1.314-.6Z" fill="#523dbf"/>
    <path id="Trazado_917225" data-name="Trazado 917225" d="M178.723,171.335h8.7a.625.625,0,0,0,0-1.25h-8.7a.625.625,0,1,0,0,1.25Z" transform="translate(-166.967 -133.061)" fill="#523dbf"/>
    <path id="Trazado_917226" data-name="Trazado 917226" d="M55.9,171.335h3.928a.625.625,0,1,0,0-1.25H55.9a.625.625,0,0,0,0,1.25Z" transform="translate(-51.819 -133.061)" fill="#523dbf"/>
    <path id="Trazado_917227" data-name="Trazado 917227" d="M72.9,278.173a.625.625,0,0,0-.625-.625H55.9a.625.625,0,0,0,0,1.25H72.271A.625.625,0,0,0,72.9,278.173Z" transform="translate(-51.819 -233.808)" fill="#523dbf"/>
    <path id="Trazado_917228" data-name="Trazado 917228" d="M63.067,331.265H55.9a.625.625,0,0,0,0,1.25h7.168a.625.625,0,0,0,0-1.25Z" transform="translate(-51.819 -284.168)" fill="#523dbf"/>
    <path id="Trazado_917229" data-name="Trazado 917229" d="M55.9,225.052h8.693a.625.625,0,0,0,0-1.25H55.9a.625.625,0,0,0,0,1.25Z" transform="translate(-51.819 -183.421)" fill="#523dbf"/>
    <path id="Trazado_917230" data-name="Trazado 917230" d="M258.929,223.8H255a.625.625,0,0,0,0,1.25h3.928a.625.625,0,0,0,0-1.25Z" transform="translate(-238.477 -183.421)" fill="#523dbf"/>
    <path id="Trazado_917231" data-name="Trazado 917231" d="M357.02,29.4h0a.625.625,0,1,0-.629-.625A.624.624,0,0,0,357.024,29.4Z" transform="translate(-334.12 0)" fill="#523dbf"/>
  </g>
</svg>
