<svg xmlns="http://www.w3.org/2000/svg" width="55" height="55" viewBox="0 0 55 55">
  <g id="Grupo_1114122" data-name="Grupo 1114122" transform="translate(-195.184 -3470)">
    <rect id="Rectángulo_411560" data-name="Rectángulo 411560" width="55" height="55" transform="translate(195.184 3470)" fill="#523dbf"/>
    <g id="Grupo_1114121" data-name="Grupo 1114121" transform="translate(202.184 3477)">
      <path id="Trazado_917502" data-name="Trazado 917502" d="M29.294,5.637c0-.019.006-.038.006-.057C29.3,1.953,21.752,0,14.65,0S0,1.953,0,5.581V30.695c0,2.393,3.945,5.093,12.557,5.521v.06c0,3.628,7.547,5.581,14.65,5.581s14.65-1.953,14.65-5.581V11.162C41.856,7.891,35.711,5.98,29.294,5.637Zm11.167,5.524c0,1.98-5.441,4.186-13.255,4.186s-13.255-2.206-13.255-4.186,5.441-4.186,13.255-4.186S40.461,9.182,40.461,11.162ZM14.65,1.4C22.463,1.4,27.9,3.6,27.9,5.581v.006c-.233-.006-.466-.006-.7-.006-6.1,0-12.518,1.443-14.214,4.144C6.039,9.436,1.4,7.379,1.4,5.581,1.4,3.6,6.837,1.4,14.65,1.4ZM1.4,8.037C3.573,9.8,8.013,10.864,12.561,11.1c0,.02,0,.04,0,.06v6.915C5.852,17.719,1.4,15.7,1.4,13.952Zm0,8.363c2.181,1.768,6.627,2.834,11.162,3.074V26.45C5.853,26.091,1.4,24.072,1.4,22.323Zm0,14.295v-5.93c1.819,1.526,5.469,2.8,11.162,3.082v6.976C5.853,34.462,1.4,32.443,1.4,30.695Zm25.811,9.767c-7.813,0-13.255-2.206-13.255-4.186V30.388c2.505,2.025,8,3.1,13.255,3.1s10.749-1.072,13.255-3.1v5.887C40.461,38.255,35.02,40.461,27.207,40.461Zm0-8.371c-7.813,0-13.255-2.206-13.255-4.186V22.017c2.505,2.025,8,3.1,13.255,3.1s10.749-1.072,13.255-3.1V27.9C40.461,29.884,35.02,32.09,27.207,32.09Zm0-8.371c-7.813,0-13.255-2.206-13.255-4.186V13.646c2.505,2.025,8,3.1,13.255,3.1s10.749-1.072,13.255-3.1v5.887C40.461,21.513,35.02,23.719,27.207,23.719Z" fill="#fe9ab8"/>
      <path id="Trazado_917503" data-name="Trazado 917503" d="M4.4,18.53q.349.163.735.316a.7.7,0,1,0,.515-1.3q-.349-.14-.66-.284a.7.7,0,0,0-.59,1.265Z" transform="translate(-1.209 -5.201)" fill="#fe9ab8"/>
      <path id="Trazado_917504" data-name="Trazado 917504" d="M9.542,20.225q.349.081.716.154a.675.675,0,0,0,.14.014.7.7,0,0,0,.14-1.381c-.231-.047-.457-.1-.679-.146a.7.7,0,1,0-.313,1.36Z" transform="translate(-2.723 -5.699)" fill="#fe9ab8"/>
      <path id="Trazado_917505" data-name="Trazado 917505" d="M23.652,25.548q-.345-.14-.66-.284a.7.7,0,0,0-.59,1.265q.349.163.735.316a.7.7,0,0,0,.515-1.3Z" transform="translate(-6.652 -7.62)" fill="#fe9ab8"/>
      <path id="Trazado_917506" data-name="Trazado 917506" d="M28.535,27.012c-.231-.047-.457-.1-.679-.146a.7.7,0,1,0-.313,1.36q.349.081.716.154a.674.674,0,0,0,.14.014.7.7,0,0,0,.14-1.381Z" transform="translate(-8.165 -8.118)" fill="#fe9ab8"/>
    </g>
  </g>
</svg>
