<svg id="Grupo_1113381" data-name="Grupo 1113381" xmlns="http://www.w3.org/2000/svg" width="122.486" height="122.486" viewBox="0 0 122.486 122.486">
  <g id="Rectángulo_402033" data-name="Rectángulo 402033" transform="translate(0)" fill="#fe9ab8" stroke="#fff" stroke-width="3">
    <rect width="122.486" height="122.486" rx="8" stroke="none"/>
    <rect x="1.5" y="1.5" width="119.486" height="119.486" rx="6.5" fill="none"/>
  </g>
  <g id="Grupo_1114232" data-name="Grupo 1114232" transform="translate(8.489 -39.622)">
    <g id="Grupo_1114231" data-name="Grupo 1114231" transform="translate(8.34 67.21)">
      <g id="Grupo_1114229" data-name="Grupo 1114229" transform="translate(9.952 0)">
        <path id="Trazado_917676" data-name="Trazado 917676" d="M145.581,72.577a1.5,1.5,0,0,1,1.5,1.5v45.153a1.5,1.5,0,0,1-1.5,1.5H69.713a1.5,1.5,0,0,1-1.5-1.5V74.08a1.5,1.5,0,0,1,1.5-1.5Z" transform="translate(-68.21 -72.577)" fill="#8ac9fe" fill-rule="evenodd"/>
        <path id="Trazado_917677" data-name="Trazado 917677" d="M467.628,72.577h3.683a1.5,1.5,0,0,1,1.5,1.5v45.153a1.5,1.5,0,0,1-1.5,1.5h-3.683a1.5,1.5,0,0,0,1.5-1.5V74.08a1.5,1.5,0,0,0-1.5-1.5Z" transform="translate(-393.939 -72.577)" fill="#60b7ff" fill-rule="evenodd"/>
      </g>
      <g id="Grupo_1114230" data-name="Grupo 1114230" transform="translate(0 36.169)">
        <path id="Trazado_917678" data-name="Trazado 917678" d="M46.532,273.752v20.88c0,2.834-7.223,5.136-16.133,5.136s-16.134-2.3-16.134-5.136v-20.88c0-2.834,7.223-5.125,16.134-5.125S46.532,270.919,46.532,273.752Z" transform="translate(-14.265 -268.627)" fill="#ffe177" fill-rule="evenodd"/>
        <path id="Trazado_917679" data-name="Trazado 917679" d="M30.4,311.979c8.911,0,16.133-2.292,16.133-5.125V296.408c0,2.844-7.223,5.136-16.133,5.136-6.169,0-11.53-1.095-14.241-2.721a4.833,4.833,0,0,1-1.4-1.156,2.015,2.015,0,0,1-.491-1.258v10.445a2.529,2.529,0,0,0,.02.276C14.746,309.83,21.784,311.979,30.4,311.979Z" transform="translate(-14.265 -291.283)" fill="#ffd064" fill-rule="evenodd"/>
      </g>
    </g>
    <path id="Trazado_917680" data-name="Trazado 917680" d="M7,108.69c0-1.247.788-2.542,2.474-3.578,2.787-1.711,8.39-2.947,14.864-2.947S36.415,103.4,39.2,105.112c1.686,1.035,2.474,2.331,2.474,3.578V129.21c0,1.247-.788,2.542-2.474,3.578-2.787,1.711-8.39,2.947-14.864,2.947S12.261,134.5,9.474,132.788C7.788,131.753,7,130.457,7,129.21Zm31.725,0c0-.2-.166-.351-.353-.529a6.279,6.279,0,0,0-1.82-1.1c-2.753-1.2-7.2-1.945-12.214-1.945s-9.461.75-12.214,1.945a6.281,6.281,0,0,0-1.82,1.1c-.187.178-.353.331-.353.529s.166.351.353.529a6.277,6.277,0,0,0,1.82,1.1c2.753,1.2,7.2,1.945,12.214,1.945s9.461-.75,12.214-1.945a6.277,6.277,0,0,0,1.82-1.1c.187-.178.353-.331.353-.529Zm0,10.26v-6.408c-2.919,1.568-8.263,2.673-14.386,2.673s-11.467-1.105-14.386-2.673v6.408c0,.2.166.351.353.529a6.281,6.281,0,0,0,1.82,1.1c2.753,1.2,7.2,1.945,12.214,1.945s9.461-.75,12.214-1.945a6.279,6.279,0,0,0,1.82-1.1c.187-.178.353-.331.353-.529ZM9.952,122.8v6.408c0,.2.166.351.353.529a6.277,6.277,0,0,0,1.82,1.1c2.753,1.2,7.2,1.945,12.214,1.945s9.461-.75,12.214-1.945a6.274,6.274,0,0,0,1.82-1.1c.187-.178.353-.331.353-.529V122.8c-2.919,1.568-8.263,2.673-14.386,2.673S12.871,124.37,9.952,122.8Zm2.765-7.326a1.778,1.778,0,1,1-1.778,1.778A1.778,1.778,0,0,1,12.717,115.476Zm0,10.255a1.778,1.778,0,1,1-1.778,1.778A1.778,1.778,0,0,1,12.717,125.732Zm13.2-42.6a1.476,1.476,0,0,1,2.952,0V99.973a1.476,1.476,0,1,1-2.952,0Zm7.55-9.582a1.476,1.476,0,1,1,2.952,0v27.319a1.476,1.476,0,1,1-2.952,0Zm7.55,7.2a1.476,1.476,0,1,1,2.952,0v21.605a1.476,1.476,0,1,1-2.952,0Zm7.55-2.624a1.476,1.476,0,1,1,2.952,0v26.854a1.476,1.476,0,1,1-2.952,0Zm15.1-4.577a1.476,1.476,0,1,1,2.952,0v36.009a1.476,1.476,0,0,1-2.952,0Zm-7.55,9.582a1.476,1.476,0,0,1,2.952,0V99.973a1.476,1.476,0,0,1-2.952,0Zm15.1-5a1.476,1.476,0,1,1,2.952,0v26.854a1.476,1.476,0,1,1-2.952,0Zm15.1,2.624a1.476,1.476,0,1,1,2.952,0v21.605a1.476,1.476,0,1,1-2.952,0Zm-7.55,2.38a1.476,1.476,0,0,1,2.952,0V99.973a1.476,1.476,0,0,1-2.952,0Zm-59.136,16.7a1.476,1.476,0,1,1-2.952,0V68.975A2.979,2.979,0,0,1,19.66,66H95.529a2.979,2.979,0,0,1,2.979,2.979v45.153a2.979,2.979,0,0,1-2.979,2.979H44.488a1.476,1.476,0,1,1,0-2.952H95.529a.027.027,0,0,0,.027-.027V68.975a.026.026,0,0,0-.008-.019.027.027,0,0,0-.019-.008H19.66a.027.027,0,0,0-.019.008.026.026,0,0,0-.008.019Z" transform="translate(0)" fill-rule="evenodd"/>
  </g>
</svg>
