<svg xmlns="http://www.w3.org/2000/svg" width="100" height="100" viewBox="0 0 100 100">
  <g id="Grupo_1100965" data-name="Grupo 1100965" transform="translate(0.242)">
    <g id="Grupo_1098742" data-name="Grupo 1098742" transform="translate(0)">
      <rect id="Rectángulo_400898" data-name="Rectángulo 400898" width="100" height="100" rx="50" transform="translate(-0.242)" fill="#fff" opacity="0.859"/>
      <g id="Rectángulo_400907" data-name="Rectángulo 400907" transform="translate(-0.242)" fill="none" stroke="#fe9ab8" stroke-linecap="round" stroke-width="3" stroke-dasharray="0 7">
        <rect width="100" height="100" rx="50" stroke="none"/>
        <rect x="1.5" y="1.5" width="97" height="97" rx="48.5" fill="none"/>
      </g>
    </g>
    <g id="Grupo_1107006" data-name="Grupo 1107006" transform="translate(8.156 8.156)">
      <rect id="Rectángulo_400898-2" data-name="Rectángulo 400898" width="84" height="84" rx="42" transform="translate(-0.399 -0.157)" fill="#ffebf1" opacity="0.859"/>
      <rect id="Rectángulo_400907-2" data-name="Rectángulo 400907" width="84" height="84" rx="42" transform="translate(-0.398 -0.157)" fill="none"/>
    </g>
    <g id="Grupo_1114083" data-name="Grupo 1114083" transform="translate(24.967 25.209)">
      <path id="Trazado_917448" data-name="Trazado 917448" d="M128.175,128.175l6.879,2.832V106H106v29.052h25.006Z" transform="translate(-95.736 -95.736)" fill="#ffbebc" fill-rule="evenodd"/>
      <path id="Trazado_917449" data-name="Trazado 917449" d="M49.3,44.524l-3.572-3.572L47.6,39.083a.968.968,0,0,0-.316-1.58L44.16,36.218v-.487h1.985a.968.968,0,1,0,0-1.937H44.16V30.831h4.455a.968.968,0,0,0,0-1.937H44.16V25.932h1.985a.968.968,0,1,0,0-1.937H44.16V21.033h4.455a.968.968,0,1,0,0-1.937H44.16V16.133h1.985a.968.968,0,0,0,0-1.937H44.16V11.234h4.455a.968.968,0,0,0,0-1.937H44.062A4.859,4.859,0,0,0,40.63,5.6V.968a.968.968,0,1,0-1.937,0V5.423H35.731V3.438a.968.968,0,0,0-1.937,0V5.423H30.831V.968a.968.968,0,1,0-1.937,0V5.423H25.932V3.438a.968.968,0,1,0-1.937,0V5.423H21.033V.968a.968.968,0,1,0-1.937,0V5.423H16.133V3.438a.968.968,0,0,0-1.937,0V5.423H11.234V.968A.968.968,0,1,0,9.3.968V5.52A4.859,4.859,0,0,0,5.6,8.952H.968a.968.968,0,1,0,0,1.937H5.423v2.963H3.438a.968.968,0,0,0,0,1.937H5.423v2.963H.968a.968.968,0,1,0,0,1.937H5.423v2.963H3.438a.968.968,0,0,0,0,1.937H5.423V28.55H.968a.968.968,0,1,0,0,1.937H5.423V33.45H3.438a.968.968,0,0,0,0,1.937H5.423v2.963H.968a.968.968,0,1,0,0,1.937H5.52a4.859,4.859,0,0,0,3.432,3.693v4.636a.968.968,0,0,0,1.937,0V44.16h2.963v1.985a.968.968,0,0,0,1.937,0V44.16h2.963v4.455a.968.968,0,1,0,1.937,0V44.16h2.963v1.985a.968.968,0,0,0,1.937,0V44.16H28.55v4.455a.968.968,0,0,0,1.937,0V44.16H33.45v1.985a.968.968,0,0,0,1.937,0V44.16h.831L37.5,47.28a.968.968,0,0,0,1.58.316l1.869-1.869L44.524,49.3a.968.968,0,0,0,1.37,0L49.3,45.894a.968.968,0,0,0,0-1.37Zm-39.034-2.3A2.909,2.909,0,0,1,7.36,39.318V10.265A2.909,2.909,0,0,1,10.265,7.36H39.318a2.909,2.909,0,0,1,2.905,2.905V35.42L33.9,31.995c6.014-7.41.517-18.912-9.113-18.824A11.634,11.634,0,0,0,13.17,24.791c-.086,9.63,11.414,15.127,18.824,9.113l3.425,8.318Zm18.568-23.54a13.592,13.592,0,0,0-1.095-3.117,9.681,9.681,0,0,1,3.229,1.772,9.639,9.639,0,0,1-2.134,1.345Zm3.5.038a9.639,9.639,0,0,1,2.1,5.1H29.473a28.824,28.824,0,0,0-.274-3.187,11.566,11.566,0,0,0,3.132-1.915ZM28.834,30.9a9.644,9.644,0,0,1,2.134,1.345,9.677,9.677,0,0,1-3.229,1.772A13.592,13.592,0,0,0,28.834,30.9Zm.366-1.953a28.828,28.828,0,0,0,.274-3.187h4.954a9.639,9.639,0,0,1-2.1,5.1A11.559,11.559,0,0,0,29.2,28.947Zm-4.408-.862a11.71,11.71,0,0,0-2.536.276c-.109-.829-.179-1.7-.208-2.6h5.488c-.029.9-.1,1.771-.208,2.6A11.7,11.7,0,0,0,24.791,28.084Zm2.2,2.187c-.28,1.48-1.318,4.14-2.2,4.151-.879-.008-1.922-2.676-2.2-4.151A9.827,9.827,0,0,1,26.991,30.271Zm-4.944-6.448c.029-.9.1-1.771.208-2.6a11.775,11.775,0,0,0,5.071,0c.109.829.179,1.7.208,2.6Zm.545-4.511c.28-1.48,1.318-4.14,2.2-4.151.879.008,1.922,2.676,2.2,4.151A9.827,9.827,0,0,1,22.592,19.312ZM20.11,25.76a28.826,28.826,0,0,0,.274,3.187,11.561,11.561,0,0,0-3.132,1.915,9.639,9.639,0,0,1-2.1-5.1H20.11Zm-4.954-1.937a9.639,9.639,0,0,1,2.1-5.1,11.562,11.562,0,0,0,3.132,1.915,28.805,28.805,0,0,0-.274,3.187H15.155ZM20.749,30.9a13.6,13.6,0,0,0,1.095,3.117,9.679,9.679,0,0,1-3.229-1.772A9.652,9.652,0,0,1,20.749,30.9Zm0-12.217a9.641,9.641,0,0,1-2.134-1.345,9.679,9.679,0,0,1,3.229-1.772A13.6,13.6,0,0,0,20.749,18.683Zm24.46,28.562-3.572-3.572a.968.968,0,0,0-1.37,0L38.741,45.2,34.219,34.219,45.2,38.741l-1.527,1.527a.968.968,0,0,0,0,1.37l3.572,3.572Z" transform="translate(0 0)" fill="#020288"/>
    </g>
  </g>
</svg>
