<svg id="Grupo_1113408" data-name="Grupo 1113408" xmlns="http://www.w3.org/2000/svg" width="122.487" height="122.486" viewBox="0 0 122.487 122.486">
  <g id="Rectángulo_402033" data-name="Rectángulo 402033" transform="translate(0)" fill="#fe9ab8" stroke="#fff" stroke-width="3">
    <rect width="122.486" height="122.486" rx="8" stroke="none"/>
    <rect x="1.5" y="1.5" width="119.486" height="119.486" rx="6.5" fill="none"/>
  </g>
  <g id="Grupo_1114214" data-name="Grupo 1114214" transform="translate(21.827 -57.015)">
    <circle id="Elipse_13974" data-name="Elipse 13974" cx="19.131" cy="19.131" r="19.131" transform="translate(39.416 96.736)" fill="#3c87d0"/>
    <path id="Trazado_917628" data-name="Trazado 917628" d="M184.248,232.265h-25.92a.385.385,0,0,1-.385-.385v-3.549a.385.385,0,0,0-.638-.29l-8.6,7.521a.385.385,0,0,0,0,.579l8.6,7.521a.385.385,0,0,0,.638-.29v-3.549a.385.385,0,0,1,.385-.385h25.92Z" transform="translate(-125.701 -114.007)" fill="#bbec6c"/>
    <path id="Trazado_917629" data-name="Trazado 917629" d="M208.477,256v3.787a.77.77,0,0,1-.77.77H187.34a.385.385,0,0,0-.385.385v3.549a.386.386,0,0,1-.446.381L189.4,267.4a.385.385,0,0,0,.638-.29v-3.549a.385.385,0,0,1,.385-.385h25.92V256h-7.862Z" transform="translate(-157.792 -137.745)" fill="#a2e62e"/>
    <path id="Trazado_917630" data-name="Trazado 917630" d="M31.413,103.769v12.972a3.079,3.079,0,0,1-3.079,3.079H25.009a.77.77,0,0,0-.77.77v8.8a.77.77,0,0,1-.225.544l-1.621,1.621a.77.77,0,0,0,0,1.089l1.3,1.3a.77.77,0,0,1,0,1.089l-1.3,1.3a.77.77,0,0,0,0,1.089l1.621,1.621a.77.77,0,0,1,.225.544v4.145a.77.77,0,0,1-.225.544L20,148.291a.77.77,0,0,1-1.089,0L14.9,144.278a.77.77,0,0,1-.225-.544V120.591a.77.77,0,0,0-.77-.77H10.579A3.079,3.079,0,0,1,7.5,116.741V103.769a3.079,3.079,0,0,1,3.079-3.079H28.334a3.079,3.079,0,0,1,3.079,3.079Z" transform="translate(-6.345 -6.345)" fill="#ffe177"/>
    <path id="Trazado_917631" data-name="Trazado 917631" d="M77.113,100.69h-.867a3.087,3.087,0,0,1,.1.77v12.972a3.079,3.079,0,0,1-3.079,3.079H69.94a.77.77,0,0,0-.77.77v8.8a.77.77,0,0,1-.225.544l-1.621,1.621a.77.77,0,0,0,0,1.089l1.3,1.3a.77.77,0,0,1,0,1.089l-1.3,1.3a.77.77,0,0,0,0,1.089l1.621,1.621a.769.769,0,0,1,.225.544v4.145a.77.77,0,0,1-.225.544l-3.787,3.787,2.535,2.535a.77.77,0,0,0,1.089,0l4.013-4.013a.77.77,0,0,0,.225-.544v-4.145a.77.77,0,0,0-.225-.544l-1.621-1.621a.77.77,0,0,1,0-1.089l1.3-1.3a.77.77,0,0,0,0-1.089l-1.3-1.3a.77.77,0,0,1,0-1.089l1.621-1.621a.769.769,0,0,0,.225-.544v-8.8a.77.77,0,0,1,.77-.77h3.325a3.079,3.079,0,0,0,3.079-3.079V103.769A3.079,3.079,0,0,0,77.113,100.69Z" transform="translate(-55.125 -6.345)" fill="#ffd15b"/>
    <path id="Trazado_917632" data-name="Trazado 917632" d="M302.594,103.769v12.972a3.079,3.079,0,0,0,3.079,3.079H309a.77.77,0,0,1,.77.77v23.143a.771.771,0,0,0,.225.544l4.013,4.013a.77.77,0,0,0,1.089,0l4.013-4.013a.77.77,0,0,0,.225-.544v-4.145a.77.77,0,0,0-.225-.544l-1.621-1.621a.77.77,0,0,1,0-1.089l1.3-1.3a.77.77,0,0,0,0-1.089l-1.3-1.3a.77.77,0,0,1,0-1.089l1.621-1.621a.77.77,0,0,0,.225-.544v-8.8a.77.77,0,0,1,.77-.77h3.325a3.079,3.079,0,0,0,3.079-3.079V103.769a3.079,3.079,0,0,0-3.079-3.079H305.673A3.079,3.079,0,0,0,302.594,103.769Z" transform="translate(-256.004 -6.345)" fill="#fd9468"/>
    <path id="Trazado_917633" data-name="Trazado 917633" d="M372.207,100.69h-.867a3.086,3.086,0,0,1,.1.77v12.972a3.079,3.079,0,0,1-3.079,3.079h-3.325a.77.77,0,0,0-.77.77v8.8a.77.77,0,0,1-.225.544l-1.621,1.621a.77.77,0,0,0,0,1.089l1.3,1.3a.77.77,0,0,1,0,1.089l-1.3,1.3a.77.77,0,0,0,0,1.089l1.621,1.621a.77.77,0,0,1,.225.544v4.145a.77.77,0,0,1-.225.544l-3.787,3.787,2.535,2.535a.77.77,0,0,0,1.089,0l4.013-4.013a.77.77,0,0,0,.225-.544v-4.145a.77.77,0,0,0-.225-.544l-1.621-1.621a.77.77,0,0,1,0-1.089l1.3-1.3a.77.77,0,0,0,0-1.089l-1.3-1.3a.77.77,0,0,1,0-1.089l1.621-1.621a.769.769,0,0,0,.225-.544v-8.8a.77.77,0,0,1,.77-.77h3.325a3.079,3.079,0,0,0,3.079-3.079V103.769A3.079,3.079,0,0,0,372.207,100.69Z" transform="translate(-304.783 -6.345)" fill="#fe7d43"/>
    <path id="Trazado_917634" data-name="Trazado 917634" d="M26.223,110.4V97.424a4.239,4.239,0,0,0-4.234-4.234H19.827a1.155,1.155,0,1,0,0,2.31h2.161a1.927,1.927,0,0,1,1.925,1.925V110.4a1.927,1.927,0,0,1-1.925,1.925H18.664a1.927,1.927,0,0,0-1.925,1.925v8.636L15.23,124.39a1.927,1.927,0,0,0,0,2.722l1.03,1.031-1.03,1.03a1.925,1.925,0,0,0,0,2.722l1.509,1.509v3.826l-3.628,3.628-3.628-3.628V114.245a1.927,1.927,0,0,0-1.925-1.925H4.234A1.927,1.927,0,0,1,2.31,110.4V97.424A1.927,1.927,0,0,1,4.234,95.5h10.2a1.155,1.155,0,1,0,0-2.31H4.234A4.239,4.239,0,0,0,0,97.424V110.4a4.239,4.239,0,0,0,4.234,4.234h2.94v22.758a1.913,1.913,0,0,0,.564,1.361l4.013,4.013a1.927,1.927,0,0,0,2.722,0l4.013-4.013a1.912,1.912,0,0,0,.564-1.361v-4.145a1.912,1.912,0,0,0-.564-1.361l-1.349-1.349,1.03-1.03a1.927,1.927,0,0,0,0-2.722l-1.03-1.03,1.35-1.35a1.912,1.912,0,0,0,.564-1.361V114.63h2.94A4.239,4.239,0,0,0,26.223,110.4Z"/>
    <path id="Trazado_917635" data-name="Trazado 917635" d="M63.28,124.253a1.155,1.155,0,0,0,0,2.31h1.237v7.256H63.28a1.155,1.155,0,1,0,0,2.31h4.783a1.155,1.155,0,1,0,0-2.31H66.826v-7.256h1.237a1.155,1.155,0,0,0,0-2.31Z" transform="translate(-52.56 -26.28)"/>
    <path id="Trazado_917636" data-name="Trazado 917636" d="M367.559,124.888a1.155,1.155,0,0,0,0-2.31h-3.981a1.155,1.155,0,0,0-1.155,1.155v9.823a1.155,1.155,0,0,0,2.31,0v-3.85h2.51a1.155,1.155,0,0,0,0-2.31h-2.51v-2.509h2.827Z" transform="translate(-306.621 -24.863)"/>
    <path id="Trazado_917637" data-name="Trazado 917637" d="M198.188,115.867c0-.682-.034-1.369-.1-2.044a1.155,1.155,0,0,0-2.3.23c.06.6.09,1.209.09,1.814A17.985,17.985,0,0,1,183.8,132.854a1.911,1.911,0,0,0-.524-.971l-1.349-1.349,1.031-1.031a1.927,1.927,0,0,0,0-2.722l-1.03-1.03,1.35-1.35a1.912,1.912,0,0,0,.564-1.361V114.63h2.94a4.239,4.239,0,0,0,4.234-4.234v-6.824a18.035,18.035,0,0,1,3.519,5.459,1.155,1.155,0,1,0,2.136-.879,20.388,20.388,0,0,0-5.655-7.763V97.424a4.239,4.239,0,0,0-4.234-4.234H169.025a4.239,4.239,0,0,0-4.234,4.234v2.965a20.207,20.207,0,0,0-7.174,15.478c0,.411.013.824.038,1.237h-4.9v-2.78a1.54,1.54,0,0,0-2.554-1.159l-8.6,7.521a1.54,1.54,0,0,0,0,2.318l8.6,7.521a1.54,1.54,0,0,0,2.554-1.159v-2.78h7.926a20.469,20.469,0,0,0,11.286,8.682v2.12a1.913,1.913,0,0,0,.564,1.361l4.013,4.013a1.927,1.927,0,0,0,2.722,0l4.013-4.013a1.912,1.912,0,0,0,.564-1.361v-2.12A20.294,20.294,0,0,0,198.188,115.867Zm-46.205,8.411a1.541,1.541,0,0,0-1.54,1.54v1.853l-6.657-5.825,6.657-5.825v1.853a1.541,1.541,0,0,0,1.54,1.54h11.927a1.155,1.155,0,0,0,0-2.31h-3.941c-.028-.412-.042-.826-.042-1.237a17.894,17.894,0,0,1,4.864-12.3V110.4a4.239,4.239,0,0,0,4.234,4.234h2.94V117.1H169.3a1.155,1.155,0,1,0,0,2.31h2.667v4.864Zm11.491,2.31h8.491v6.251A18.17,18.17,0,0,1,163.474,126.587Zm18.056-3.706-1.509,1.509a1.927,1.927,0,0,0,0,2.722l1.03,1.03-1.03,1.03a1.927,1.927,0,0,0,0,2.722l1.509,1.509v3.826l-3.628,3.628-3.628-3.628V114.245a1.927,1.927,0,0,0-1.925-1.925h-3.325A1.927,1.927,0,0,1,167.1,110.4V97.424a1.927,1.927,0,0,1,1.925-1.925h17.754a1.927,1.927,0,0,1,1.925,1.925V110.4a1.927,1.927,0,0,1-1.925,1.925h-3.325a1.927,1.927,0,0,0-1.925,1.925Z" transform="translate(-119.356 0)"/>
  </g>
</svg>
