<svg id="Grupo_1113409" data-name="Grupo 1113409" xmlns="http://www.w3.org/2000/svg" width="122.486" height="122.486" viewBox="0 0 122.486 122.486">
  <g id="Rectángulo_402033" data-name="Rectángulo 402033" transform="translate(0)" fill="#fe9ab8" stroke="#fff" stroke-width="3">
    <rect width="122.486" height="122.486" rx="8" stroke="none"/>
    <rect x="1.5" y="1.5" width="119.486" height="119.486" rx="6.5" fill="none"/>
  </g>
  <g id="Grupo_1114218" data-name="Grupo 1114218" transform="translate(20.184 20.334)">
    <g id="Grupo_1114216" data-name="Grupo 1114216" transform="translate(2.284 2.284)">
      <path id="Trazado_917638" data-name="Trazado 917638" d="M35.394,42.91V53.185a63.466,63.466,0,0,1-10.275.8C12.352,53.982,2,50.527,2,46.275V36c0,4.251,10.352,7.706,23.119,7.706A63.467,63.467,0,0,0,35.394,42.91Z" transform="translate(-2 7.67)" fill="#fcd770"/>
      <path id="Trazado_917639" data-name="Trazado 917639" d="M48.238,30.275c0,4.251-10.352,7.706-23.119,7.706S2,34.527,2,30.275V20c0,4.251,10.352,7.706,23.119,7.706a62.711,62.711,0,0,0,10.892-.912,2.551,2.551,0,0,0,1.952.912H48.238Z" transform="translate(-2 3.119)" fill="#fcd770"/>
      <path id="Trazado_917640" data-name="Trazado 917640" d="M48.238,28V40.844H37.963a2.576,2.576,0,0,0-2.569,2.569v1.772a63.467,63.467,0,0,1-10.275.8C12.352,45.982,2,42.527,2,38.275V28c0,4.251,10.352,7.706,23.119,7.706S48.238,32.251,48.238,28Z" transform="translate(-2 5.394)" fill="#ffeaa7"/>
      <path id="Trazado_917641" data-name="Trazado 917641" d="M35.394,26.844a2.537,2.537,0,0,0,.617,1.657,62.711,62.711,0,0,1-10.892.912C12.352,29.413,2,25.958,2,21.706S12.352,14,25.119,14a63.467,63.467,0,0,1,10.275.8v5.369a43.821,43.821,0,0,0-10.275-1.028c-7.09,0-12.844,1.156-12.844,2.569s5.754,2.569,12.844,2.569a43.821,43.821,0,0,0,10.275-1.028Z" transform="translate(-2 1.413)" fill="#ffeaa7"/>
      <path id="Trazado_917642" data-name="Trazado 917642" d="M33.119,22.11a43.821,43.821,0,0,1-10.275,1.028C15.754,23.138,10,21.982,10,20.569S15.754,18,22.844,18a43.821,43.821,0,0,1,10.275,1.028Z" transform="translate(0.275 2.55)" fill="#5cd6b3"/>
      <path id="Trazado_917643" data-name="Trazado 917643" d="M71.67,4.569V30.257A2.576,2.576,0,0,1,69.1,32.826H30.569A2.589,2.589,0,0,1,28,30.257V4.569A2.576,2.576,0,0,1,30.569,2H69.1A2.576,2.576,0,0,1,71.67,4.569Z" transform="translate(5.394 -2)" fill="#e6e9ed"/>
      <path id="Trazado_917644" data-name="Trazado 917644" d="M42,16h7.706v7.706H42Z" transform="translate(9.376 1.982)" fill="#4fc1e9"/>
      <path id="Trazado_917645" data-name="Trazado 917645" d="M32,16h7.706v7.706H32Z" transform="translate(6.532 1.982)" fill="#4fc1e9"/>
      <path id="Trazado_917646" data-name="Trazado 917646" d="M42,6h7.706v7.706H42Z" transform="translate(9.376 -0.862)" fill="#ff826e"/>
      <path id="Trazado_917647" data-name="Trazado 917647" d="M52,6h7.706v7.706H52Z" transform="translate(12.22 -0.862)" fill="#ff826e"/>
      <path id="Trazado_917648" data-name="Trazado 917648" d="M32,6h7.706v7.706H32Z" transform="translate(6.532 -0.862)" fill="#5cd6b3"/>
      <path id="Trazado_917649" data-name="Trazado 917649" d="M52,16h7.706v7.706H52Z" transform="translate(12.22 1.982)" fill="#5cd6b3"/>
      <path id="Trazado_917650" data-name="Trazado 917650" d="M71.67,40.569V66.257A2.576,2.576,0,0,1,69.1,68.826H30.569A2.576,2.576,0,0,1,28,66.257V40.569A2.576,2.576,0,0,1,30.569,38H69.1A2.576,2.576,0,0,1,71.67,40.569Z" transform="translate(5.394 8.238)" fill="#e6e9ed"/>
      <g id="Grupo_1114215" data-name="Grupo 1114215" transform="translate(38.532 51.376)">
        <path id="Trazado_917651" data-name="Trazado 917651" d="M45.138,42V62.55H40V42Z" transform="translate(-29.725 -42)" fill="#ff826e"/>
        <path id="Trazado_917652" data-name="Trazado 917652" d="M41.138,46V61.413H36V46Z" transform="translate(-30.862 -40.862)" fill="#ff826e"/>
        <path id="Trazado_917653" data-name="Trazado 917653" d="M32,50h5.138V60.275H32Z" transform="translate(-32 -39.725)" fill="#ff826e"/>
      </g>
    </g>
    <g id="Grupo_1114217" data-name="Grupo 1114217" transform="translate(1 1)">
      <path id="Trazado_917654" data-name="Trazado 917654" d="M49.807,34.394H76.78a3.858,3.858,0,0,0,3.853-3.853V4.853A3.858,3.858,0,0,0,76.78,1H38.248a3.858,3.858,0,0,0-3.853,3.853V17.018a65.942,65.942,0,0,0-8.991-.6C13.573,16.413,1,19.563,1,25.4V56.229c0,5.84,12.573,8.991,24.4,8.991a65.707,65.707,0,0,0,8.991-.606V76.78a3.858,3.858,0,0,0,3.853,3.853H76.78a3.858,3.858,0,0,0,3.853-3.853V51.092a3.858,3.858,0,0,0-3.853-3.853H49.807ZM36.963,4.853a1.286,1.286,0,0,1,1.284-1.284H76.78a1.286,1.286,0,0,1,1.284,1.284V30.541a1.286,1.286,0,0,1-1.284,1.284H38.248a1.286,1.286,0,0,1-1.284-1.284ZM34.394,25.924a47.05,47.05,0,0,1-8.991.764c-5.6,0-9.345-.708-10.915-1.284,1.57-.577,5.316-1.284,10.915-1.284a47.05,47.05,0,0,1,8.991.764ZM25.4,18.982a62.829,62.829,0,0,1,8.991.631v2.659A50.661,50.661,0,0,0,25.4,21.55c-13.11,0-14.128,2.949-14.128,3.853s1.019,3.853,14.128,3.853a50.661,50.661,0,0,0,8.991-.721v2a3.779,3.779,0,0,0,.066.642,63.524,63.524,0,0,1-9.056.642c-13.527,0-21.835-3.74-21.835-6.422S11.876,18.982,25.4,18.982Zm0,43.67c-13.527,0-21.835-3.74-21.835-6.422V50.142c4.278,3.142,13.25,4.8,21.835,4.8a65.706,65.706,0,0,0,8.991-.606v7.682A62.829,62.829,0,0,1,25.4,62.651Zm52.66-11.56V76.78a1.285,1.285,0,0,1-1.284,1.284H38.248a1.285,1.285,0,0,1-1.284-1.284V51.092a1.285,1.285,0,0,1,1.284-1.284H76.78A1.285,1.285,0,0,1,78.064,51.092ZM38.248,47.238a3.858,3.858,0,0,0-3.853,3.853v.654a62.829,62.829,0,0,1-8.991.631c-13.527,0-21.835-3.74-21.835-6.422V39.867c4.278,3.142,13.25,4.8,21.835,4.8s17.556-1.661,21.835-4.8v7.371ZM25.4,42.1c-13.527,0-21.835-3.74-21.835-6.422V29.592c4.278,3.142,13.25,4.8,21.835,4.8a65,65,0,0,0,10.483-.831,3.812,3.812,0,0,0,2.361.831h8.991v1.284C47.238,38.361,38.931,42.1,25.4,42.1Z" transform="translate(-1 -1)"/>
      <path id="Trazado_917655" data-name="Trazado 917655" d="M41.275,5H31V15.275H41.275Zm-2.569,7.706H33.569V7.569h5.138Z" transform="translate(7.532 0.138)"/>
      <path id="Trazado_917656" data-name="Trazado 917656" d="M51.275,5H41V15.275H51.275Zm-2.569,7.706H43.569V7.569h5.138Z" transform="translate(10.376 0.138)"/>
      <path id="Trazado_917657" data-name="Trazado 917657" d="M61.275,5H51V15.275H61.275Zm-2.569,7.706H53.569V7.569h5.138Z" transform="translate(13.22 0.138)"/>
      <path id="Trazado_917658" data-name="Trazado 917658" d="M41.275,15H31V25.275H41.275Zm-2.569,7.706H33.569V17.569h5.138Z" transform="translate(7.532 2.982)"/>
      <path id="Trazado_917659" data-name="Trazado 917659" d="M51.275,15H41V25.275H51.275Zm-2.569,7.706H43.569V17.569h5.138Z" transform="translate(10.376 2.982)"/>
      <path id="Trazado_917660" data-name="Trazado 917660" d="M61.275,15H51V25.275H61.275Zm-2.569,7.706H53.569V17.569h5.138Z" transform="translate(13.22 2.982)"/>
      <path id="Trazado_917661" data-name="Trazado 917661" d="M48.982,41H41.275v5.138H36.138v5.138H31V64.119H48.982ZM33.569,53.844h2.569V61.55H33.569Zm5.138,7.706V48.706h2.569V61.55Zm7.706,0H43.844V43.569h2.569Z" transform="translate(7.532 10.376)"/>
      <path id="Trazado_917662" data-name="Trazado 917662" d="M47,45H62.413v2.569H47Z" transform="translate(12.082 11.514)"/>
      <path id="Trazado_917663" data-name="Trazado 917663" d="M47,41H62.413v2.569H47Z" transform="translate(12.082 10.376)"/>
      <path id="Trazado_917664" data-name="Trazado 917664" d="M47,49H62.413v2.569H47Z" transform="translate(12.082 12.651)"/>
      <path id="Trazado_917665" data-name="Trazado 917665" d="M57,53h2.569v2.569H57Z" transform="translate(14.926 13.789)"/>
      <path id="Trazado_917666" data-name="Trazado 917666" d="M47,53H57.275v2.569H47Z" transform="translate(12.082 13.789)"/>
      <path id="Trazado_917667" data-name="Trazado 917667" d="M47,57H62.413v2.569H47Z" transform="translate(12.082 14.926)"/>
    </g>
  </g>
</svg>
