<svg xmlns="http://www.w3.org/2000/svg" width="55" height="55" viewBox="0 0 55 55">
  <g id="Grupo_1114123" data-name="Grupo 1114123" transform="translate(-615.184 -3470)">
    <rect id="Rectángulo_411561" data-name="Rectángulo 411561" width="55" height="55" transform="translate(615.184 3470)" fill="#523dbf"/>
    <path id="Trazado_917507" data-name="Trazado 917507" d="M23.269,6.251V19.684H25.2a.635.635,0,1,1,0,1.27H23.269V34.386H25.2a.635.635,0,1,1,0,1.27H22.634A.635.635,0,0,1,22,35.021V20.954H20.217a.635.635,0,0,1,0-1.27H22V5.616a.635.635,0,0,1,.635-.635H25.2a.635.635,0,1,1,0,1.27ZM40.638,33.928v5.048a1.663,1.663,0,0,1-1.661,1.661H29.184a1.663,1.663,0,0,1-1.661-1.661v-7.91a1.663,1.663,0,0,1,1.661-1.662h3a1.783,1.783,0,0,1,1.559.9l1.135,1.962h4.095a1.663,1.663,0,0,1,1.661,1.661ZM28.792,31.067v1.2h4.623l-.767-1.327a.507.507,0,0,0-.46-.265h-3a.392.392,0,0,0-.391.392Zm10.576,2.862a.392.392,0,0,0-.392-.392H28.792v5.439a.392.392,0,0,0,.391.392h9.793a.392.392,0,0,0,.392-.392V33.928Zm1.27-29.405V9.571a1.663,1.663,0,0,1-1.661,1.661H29.184a1.663,1.663,0,0,1-1.661-1.661V1.661A1.663,1.663,0,0,1,29.184,0h3a1.783,1.783,0,0,1,1.559.9l1.135,1.962h4.095a1.663,1.663,0,0,1,1.661,1.661ZM28.792,1.661v1.2h4.623l-.767-1.327a.506.506,0,0,0-.46-.265h-3a.392.392,0,0,0-.391.392ZM39.368,4.523a.392.392,0,0,0-.392-.391H28.792V9.571a.392.392,0,0,0,.391.392h9.793a.392.392,0,0,0,.392-.392V4.523Zm1.27,14.7v5.048a1.663,1.663,0,0,1-1.661,1.661H29.184a1.663,1.663,0,0,1-1.661-1.661v-7.91A1.663,1.663,0,0,1,29.184,14.7h3a1.783,1.783,0,0,1,1.559.9l1.135,1.962h4.095a1.663,1.663,0,0,1,1.661,1.661ZM28.792,16.364v1.2h4.623l-.767-1.327a.507.507,0,0,0-.46-.265h-3A.392.392,0,0,0,28.792,16.364Zm10.576,2.862a.392.392,0,0,0-.392-.392H28.792v5.439a.392.392,0,0,0,.391.392h9.793a.392.392,0,0,0,.392-.392V19.226Zm-21.477-8.6V30.061c0,1.146-1.029,2.018-3.059,2.591a22.657,22.657,0,0,1-5.886.684,22.661,22.661,0,0,1-5.886-.684C1.029,32.079,0,31.207,0,30.061V10.624H0C0,8.443,4.5,7.3,8.946,7.3S17.891,8.443,17.891,10.623Zm-16.621,0h0c0,.448,1.124,1.169,3.247,1.626a24.472,24.472,0,0,0,4.429.379,24.475,24.475,0,0,0,4.429-.379c2.123-.457,3.246-1.178,3.247-1.626h0c0-.7-2.709-2.052-7.676-2.052S1.27,9.927,1.27,10.624ZM16.621,30.061v-3a7.474,7.474,0,0,1-1.789.727,22.657,22.657,0,0,1-5.886.684,22.662,22.662,0,0,1-5.886-.684,7.479,7.479,0,0,1-1.79-.727v3c0,.473.818,1,2.135,1.369a21.7,21.7,0,0,0,5.541.636,21.7,21.7,0,0,0,5.541-.636c1.317-.372,2.135-.9,2.135-1.369Zm0-4.859v-3a7.475,7.475,0,0,1-1.79.727,22.657,22.657,0,0,1-5.886.684,22.662,22.662,0,0,1-5.886-.684,7.478,7.478,0,0,1-1.79-.727v3c0,.473.818,1,2.135,1.369a21.7,21.7,0,0,0,5.541.636,21.7,21.7,0,0,0,5.541-.636c1.317-.372,2.135-.9,2.135-1.369Zm0-4.859v-3a7.475,7.475,0,0,1-1.79.727,22.657,22.657,0,0,1-5.886.684,22.661,22.661,0,0,1-5.886-.684,7.475,7.475,0,0,1-1.79-.727v3c0,.473.818,1,2.135,1.369a21.7,21.7,0,0,0,5.541.636,21.7,21.7,0,0,0,5.541-.636C15.8,21.339,16.621,20.815,16.621,20.342Zm0-4.859v-3a7.475,7.475,0,0,1-1.79.727c-.426.12-.892.225-1.389.315a23.364,23.364,0,0,1-4.5.416,23.36,23.36,0,0,1-4.5-.416c-.5-.09-.963-.195-1.389-.315a7.475,7.475,0,0,1-1.79-.727v3c0,.473.818,1,2.135,1.369a21.7,21.7,0,0,0,5.541.636,21.7,21.7,0,0,0,5.541-.636C15.8,16.48,16.621,15.955,16.621,15.483Z" transform="translate(622.365 3477.182)" fill="#fe9ab8"/>
  </g>
</svg>
