<svg xmlns="http://www.w3.org/2000/svg" xmlns:xlink="http://www.w3.org/1999/xlink" width="400" height="591" viewBox="0 0 400 591">
  <defs>
    <clipPath id="clip-path">
      <rect id="Rect치ngulo_412463" data-name="Rect치ngulo 412463" width="110.944" height="105.088" fill="none"/>
    </clipPath>
  </defs>
  <g id="Grupo_1114427" data-name="Grupo 1114427" transform="translate(1766 8528)">
    <rect id="Rect치ngulo_412125" data-name="Rect치ngulo 412125" width="400" height="591" rx="20" transform="translate(-1766 -8528)" fill="#eae7fb"/>
    <path id="Trazado_919202" data-name="Trazado 919202" d="M2.82,10.547V15H1.32V3.625h4.2a4.215,4.215,0,0,1,2.926.953A3.231,3.231,0,0,1,9.5,7.1,3.189,3.189,0,0,1,8.465,9.652a4.4,4.4,0,0,1-2.965.895Zm0-1.227h2.7a2.7,2.7,0,0,0,1.844-.567A2.075,2.075,0,0,0,8,7.113a2.143,2.143,0,0,0-.641-1.628A2.525,2.525,0,0,0,5.6,4.852H2.82ZM15.273,7.844a4.331,4.331,0,0,0-.711-.055A1.9,1.9,0,0,0,12.633,9v6H11.188V6.547h1.406l.023.977a2.251,2.251,0,0,1,2.016-1.133,1.477,1.477,0,0,1,.641.109ZM18.172,15H16.727V6.547h1.445ZM16.609,4.3a.863.863,0,0,1,.215-.594.807.807,0,0,1,.637-.242.819.819,0,0,1,.641.242.854.854,0,0,1,.219.594.826.826,0,0,1-.219.586.834.834,0,0,1-.641.234.821.821,0,0,1-.637-.234A.834.834,0,0,1,16.609,4.3Zm5.234,2.242.039.938a3.122,3.122,0,0,1,2.508-1.094A2.417,2.417,0,0,1,26.8,7.75a3.2,3.2,0,0,1,1.1-.984,3.242,3.242,0,0,1,1.6-.375q2.781,0,2.828,2.945V15H30.883V9.422a1.941,1.941,0,0,0-.414-1.355,1.823,1.823,0,0,0-1.391-.449,1.916,1.916,0,0,0-1.336.48,1.949,1.949,0,0,0-.617,1.293V15H25.672V9.461a1.613,1.613,0,0,0-1.8-1.844,1.934,1.934,0,0,0-1.945,1.211V15H20.477V6.547Zm16.172,8.609a3.693,3.693,0,0,1-2.8-1.129,4.19,4.19,0,0,1-1.078-3.02v-.266a5.073,5.073,0,0,1,.48-2.246,3.748,3.748,0,0,1,1.344-1.547,3.378,3.378,0,0,1,1.871-.559A3.166,3.166,0,0,1,40.4,7.477a4.7,4.7,0,0,1,.914,3.109v.6H35.586a3,3,0,0,0,.73,2.02,2.3,2.3,0,0,0,1.777.77,2.517,2.517,0,0,0,1.3-.312,3.259,3.259,0,0,0,.93-.828l.883.688A3.55,3.55,0,0,1,38.016,15.156Zm-.18-7.578a1.928,1.928,0,0,0-1.469.637A3.1,3.1,0,0,0,35.633,10h4.234V9.891a2.753,2.753,0,0,0-.594-1.707A1.815,1.815,0,0,0,37.836,7.578Zm9.234.266a4.331,4.331,0,0,0-.711-.055A1.9,1.9,0,0,0,44.43,9v6H42.984V6.547h1.406l.023.977A2.251,2.251,0,0,1,46.43,6.391a1.477,1.477,0,0,1,.641.109ZM53.3,15a3.036,3.036,0,0,1-.2-.891A3.225,3.225,0,0,1,50.7,15.156a2.984,2.984,0,0,1-2.051-.707,2.287,2.287,0,0,1-.8-1.793,2.39,2.39,0,0,1,1-2.051,4.733,4.733,0,0,1,2.824-.73h1.406V9.211A1.623,1.623,0,0,0,52.625,8a1.821,1.821,0,0,0-1.336-.449,2.107,2.107,0,0,0-1.3.391,1.151,1.151,0,0,0-.523.945H48.016a2,2,0,0,1,.449-1.223,3.066,3.066,0,0,1,1.219-.934,4.1,4.1,0,0,1,1.691-.344,3.342,3.342,0,0,1,2.289.73,2.635,2.635,0,0,1,.859,2.012v3.891a4.757,4.757,0,0,0,.3,1.852V15Zm-2.4-1.1a2.54,2.54,0,0,0,1.289-.352,2.127,2.127,0,0,0,.883-.914V10.9H51.945q-2.656,0-2.656,1.555a1.316,1.316,0,0,0,.453,1.063A1.742,1.742,0,0,0,50.906,13.9ZM61.461,15V7.664H60.125V6.547h1.336V5.68a2.878,2.878,0,0,1,.727-2.1,2.745,2.745,0,0,1,2.055-.742,3.816,3.816,0,0,1,.992.132l-.078,1.165a4.151,4.151,0,0,0-.781-.07,1.41,1.41,0,0,0-1.086.411,1.669,1.669,0,0,0-.383,1.18v.893h1.8V7.664h-1.8V15Zm4.461-4.3a4.993,4.993,0,0,1,.488-2.234A3.643,3.643,0,0,1,67.77,6.93a3.7,3.7,0,0,1,1.988-.539,3.565,3.565,0,0,1,2.793,1.2,4.6,4.6,0,0,1,1.066,3.18v.1a5.036,5.036,0,0,1-.473,2.215,3.589,3.589,0,0,1-1.352,1.527,3.743,3.743,0,0,1-2.02.547,3.556,3.556,0,0,1-2.785-1.2A4.575,4.575,0,0,1,65.922,10.8Zm1.453.172a3.616,3.616,0,0,0,.652,2.258,2.211,2.211,0,0,0,3.5-.012,3.955,3.955,0,0,0,.648-2.418,3.61,3.61,0,0,0-.66-2.254,2.1,2.1,0,0,0-1.754-.863,2.075,2.075,0,0,0-1.727.852A3.925,3.925,0,0,0,67.375,10.867ZM79.516,7.844a4.331,4.331,0,0,0-.711-.055A1.9,1.9,0,0,0,76.875,9v6H75.43V6.547h1.406l.023.977a2.251,2.251,0,0,1,2.016-1.133,1.477,1.477,0,0,1,.641.109Zm2.688-1.3.039.938A3.122,3.122,0,0,1,84.75,6.391,2.417,2.417,0,0,1,87.164,7.75a3.2,3.2,0,0,1,1.1-.984,3.242,3.242,0,0,1,1.6-.375q2.781,0,2.828,2.945V15H91.242V9.422a1.941,1.941,0,0,0-.414-1.355,1.823,1.823,0,0,0-1.391-.449A1.916,1.916,0,0,0,88.1,8.1a1.949,1.949,0,0,0-.617,1.293V15H86.031V9.461a1.613,1.613,0,0,0-1.8-1.844,1.934,1.934,0,0,0-1.945,1.211V15H80.836V6.547ZM100.086,15a3.036,3.036,0,0,1-.2-.891,3.225,3.225,0,0,1-2.406,1.047,2.984,2.984,0,0,1-2.051-.707,2.288,2.288,0,0,1-.8-1.793,2.39,2.39,0,0,1,1-2.051,4.733,4.733,0,0,1,2.824-.73h1.406V9.211A1.623,1.623,0,0,0,99.406,8a1.821,1.821,0,0,0-1.336-.449,2.108,2.108,0,0,0-1.3.391,1.151,1.151,0,0,0-.523.945H94.8a2,2,0,0,1,.449-1.223,3.066,3.066,0,0,1,1.219-.934,4.1,4.1,0,0,1,1.691-.344,3.342,3.342,0,0,1,2.289.73,2.635,2.635,0,0,1,.859,2.012v3.891a4.757,4.757,0,0,0,.3,1.852V15Zm-2.4-1.1a2.54,2.54,0,0,0,1.289-.352,2.127,2.127,0,0,0,.883-.914V10.9H98.727q-2.656,0-2.656,1.555a1.316,1.316,0,0,0,.453,1.063A1.742,1.742,0,0,0,97.688,13.9ZM108.9,6.547l.047,1.063a3.08,3.08,0,0,1,2.531-1.219q2.68,0,2.7,3.023V15h-1.445V9.406a1.946,1.946,0,0,0-.418-1.352,1.675,1.675,0,0,0-1.277-.437,2.086,2.086,0,0,0-1.234.375,2.546,2.546,0,0,0-.828.984V15h-1.445V6.547Zm7.078,4.148a4.993,4.993,0,0,1,.488-2.234,3.643,3.643,0,0,1,1.359-1.531,3.7,3.7,0,0,1,1.988-.539,3.565,3.565,0,0,1,2.793,1.2,4.6,4.6,0,0,1,1.066,3.18v.1a5.036,5.036,0,0,1-.473,2.215,3.589,3.589,0,0,1-1.352,1.527,3.743,3.743,0,0,1-2.02.547,3.556,3.556,0,0,1-2.785-1.2,4.575,4.575,0,0,1-1.066-3.164Zm1.453.172a3.616,3.616,0,0,0,.652,2.258,2.211,2.211,0,0,0,3.5-.012,3.955,3.955,0,0,0,.648-2.418,3.61,3.61,0,0,0-.66-2.254,2.1,2.1,0,0,0-1.754-.863,2.075,2.075,0,0,0-1.727.852A3.925,3.925,0,0,0,117.43,10.867ZM129.57,7.844a4.331,4.331,0,0,0-.711-.055A1.9,1.9,0,0,0,126.93,9v6h-1.445V6.547h1.406l.023.977a2.251,2.251,0,0,1,2.016-1.133,1.477,1.477,0,0,1,.641.109Zm2.688-1.3.039.938A3.122,3.122,0,0,1,134.8,6.391a2.417,2.417,0,0,1,2.414,1.359,3.2,3.2,0,0,1,1.1-.984,3.242,3.242,0,0,1,1.6-.375q2.781,0,2.828,2.945V15H141.3V9.422a1.941,1.941,0,0,0-.414-1.355,1.823,1.823,0,0,0-1.391-.449,1.917,1.917,0,0,0-1.336.48,1.949,1.949,0,0,0-.617,1.293V15h-1.453V9.461a1.613,1.613,0,0,0-1.8-1.844,1.934,1.934,0,0,0-1.945,1.211V15h-1.445V6.547ZM150.141,15a3.036,3.036,0,0,1-.2-.891,3.225,3.225,0,0,1-2.406,1.047,2.984,2.984,0,0,1-2.051-.707,2.287,2.287,0,0,1-.8-1.793,2.39,2.39,0,0,1,1-2.051,4.733,4.733,0,0,1,2.824-.73h1.406V9.211A1.623,1.623,0,0,0,149.461,8a1.821,1.821,0,0,0-1.336-.449,2.107,2.107,0,0,0-1.3.391,1.151,1.151,0,0,0-.523.945h-1.453a2,2,0,0,1,.449-1.223,3.066,3.066,0,0,1,1.219-.934,4.1,4.1,0,0,1,1.691-.344,3.342,3.342,0,0,1,2.289.73,2.635,2.635,0,0,1,.859,2.012v3.891a4.757,4.757,0,0,0,.3,1.852V15Zm-2.4-1.1a2.54,2.54,0,0,0,1.289-.352,2.127,2.127,0,0,0,.883-.914V10.9h-1.133q-2.656,0-2.656,1.555a1.316,1.316,0,0,0,.453,1.063A1.742,1.742,0,0,0,147.742,13.9ZM155.2,15H153.75V3H155.2Zm6.219-4.617a12.079,12.079,0,0,1,.473-3.391,9.85,9.85,0,0,1,1.41-2.953,6,6,0,0,1,1.945-1.875l.3.953a6.222,6.222,0,0,0-1.871,2.672,11.583,11.583,0,0,0-.8,4.023l-.008.664a11.643,11.643,0,0,0,1.1,5.234,6.252,6.252,0,0,0,1.578,2.078l-.3.883a6.192,6.192,0,0,1-1.984-1.937A10.859,10.859,0,0,1,161.414,10.383ZM171.539,15h-1.453V5.367l-2.914,1.07V5.125l4.141-1.555h.227Zm13.352,0h-1.508l-5.727-8.766V15h-1.508V3.625h1.508l5.742,8.8v-8.8h1.492Zm8.938-5.023h-4.773V15h-1.5V3.625H194.6V4.852h-5.547v3.9h4.773Zm5.68.484a12.084,12.084,0,0,1-.457,3.34,9.876,9.876,0,0,1-1.4,2.949,6.127,6.127,0,0,1-1.973,1.922l-.3-.883a6.281,6.281,0,0,0,1.934-2.863,12.387,12.387,0,0,0,.746-4.309v-.25a12.861,12.861,0,0,0-.344-3.051,10.3,10.3,0,0,0-.957-2.527,5.838,5.838,0,0,0-1.379-1.742l.3-.883a6.1,6.1,0,0,1,1.965,1.906,9.9,9.9,0,0,1,1.4,2.945A12.364,12.364,0,0,1,199.508,10.461ZM4.672,33.93a7.053,7.053,0,0,1-2.809-1.363,2.6,2.6,0,0,1-.879-2,2.751,2.751,0,0,1,1.074-2.223,4.269,4.269,0,0,1,2.793-.879,4.66,4.66,0,0,1,2.09.453,3.436,3.436,0,0,1,1.422,1.25,3.2,3.2,0,0,1,.5,1.742H7.359A2.08,2.08,0,0,0,6.7,29.287,2.669,2.669,0,0,0,4.852,28.7a2.732,2.732,0,0,0-1.73.489A1.632,1.632,0,0,0,2.5,30.542a1.468,1.468,0,0,0,.59,1.178A5.786,5.786,0,0,0,5.1,32.6a9.316,9.316,0,0,1,2.219.88A3.367,3.367,0,0,1,8.5,34.6a2.861,2.861,0,0,1,.387,1.508,2.658,2.658,0,0,1-1.078,2.215,4.6,4.6,0,0,1-2.883.832,5.347,5.347,0,0,1-2.187-.449,3.681,3.681,0,0,1-1.566-1.23A3,3,0,0,1,.625,35.7H2.133a1.959,1.959,0,0,0,.762,1.629,3.207,3.207,0,0,0,2.035.6,2.948,2.948,0,0,0,1.82-.484,1.573,1.573,0,0,0,.633-1.32A1.545,1.545,0,0,0,6.8,34.832,6.755,6.755,0,0,0,4.672,33.93Zm9.422,5.227a3.693,3.693,0,0,1-2.8-1.129,4.19,4.19,0,0,1-1.078-3.02v-.266A5.073,5.073,0,0,1,10.7,32.5a3.748,3.748,0,0,1,1.344-1.547,3.378,3.378,0,0,1,1.871-.559,3.166,3.166,0,0,1,2.563,1.086,4.7,4.7,0,0,1,.914,3.109v.6H11.664a3,3,0,0,0,.73,2.02,2.3,2.3,0,0,0,1.777.77,2.517,2.517,0,0,0,1.3-.312,3.258,3.258,0,0,0,.93-.828l.883.688A3.55,3.55,0,0,1,14.094,39.156Zm-.18-7.578a1.928,1.928,0,0,0-1.469.637A3.1,3.1,0,0,0,11.711,34h4.234v-.109a2.753,2.753,0,0,0-.594-1.707A1.815,1.815,0,0,0,13.914,31.578Zm4.8,3.125a4.968,4.968,0,0,1,.914-3.145,2.923,2.923,0,0,1,2.422-1.168,2.908,2.908,0,0,1,2.414,1.094l.07-.937h1.32V38.8a3.439,3.439,0,0,1-.973,2.586,3.589,3.589,0,0,1-2.613.945,4.348,4.348,0,0,1-1.789-.391,3.08,3.08,0,0,1-1.336-1.07L19.9,40a2.826,2.826,0,0,0,2.273,1.148,2.214,2.214,0,0,0,1.645-.594,2.269,2.269,0,0,0,.59-1.672v-.727a2.971,2.971,0,0,1-2.367,1,2.887,2.887,0,0,1-2.4-1.2A5.224,5.224,0,0,1,18.719,34.7Zm1.453.164a3.79,3.79,0,0,0,.586,2.246,1.9,1.9,0,0,0,1.641.816,2.117,2.117,0,0,0,2.008-1.242V32.828a2.142,2.142,0,0,0-1.992-1.211,1.921,1.921,0,0,0-1.648.82A4.128,4.128,0,0,0,20.172,34.867Zm13.086,3.3a3.07,3.07,0,0,1-2.477.992,2.628,2.628,0,0,1-2.059-.785,3.4,3.4,0,0,1-.715-2.324v-5.5h1.445v5.461q0,1.922,1.563,1.922a2.163,2.163,0,0,0,2.2-1.234V30.547h1.445V39H33.289Zm4.969-7.617.047,1.063A3.08,3.08,0,0,1,40.8,30.391q2.68,0,2.7,3.023V39H42.063V33.406a1.946,1.946,0,0,0-.418-1.352,1.675,1.675,0,0,0-1.277-.437,2.086,2.086,0,0,0-1.234.375,2.546,2.546,0,0,0-.828.984V39H36.859V30.547ZM45.336,34.7a4.952,4.952,0,0,1,.922-3.129,3.137,3.137,0,0,1,4.766-.168V27h1.445V39H51.141l-.07-.906a2.943,2.943,0,0,1-2.414,1.063,2.887,2.887,0,0,1-2.395-1.2,5.008,5.008,0,0,1-.926-3.141Zm1.445.164a3.749,3.749,0,0,0,.594,2.25,1.919,1.919,0,0,0,1.641.813A2.108,2.108,0,0,0,51.023,36.7V32.813a2.125,2.125,0,0,0-1.992-1.2,1.929,1.929,0,0,0-1.656.82A4.128,4.128,0,0,0,46.781,34.867ZM59.93,39a3.036,3.036,0,0,1-.2-.891,3.225,3.225,0,0,1-2.406,1.047,2.984,2.984,0,0,1-2.051-.707,2.287,2.287,0,0,1-.8-1.793,2.39,2.39,0,0,1,1-2.051,4.733,4.733,0,0,1,2.824-.73H59.7v-.664A1.623,1.623,0,0,0,59.25,32a1.821,1.821,0,0,0-1.336-.449,2.107,2.107,0,0,0-1.3.391,1.151,1.151,0,0,0-.523.945H54.641a2,2,0,0,1,.449-1.223,3.066,3.066,0,0,1,1.219-.934A4.1,4.1,0,0,1,58,30.391a3.342,3.342,0,0,1,2.289.73,2.635,2.635,0,0,1,.859,2.012v3.891a4.757,4.757,0,0,0,.3,1.852V39Zm-2.4-1.1a2.54,2.54,0,0,0,1.289-.352,2.127,2.127,0,0,0,.883-.914V34.9H58.57q-2.656,0-2.656,1.555a1.316,1.316,0,0,0,.453,1.063A1.742,1.742,0,0,0,57.531,37.9ZM68.086,39V31.664H66.75V30.547h1.336V29.68a2.878,2.878,0,0,1,.727-2.1,2.745,2.745,0,0,1,2.055-.742,3.816,3.816,0,0,1,.992.132l-.078,1.165a4.151,4.151,0,0,0-.781-.07,1.41,1.41,0,0,0-1.086.411,1.669,1.669,0,0,0-.383,1.18v.893h1.8v1.117h-1.8V39Zm4.461-4.3a4.993,4.993,0,0,1,.488-2.234,3.643,3.643,0,0,1,1.359-1.531,3.7,3.7,0,0,1,1.988-.539,3.565,3.565,0,0,1,2.793,1.2,4.6,4.6,0,0,1,1.066,3.18v.1a5.036,5.036,0,0,1-.473,2.215,3.589,3.589,0,0,1-1.352,1.527,3.743,3.743,0,0,1-2.02.547,3.556,3.556,0,0,1-2.785-1.2A4.575,4.575,0,0,1,72.547,34.8ZM74,34.867a3.616,3.616,0,0,0,.652,2.258,2.211,2.211,0,0,0,3.5-.012A3.955,3.955,0,0,0,78.8,34.7a3.61,3.61,0,0,0-.66-2.254,2.1,2.1,0,0,0-1.754-.863,2.075,2.075,0,0,0-1.727.852A3.925,3.925,0,0,0,74,34.867Zm12.141-3.023a4.331,4.331,0,0,0-.711-.055A1.9,1.9,0,0,0,83.5,33v6H82.055V30.547h1.406l.023.977A2.251,2.251,0,0,1,85.5,30.391a1.477,1.477,0,0,1,.641.109Zm2.688-1.3.039.938a3.122,3.122,0,0,1,2.508-1.094,2.417,2.417,0,0,1,2.414,1.359,3.2,3.2,0,0,1,1.1-.984,3.242,3.242,0,0,1,1.6-.375q2.781,0,2.828,2.945V39H97.867V33.422a1.941,1.941,0,0,0-.414-1.355,1.823,1.823,0,0,0-1.391-.449,1.916,1.916,0,0,0-1.336.48,1.949,1.949,0,0,0-.617,1.293V39H92.656V33.461a1.613,1.613,0,0,0-1.8-1.844,1.934,1.934,0,0,0-1.945,1.211V39H87.461V30.547ZM106.711,39a3.036,3.036,0,0,1-.2-.891,3.225,3.225,0,0,1-2.406,1.047,2.984,2.984,0,0,1-2.051-.707,2.288,2.288,0,0,1-.8-1.793,2.39,2.39,0,0,1,1-2.051,4.733,4.733,0,0,1,2.824-.73h1.406v-.664A1.623,1.623,0,0,0,106.031,32a1.821,1.821,0,0,0-1.336-.449,2.108,2.108,0,0,0-1.3.391,1.151,1.151,0,0,0-.523.945h-1.453a2,2,0,0,1,.449-1.223,3.066,3.066,0,0,1,1.219-.934,4.1,4.1,0,0,1,1.691-.344,3.342,3.342,0,0,1,2.289.73,2.635,2.635,0,0,1,.859,2.012v3.891a4.757,4.757,0,0,0,.3,1.852V39Zm-2.4-1.1a2.54,2.54,0,0,0,1.289-.352,2.127,2.127,0,0,0,.883-.914V34.9h-1.133q-2.656,0-2.656,1.555a1.316,1.316,0,0,0,.453,1.063A1.742,1.742,0,0,0,104.313,37.9Zm11.211-7.352.047,1.063a3.08,3.08,0,0,1,2.531-1.219q2.68,0,2.7,3.023V39h-1.445V33.406a1.946,1.946,0,0,0-.418-1.352,1.675,1.675,0,0,0-1.277-.437,2.086,2.086,0,0,0-1.234.375,2.546,2.546,0,0,0-.828.984V39h-1.445V30.547ZM122.6,34.7a4.993,4.993,0,0,1,.488-2.234,3.643,3.643,0,0,1,1.359-1.531,3.7,3.7,0,0,1,1.988-.539,3.565,3.565,0,0,1,2.793,1.2,4.6,4.6,0,0,1,1.066,3.18v.1a5.036,5.036,0,0,1-.473,2.215,3.589,3.589,0,0,1-1.352,1.527,3.743,3.743,0,0,1-2.02.547,3.556,3.556,0,0,1-2.785-1.2A4.575,4.575,0,0,1,122.6,34.8Zm1.453.172a3.616,3.616,0,0,0,.652,2.258,2.211,2.211,0,0,0,3.5-.012,3.954,3.954,0,0,0,.648-2.418,3.61,3.61,0,0,0-.66-2.254,2.1,2.1,0,0,0-1.754-.863,2.075,2.075,0,0,0-1.727.852A3.925,3.925,0,0,0,124.055,34.867ZM136.2,31.844a4.331,4.331,0,0,0-.711-.055A1.9,1.9,0,0,0,133.555,33v6h-1.445V30.547h1.406l.023.977a2.251,2.251,0,0,1,2.016-1.133,1.477,1.477,0,0,1,.641.109Zm2.688-1.3.039.938a3.122,3.122,0,0,1,2.508-1.094,2.417,2.417,0,0,1,2.414,1.359,3.2,3.2,0,0,1,1.1-.984,3.242,3.242,0,0,1,1.6-.375q2.781,0,2.828,2.945V39h-1.445V33.422a1.941,1.941,0,0,0-.414-1.355,1.823,1.823,0,0,0-1.391-.449,1.917,1.917,0,0,0-1.336.48,1.949,1.949,0,0,0-.617,1.293V39h-1.453V33.461a1.613,1.613,0,0,0-1.8-1.844,1.934,1.934,0,0,0-1.945,1.211V39h-1.445V30.547ZM156.766,39a3.036,3.036,0,0,1-.2-.891,3.225,3.225,0,0,1-2.406,1.047,2.984,2.984,0,0,1-2.051-.707,2.287,2.287,0,0,1-.8-1.793,2.39,2.39,0,0,1,1-2.051,4.733,4.733,0,0,1,2.824-.73h1.406v-.664A1.623,1.623,0,0,0,156.086,32a1.821,1.821,0,0,0-1.336-.449,2.107,2.107,0,0,0-1.3.391,1.151,1.151,0,0,0-.523.945h-1.453a2,2,0,0,1,.449-1.223,3.066,3.066,0,0,1,1.219-.934,4.1,4.1,0,0,1,1.691-.344,3.342,3.342,0,0,1,2.289.73,2.635,2.635,0,0,1,.859,2.012v3.891a4.757,4.757,0,0,0,.3,1.852V39Zm-2.4-1.1a2.54,2.54,0,0,0,1.289-.352,2.127,2.127,0,0,0,.883-.914V34.9h-1.133q-2.656,0-2.656,1.555a1.316,1.316,0,0,0,.453,1.063A1.742,1.742,0,0,0,154.367,37.9ZM161.82,39h-1.445V27h1.445Zm6.219-4.617a12.079,12.079,0,0,1,.473-3.391,9.85,9.85,0,0,1,1.41-2.953,6,6,0,0,1,1.945-1.875l.3.953a6.222,6.222,0,0,0-1.871,2.672,11.583,11.583,0,0,0-.8,4.023l-.008.664a11.643,11.643,0,0,0,1.1,5.234,6.252,6.252,0,0,0,1.578,2.078l-.3.883a6.192,6.192,0,0,1-1.984-1.937A10.859,10.859,0,0,1,168.039,34.383ZM180.867,39h-7.453V37.961l3.938-4.375a9.355,9.355,0,0,0,1.207-1.613,2.692,2.692,0,0,0,.332-1.285,2.041,2.041,0,0,0-.539-1.461,1.885,1.885,0,0,0-1.437-.57,2.232,2.232,0,0,0-1.676.613,2.343,2.343,0,0,0-.6,1.707H173.2a3.355,3.355,0,0,1,1.012-2.539,3.751,3.751,0,0,1,2.707-.969,3.6,3.6,0,0,1,2.508.832,2.838,2.838,0,0,1,.922,2.215q0,1.68-2.141,4l-3.047,3.3h5.711Zm10.648,0h-1.508l-5.727-8.766V39h-1.508V27.625h1.508l5.742,8.8v-8.8h1.492Zm8.938-5.023H195.68V39h-1.5V27.625h7.047v1.227H195.68v3.9h4.773Zm5.68.484a12.085,12.085,0,0,1-.457,3.34,9.876,9.876,0,0,1-1.4,2.949,6.127,6.127,0,0,1-1.973,1.922l-.3-.883a6.281,6.281,0,0,0,1.934-2.863,12.387,12.387,0,0,0,.746-4.309v-.25a12.861,12.861,0,0,0-.344-3.051,10.3,10.3,0,0,0-.957-2.527A5.838,5.838,0,0,0,202,27.047l.3-.883a6.1,6.1,0,0,1,1.965,1.906,9.9,9.9,0,0,1,1.4,2.945A12.364,12.364,0,0,1,206.133,34.461ZM9.18,52.852H5.523V63H4.031V52.852H.383V51.625h8.8Zm4.2,10.3a3.693,3.693,0,0,1-2.8-1.129A4.19,4.19,0,0,1,9.5,59.008v-.266A5.073,5.073,0,0,1,9.98,56.5a3.748,3.748,0,0,1,1.344-1.547,3.378,3.378,0,0,1,1.871-.559,3.166,3.166,0,0,1,2.563,1.086,4.7,4.7,0,0,1,.914,3.109v.6H10.945a3,3,0,0,0,.73,2.02,2.3,2.3,0,0,0,1.777.77,2.517,2.517,0,0,0,1.3-.312,3.258,3.258,0,0,0,.93-.828l.883.688A3.55,3.55,0,0,1,13.375,63.156Zm-.18-7.578a1.928,1.928,0,0,0-1.469.637A3.1,3.1,0,0,0,10.992,58h4.234v-.109a2.753,2.753,0,0,0-.594-1.707A1.815,1.815,0,0,0,13.2,55.578Zm9.234.266a4.331,4.331,0,0,0-.711-.055A1.9,1.9,0,0,0,19.789,57v6H18.344V54.547H19.75l.023.977a2.251,2.251,0,0,1,2.016-1.133,1.477,1.477,0,0,1,.641.109ZM27,61.977a2.082,2.082,0,0,0,1.352-.469,1.649,1.649,0,0,0,.641-1.172h1.367a2.621,2.621,0,0,1-.5,1.383,3.293,3.293,0,0,1-1.23,1.047A3.55,3.55,0,0,1,27,63.156,3.482,3.482,0,0,1,24.254,62a4.59,4.59,0,0,1-1.02-3.152v-.242a5.089,5.089,0,0,1,.453-2.2,3.451,3.451,0,0,1,1.3-1.492,3.7,3.7,0,0,1,2-.531,3.39,3.39,0,0,1,2.363.852,3.043,3.043,0,0,1,1,2.211H28.992a1.992,1.992,0,0,0-.621-1.348,1.932,1.932,0,0,0-1.379-.527,2.023,2.023,0,0,0-1.707.793,3.724,3.724,0,0,0-.605,2.293v.273a3.65,3.65,0,0,0,.6,2.25A2.033,2.033,0,0,0,27,61.977Zm8.492,1.18a3.693,3.693,0,0,1-2.8-1.129,4.19,4.19,0,0,1-1.078-3.02v-.266A5.073,5.073,0,0,1,32.1,56.5a3.748,3.748,0,0,1,1.344-1.547,3.378,3.378,0,0,1,1.871-.559,3.166,3.166,0,0,1,2.563,1.086,4.7,4.7,0,0,1,.914,3.109v.6H33.063a3,3,0,0,0,.73,2.02,2.3,2.3,0,0,0,1.777.77,2.517,2.517,0,0,0,1.3-.312,3.258,3.258,0,0,0,.93-.828l.883.688A3.55,3.55,0,0,1,35.492,63.156Zm-.18-7.578a1.928,1.928,0,0,0-1.469.637A3.1,3.1,0,0,0,33.109,58h4.234v-.109a2.753,2.753,0,0,0-.594-1.707A1.815,1.815,0,0,0,35.313,55.578Zm9.234.266a4.331,4.331,0,0,0-.711-.055A1.9,1.9,0,0,0,41.906,57v6H40.461V54.547h1.406l.023.977a2.251,2.251,0,0,1,2.016-1.133,1.477,1.477,0,0,1,.641.109ZM50.781,63a3.036,3.036,0,0,1-.2-.891,3.225,3.225,0,0,1-2.406,1.047,2.984,2.984,0,0,1-2.051-.707,2.287,2.287,0,0,1-.8-1.793,2.39,2.39,0,0,1,1-2.051,4.733,4.733,0,0,1,2.824-.73h1.406v-.664A1.623,1.623,0,0,0,50.1,56a1.821,1.821,0,0,0-1.336-.449,2.107,2.107,0,0,0-1.3.391,1.151,1.151,0,0,0-.523.945H45.492a2,2,0,0,1,.449-1.223,3.066,3.066,0,0,1,1.219-.934,4.1,4.1,0,0,1,1.691-.344,3.342,3.342,0,0,1,2.289.73A2.635,2.635,0,0,1,52,57.133v3.891a4.757,4.757,0,0,0,.3,1.852V63Zm-2.4-1.1a2.54,2.54,0,0,0,1.289-.352,2.127,2.127,0,0,0,.883-.914V58.9H49.422q-2.656,0-2.656,1.555a1.316,1.316,0,0,0,.453,1.063A1.742,1.742,0,0,0,48.383,61.9ZM58.938,63V55.664H57.6V54.547h1.336V53.68a2.878,2.878,0,0,1,.727-2.1,2.745,2.745,0,0,1,2.055-.742,3.816,3.816,0,0,1,.992.132l-.078,1.165a4.151,4.151,0,0,0-.781-.07,1.41,1.41,0,0,0-1.086.411,1.669,1.669,0,0,0-.383,1.18v.893h1.8v1.117h-1.8V63ZM63.4,58.7a4.993,4.993,0,0,1,.488-2.234,3.643,3.643,0,0,1,1.359-1.531,3.7,3.7,0,0,1,1.988-.539,3.565,3.565,0,0,1,2.793,1.2,4.6,4.6,0,0,1,1.066,3.18v.1a5.036,5.036,0,0,1-.473,2.215,3.589,3.589,0,0,1-1.352,1.527,3.743,3.743,0,0,1-2.02.547,3.556,3.556,0,0,1-2.785-1.2A4.575,4.575,0,0,1,63.4,58.8Zm1.453.172a3.616,3.616,0,0,0,.652,2.258,2.211,2.211,0,0,0,3.5-.012,3.955,3.955,0,0,0,.648-2.418,3.61,3.61,0,0,0-.66-2.254,2.1,2.1,0,0,0-1.754-.863,2.075,2.075,0,0,0-1.727.852A3.925,3.925,0,0,0,64.852,58.867Zm12.141-3.023a4.331,4.331,0,0,0-.711-.055A1.9,1.9,0,0,0,74.352,57v6H72.906V54.547h1.406l.023.977a2.251,2.251,0,0,1,2.016-1.133,1.477,1.477,0,0,1,.641.109Zm2.688-1.3.039.938a3.122,3.122,0,0,1,2.508-1.094,2.417,2.417,0,0,1,2.414,1.359,3.2,3.2,0,0,1,1.1-.984,3.242,3.242,0,0,1,1.6-.375q2.781,0,2.828,2.945V63H88.719V57.422a1.941,1.941,0,0,0-.414-1.355,1.823,1.823,0,0,0-1.391-.449,1.916,1.916,0,0,0-1.336.48,1.949,1.949,0,0,0-.617,1.293V63H83.508V57.461a1.613,1.613,0,0,0-1.8-1.844,1.934,1.934,0,0,0-1.945,1.211V63H78.313V54.547ZM97.563,63a3.036,3.036,0,0,1-.2-.891,3.225,3.225,0,0,1-2.406,1.047,2.984,2.984,0,0,1-2.051-.707,2.288,2.288,0,0,1-.8-1.793,2.39,2.39,0,0,1,1-2.051,4.733,4.733,0,0,1,2.824-.73h1.406v-.664A1.623,1.623,0,0,0,96.883,56a1.821,1.821,0,0,0-1.336-.449,2.107,2.107,0,0,0-1.3.391,1.151,1.151,0,0,0-.523.945H92.273a2,2,0,0,1,.449-1.223,3.066,3.066,0,0,1,1.219-.934,4.1,4.1,0,0,1,1.691-.344,3.342,3.342,0,0,1,2.289.73,2.635,2.635,0,0,1,.859,2.012v3.891a4.757,4.757,0,0,0,.3,1.852V63Zm-2.4-1.1a2.54,2.54,0,0,0,1.289-.352,2.127,2.127,0,0,0,.883-.914V58.9H96.2q-2.656,0-2.656,1.555A1.316,1.316,0,0,0,94,61.516,1.742,1.742,0,0,0,95.164,61.9Zm11.211-7.352.047,1.063a3.08,3.08,0,0,1,2.531-1.219q2.68,0,2.7,3.023V63h-1.445V57.406a1.946,1.946,0,0,0-.418-1.352,1.675,1.675,0,0,0-1.277-.437,2.086,2.086,0,0,0-1.234.375,2.546,2.546,0,0,0-.828.984V63h-1.445V54.547Zm7.078,4.148a4.993,4.993,0,0,1,.488-2.234A3.643,3.643,0,0,1,115.3,54.93a3.7,3.7,0,0,1,1.988-.539,3.565,3.565,0,0,1,2.793,1.2,4.6,4.6,0,0,1,1.066,3.18v.1a5.036,5.036,0,0,1-.473,2.215,3.589,3.589,0,0,1-1.352,1.527,3.743,3.743,0,0,1-2.02.547,3.556,3.556,0,0,1-2.785-1.2,4.575,4.575,0,0,1-1.066-3.164Zm1.453.172a3.616,3.616,0,0,0,.652,2.258,2.211,2.211,0,0,0,3.5-.012A3.955,3.955,0,0,0,119.7,58.7a3.61,3.61,0,0,0-.66-2.254,2.1,2.1,0,0,0-1.754-.863,2.075,2.075,0,0,0-1.727.852A3.925,3.925,0,0,0,114.906,58.867Zm12.141-3.023a4.331,4.331,0,0,0-.711-.055A1.9,1.9,0,0,0,124.406,57v6h-1.445V54.547h1.406l.023.977a2.251,2.251,0,0,1,2.016-1.133,1.477,1.477,0,0,1,.641.109Zm2.688-1.3.039.938a3.122,3.122,0,0,1,2.508-1.094A2.417,2.417,0,0,1,134.7,55.75a3.2,3.2,0,0,1,1.1-.984,3.242,3.242,0,0,1,1.6-.375q2.781,0,2.828,2.945V63h-1.445V57.422a1.941,1.941,0,0,0-.414-1.355,1.823,1.823,0,0,0-1.391-.449,1.917,1.917,0,0,0-1.336.48,1.949,1.949,0,0,0-.617,1.293V63h-1.453V57.461a1.613,1.613,0,0,0-1.8-1.844,1.934,1.934,0,0,0-1.945,1.211V63h-1.445V54.547ZM147.617,63a3.036,3.036,0,0,1-.2-.891,3.225,3.225,0,0,1-2.406,1.047,2.984,2.984,0,0,1-2.051-.707,2.287,2.287,0,0,1-.8-1.793,2.39,2.39,0,0,1,1-2.051,4.733,4.733,0,0,1,2.824-.73h1.406v-.664A1.623,1.623,0,0,0,146.938,56a1.821,1.821,0,0,0-1.336-.449,2.107,2.107,0,0,0-1.3.391,1.151,1.151,0,0,0-.523.945h-1.453a2,2,0,0,1,.449-1.223A3.066,3.066,0,0,1,144,54.734a4.1,4.1,0,0,1,1.691-.344,3.342,3.342,0,0,1,2.289.73,2.635,2.635,0,0,1,.859,2.012v3.891a4.757,4.757,0,0,0,.3,1.852V63Zm-2.4-1.1a2.54,2.54,0,0,0,1.289-.352,2.127,2.127,0,0,0,.883-.914V58.9h-1.133q-2.656,0-2.656,1.555a1.316,1.316,0,0,0,.453,1.063A1.742,1.742,0,0,0,145.219,61.9Zm7.453,1.1h-1.445V51h1.445Zm6.219-4.617a12.079,12.079,0,0,1,.473-3.391,9.85,9.85,0,0,1,1.41-2.953,6,6,0,0,1,1.945-1.875l.3.953a6.222,6.222,0,0,0-1.871,2.672,11.583,11.583,0,0,0-.8,4.023l-.008.664a11.643,11.643,0,0,0,1.1,5.234,6.252,6.252,0,0,0,1.578,2.078l-.3.883a6.192,6.192,0,0,1-1.984-1.937A10.859,10.859,0,0,1,158.891,58.383Zm7.477-1.773h1.086a2.387,2.387,0,0,0,1.609-.539,1.8,1.8,0,0,0,.586-1.414,1.764,1.764,0,0,0-1.992-2,2.072,2.072,0,0,0-1.5.535,1.873,1.873,0,0,0-.559,1.418h-1.445a2.9,2.9,0,0,1,.988-2.246,3.6,3.6,0,0,1,2.512-.895,3.558,3.558,0,0,1,2.523.852,3.076,3.076,0,0,1,.914,2.367,2.5,2.5,0,0,1-.48,1.438,2.9,2.9,0,0,1-1.309,1.039,2.8,2.8,0,0,1,1.449.984,2.734,2.734,0,0,1,.512,1.68,3.1,3.1,0,0,1-1,2.43,3.745,3.745,0,0,1-2.6.9,3.844,3.844,0,0,1-2.605-.867,2.877,2.877,0,0,1-1-2.289h1.453a1.859,1.859,0,0,0,.586,1.438,2.229,2.229,0,0,0,1.57.539,2.187,2.187,0,0,0,1.6-.547,2.108,2.108,0,0,0,.555-1.57,1.912,1.912,0,0,0-.609-1.523,2.655,2.655,0,0,0-1.758-.547h-1.086Zm16,6.391h-1.508l-5.727-8.766V63h-1.508V51.625h1.508l5.742,8.8v-8.8h1.492Zm8.938-5.023h-4.773V63h-1.5V51.625h7.047v1.227h-5.547v3.9H191.3Zm5.68.484a12.085,12.085,0,0,1-.457,3.34,9.876,9.876,0,0,1-1.4,2.949,6.127,6.127,0,0,1-1.973,1.922l-.3-.883a6.281,6.281,0,0,0,1.934-2.863,12.387,12.387,0,0,0,.746-4.309v-.25a12.861,12.861,0,0,0-.344-3.051,10.3,10.3,0,0,0-.957-2.527,5.838,5.838,0,0,0-1.379-1.742l.3-.883a6.1,6.1,0,0,1,1.965,1.906,9.9,9.9,0,0,1,1.4,2.945A12.364,12.364,0,0,1,196.984,58.461ZM7.594,81.977H2.82V87H1.32V75.625H8.367v1.227H2.82v3.9H7.594Zm1.8.719a4.993,4.993,0,0,1,.488-2.234,3.643,3.643,0,0,1,1.359-1.531,3.7,3.7,0,0,1,1.988-.539,3.565,3.565,0,0,1,2.793,1.2,4.6,4.6,0,0,1,1.066,3.18v.1a5.036,5.036,0,0,1-.473,2.215,3.589,3.589,0,0,1-1.352,1.527,3.743,3.743,0,0,1-2.02.547,3.556,3.556,0,0,1-2.785-1.2A4.575,4.575,0,0,1,9.391,82.8Zm1.453.172a3.616,3.616,0,0,0,.652,2.258,2.211,2.211,0,0,0,3.5-.012,3.955,3.955,0,0,0,.648-2.418,3.61,3.61,0,0,0-.66-2.254,2.1,2.1,0,0,0-1.754-.863,2.075,2.075,0,0,0-1.727.852A3.925,3.925,0,0,0,10.844,82.867Zm12.141-3.023a4.331,4.331,0,0,0-.711-.055A1.9,1.9,0,0,0,20.344,81v6H18.9V78.547H20.3l.023.977a2.251,2.251,0,0,1,2.016-1.133,1.477,1.477,0,0,1,.641.109Zm2.688-1.3.039.938a3.122,3.122,0,0,1,2.508-1.094,2.417,2.417,0,0,1,2.414,1.359,3.2,3.2,0,0,1,1.1-.984,3.242,3.242,0,0,1,1.6-.375q2.781,0,2.828,2.945V87H34.711V81.422a1.941,1.941,0,0,0-.414-1.355,1.823,1.823,0,0,0-1.391-.449,1.916,1.916,0,0,0-1.336.48,1.949,1.949,0,0,0-.617,1.293V87H29.5V81.461a1.613,1.613,0,0,0-1.8-1.844,1.934,1.934,0,0,0-1.945,1.211V87H24.3V78.547ZM43.555,87a3.036,3.036,0,0,1-.2-.891,3.225,3.225,0,0,1-2.406,1.047,2.984,2.984,0,0,1-2.051-.707,2.287,2.287,0,0,1-.8-1.793,2.39,2.39,0,0,1,1-2.051,4.733,4.733,0,0,1,2.824-.73h1.406v-.664A1.623,1.623,0,0,0,42.875,80a1.821,1.821,0,0,0-1.336-.449,2.108,2.108,0,0,0-1.3.391,1.151,1.151,0,0,0-.523.945H38.266a2,2,0,0,1,.449-1.223,3.066,3.066,0,0,1,1.219-.934,4.1,4.1,0,0,1,1.691-.344,3.342,3.342,0,0,1,2.289.73,2.635,2.635,0,0,1,.859,2.012v3.891a4.757,4.757,0,0,0,.3,1.852V87Zm-2.4-1.1a2.54,2.54,0,0,0,1.289-.352,2.127,2.127,0,0,0,.883-.914V82.9H42.2q-2.656,0-2.656,1.555a1.316,1.316,0,0,0,.453,1.063A1.742,1.742,0,0,0,41.156,85.9Zm11.211-7.352.047,1.063a3.08,3.08,0,0,1,2.531-1.219q2.68,0,2.7,3.023V87H56.2V81.406a1.946,1.946,0,0,0-.418-1.352,1.675,1.675,0,0,0-1.277-.437,2.086,2.086,0,0,0-1.234.375,2.546,2.546,0,0,0-.828.984V87H51V78.547ZM59.445,82.7a4.993,4.993,0,0,1,.488-2.234,3.642,3.642,0,0,1,1.359-1.531,3.7,3.7,0,0,1,1.988-.539,3.565,3.565,0,0,1,2.793,1.2,4.6,4.6,0,0,1,1.066,3.18v.1a5.036,5.036,0,0,1-.473,2.215,3.589,3.589,0,0,1-1.352,1.527,3.743,3.743,0,0,1-2.02.547,3.556,3.556,0,0,1-2.785-1.2A4.575,4.575,0,0,1,59.445,82.8Zm1.453.172a3.616,3.616,0,0,0,.652,2.258,2.211,2.211,0,0,0,3.5-.012A3.955,3.955,0,0,0,65.7,82.7a3.61,3.61,0,0,0-.66-2.254,2.1,2.1,0,0,0-1.754-.863,2.075,2.075,0,0,0-1.727.852A3.925,3.925,0,0,0,60.9,82.867Zm12.141-3.023a4.331,4.331,0,0,0-.711-.055A1.9,1.9,0,0,0,70.4,81v6H68.953V78.547h1.406l.023.977A2.251,2.251,0,0,1,72.4,78.391a1.477,1.477,0,0,1,.641.109Zm2.688-1.3.039.938a3.122,3.122,0,0,1,2.508-1.094,2.417,2.417,0,0,1,2.414,1.359,3.2,3.2,0,0,1,1.1-.984,3.242,3.242,0,0,1,1.6-.375q2.781,0,2.828,2.945V87H84.766V81.422a1.941,1.941,0,0,0-.414-1.355,1.823,1.823,0,0,0-1.391-.449,1.916,1.916,0,0,0-1.336.48,1.949,1.949,0,0,0-.617,1.293V87H79.555V81.461a1.613,1.613,0,0,0-1.8-1.844A1.934,1.934,0,0,0,75.8,80.828V87H74.359V78.547ZM93.609,87a3.036,3.036,0,0,1-.2-.891A3.225,3.225,0,0,1,91,87.156a2.984,2.984,0,0,1-2.051-.707,2.287,2.287,0,0,1-.8-1.793,2.39,2.39,0,0,1,1-2.051,4.733,4.733,0,0,1,2.824-.73h1.406v-.664A1.623,1.623,0,0,0,92.93,80a1.821,1.821,0,0,0-1.336-.449,2.108,2.108,0,0,0-1.3.391,1.151,1.151,0,0,0-.523.945H88.32a2,2,0,0,1,.449-1.223,3.066,3.066,0,0,1,1.219-.934,4.1,4.1,0,0,1,1.691-.344,3.342,3.342,0,0,1,2.289.73,2.635,2.635,0,0,1,.859,2.012v3.891a4.757,4.757,0,0,0,.3,1.852V87Zm-2.4-1.1a2.54,2.54,0,0,0,1.289-.352,2.127,2.127,0,0,0,.883-.914V82.9H92.25q-2.656,0-2.656,1.555a1.316,1.316,0,0,0,.453,1.063A1.742,1.742,0,0,0,91.211,85.9ZM98.664,87H97.219V75h1.445Zm5.922-4.3a4.952,4.952,0,0,1,.922-3.129,3.137,3.137,0,0,1,4.766-.168V75h1.445V87h-1.328l-.07-.906a2.943,2.943,0,0,1-2.414,1.063,2.887,2.887,0,0,1-2.395-1.2,5.008,5.008,0,0,1-.926-3.141Zm1.445.164a3.749,3.749,0,0,0,.594,2.25,1.92,1.92,0,0,0,1.641.813,2.109,2.109,0,0,0,2.008-1.234V80.813a2.125,2.125,0,0,0-1.992-1.2,1.929,1.929,0,0,0-1.656.82A4.128,4.128,0,0,0,106.031,82.867Zm11.438,4.289a3.693,3.693,0,0,1-2.8-1.129,4.19,4.19,0,0,1-1.078-3.02v-.266a5.073,5.073,0,0,1,.48-2.246,3.748,3.748,0,0,1,1.344-1.547,3.378,3.378,0,0,1,1.871-.559,3.166,3.166,0,0,1,2.563,1.086,4.7,4.7,0,0,1,.914,3.109v.6h-5.727a3,3,0,0,0,.73,2.02,2.3,2.3,0,0,0,1.777.77,2.517,2.517,0,0,0,1.3-.312,3.259,3.259,0,0,0,.93-.828l.883.688A3.55,3.55,0,0,1,117.469,87.156Zm-.18-7.578a1.928,1.928,0,0,0-1.469.637A3.1,3.1,0,0,0,115.086,82h4.234v-.109a2.753,2.753,0,0,0-.594-1.707A1.815,1.815,0,0,0,117.289,79.578ZM126.625,87V75.625h3.719a4.317,4.317,0,0,1,2.785.766,2.759,2.759,0,0,1,.934,2.266,2.31,2.31,0,0,1-.453,1.41,2.938,2.938,0,0,1-1.234.949,2.638,2.638,0,0,1,1.457.98,2.814,2.814,0,0,1,.535,1.723,3.042,3.042,0,0,1-.992,2.406,4.1,4.1,0,0,1-2.8.875Zm1.5-5.32v4.094H130.6a2.385,2.385,0,0,0,1.652-.543,1.907,1.907,0,0,0,.605-1.5q0-2.055-2.234-2.055Zm0-1.2h2.266a2.375,2.375,0,0,0,1.574-.493,1.654,1.654,0,0,0,.59-1.339,1.626,1.626,0,0,0-.547-1.366,2.686,2.686,0,0,0-1.664-.427h-2.219Zm7.852,2.219a4.993,4.993,0,0,1,.488-2.234,3.642,3.642,0,0,1,1.359-1.531,3.7,3.7,0,0,1,1.988-.539,3.565,3.565,0,0,1,2.793,1.2,4.6,4.6,0,0,1,1.066,3.18v.1a5.036,5.036,0,0,1-.473,2.215,3.589,3.589,0,0,1-1.352,1.527,3.743,3.743,0,0,1-2.02.547,3.556,3.556,0,0,1-2.785-1.2,4.575,4.575,0,0,1-1.066-3.164Zm1.453.172a3.616,3.616,0,0,0,.652,2.258,2.211,2.211,0,0,0,3.5-.012,3.954,3.954,0,0,0,.648-2.418,3.61,3.61,0,0,0-.66-2.254,2.1,2.1,0,0,0-1.754-.863,2.075,2.075,0,0,0-1.727.852A3.925,3.925,0,0,0,137.43,82.867Zm10.7,2.016,1.969-6.336h1.547l-3.4,9.758q-.789,2.109-2.508,2.109l-.273-.023-.539-.1V89.117l.391.031a1.923,1.923,0,0,0,1.145-.3,2.148,2.148,0,0,0,.676-1.086l.32-.859-3.016-8.359h1.578Zm8.094,1.094a2.082,2.082,0,0,0,1.352-.469,1.649,1.649,0,0,0,.641-1.172h1.367a2.621,2.621,0,0,1-.5,1.383,3.293,3.293,0,0,1-1.23,1.047,3.55,3.55,0,0,1-1.629.391A3.482,3.482,0,0,1,153.48,86a4.59,4.59,0,0,1-1.02-3.152v-.242a5.089,5.089,0,0,1,.453-2.2,3.451,3.451,0,0,1,1.3-1.492,3.7,3.7,0,0,1,2-.531,3.39,3.39,0,0,1,2.363.852,3.043,3.043,0,0,1,1,2.211h-1.367a1.992,1.992,0,0,0-.621-1.348,1.932,1.932,0,0,0-1.379-.527,2.023,2.023,0,0,0-1.707.793,3.724,3.724,0,0,0-.605,2.293v.273a3.65,3.65,0,0,0,.6,2.25A2.033,2.033,0,0,0,156.227,85.977Zm8.492,1.18a3.693,3.693,0,0,1-2.8-1.129,4.19,4.19,0,0,1-1.078-3.02v-.266a5.073,5.073,0,0,1,.48-2.246,3.748,3.748,0,0,1,1.344-1.547,3.378,3.378,0,0,1,1.871-.559,3.166,3.166,0,0,1,2.563,1.086,4.7,4.7,0,0,1,.914,3.109v.6h-5.727a3,3,0,0,0,.73,2.02,2.3,2.3,0,0,0,1.777.77,2.517,2.517,0,0,0,1.3-.312,3.258,3.258,0,0,0,.93-.828l.883.688A3.55,3.55,0,0,1,164.719,87.156Zm-.18-7.578a1.928,1.928,0,0,0-1.469.637A3.1,3.1,0,0,0,162.336,82h4.234v-.109a2.753,2.753,0,0,0-.594-1.707A1.815,1.815,0,0,0,164.539,79.578Zm8.156,3.18h-3.812v-1.18H172.7Zm10,.633a4.185,4.185,0,0,1-1.332,2.785,4.365,4.365,0,0,1-2.98.98,4.008,4.008,0,0,1-3.23-1.445,5.815,5.815,0,0,1-1.215-3.867V80.75a6.481,6.481,0,0,1,.566-2.789,4.231,4.231,0,0,1,1.605-1.848,4.47,4.47,0,0,1,2.406-.645,4.11,4.11,0,0,1,2.906,1.012,4.235,4.235,0,0,1,1.273,2.8h-1.508a3.268,3.268,0,0,0-.848-1.975,2.565,2.565,0,0,0-1.824-.611,2.684,2.684,0,0,0-2.254,1.063,4.882,4.882,0,0,0-.816,3.026v1.1a5.018,5.018,0,0,0,.773,2.948,2.5,2.5,0,0,0,2.164,1.095,2.887,2.887,0,0,0,1.918-.566,3.143,3.143,0,0,0,.887-1.973Zm1.438-.7a4.993,4.993,0,0,1,.488-2.234,3.642,3.642,0,0,1,1.359-1.531,3.7,3.7,0,0,1,1.988-.539,3.565,3.565,0,0,1,2.793,1.2,4.6,4.6,0,0,1,1.066,3.18v.1a5.036,5.036,0,0,1-.473,2.215A3.589,3.589,0,0,1,190,86.609a3.743,3.743,0,0,1-2.02.547,3.556,3.556,0,0,1-2.785-1.2,4.575,4.575,0,0,1-1.066-3.164Zm1.453.172a3.616,3.616,0,0,0,.652,2.258,2.211,2.211,0,0,0,3.5-.012,3.954,3.954,0,0,0,.648-2.418,3.61,3.61,0,0,0-.66-2.254,2.1,2.1,0,0,0-1.754-.863,2.075,2.075,0,0,0-1.727.852A3.925,3.925,0,0,0,185.586,82.867Zm7.7-.164a4.952,4.952,0,0,1,.922-3.129,3.137,3.137,0,0,1,4.766-.168V75h1.445V87h-1.328l-.07-.906a2.943,2.943,0,0,1-2.414,1.063,2.887,2.887,0,0,1-2.395-1.2,5.008,5.008,0,0,1-.926-3.141Zm1.445.164a3.749,3.749,0,0,0,.594,2.25,1.919,1.919,0,0,0,1.641.813,2.108,2.108,0,0,0,2.008-1.234V80.813a2.125,2.125,0,0,0-1.992-1.2,1.929,1.929,0,0,0-1.656.82A4.128,4.128,0,0,0,194.734,82.867Zm7.578-.164a4.952,4.952,0,0,1,.922-3.129A3.137,3.137,0,0,1,208,79.406V75h1.445V87h-1.328l-.07-.906a2.943,2.943,0,0,1-2.414,1.063,2.887,2.887,0,0,1-2.395-1.2,5.008,5.008,0,0,1-.926-3.141Zm1.445.164a3.749,3.749,0,0,0,.594,2.25,1.919,1.919,0,0,0,1.641.813A2.108,2.108,0,0,0,208,84.7V80.813a2.125,2.125,0,0,0-1.992-1.2,1.929,1.929,0,0,0-1.656.82A4.128,4.128,0,0,0,203.758,82.867Zm11.836-.484a12.079,12.079,0,0,1,.473-3.391,9.85,9.85,0,0,1,1.41-2.953,6,6,0,0,1,1.945-1.875l.3.953a6.222,6.222,0,0,0-1.871,2.672,11.583,11.583,0,0,0-.8,4.023l-.008.664a11.643,11.643,0,0,0,1.1,5.234,6.252,6.252,0,0,0,1.578,2.078l-.3.883a6.192,6.192,0,0,1-1.984-1.937A10.859,10.859,0,0,1,215.594,82.383ZM221.344,87V75.625h3.719a4.317,4.317,0,0,1,2.785.766,2.759,2.759,0,0,1,.934,2.266,2.31,2.31,0,0,1-.453,1.41,2.938,2.938,0,0,1-1.234.949,2.638,2.638,0,0,1,1.457.98,2.814,2.814,0,0,1,.535,1.723,3.042,3.042,0,0,1-.992,2.406,4.1,4.1,0,0,1-2.8.875Zm1.5-5.32v4.094h2.477a2.385,2.385,0,0,0,1.652-.543,1.907,1.907,0,0,0,.605-1.5q0-2.055-2.234-2.055Zm0-1.2h2.266a2.375,2.375,0,0,0,1.574-.493,1.654,1.654,0,0,0,.59-1.339,1.626,1.626,0,0,0-.547-1.366,2.686,2.686,0,0,0-1.664-.427h-2.219Zm16.828,2.914a4.185,4.185,0,0,1-1.332,2.785,4.365,4.365,0,0,1-2.98.98,4.008,4.008,0,0,1-3.23-1.445,5.815,5.815,0,0,1-1.215-3.867V80.75a6.481,6.481,0,0,1,.566-2.789,4.231,4.231,0,0,1,1.605-1.848,4.47,4.47,0,0,1,2.406-.645A4.11,4.11,0,0,1,238.4,76.48a4.235,4.235,0,0,1,1.273,2.8h-1.508a3.268,3.268,0,0,0-.848-1.975,2.565,2.565,0,0,0-1.824-.611,2.684,2.684,0,0,0-2.254,1.063,4.882,4.882,0,0,0-.816,3.026v1.1a5.018,5.018,0,0,0,.773,2.948,2.5,2.5,0,0,0,2.164,1.095,2.887,2.887,0,0,0,1.918-.566,3.143,3.143,0,0,0,.887-1.973ZM250.461,87h-1.508l-5.727-8.766V87h-1.508V75.625h1.508l5.742,8.8v-8.8h1.492Zm8.938-5.023h-4.773V87h-1.5V75.625h7.047v1.227h-5.547v3.9H259.4Zm5.68.484a12.084,12.084,0,0,1-.457,3.34,9.876,9.876,0,0,1-1.4,2.949,6.127,6.127,0,0,1-1.973,1.922l-.3-.883a6.281,6.281,0,0,0,1.934-2.863,12.387,12.387,0,0,0,.746-4.309v-.25a12.862,12.862,0,0,0-.344-3.051,10.3,10.3,0,0,0-.957-2.527,5.838,5.838,0,0,0-1.379-1.742l.3-.883a6.1,6.1,0,0,1,1.965,1.906,9.9,9.9,0,0,1,1.4,2.945A12.363,12.363,0,0,1,265.078,82.461ZM9.688,107.391a4.185,4.185,0,0,1-1.332,2.785,4.365,4.365,0,0,1-2.98.98,4.008,4.008,0,0,1-3.23-1.445A5.815,5.815,0,0,1,.93,105.844V104.75a6.481,6.481,0,0,1,.566-2.789A4.231,4.231,0,0,1,3.1,100.113a4.47,4.47,0,0,1,2.406-.645,4.11,4.11,0,0,1,2.906,1.012,4.235,4.235,0,0,1,1.273,2.8H8.18a3.268,3.268,0,0,0-.848-1.975,2.565,2.565,0,0,0-1.824-.611,2.684,2.684,0,0,0-2.254,1.063,4.882,4.882,0,0,0-.816,3.026v1.1a5.018,5.018,0,0,0,.773,2.948,2.5,2.5,0,0,0,2.164,1.095,2.887,2.887,0,0,0,1.918-.566,3.143,3.143,0,0,0,.887-1.973Zm7.039,2.773a3.07,3.07,0,0,1-2.477.992,2.628,2.628,0,0,1-2.059-.785,3.4,3.4,0,0,1-.715-2.324v-5.5h1.445v5.461q0,1.922,1.563,1.922a2.163,2.163,0,0,0,2.2-1.234v-6.148h1.445V111H16.758Zm8.82.836a3.036,3.036,0,0,1-.2-.891,3.225,3.225,0,0,1-2.406,1.047,2.984,2.984,0,0,1-2.051-.707,2.287,2.287,0,0,1-.8-1.793,2.39,2.39,0,0,1,1-2.051,4.733,4.733,0,0,1,2.824-.73H25.32v-.664A1.623,1.623,0,0,0,24.867,104a1.821,1.821,0,0,0-1.336-.449,2.108,2.108,0,0,0-1.3.391,1.151,1.151,0,0,0-.523.945H20.258a2,2,0,0,1,.449-1.223,3.066,3.066,0,0,1,1.219-.934,4.1,4.1,0,0,1,1.691-.344,3.342,3.342,0,0,1,2.289.73,2.635,2.635,0,0,1,.859,2.012v3.891a4.757,4.757,0,0,0,.3,1.852V111Zm-2.4-1.1a2.54,2.54,0,0,0,1.289-.352,2.127,2.127,0,0,0,.883-.914V106.9H24.188q-2.656,0-2.656,1.555a1.316,1.316,0,0,0,.453,1.063A1.742,1.742,0,0,0,23.148,109.9Zm9.969-6.055a4.331,4.331,0,0,0-.711-.055A1.9,1.9,0,0,0,30.477,105v6H29.031v-8.453h1.406l.023.977a2.251,2.251,0,0,1,2.016-1.133,1.477,1.477,0,0,1,.641.109ZM36.8,100.5v2.047h1.578v1.117H36.8v5.249a1.173,1.173,0,0,0,.211.763.888.888,0,0,0,.719.254,3.5,3.5,0,0,0,.688-.094V111a4.215,4.215,0,0,1-1.109.155,1.8,1.8,0,0,1-1.461-.586,2.517,2.517,0,0,1-.492-1.664v-5.242H33.813v-1.117h1.539V100.5ZM45.281,111a3.036,3.036,0,0,1-.2-.891,3.225,3.225,0,0,1-2.406,1.047,2.984,2.984,0,0,1-2.051-.707,2.287,2.287,0,0,1-.8-1.793,2.39,2.39,0,0,1,1-2.051,4.733,4.733,0,0,1,2.824-.73h1.406v-.664A1.623,1.623,0,0,0,44.6,104a1.821,1.821,0,0,0-1.336-.449,2.108,2.108,0,0,0-1.3.391,1.151,1.151,0,0,0-.523.945H39.992a2,2,0,0,1,.449-1.223,3.066,3.066,0,0,1,1.219-.934,4.1,4.1,0,0,1,1.691-.344,3.342,3.342,0,0,1,2.289.73,2.635,2.635,0,0,1,.859,2.012v3.891a4.757,4.757,0,0,0,.3,1.852V111Zm-2.4-1.1a2.54,2.54,0,0,0,1.289-.352,2.127,2.127,0,0,0,.883-.914V106.9H43.922q-2.656,0-2.656,1.555a1.316,1.316,0,0,0,.453,1.063A1.742,1.742,0,0,0,42.883,109.9ZM53.438,111v-7.336H52.1v-1.117h1.336v-.867a2.878,2.878,0,0,1,.727-2.1,2.745,2.745,0,0,1,2.055-.742,3.816,3.816,0,0,1,.992.132l-.078,1.165a4.151,4.151,0,0,0-.781-.07,1.41,1.41,0,0,0-1.086.411,1.669,1.669,0,0,0-.383,1.18v.893h1.8v1.117h-1.8V111Zm4.461-4.3a4.993,4.993,0,0,1,.488-2.234,3.642,3.642,0,0,1,1.359-1.531,3.7,3.7,0,0,1,1.988-.539,3.565,3.565,0,0,1,2.793,1.2,4.6,4.6,0,0,1,1.066,3.18v.1a5.036,5.036,0,0,1-.473,2.215,3.589,3.589,0,0,1-1.352,1.527,3.743,3.743,0,0,1-2.02.547,3.556,3.556,0,0,1-2.785-1.2A4.575,4.575,0,0,1,57.9,106.8Zm1.453.172A3.616,3.616,0,0,0,60,109.125a2.211,2.211,0,0,0,3.5-.012,3.955,3.955,0,0,0,.648-2.418,3.61,3.61,0,0,0-.66-2.254,2.1,2.1,0,0,0-1.754-.863,2.075,2.075,0,0,0-1.727.852A3.925,3.925,0,0,0,59.352,106.867Zm12.141-3.023a4.331,4.331,0,0,0-.711-.055A1.9,1.9,0,0,0,68.852,105v6H67.406v-8.453h1.406l.023.977a2.251,2.251,0,0,1,2.016-1.133,1.477,1.477,0,0,1,.641.109Zm2.688-1.3.039.938a3.122,3.122,0,0,1,2.508-1.094,2.417,2.417,0,0,1,2.414,1.359,3.2,3.2,0,0,1,1.1-.984,3.242,3.242,0,0,1,1.6-.375q2.781,0,2.828,2.945V111H83.219v-5.578a1.941,1.941,0,0,0-.414-1.355,1.823,1.823,0,0,0-1.391-.449,1.916,1.916,0,0,0-1.336.48,1.949,1.949,0,0,0-.617,1.293V111H78.008v-5.539a1.613,1.613,0,0,0-1.8-1.844,1.934,1.934,0,0,0-1.945,1.211V111H72.813v-8.453ZM92.063,111a3.036,3.036,0,0,1-.2-.891,3.225,3.225,0,0,1-2.406,1.047,2.984,2.984,0,0,1-2.051-.707,2.287,2.287,0,0,1-.8-1.793,2.39,2.39,0,0,1,1-2.051,4.733,4.733,0,0,1,2.824-.73h1.406v-.664A1.623,1.623,0,0,0,91.383,104a1.821,1.821,0,0,0-1.336-.449,2.108,2.108,0,0,0-1.3.391,1.151,1.151,0,0,0-.523.945H86.773a2,2,0,0,1,.449-1.223,3.066,3.066,0,0,1,1.219-.934,4.1,4.1,0,0,1,1.691-.344,3.342,3.342,0,0,1,2.289.73,2.635,2.635,0,0,1,.859,2.012v3.891a4.757,4.757,0,0,0,.3,1.852V111Zm-2.4-1.1a2.54,2.54,0,0,0,1.289-.352,2.127,2.127,0,0,0,.883-.914V106.9H90.7q-2.656,0-2.656,1.555a1.316,1.316,0,0,0,.453,1.063A1.742,1.742,0,0,0,89.664,109.9Zm11.211-7.352.047,1.063a3.08,3.08,0,0,1,2.531-1.219q2.68,0,2.7,3.023V111h-1.445v-5.594a1.946,1.946,0,0,0-.418-1.352,1.675,1.675,0,0,0-1.277-.437,2.086,2.086,0,0,0-1.234.375,2.546,2.546,0,0,0-.828.984V111H99.508v-8.453Zm7.078,4.148a4.993,4.993,0,0,1,.488-2.234,3.643,3.643,0,0,1,1.359-1.531,3.7,3.7,0,0,1,1.988-.539,3.565,3.565,0,0,1,2.793,1.2,4.6,4.6,0,0,1,1.066,3.18v.1a5.036,5.036,0,0,1-.473,2.215,3.589,3.589,0,0,1-1.352,1.527,3.743,3.743,0,0,1-2.02.547,3.556,3.556,0,0,1-2.785-1.2,4.575,4.575,0,0,1-1.066-3.164Zm1.453.172a3.616,3.616,0,0,0,.652,2.258,2.211,2.211,0,0,0,3.5-.012,3.955,3.955,0,0,0,.648-2.418,3.61,3.61,0,0,0-.66-2.254,2.1,2.1,0,0,0-1.754-.863,2.075,2.075,0,0,0-1.727.852A3.925,3.925,0,0,0,109.406,106.867Zm12.141-3.023a4.331,4.331,0,0,0-.711-.055,1.9,1.9,0,0,0-1.93,1.211v6h-1.445v-8.453h1.406l.023.977a2.251,2.251,0,0,1,2.016-1.133,1.477,1.477,0,0,1,.641.109Zm2.688-1.3.039.938a3.122,3.122,0,0,1,2.508-1.094,2.417,2.417,0,0,1,2.414,1.359,3.2,3.2,0,0,1,1.1-.984,3.242,3.242,0,0,1,1.6-.375q2.781,0,2.828,2.945V111h-1.445v-5.578a1.941,1.941,0,0,0-.414-1.355,1.823,1.823,0,0,0-1.391-.449,1.917,1.917,0,0,0-1.336.48,1.949,1.949,0,0,0-.617,1.293V111h-1.453v-5.539a1.613,1.613,0,0,0-1.8-1.844,1.934,1.934,0,0,0-1.945,1.211V111h-1.445v-8.453ZM142.117,111a3.036,3.036,0,0,1-.2-.891,3.225,3.225,0,0,1-2.406,1.047,2.984,2.984,0,0,1-2.051-.707,2.287,2.287,0,0,1-.8-1.793,2.39,2.39,0,0,1,1-2.051,4.733,4.733,0,0,1,2.824-.73h1.406v-.664a1.623,1.623,0,0,0-.453-1.207,1.821,1.821,0,0,0-1.336-.449,2.108,2.108,0,0,0-1.3.391,1.151,1.151,0,0,0-.523.945h-1.453a2,2,0,0,1,.449-1.223,3.066,3.066,0,0,1,1.219-.934,4.1,4.1,0,0,1,1.691-.344,3.342,3.342,0,0,1,2.289.73,2.635,2.635,0,0,1,.859,2.012v3.891a4.757,4.757,0,0,0,.3,1.852V111Zm-2.4-1.1a2.54,2.54,0,0,0,1.289-.352,2.127,2.127,0,0,0,.883-.914V106.9h-1.133q-2.656,0-2.656,1.555a1.316,1.316,0,0,0,.453,1.063A1.742,1.742,0,0,0,139.719,109.9Zm7.453,1.1h-1.445V99h1.445Zm6.219-4.617a12.079,12.079,0,0,1,.473-3.391,9.85,9.85,0,0,1,1.41-2.953,6,6,0,0,1,1.945-1.875l.3.953a6.222,6.222,0,0,0-1.871,2.672,11.583,11.583,0,0,0-.8,4.023l-.008.664a11.643,11.643,0,0,0,1.1,5.234,6.252,6.252,0,0,0,1.578,2.078l-.3.883a6.192,6.192,0,0,1-1.984-1.937A10.859,10.859,0,0,1,153.391,106.383Zm11.477.8h1.578v1.18h-1.578V111h-1.453v-2.641h-5.18v-.852l5.094-7.883h1.539Zm-4.992,0h3.539V101.6l-.172.313ZM176.867,111h-1.508l-5.727-8.766V111h-1.508V99.625h1.508l5.742,8.8v-8.8h1.492Zm8.938-5.023h-4.773V111h-1.5V99.625h7.047v1.227h-5.547v3.9H185.8Zm5.68.484a12.084,12.084,0,0,1-.457,3.34,9.876,9.876,0,0,1-1.4,2.949,6.127,6.127,0,0,1-1.973,1.922l-.3-.883a6.281,6.281,0,0,0,1.934-2.863,12.387,12.387,0,0,0,.746-4.309v-.25a12.861,12.861,0,0,0-.344-3.051,10.3,10.3,0,0,0-.957-2.527,5.838,5.838,0,0,0-1.379-1.742l.3-.883a6.1,6.1,0,0,1,1.965,1.906,9.9,9.9,0,0,1,1.4,2.945A12.364,12.364,0,0,1,191.484,106.461ZM10.008,129.68a7.026,7.026,0,0,1-.523,2.84,4.388,4.388,0,0,1-1.469,1.863l2.031,1.594-1.023.945-2.4-1.906a4.88,4.88,0,0,1-1.187.141,4.347,4.347,0,0,1-2.383-.66,4.363,4.363,0,0,1-1.613-1.883,6.752,6.752,0,0,1-.59-2.832v-.82a6.953,6.953,0,0,1,.57-2.9,4.347,4.347,0,0,1,1.613-1.926,4.329,4.329,0,0,1,2.387-.668,4.4,4.4,0,0,1,2.418.664,4.284,4.284,0,0,1,1.605,1.91,7.016,7.016,0,0,1,.563,2.91Zm-1.5-.734a5.162,5.162,0,0,0-.8-3.1,2.666,2.666,0,0,0-2.285-1.09,2.643,2.643,0,0,0-2.23,1.082,5,5,0,0,0-.84,3v.836a5.147,5.147,0,0,0,.816,3.078,2.646,2.646,0,0,0,2.27,1.125,2.652,2.652,0,0,0,2.25-1.059,5.079,5.079,0,0,0,.82-3.035Zm8.8,5.219a3.07,3.07,0,0,1-2.477.992,2.628,2.628,0,0,1-2.059-.785,3.4,3.4,0,0,1-.715-2.324v-5.5h1.445v5.461q0,1.922,1.563,1.922a2.163,2.163,0,0,0,2.2-1.234v-6.148h1.445V135H17.344Zm5.172.836H21.039v-8.453h1.445Zm-1.562-10.7a.863.863,0,0,1,.215-.594.807.807,0,0,1,.637-.242.819.819,0,0,1,.641.242.854.854,0,0,1,.219.594.826.826,0,0,1-.219.586.834.834,0,0,1-.641.234.821.821,0,0,1-.637-.234A.834.834,0,0,1,20.922,124.3Zm5.242,2.242.047,1.063a3.08,3.08,0,0,1,2.531-1.219q2.68,0,2.7,3.023V135H30v-5.594a1.946,1.946,0,0,0-.418-1.352,1.675,1.675,0,0,0-1.277-.437,2.086,2.086,0,0,0-1.234.375,2.546,2.546,0,0,0-.828.984V135H24.8v-8.453Zm9.422-2.047v2.047h1.578v1.117H35.586v5.249a1.173,1.173,0,0,0,.211.763.888.888,0,0,0,.719.254,3.5,3.5,0,0,0,.688-.094V135a4.215,4.215,0,0,1-1.109.155,1.8,1.8,0,0,1-1.461-.586,2.517,2.517,0,0,1-.492-1.664v-5.242H32.6v-1.117h1.539V124.5ZM44.07,135a3.036,3.036,0,0,1-.2-.891,3.225,3.225,0,0,1-2.406,1.047,2.984,2.984,0,0,1-2.051-.707,2.288,2.288,0,0,1-.8-1.793,2.39,2.39,0,0,1,1-2.051,4.733,4.733,0,0,1,2.824-.73h1.406v-.664A1.623,1.623,0,0,0,43.391,128a1.821,1.821,0,0,0-1.336-.449,2.108,2.108,0,0,0-1.3.391,1.151,1.151,0,0,0-.523.945H38.781a2,2,0,0,1,.449-1.223,3.066,3.066,0,0,1,1.219-.934,4.1,4.1,0,0,1,1.691-.344,3.342,3.342,0,0,1,2.289.73,2.635,2.635,0,0,1,.859,2.012v3.891a4.757,4.757,0,0,0,.3,1.852V135Zm-2.4-1.1a2.54,2.54,0,0,0,1.289-.352,2.127,2.127,0,0,0,.883-.914V130.9H42.711q-2.656,0-2.656,1.555a1.316,1.316,0,0,0,.453,1.063A1.742,1.742,0,0,0,41.672,133.9ZM52.227,135v-7.336H50.891v-1.117h1.336v-.867a2.878,2.878,0,0,1,.727-2.1,2.745,2.745,0,0,1,2.055-.742,3.816,3.816,0,0,1,.992.132l-.078,1.165a4.151,4.151,0,0,0-.781-.07,1.41,1.41,0,0,0-1.086.411,1.669,1.669,0,0,0-.383,1.18v.893h1.8v1.117h-1.8V135Zm4.461-4.3a4.993,4.993,0,0,1,.488-2.234,3.642,3.642,0,0,1,1.359-1.531,3.7,3.7,0,0,1,1.988-.539,3.565,3.565,0,0,1,2.793,1.2,4.6,4.6,0,0,1,1.066,3.18v.1a5.036,5.036,0,0,1-.473,2.215,3.589,3.589,0,0,1-1.352,1.527,3.743,3.743,0,0,1-2.02.547,3.556,3.556,0,0,1-2.785-1.2,4.575,4.575,0,0,1-1.066-3.164Zm1.453.172a3.616,3.616,0,0,0,.652,2.258,2.211,2.211,0,0,0,3.5-.012,3.955,3.955,0,0,0,.648-2.418,3.61,3.61,0,0,0-.66-2.254,2.1,2.1,0,0,0-1.754-.863,2.075,2.075,0,0,0-1.727.852A3.925,3.925,0,0,0,58.141,130.867Zm12.141-3.023a4.331,4.331,0,0,0-.711-.055A1.9,1.9,0,0,0,67.641,129v6H66.2v-8.453H67.6l.023.977a2.251,2.251,0,0,1,2.016-1.133,1.477,1.477,0,0,1,.641.109Zm2.688-1.3.039.938a3.122,3.122,0,0,1,2.508-1.094,2.417,2.417,0,0,1,2.414,1.359,3.2,3.2,0,0,1,1.1-.984,3.242,3.242,0,0,1,1.6-.375q2.781,0,2.828,2.945V135H82.008v-5.578a1.941,1.941,0,0,0-.414-1.355,1.823,1.823,0,0,0-1.391-.449,1.916,1.916,0,0,0-1.336.48,1.949,1.949,0,0,0-.617,1.293V135H76.8v-5.539a1.613,1.613,0,0,0-1.8-1.844,1.934,1.934,0,0,0-1.945,1.211V135H71.6v-8.453ZM90.852,135a3.036,3.036,0,0,1-.2-.891,3.225,3.225,0,0,1-2.406,1.047,2.984,2.984,0,0,1-2.051-.707,2.288,2.288,0,0,1-.8-1.793,2.39,2.39,0,0,1,1-2.051,4.733,4.733,0,0,1,2.824-.73h1.406v-.664A1.623,1.623,0,0,0,90.172,128a1.821,1.821,0,0,0-1.336-.449,2.108,2.108,0,0,0-1.3.391,1.151,1.151,0,0,0-.523.945H85.563a2,2,0,0,1,.449-1.223,3.066,3.066,0,0,1,1.219-.934,4.1,4.1,0,0,1,1.691-.344,3.342,3.342,0,0,1,2.289.73,2.635,2.635,0,0,1,.859,2.012v3.891a4.757,4.757,0,0,0,.3,1.852V135Zm-2.4-1.1a2.54,2.54,0,0,0,1.289-.352,2.127,2.127,0,0,0,.883-.914V130.9H89.492q-2.656,0-2.656,1.555a1.316,1.316,0,0,0,.453,1.063A1.742,1.742,0,0,0,88.453,133.9Zm11.211-7.352.047,1.063a3.08,3.08,0,0,1,2.531-1.219q2.68,0,2.7,3.023V135H103.5v-5.594a1.946,1.946,0,0,0-.418-1.352,1.675,1.675,0,0,0-1.277-.437,2.086,2.086,0,0,0-1.234.375,2.546,2.546,0,0,0-.828.984V135H98.3v-8.453Zm7.078,4.148a4.993,4.993,0,0,1,.488-2.234,3.643,3.643,0,0,1,1.359-1.531,3.7,3.7,0,0,1,1.988-.539,3.565,3.565,0,0,1,2.793,1.2,4.6,4.6,0,0,1,1.066,3.18v.1a5.036,5.036,0,0,1-.473,2.215,3.589,3.589,0,0,1-1.352,1.527,3.743,3.743,0,0,1-2.02.547,3.556,3.556,0,0,1-2.785-1.2,4.575,4.575,0,0,1-1.066-3.164Zm1.453.172a3.616,3.616,0,0,0,.652,2.258,2.211,2.211,0,0,0,3.5-.012,3.955,3.955,0,0,0,.648-2.418,3.61,3.61,0,0,0-.66-2.254,2.1,2.1,0,0,0-1.754-.863,2.075,2.075,0,0,0-1.727.852A3.925,3.925,0,0,0,108.2,130.867Zm12.141-3.023a4.331,4.331,0,0,0-.711-.055A1.9,1.9,0,0,0,117.7,129v6H116.25v-8.453h1.406l.023.977a2.251,2.251,0,0,1,2.016-1.133,1.477,1.477,0,0,1,.641.109Zm2.688-1.3.039.938a3.122,3.122,0,0,1,2.508-1.094,2.417,2.417,0,0,1,2.414,1.359,3.2,3.2,0,0,1,1.1-.984,3.242,3.242,0,0,1,1.6-.375q2.781,0,2.828,2.945V135h-1.445v-5.578a1.941,1.941,0,0,0-.414-1.355,1.823,1.823,0,0,0-1.391-.449,1.917,1.917,0,0,0-1.336.48,1.949,1.949,0,0,0-.617,1.293V135h-1.453v-5.539a1.613,1.613,0,0,0-1.8-1.844,1.934,1.934,0,0,0-1.945,1.211V135h-1.445v-8.453ZM140.906,135a3.036,3.036,0,0,1-.2-.891,3.225,3.225,0,0,1-2.406,1.047,2.984,2.984,0,0,1-2.051-.707,2.287,2.287,0,0,1-.8-1.793,2.39,2.39,0,0,1,1-2.051,4.733,4.733,0,0,1,2.824-.73h1.406v-.664a1.623,1.623,0,0,0-.453-1.207,1.821,1.821,0,0,0-1.336-.449,2.108,2.108,0,0,0-1.3.391,1.151,1.151,0,0,0-.523.945h-1.453a2,2,0,0,1,.449-1.223,3.066,3.066,0,0,1,1.219-.934,4.1,4.1,0,0,1,1.691-.344,3.342,3.342,0,0,1,2.289.73,2.635,2.635,0,0,1,.859,2.012v3.891a4.757,4.757,0,0,0,.3,1.852V135Zm-2.4-1.1a2.54,2.54,0,0,0,1.289-.352,2.127,2.127,0,0,0,.883-.914V130.9h-1.133q-2.656,0-2.656,1.555a1.316,1.316,0,0,0,.453,1.063A1.742,1.742,0,0,0,138.508,133.9Zm7.453,1.1h-1.445V123h1.445Zm6.219-4.617a12.079,12.079,0,0,1,.473-3.391,9.85,9.85,0,0,1,1.41-2.953,6,6,0,0,1,1.945-1.875l.3.953a6.222,6.222,0,0,0-1.871,2.672,11.583,11.583,0,0,0-.8,4.023l-.008.664a11.643,11.643,0,0,0,1.1,5.234,6.251,6.251,0,0,0,1.578,2.078l-.3.883a6.192,6.192,0,0,1-1.984-1.937A10.859,10.859,0,0,1,152.18,130.383Zm6.039-1.086.578-5.672h5.828v1.336h-4.6l-.344,3.1a3.671,3.671,0,0,1,1.9-.492,3.138,3.138,0,0,1,2.469,1.027,4.026,4.026,0,0,1,.914,2.777,3.886,3.886,0,0,1-.949,2.77,3.46,3.46,0,0,1-2.652,1.012,3.6,3.6,0,0,1-2.461-.836,3.337,3.337,0,0,1-1.086-2.312h1.367a2.3,2.3,0,0,0,.7,1.473,2.162,2.162,0,0,0,1.484.5,1.95,1.95,0,0,0,1.582-.687,2.874,2.874,0,0,0,.574-1.9,2.638,2.638,0,0,0-.621-1.832,2.113,2.113,0,0,0-1.652-.691,2.383,2.383,0,0,0-1.484.414l-.383.313Zm17.438,5.7h-1.508l-5.727-8.766V135h-1.508V123.625h1.508l5.742,8.8v-8.8h1.492Zm8.938-5.023H179.82V135h-1.5V123.625h7.047v1.227H179.82v3.9h4.773Zm5.68.484a12.085,12.085,0,0,1-.457,3.34,9.876,9.876,0,0,1-1.4,2.949,6.127,6.127,0,0,1-1.973,1.922l-.3-.883a6.281,6.281,0,0,0,1.934-2.863,12.387,12.387,0,0,0,.746-4.309v-.25a12.861,12.861,0,0,0-.344-3.051,10.3,10.3,0,0,0-.957-2.527,5.838,5.838,0,0,0-1.379-1.742l.3-.883a6.1,6.1,0,0,1,1.965,1.906,9.9,9.9,0,0,1,1.4,2.945A12.364,12.364,0,0,1,190.273,130.461ZM2.578,175.316l-2.359-.7.359-1.178,2.359.874-.07-2.685h1.2l-.078,2.724,2.32-.859.359,1.186-2.4.71L5.813,177.5l-.969.734-1.453-2.25-1.406,2.2-.977-.711Zm15.867,2.66H13.672V183h-1.5V171.625h7.047v1.227H13.672v3.9h4.773Zm1.8.719a4.993,4.993,0,0,1,.488-2.234,3.643,3.643,0,0,1,1.359-1.531,3.7,3.7,0,0,1,1.988-.539,3.565,3.565,0,0,1,2.793,1.2,4.6,4.6,0,0,1,1.066,3.18v.1a5.036,5.036,0,0,1-.473,2.215,3.589,3.589,0,0,1-1.352,1.527,3.743,3.743,0,0,1-2.02.547,3.556,3.556,0,0,1-2.785-1.2,4.575,4.575,0,0,1-1.066-3.164Zm1.453.172a3.616,3.616,0,0,0,.652,2.258,2.211,2.211,0,0,0,3.5-.012,3.955,3.955,0,0,0,.648-2.418,3.61,3.61,0,0,0-.66-2.254,2.1,2.1,0,0,0-1.754-.863,2.075,2.075,0,0,0-1.727.852A3.925,3.925,0,0,0,21.7,178.867Zm12.141-3.023a4.332,4.332,0,0,0-.711-.055A1.9,1.9,0,0,0,31.2,177v6H29.75v-8.453h1.406l.023.977a2.251,2.251,0,0,1,2.016-1.133,1.476,1.476,0,0,1,.641.109Zm2.688-1.3.039.938a3.122,3.122,0,0,1,2.508-1.094,2.417,2.417,0,0,1,2.414,1.359,3.2,3.2,0,0,1,1.1-.984,3.242,3.242,0,0,1,1.6-.375q2.781,0,2.828,2.945V183H45.563v-5.578a1.941,1.941,0,0,0-.414-1.355,1.823,1.823,0,0,0-1.391-.449,1.916,1.916,0,0,0-1.336.48,1.949,1.949,0,0,0-.617,1.293V183H40.352v-5.539a1.613,1.613,0,0,0-1.8-1.844,1.934,1.934,0,0,0-1.945,1.211V183H35.156v-8.453ZM54.406,183a3.036,3.036,0,0,1-.2-.891,3.225,3.225,0,0,1-2.406,1.047,2.984,2.984,0,0,1-2.051-.707,2.288,2.288,0,0,1-.8-1.793,2.39,2.39,0,0,1,1-2.051,4.733,4.733,0,0,1,2.824-.73H54.18v-.664A1.623,1.623,0,0,0,53.727,176a1.821,1.821,0,0,0-1.336-.449,2.107,2.107,0,0,0-1.3.391,1.151,1.151,0,0,0-.523.945H49.117a2,2,0,0,1,.449-1.223,3.066,3.066,0,0,1,1.219-.934,4.1,4.1,0,0,1,1.691-.344,3.342,3.342,0,0,1,2.289.73,2.635,2.635,0,0,1,.859,2.012v3.891a4.757,4.757,0,0,0,.3,1.852V183Zm-2.4-1.1a2.54,2.54,0,0,0,1.289-.352,2.127,2.127,0,0,0,.883-.914V178.9H53.047q-2.656,0-2.656,1.555a1.316,1.316,0,0,0,.453,1.063A1.742,1.742,0,0,0,52.008,181.9Zm11.211-7.352.047,1.063a3.08,3.08,0,0,1,2.531-1.219q2.68,0,2.7,3.023V183H67.055v-5.594a1.946,1.946,0,0,0-.418-1.352,1.675,1.675,0,0,0-1.277-.437,2.086,2.086,0,0,0-1.234.375,2.546,2.546,0,0,0-.828.984V183H61.852v-8.453ZM70.3,178.7a4.993,4.993,0,0,1,.488-2.234,3.643,3.643,0,0,1,1.359-1.531,3.7,3.7,0,0,1,1.988-.539,3.565,3.565,0,0,1,2.793,1.2,4.6,4.6,0,0,1,1.066,3.18v.1a5.036,5.036,0,0,1-.473,2.215,3.589,3.589,0,0,1-1.352,1.527,3.743,3.743,0,0,1-2.02.547,3.556,3.556,0,0,1-2.785-1.2A4.575,4.575,0,0,1,70.3,178.8Zm1.453.172a3.616,3.616,0,0,0,.652,2.258,2.211,2.211,0,0,0,3.5-.012,3.955,3.955,0,0,0,.648-2.418,3.61,3.61,0,0,0-.66-2.254,2.1,2.1,0,0,0-1.754-.863,2.075,2.075,0,0,0-1.727.852A3.925,3.925,0,0,0,71.75,178.867Zm12.141-3.023a4.332,4.332,0,0,0-.711-.055A1.9,1.9,0,0,0,81.25,177v6H79.8v-8.453h1.406l.023.977a2.251,2.251,0,0,1,2.016-1.133,1.476,1.476,0,0,1,.641.109Zm2.688-1.3.039.938a3.122,3.122,0,0,1,2.508-1.094,2.417,2.417,0,0,1,2.414,1.359,3.2,3.2,0,0,1,1.1-.984,3.242,3.242,0,0,1,1.6-.375q2.781,0,2.828,2.945V183H95.617v-5.578a1.941,1.941,0,0,0-.414-1.355,1.823,1.823,0,0,0-1.391-.449,1.916,1.916,0,0,0-1.336.48,1.949,1.949,0,0,0-.617,1.293V183H90.406v-5.539a1.613,1.613,0,0,0-1.8-1.844,1.934,1.934,0,0,0-1.945,1.211V183H85.211v-8.453ZM104.461,183a3.036,3.036,0,0,1-.2-.891,3.225,3.225,0,0,1-2.406,1.047,2.984,2.984,0,0,1-2.051-.707,2.288,2.288,0,0,1-.8-1.793,2.39,2.39,0,0,1,1-2.051,4.733,4.733,0,0,1,2.824-.73h1.406v-.664a1.623,1.623,0,0,0-.453-1.207,1.821,1.821,0,0,0-1.336-.449,2.107,2.107,0,0,0-1.3.391,1.151,1.151,0,0,0-.523.945H99.172a2,2,0,0,1,.449-1.223,3.066,3.066,0,0,1,1.219-.934,4.1,4.1,0,0,1,1.691-.344,3.342,3.342,0,0,1,2.289.73,2.635,2.635,0,0,1,.859,2.012v3.891a4.757,4.757,0,0,0,.3,1.852V183Zm-2.4-1.1a2.54,2.54,0,0,0,1.289-.352,2.127,2.127,0,0,0,.883-.914V178.9H103.1q-2.656,0-2.656,1.555a1.316,1.316,0,0,0,.453,1.063A1.742,1.742,0,0,0,102.063,181.9Zm7.453,1.1H108.07V171h1.445Zm6.5,0V171.625h3.211a5.169,5.169,0,0,1,2.625.656,4.438,4.438,0,0,1,1.762,1.867,6.078,6.078,0,0,1,.629,2.781v.727a6.1,6.1,0,0,1-.621,2.82,4.369,4.369,0,0,1-1.773,1.859,5.5,5.5,0,0,1-2.684.664Zm1.5-10.148v8.922h1.578a3.434,3.434,0,0,0,2.7-1.079,4.458,4.458,0,0,0,.965-3.073v-.665a4.529,4.529,0,0,0-.91-3.014,3.239,3.239,0,0,0-2.582-1.091ZM125.9,178.7a4.993,4.993,0,0,1,.488-2.234,3.643,3.643,0,0,1,1.359-1.531,3.7,3.7,0,0,1,1.988-.539,3.565,3.565,0,0,1,2.793,1.2,4.6,4.6,0,0,1,1.066,3.18v.1a5.036,5.036,0,0,1-.473,2.215,3.589,3.589,0,0,1-1.352,1.527,3.743,3.743,0,0,1-2.02.547,3.556,3.556,0,0,1-2.785-1.2A4.575,4.575,0,0,1,125.9,178.8Zm1.453.172a3.616,3.616,0,0,0,.652,2.258,2.211,2.211,0,0,0,3.5-.012,3.954,3.954,0,0,0,.648-2.418,3.61,3.61,0,0,0-.66-2.254,2.1,2.1,0,0,0-1.754-.863,2.075,2.075,0,0,0-1.727.852A3.925,3.925,0,0,0,127.352,178.867Zm9.414-4.32.039.938a3.122,3.122,0,0,1,2.508-1.094,2.417,2.417,0,0,1,2.414,1.359,3.2,3.2,0,0,1,1.1-.984,3.242,3.242,0,0,1,1.6-.375q2.781,0,2.828,2.945V183H145.8v-5.578a1.941,1.941,0,0,0-.414-1.355,1.823,1.823,0,0,0-1.391-.449,1.917,1.917,0,0,0-1.336.48,1.949,1.949,0,0,0-.617,1.293V183h-1.453v-5.539a1.613,1.613,0,0,0-1.8-1.844,1.934,1.934,0,0,0-1.945,1.211V183H135.4v-8.453ZM151,183h-1.445v-8.453H151Zm-1.562-10.7a.863.863,0,0,1,.215-.594.807.807,0,0,1,.637-.242.819.819,0,0,1,.641.242.854.854,0,0,1,.219.594.826.826,0,0,1-.219.586.834.834,0,0,1-.641.234.821.821,0,0,1-.637-.234A.834.834,0,0,1,149.438,172.3Zm5.242,2.242.047,1.063a3.08,3.08,0,0,1,2.531-1.219q2.68,0,2.7,3.023V183h-1.445v-5.594a1.946,1.946,0,0,0-.418-1.352,1.675,1.675,0,0,0-1.277-.437,2.086,2.086,0,0,0-1.234.375,2.546,2.546,0,0,0-.828.984V183h-1.445v-8.453ZM163.711,183h-1.445v-8.453h1.445Zm-1.562-10.7a.863.863,0,0,1,.215-.594.807.807,0,0,1,.637-.242.819.819,0,0,1,.641.242.854.854,0,0,1,.219.594.826.826,0,0,1-.219.586.834.834,0,0,1-.641.234.821.821,0,0,1-.637-.234A.834.834,0,0,1,162.148,172.3Zm3.492,6.391a4.993,4.993,0,0,1,.488-2.234,3.642,3.642,0,0,1,1.359-1.531,3.7,3.7,0,0,1,1.988-.539,3.565,3.565,0,0,1,2.793,1.2,4.6,4.6,0,0,1,1.066,3.18v.1a5.036,5.036,0,0,1-.473,2.215,3.589,3.589,0,0,1-1.352,1.527,3.743,3.743,0,0,1-2.02.547,3.556,3.556,0,0,1-2.785-1.2,4.575,4.575,0,0,1-1.066-3.164Zm1.453.172a3.616,3.616,0,0,0,.652,2.258,2.211,2.211,0,0,0,3.5-.012,3.954,3.954,0,0,0,.648-2.418,3.61,3.61,0,0,0-.66-2.254,2.1,2.1,0,0,0-1.754-.863,2.075,2.075,0,0,0-1.727.852A3.925,3.925,0,0,0,167.094,178.867Zm11.063-.109h-3.812v-1.18h3.813Zm3.141,3.016h5.391V183h-6.9V171.625H181.3ZM189.742,183H188.3V171h1.445Zm7.531,0a3.036,3.036,0,0,1-.2-.891,3.225,3.225,0,0,1-2.406,1.047,2.984,2.984,0,0,1-2.051-.707,2.287,2.287,0,0,1-.8-1.793,2.39,2.39,0,0,1,1-2.051,4.733,4.733,0,0,1,2.824-.73h1.406v-.664a1.623,1.623,0,0,0-.453-1.207,1.821,1.821,0,0,0-1.336-.449,2.107,2.107,0,0,0-1.3.391,1.151,1.151,0,0,0-.523.945h-1.453a2,2,0,0,1,.449-1.223,3.066,3.066,0,0,1,1.219-.934,4.1,4.1,0,0,1,1.691-.344,3.342,3.342,0,0,1,2.289.73,2.635,2.635,0,0,1,.859,2.012v3.891a4.757,4.757,0,0,0,.3,1.852V183Zm-2.4-1.1a2.54,2.54,0,0,0,1.289-.352,2.127,2.127,0,0,0,.883-.914V178.9h-1.133q-2.656,0-2.656,1.555a1.316,1.316,0,0,0,.453,1.063A1.742,1.742,0,0,0,194.875,181.9Zm8.555-.859,2.094-6.492H207L203.969,183h-1.1l-3.062-8.453h1.477Zm8.367,2.117a3.693,3.693,0,0,1-2.8-1.129,4.19,4.19,0,0,1-1.078-3.02v-.266a5.073,5.073,0,0,1,.48-2.246,3.748,3.748,0,0,1,1.344-1.547,3.379,3.379,0,0,1,1.871-.559,3.166,3.166,0,0,1,2.563,1.086,4.7,4.7,0,0,1,.914,3.109v.6h-5.727a3,3,0,0,0,.73,2.02,2.3,2.3,0,0,0,1.777.77,2.517,2.517,0,0,0,1.3-.312,3.258,3.258,0,0,0,.93-.828l.883.688A3.55,3.55,0,0,1,211.8,183.156Zm-.18-7.578a1.928,1.928,0,0,0-1.469.637,3.1,3.1,0,0,0-.734,1.785h4.234v-.109a2.753,2.753,0,0,0-.594-1.707A1.815,1.815,0,0,0,211.617,175.578Zm9.055,2.8a12.079,12.079,0,0,1,.473-3.391,9.85,9.85,0,0,1,1.41-2.953,6,6,0,0,1,1.945-1.875l.3.953a6.222,6.222,0,0,0-1.871,2.672,11.583,11.583,0,0,0-.8,4.023l-.008.664a11.643,11.643,0,0,0,1.1,5.234,6.251,6.251,0,0,0,1.578,2.078l-.3.883a6.192,6.192,0,0,1-1.984-1.937A10.859,10.859,0,0,1,220.672,178.383Zm5.75,4.617V171.625h3.211a5.169,5.169,0,0,1,2.625.656,4.438,4.438,0,0,1,1.762,1.867,6.077,6.077,0,0,1,.629,2.781v.727a6.1,6.1,0,0,1-.621,2.82,4.369,4.369,0,0,1-1.773,1.859,5.5,5.5,0,0,1-2.684.664Zm1.5-10.148v8.922H229.5a3.434,3.434,0,0,0,2.7-1.079,4.458,4.458,0,0,0,.965-3.073v-.665a4.529,4.529,0,0,0-.91-3.014,3.239,3.239,0,0,0-2.582-1.091Zm11.883,4.859-1.391,1.445V183h-1.5V171.625h1.5v5.625l5.055-5.625h1.813l-4.477,5.023L245.633,183h-1.8Zm7.2,6.266h-1.242l4.75-12.352h1.234ZM262.281,183h-1.508l-5.727-8.766V183h-1.508V171.625h1.508l5.742,8.8v-8.8h1.492Zm8.938-5.023h-4.773V183h-1.5V171.625h7.047v1.227h-5.547v3.9h4.773Zm5.68.484a12.085,12.085,0,0,1-.457,3.34,9.876,9.876,0,0,1-1.4,2.949,6.127,6.127,0,0,1-1.973,1.922l-.3-.883a6.281,6.281,0,0,0,1.934-2.863,12.387,12.387,0,0,0,.746-4.309v-.25a12.862,12.862,0,0,0-.344-3.051,10.3,10.3,0,0,0-.957-2.527,5.838,5.838,0,0,0-1.379-1.742l.3-.883a6.1,6.1,0,0,1,1.965,1.906,9.9,9.9,0,0,1,1.4,2.945A12.363,12.363,0,0,1,276.9,178.461Z" transform="translate(-1667 -8165.288)" fill="#12263f"/>
    <g id="Grupo_1114386" data-name="Grupo 1114386" transform="translate(-45.766 -1449.458)">
      <g id="Elipse_13989" data-name="Elipse 13989" transform="translate(-1661.234 -6756.65) rotate(-90)" fill="#f2f1e7" stroke="#fff" stroke-width="1">
        <circle cx="141.229" cy="141.229" r="141.229" stroke="none"/>
        <circle cx="141.229" cy="141.229" r="140.729" fill="none"/>
      </g>
      <g id="Elipse_13990" data-name="Elipse 13990" transform="translate(-1630.151 -6787.734) rotate(-90)" fill="#d3daee" stroke="#fff" stroke-width="1">
        <circle cx="110.145" cy="110.145" r="110.145" stroke="none"/>
        <circle cx="110.145" cy="110.145" r="109.645" fill="none"/>
      </g>
      <g id="Elipse_13991" data-name="Elipse 13991" transform="translate(-1608.527 -6809.357) rotate(-90)" fill="#a3c6c8" stroke="#fff" stroke-width="1">
        <circle cx="88.521" cy="88.521" r="88.521" stroke="none"/>
        <circle cx="88.521" cy="88.521" r="88.021" fill="none"/>
      </g>
      <g id="Elipse_13992" data-name="Elipse 13992" transform="translate(-1588.255 -6829.629) rotate(-90)" fill="#ebd2de" stroke="#fff" stroke-width="1">
        <circle cx="68.249" cy="68.249" r="68.249" stroke="none"/>
        <circle cx="68.249" cy="68.249" r="67.749" fill="none"/>
      </g>
      <g id="Elipse_13993" data-name="Elipse 13993" transform="translate(-1563.928 -6853.956) rotate(-90)" fill="#f2f1e7" stroke="#fff" stroke-width="1">
        <circle cx="43.923" cy="43.923" r="43.923" stroke="none"/>
        <circle cx="43.923" cy="43.923" r="43.423" fill="none"/>
      </g>
      <g id="Elipse_13994" data-name="Elipse 13994" transform="translate(-1546.359 -6871.525) rotate(-90)" fill="#d3daee" stroke="#fff" stroke-width="1">
        <circle cx="26.354" cy="26.354" r="26.354" stroke="none"/>
        <circle cx="26.354" cy="26.354" r="25.854" fill="none"/>
      </g>
      <circle id="Elipse_13995" data-name="Elipse 13995" cx="6.082" cy="6.082" r="6.082" transform="translate(-1526.087 -6891.797) rotate(-90)" fill="#fff"/>
    </g>
    <path id="Trazado_919091" data-name="Trazado 919091" d="M107.827,0H0V9.875" transform="translate(-1680.466 -8156.158) rotate(-90)" fill="none" stroke="#523dbf" stroke-linecap="round" stroke-width="1"/>
    <path id="Trazado_919097" data-name="Trazado 919097" d="M0,20.525V0H153.06V34.378" transform="translate(-1691.638 -8133.158) rotate(-90)" fill="none" stroke="#523dbf" stroke-linecap="round" stroke-width="1"/>
    <path id="Trazado_919098" data-name="Trazado 919098" d="M0,32.75V0H193.029V60.08" transform="translate(-1702.671 -8109.84) rotate(-90)" fill="none" stroke="#523dbf" stroke-linecap="round" stroke-width="1"/>
    <path id="Trazado_919099" data-name="Trazado 919099" d="M0,42.75V0H234.25V87.08" transform="translate(-1714.671 -8084.619) rotate(-90)" fill="none" stroke="#523dbf" stroke-linecap="round" stroke-width="1"/>
    <path id="Trazado_919100" data-name="Trazado 919100" d="M0,52.75V0H275.7V119.08" transform="translate(-1726.671 -8058.892) rotate(-90)" fill="none" stroke="#523dbf" stroke-linecap="round" stroke-width="1"/>
    <path id="Trazado_919101" data-name="Trazado 919101" d="M0,67.75V0H313.8V150.08" transform="translate(-1740.671 -8036.842) rotate(-90)" fill="none" stroke="#523dbf" stroke-linecap="round" stroke-width="1"/>
    <g id="Grupo_1114423" data-name="Grupo 1114423" transform="translate(-1483.854 -8516.582)">
      <g id="Grupo_1114420" data-name="Grupo 1114420" transform="translate(0 -0.004)" clip-path="url(#clip-path)">
        <path id="Trazado_919165" data-name="Trazado 919165" d="M1396.2,1453.905a3.752,3.752,0,0,0-.059.75c.01.583.116,1.161.131,1.744.034,1.294-.763,2.279-.377,3.622.176.614.838,1.769,1.577,1.753s1.189-.815,1.4-1.407a18.261,18.261,0,0,1,1.085-2.571,12.765,12.765,0,0,0,.608-1.266,19.837,19.837,0,0,1-4.027-2.332c-.12-.094-.232-.191-.338-.292" transform="translate(-1305.237 -1359.583)" fill="#112040"/>
        <path id="Trazado_919166" data-name="Trazado 919166" d="M1655.407,1403.554c.179.192.353.388.535.576.52.537,1.187,1.1,1.918.953a1.511,1.511,0,0,0,1.085-1.352,3.4,3.4,0,0,0-.414-1.783,13.324,13.324,0,0,0-2.646-3.6c.03.3.06.595.081.894a9.5,9.5,0,0,1-.558,4.317" transform="translate(-1548.012 -1307.625)" fill="#112040"/>
        <path id="Trazado_919167" data-name="Trazado 919167" d="M1602.357,1493.482a12.323,12.323,0,0,0-1.172-3.366,3.76,3.76,0,0,1-1.4,1.3,5.98,5.98,0,0,1-1.941.6c.444.977.92,1.94,1.437,2.881.359.655.853,1.376,1.6,1.425a1.512,1.512,0,0,0,1.4-1.018,3.4,3.4,0,0,0,.072-1.829" transform="translate(-1494.187 -1393.444)" fill="#112040"/>
        <path id="Trazado_919168" data-name="Trazado 919168" d="M1527.157,1514.222c.021.1.041.194.063.29q.391,1.748.927,3.461c.223.712.565,1.517,1.286,1.712a1.511,1.511,0,0,0,1.576-.721,3.4,3.4,0,0,0,.431-1.779,11.365,11.365,0,0,0-.252-2.556,13.151,13.151,0,0,1-4.031-.407" transform="translate(-1428.082 -1415.986)" fill="#112040"/>
        <path id="Trazado_919169" data-name="Trazado 919169" d="M1360.934,939.3a13.859,13.859,0,0,1-.125,4.26,19.142,19.142,0,0,0-.531,4.089c.074,2.421,1.415,5.108,2.394,7.288q.387.862.811,1.719c2.063,4.156,4.832,8.14,8.734,10.7a6.685,6.685,0,0,0,3.247,1.259,5.469,5.469,0,0,0,3.449-1.2,8.391,8.391,0,0,0,.968-1.009c-1.252-11.7-8.8-22.258-18.1-29.186-.245-.182-.523-.386-.821-.591a6.925,6.925,0,0,1-.028,2.673" transform="translate(-1272.026 -875.867)" fill="#e9efde"/>
        <path id="Trazado_919170" data-name="Trazado 919170" d="M1358.347,1011.066a4.88,4.88,0,0,0,.4-.743,9.5,9.5,0,0,0,.558-4.317c-.022-.3-.051-.6-.081-.894-.006-.059-.01-.118-.017-.176a8.4,8.4,0,0,1-.968,1.009,5.467,5.467,0,0,1-3.449,1.2,6.683,6.683,0,0,1-3.247-1.259c-3.9-2.557-6.672-6.541-8.735-10.7q-.425-.857-.811-1.719c-.979-2.18-2.32-4.867-2.394-7.288a19.126,19.126,0,0,1,.531-4.089,13.855,13.855,0,0,0,.125-4.26c-.007.038-.013.077-.021.115-.074.383-.169.761-.277,1.126-.05.17-.1.339-.159.508a3.469,3.469,0,0,1,.014.756,12.76,12.76,0,0,1-.932,3.025,13.52,13.52,0,0,0-.71,5.046,42.762,42.762,0,0,0,1.077,7.041,27.2,27.2,0,0,0,10.959,17.129l.215.054a13.156,13.156,0,0,0,4.031.407c.188-.015.373-.037.555-.063a5.979,5.979,0,0,0,1.941-.6,3.761,3.761,0,0,0,1.4-1.3" transform="translate(-1251.349 -914.394)" fill="#b8becd"/>
        <path id="Trazado_919171" data-name="Trazado 919171" d="M1283.362,1020.652a42.774,42.774,0,0,1-1.077-7.041,13.518,13.518,0,0,1,.71-5.046,12.764,12.764,0,0,0,.932-3.025,3.468,3.468,0,0,0-.015-.756,20.955,20.955,0,0,1-4.743,7.959c-.227,1.04-.487,2.074-.771,3.1q1.643,2.8,3,5.76l.1.207a65.7,65.7,0,0,1,2.652,6.792c.63,1.923.8,3.918,2.275,5.315.106.1.218.2.339.292a19.838,19.838,0,0,0,4.027,2.332,22.57,22.57,0,0,0,3.532,1.236,27.2,27.2,0,0,1-10.959-17.13" transform="translate(-1195.461 -939.599)" fill="#8c98b7"/>
        <path id="Trazado_919172" data-name="Trazado 919172" d="M1309.017,889.214a14.336,14.336,0,0,1,.983,4.607,2.224,2.224,0,0,0,.19,1,1.056,1.056,0,0,0,.758.452,4.174,4.174,0,0,0,1.8-.124,1.472,1.472,0,0,0,.213-.09c.007-.038.014-.077.021-.115a6.924,6.924,0,0,0,.028-2.673,3.945,3.945,0,0,0-.732-1.613A4.085,4.085,0,0,0,1309,889.2c0,.015,0,.03,0,.044l.014-.027" transform="translate(-1224.078 -831.51)" fill="#052c60"/>
        <path id="Trazado_919173" data-name="Trazado 919173" d="M1293.449,895.526a1.057,1.057,0,0,1-.758-.452,2.227,2.227,0,0,1-.19-1,14.35,14.35,0,0,0-.983-4.607l-.014.027c.024.4.047.8.062,1.207q.088,2.386-.029,4.774c-.065,1.332-.172,2.662-.33,3.988q-.327,2.738-.919,5.445a20.959,20.959,0,0,0,4.743-7.959c.055-.169.109-.338.159-.507.108-.365.2-.744.277-1.127a1.461,1.461,0,0,1-.213.091,4.178,4.178,0,0,1-1.8.124" transform="translate(-1206.578 -831.76)" fill="#112040"/>
        <path id="Trazado_919174" data-name="Trazado 919174" d="M244.735,1454.2a19.846,19.846,0,0,1-4.027,2.332,12.756,12.756,0,0,0,.608,1.266,18.243,18.243,0,0,1,1.085,2.571c.212.593.665,1.391,1.4,1.407s1.4-1.139,1.576-1.753c.385-1.343-.411-2.329-.377-3.622.015-.583.121-1.161.131-1.744a3.782,3.782,0,0,0-.059-.75c-.106.1-.218.2-.338.292" transform="translate(-225.092 -1359.583)" fill="#112040"/>
        <path id="Trazado_919175" data-name="Trazado 919175" d="M2.991,1399.237c.022-.3.051-.6.082-.894a13.34,13.34,0,0,0-2.647,3.6,3.4,3.4,0,0,0-.414,1.783,1.511,1.511,0,0,0,1.085,1.352c.731.15,1.4-.416,1.918-.953.182-.188.356-.384.535-.576a9.509,9.509,0,0,1-.558-4.317" transform="translate(0 -1307.625)" fill="#112040"/>
        <path id="Trazado_919176" data-name="Trazado 919176" d="M42.637,1490.116a12.345,12.345,0,0,0-1.172,3.366,3.4,3.4,0,0,0,.072,1.829,1.512,1.512,0,0,0,1.4,1.018c.745-.049,1.239-.771,1.6-1.425.516-.941.992-1.9,1.437-2.881a5.978,5.978,0,0,1-1.941-.6,3.762,3.762,0,0,1-1.4-1.3" transform="translate(-38.692 -1393.444)" fill="#112040"/>
        <path id="Trazado_919177" data-name="Trazado 919177" d="M117.146,1514.628a11.389,11.389,0,0,0-.252,2.556,3.4,3.4,0,0,0,.431,1.779,1.511,1.511,0,0,0,1.576.721c.721-.195,1.063-1,1.286-1.712q.536-1.71.928-3.461c.022-.1.042-.193.063-.29a13.152,13.152,0,0,1-4.032.407" transform="translate(-109.308 -1415.985)" fill="#112040"/>
        <path id="Trazado_919178" data-name="Trazado 919178" d="M49.085,967.427a5.464,5.464,0,0,0,3.449,1.2,6.68,6.68,0,0,0,3.247-1.259c3.9-2.557,6.671-6.54,8.734-10.7q.425-.856.811-1.719c.979-2.18,2.32-4.867,2.394-7.288a19.121,19.121,0,0,0-.532-4.089A13.831,13.831,0,0,1,67,939.943a7.556,7.556,0,0,1-.164-3.311c-.3.205-.576.409-.821.591-9.25,6.891-16.764,17.367-18.076,29a10.864,10.864,0,0,0,1.144,1.207" transform="translate(-44.831 -875.867)" fill="#e9efde"/>
        <path id="Trazado_919179" data-name="Trazado 919179" d="M65.83,1004.653a42.735,42.735,0,0,0,1.077-7.041,13.519,13.519,0,0,0-.71-5.045,12.776,12.776,0,0,1-.932-3.025c-.008-.089-.013-.178-.014-.268-.117-.332-.228-.667-.328-1-.053-.179-.1-.361-.147-.545l-.014-.057a13.83,13.83,0,0,0,.187,3.631,19.119,19.119,0,0,1,.532,4.089c-.074,2.421-1.415,5.108-2.394,7.288q-.387.861-.811,1.719c-2.063,4.156-4.832,8.14-8.734,10.7a6.682,6.682,0,0,1-3.247,1.259,5.464,5.464,0,0,1-3.449-1.2,10.842,10.842,0,0,1-1.144-1.207c-.014.122-.026.244-.038.366-.03.3-.059.595-.082.894a9.509,9.509,0,0,0,.558,4.317,4.9,4.9,0,0,0,.4.743,3.76,3.76,0,0,0,1.4,1.3,5.978,5.978,0,0,0,1.941.6c.182.027.366.049.554.063a13.159,13.159,0,0,0,4.032-.407q.279-.068.557-.144a27.24,27.24,0,0,0,10.815-17.03" transform="translate(-42.589 -923.592)" fill="#b8becd"/>
        <path id="Trazado_919180" data-name="Trazado 919180" d="M201.776,1012.441c0,.09.006.179.014.268a12.775,12.775,0,0,0,.932,3.025,13.518,13.518,0,0,1,.71,5.045,42.748,42.748,0,0,1-1.077,7.041,27.241,27.241,0,0,1-10.815,17.03,22.918,22.918,0,0,0,3.19-1.145,19.851,19.851,0,0,0,4.027-2.332c.12-.094.232-.191.338-.292,1.478-1.4,1.645-3.393,2.275-5.315a65.652,65.652,0,0,1,2.653-6.792l.1-.207c.849-1.845,1.788-3.648,2.8-5.407q-.544-1.919-.95-3.868a20.967,20.967,0,0,1-4.2-7.051" transform="translate(-179.114 -946.758)" fill="#8c98b7"/>
        <path id="Trazado_919181" data-name="Trazado 919181" d="M337.688,895.67l.014.058a.974.974,0,0,0,.407.065,2.986,2.986,0,0,0,1.425-.552,1.638,1.638,0,0,0,.47-.491,2.3,2.3,0,0,0,.212-.829,15,15,0,0,1,.97-3.63c.014-.335.037-.668.057-1a4.03,4.03,0,0,0-2.988,1.458,3.936,3.936,0,0,0-.732,1.613,7.557,7.557,0,0,0,.164,3.311" transform="translate(-315.516 -831.595)" fill="#052c60"/>
        <path id="Trazado_919182" data-name="Trazado 919182" d="M345.453,905.2c0-.151.005-.3.012-.453a15.007,15.007,0,0,0-.97,3.63,2.3,2.3,0,0,1-.212.829,1.638,1.638,0,0,1-.47.491,2.989,2.989,0,0,1-1.425.552.976.976,0,0,1-.407-.066c.046.184.095.367.147.545.1.338.211.672.328,1a20.972,20.972,0,0,0,4.2,7.051q-.306-1.451-.536-2.914c-.111-.705-.213-1.412-.3-2.12a56.369,56.369,0,0,1-.364-8.551" transform="translate(-319.795 -846.046)" fill="#112040"/>
        <path id="Trazado_919183" data-name="Trazado 919183" d="M606.2,1487.273c.139.265.283.527.438.783a26.206,26.206,0,0,0,21.506,7.072,17.429,17.429,0,0,0,5.1-2.317,15.29,15.29,0,0,0,4.954-5.539c-7.17,2.672-24.825,2.673-32,0" transform="translate(-566.873 -1390.785)" fill="#112040"/>
        <path id="Trazado_919184" data-name="Trazado 919184" d="M454.386,908.491a58.628,58.628,0,0,1-11.691,3.809,66.866,66.866,0,0,1-7.862,1.206,90.391,90.391,0,0,1-18.7-.449c-7.327-.849-14.339-1.859-21.073-4.356a56.354,56.354,0,0,0,.364,8.551c.085.708.187,1.414.3,2.12a67.489,67.489,0,0,0,9.1,6.249c8.421,4.629,19.98,6.761,29.457,4.318l.358-.095c4.393-1.193,9.168-5.759,12.459-8.75a63.3,63.3,0,0,0,7.265-7.829q.116-2.385.029-4.774" transform="translate(-369.4 -849.552)" fill="#e9efde"/>
        <path id="Trazado_919185" data-name="Trazado 919185" d="M535.532,1396.945a63.1,63.1,0,0,1-15.665-3.629q1.319,2.232,2.84,4.359a5.952,5.952,0,0,0,2.761,1.738c7.173,2.672,24.828,2.671,32,0a5.947,5.947,0,0,0,2.758-1.736c.937-1.3,1.811-2.646,2.631-4.014-.8.283-1.6.555-2.415.8a63.287,63.287,0,0,1-24.908,2.479" transform="translate(-486.14 -1302.924)" fill="#b8becd"/>
        <path id="Trazado_919186" data-name="Trazado 919186" d="M464.025,986.061c.159-1.326.266-2.655.33-3.988a63.288,63.288,0,0,1-7.265,7.828c-3.291,2.991-8.066,7.557-12.459,8.75-.119.033-.238.064-.358.095-9.477,2.443-21.036.311-29.457-4.318a67.5,67.5,0,0,1-9.1-6.249q.23,1.463.536,2.914.41,1.947.95,3.868a58.505,58.505,0,0,0,5.671,13.375q2.58.978,5.241,1.725a63.169,63.169,0,0,0,24.727,1.855,62.5,62.5,0,0,0,13.511-3.222,58.484,58.484,0,0,0,5.979-14.087c.285-1.028.544-2.062.771-3.1q.59-2.7.919-5.445" transform="translate(-379.399 -918.361)" fill="#b8becd"/>
        <path id="Trazado_919187" data-name="Trazado 919187" d="M546.026,1390.487a63.171,63.171,0,0,1-24.727-1.855q-2.659-.744-5.24-1.726c.081.139.165.277.247.416a63.21,63.21,0,0,0,40.574,1.15c.811-.25,1.615-.522,2.415-.805.081-.134.163-.267.243-.4a62.489,62.489,0,0,1-13.511,3.222" transform="translate(-482.58 -1296.93)" fill="#052c60"/>
        <path id="Trazado_919188" data-name="Trazado 919188" d="M395.508,874.822c6.734,2.5,13.745,3.507,21.073,4.356a90.391,90.391,0,0,0,18.7.449,66.789,66.789,0,0,0,7.862-1.205,58.626,58.626,0,0,0,11.691-3.809c-.015-.4-.038-.8-.062-1.207,0-.014,0-.029,0-.044-.022-.366-.044-.733-.072-1.1-9.515.93-49.534.93-59.048,0-.029.368-.051.736-.073,1.1-.02.334-.044.668-.057,1-.006.151-.007.3-.012.453" transform="translate(-369.849 -815.672)" fill="#8c98b7"/>
        <path id="Trazado_919189" data-name="Trazado 919189" d="M151.523,177.2c.329-1.436.837-3.878.937-4.223a46.034,46.034,0,0,1,1.764-5.03c.12-.286.27-.693.454-1.127a54.119,54.119,0,0,1,2.227-6.229q.145-.337.293-.674a9.946,9.946,0,0,0-3.536,1.248,8.743,8.743,0,0,0-1.958,2.623,30.758,30.758,0,0,0-3.752,12.5,19.794,19.794,0,0,0,2.421,1.459.81.81,0,0,0,1.152-.545" transform="translate(-138.352 -149.539)" fill="#052c60"/>
        <path id="Trazado_919190" data-name="Trazado 919190" d="M1420.534,163.773a8.731,8.731,0,0,0-1.958-2.623,9.955,9.955,0,0,0-3.54-1.249q.151.335.3.674a54.036,54.036,0,0,1,3.051,9.429,5.527,5.527,0,0,1,.817,1.336c.481,1.353.885,2.717,1.38,4.059.151.411.311.819.484,1.224a8.739,8.739,0,0,0,3.041-2.083,30.918,30.918,0,0,0-3.571-10.768" transform="translate(-1323.235 -149.527)" fill="#052c60"/>
        <path id="Trazado_919191" data-name="Trazado 919191" d="M1438.9,324.22a30.56,30.56,0,0,0-.275-4.044,8.74,8.74,0,0,1-3.041,2.083c-.173-.405-.333-.813-.484-1.224-.495-1.342-.9-2.707-1.38-4.059a5.535,5.535,0,0,0-.816-1.337,51.271,51.271,0,0,1,1.175,8.346,43.057,43.057,0,0,1-1.382,13.834,35.6,35.6,0,0,1-2.133,5.773,10.759,10.759,0,0,0,3.752-1.579,8.735,8.735,0,0,0,1.772-2.752,30.64,30.64,0,0,0,2.812-15.042" transform="translate(-1337.751 -295.163)" fill="#112040"/>
        <path id="Trazado_919192" data-name="Trazado 919192" d="M150.246,279.324a51.621,51.621,0,0,1,2.057-13.012c-.183.434-.334.841-.454,1.127a46.032,46.032,0,0,0-1.764,5.03c-.1.345-.608,2.787-.937,4.223a.81.81,0,0,1-1.152.545,19.793,19.793,0,0,1-2.421-1.459c-.059.771-.092,1.542-.093,2.314a30.638,30.638,0,0,0,2.812,15.042,8.737,8.737,0,0,0,1.772,2.752,10.758,10.758,0,0,0,3.753,1.579,35.57,35.57,0,0,1-2.133-5.773,42.51,42.51,0,0,1-1.441-12.368" transform="translate(-135.977 -249.035)" fill="#112040"/>
        <path id="Trazado_919193" data-name="Trazado 919193" d="M300.818,20.473a54.028,54.028,0,0,0-3.051-9.429q-.145-.339-.3-.674a19.088,19.088,0,0,0-5.65-7.714c-4.717-3.605-56.352-3.488-61.652,0-2.806,1.847-4.343,4.733-5.654,7.715q-.148.336-.293.674A54.1,54.1,0,0,0,222,17.273a51.614,51.614,0,0,0-2.057,13.012,24.571,24.571,0,0,0,2.687,2.667c1.38,1.174,3.07,3.017,4.92,1.74,1.449-1,1.164-2.81,1.3-4.357a33.9,33.9,0,0,1,.692-4.882q.34-1.421.811-2.81a20.323,20.323,0,0,1,4.985-10.293c.7-.738,13.325-1,25.659-.94,12.334-.063,24.96.2,25.659.94a19.514,19.514,0,0,1,4.576,8.516c.2.413.4.83.576,1.255a18.573,18.573,0,0,1,1.3,4.78l.732,5.431a1.413,1.413,0,0,0,1.971,1.107,17.252,17.252,0,0,0,4.7-2.993,12.852,12.852,0,0,0,1.493-1.628,51.264,51.264,0,0,0-1.175-8.346" transform="translate(-205.669 0.004)" fill="#e9efde"/>
        <path id="Trazado_919194" data-name="Trazado 919194" d="M301.771,329.662a12.851,12.851,0,0,1-1.493,1.628,17.252,17.252,0,0,1-4.7,2.993,1.413,1.413,0,0,1-1.971-1.107l-.732-5.431a18.573,18.573,0,0,0-1.3-4.78c-.178-.425-.371-.843-.576-1.255a29.589,29.589,0,0,1,.938,6.452,24.81,24.81,0,0,1,.4,3.572c.183,4.739-1.163,15.87-4.106,17.278-3.3,1.579-48.9.068-52.173-.2-2.722-.223-3.629-1.667-4.441-4.265a28.31,28.31,0,0,1-1.238-7.007,37.061,37.061,0,0,1-.259-14.054q-.469,1.386-.811,2.81a33.918,33.918,0,0,0-.692,4.882c-.138,1.547.147,3.356-1.3,4.357-1.849,1.277-3.539-.566-4.92-1.74a24.564,24.564,0,0,1-2.687-2.667,42.512,42.512,0,0,0,1.441,12.368,35.575,35.575,0,0,0,2.133,5.773,20.72,20.72,0,0,0,5.968,7.794,6.3,6.3,0,0,0,1.99.364c9.514.93,49.533.93,59.048,0a6.3,6.3,0,0,0,1.99-.364,20.726,20.726,0,0,0,5.969-7.794,35.587,35.587,0,0,0,2.133-5.773,43.05,43.05,0,0,0,1.382-13.834" transform="translate(-205.449 -300.839)" fill="#b8becd"/>
        <path id="Trazado_919195" data-name="Trazado 919195" d="M441.028,440.291c-.782.461-13.643.687-26.212.675-12.57.011-25.431-.214-26.212-.675-1.352-.8-3.145-4.687-4.172-9.749a28.3,28.3,0,0,0,1.238,7.007c.812,2.6,1.718,4.041,4.441,4.265,3.276.269,48.872,1.779,52.173.2,2.943-1.408,4.289-12.539,4.106-17.278a24.82,24.82,0,0,0-.4-3.572c.358,9.05-2.843,17.877-4.961,19.128" transform="translate(-359.491 -393.84)" fill="#8c98b7"/>
        <path id="Trazado_919196" data-name="Trazado 919196" d="M434.23,191.721a29.583,29.583,0,0,0-.938-6.452,19.513,19.513,0,0,0-4.576-8.516c-.7-.738-13.325-1-25.659-.94-12.334-.063-24.959.2-25.659.94a20.324,20.324,0,0,0-4.985,10.293,37.058,37.058,0,0,0,.26,14.054c1.027,5.062,2.82,8.95,4.172,9.749.782.461,13.643.687,26.212.675,12.57.011,25.431-.214,26.212-.675,2.118-1.251,5.319-10.078,4.961-19.128" transform="translate(-347.731 -164.398)" fill="#112040"/>
        <path id="Trazado_919197" data-name="Trazado 919197" d="M442.539,219.741a11.3,11.3,0,0,0-.024,6.041c1.121,3.074,4.484,3.333,7.3,3.216l.332-.015a7.1,7.1,0,0,1-.743-2.8c-.146-2.34.109-11.372,1.288-12.653a5.259,5.259,0,0,1,7.164,0c1.179,1.282,1.434,10.313,1.288,12.653a7.383,7.383,0,0,1-.5,2.283c4.285-.347,8.576-.831,12.808-1.507q3.456-.552,6.88-1.286c-.089-2.922.2-10.941,1.31-12.143a5.259,5.259,0,0,1,7.164,0c.842.916,1.213,5.789,1.3,9.35a12.7,12.7,0,0,0,3.115-2.111c2-1.851,3.653-4.858,2.336-7.565a7.307,7.307,0,0,0-3.753-3.327,20.715,20.715,0,0,0-4.952-1.253c-11.139-1.823-22.6-2.989-33.661-.72a13.965,13.965,0,0,0-4.133,1.3,6.255,6.255,0,0,0-2.183,2.921,30.8,30.8,0,0,0-2.335,7.617" transform="translate(-413.424 -193.241)" fill="#052c60"/>
        <path id="Trazado_919198" data-name="Trazado 919198" d="M562.561,292.375a5.259,5.259,0,0,0-7.164,0c-1.179,1.281-1.433,10.313-1.288,12.653a7.1,7.1,0,0,0,.743,2.8,4.552,4.552,0,0,0,1.5,1.72,5.19,5.19,0,0,0,5.255,0,4.778,4.778,0,0,0,1.739-2.241,7.378,7.378,0,0,0,.5-2.283c.146-2.34-.109-11.371-1.288-12.653" transform="translate(-518.127 -272.09)" fill="#20b5ee"/>
        <path id="Trazado_919199" data-name="Trazado 919199" d="M1001.567,292.375c-1.105,1.2-1.4,9.22-1.31,12.143.006.193.013.365.022.51a5.8,5.8,0,0,0,2.242,4.524,5.19,5.19,0,0,0,5.255,0,5.794,5.794,0,0,0,2.242-4.524c.042-.668.051-1.881.015-3.3-.09-3.561-.46-8.434-1.3-9.35a5.259,5.259,0,0,0-7.164,0" transform="translate(-935.351 -272.09)" fill="#20b5ee"/>
        <path id="Trazado_919200" data-name="Trazado 919200" d="M625.668,1506.084a26.448,26.448,0,0,1-12.711-6.722,15.284,15.284,0,0,0,4.513,4.754,19.284,19.284,0,0,0,11.046,3.06,21.257,21.257,0,0,0,5.947-.743,26.347,26.347,0,0,1-8.795-.35" transform="translate(-573.191 -1402.091)" fill="#052c60"/>
      </g>
    </g>
  </g>
</svg>
