<svg xmlns="http://www.w3.org/2000/svg" width="66" height="66" viewBox="0 0 66 66">
  <g id="Grupo_1114045" data-name="Grupo 1114045" transform="translate(-613.711 -7231)">
    <rect id="Rectángulo_411542" data-name="Rectángulo 411542" width="66" height="66" rx="10" transform="translate(613.711 7231)" fill="#fe9ab8"/>
    <g id="Grupo_1114044" data-name="Grupo 1114044" transform="translate(593.646 7239.681)">
      <g id="Grupo_1114042" data-name="Grupo 1114042" transform="translate(31.769 0.728)">
        <path id="Trazado_917306" data-name="Trazado 917306" d="M40.857,114.148h2.922v-8.766H40.857a4.383,4.383,0,0,0,0,8.766Z" transform="translate(-36.474 -95.886)" fill="#4a66a0"/>
        <circle id="Elipse_13961" data-name="Elipse 13961" cx="2.191" cy="2.191" r="2.191" transform="translate(0.73)" fill="#f9475e"/>
        <path id="Trazado_917307" data-name="Trazado 917307" d="M400.807,114.148h-2.922v-8.766h2.922a4.383,4.383,0,0,1,0,8.766Z" transform="translate(-362.822 -95.886)" fill="#687daa"/>
        <path id="Trazado_917308" data-name="Trazado 917308" d="M194.146,10.412v2.933H179.537V10.412A2.91,2.91,0,0,1,182.448,7.5h8.788A2.91,2.91,0,0,1,194.146,10.412Z" transform="translate(-165.657 -7.501)" fill="#f3f5fc"/>
        <path id="Trazado_917309" data-name="Trazado 917309" d="M185.022,9.456v.967s-.309,1.375-.668,2.921h-4.818V10.412a2.91,2.91,0,0,1,2.91-2.911h3.482c-.946.451-.906,1.955-.906,1.955Z" transform="translate(-165.657 -7.501)" fill="#e8ecf9"/>
        <path id="Trazado_917310" data-name="Trazado 917310" d="M217.176,218.321h7.305V231.47h-7.305Z" transform="translate(-199.645 -197.868)" fill="#687daa"/>
        <path id="Trazado_917311" data-name="Trazado 917311" d="M219.4,233.305v8.765h-2.22v-12.01C218.313,231.661,219.4,233.305,219.4,233.305Z" transform="translate(-199.645 -208.469)" fill="#4a66a0"/>
        <path id="Trazado_917312" data-name="Trazado 917312" d="M127.387,306.792v7.356a1.456,1.456,0,0,1-1.455,1.455h-9.5l-4.509-1.311-4.257,1.311h-9.5a1.456,1.456,0,0,1-1.455-1.455v-7.356a11.645,11.645,0,0,1,9.555-11.455,1.443,1.443,0,0,1,1.11.258,3.921,3.921,0,0,0,1.023.516l.563.709,1.656-.269h0c.428.038.9.059,1.433.059,2.777,0,4.087-.586,4.675-1.016a1.443,1.443,0,0,1,1.11-.258A11.645,11.645,0,0,1,127.387,306.792Z" transform="translate(-90.862 -267.392)" fill="#f3f5fc"/>
        <path id="Trazado_917313" data-name="Trazado 917313" d="M105.958,306.564v8.075a1.225,1.225,0,0,0,.779.964H98.161a1.456,1.456,0,0,1-1.455-1.455v-7.356a11.645,11.645,0,0,1,9.555-11.455,1.443,1.443,0,0,1,1.11.258,6.4,6.4,0,0,0,3.241.957C110.527,296.586,105.958,298.417,105.958,306.564Z" transform="translate(-90.862 -267.392)" fill="#e8ecf9"/>
        <path id="Trazado_917314" data-name="Trazado 917314" d="M127.387,43.442V53.714a5.821,5.821,0,0,1-5.821,5.821H110.613l-1.641-.427-.579.427h-5.867a5.821,5.821,0,0,1-5.821-5.821v-.756l2.078-4.394-2.078-4.37v-.753a5.821,5.821,0,0,1,5.821-5.821h2.215l1.708.8,3.778-.8h11.337A5.821,5.821,0,0,1,127.387,43.442Z" transform="translate(-90.862 -34.699)" fill="#93bce8"/>
        <path id="Trazado_917315" data-name="Trazado 917315" d="M110.613,59.535h-8.086a5.821,5.821,0,0,1-5.821-5.821V43.442a5.821,5.821,0,0,1,5.821-5.821h7.7a7.279,7.279,0,0,0-4.6,6.767v8.864C105.632,56.253,107.828,58.56,110.613,59.535Z" transform="translate(-90.862 -34.699)" fill="#68a2df"/>
        <path id="Trazado_917316" data-name="Trazado 917316" d="M196.136,89.366a6.575,6.575,0,0,1-6.574,6.574H180.8a6.585,6.585,0,0,1-1.8-.249l-1.3-.848v-9.66l1.394-2.167a6.547,6.547,0,0,1,1.706-.224h8.766A6.574,6.574,0,0,1,196.136,89.366Z" transform="translate(-163.995 -75.487)" fill="#f3f5fc"/>
        <path id="Trazado_917317" data-name="Trazado 917317" d="M146.428,96.126a5.9,5.9,0,0,0,.233,1.65,6.577,6.577,0,0,1,.093-12.675,7.284,7.284,0,0,0-.326,2.161Z" transform="translate(-131.659 -77.572)" fill="#e8ecf9"/>
        <circle id="Elipse_13962" data-name="Elipse 13962" cx="2.191" cy="2.191" r="2.191" transform="translate(37.254)" fill="#ff6e80"/>
        <circle id="Elipse_13963" data-name="Elipse 13963" cx="1.461" cy="1.461" r="1.461" transform="translate(8.766 42.368)" fill="#f9475e"/>
        <g id="Grupo_1114041" data-name="Grupo 1114041" transform="translate(17.166 32.141)">
          <circle id="Elipse_13964" data-name="Elipse 13964" cx="1.461" cy="1.461" r="1.461" fill="#ff6e80"/>
          <circle id="Elipse_13965" data-name="Elipse 13965" cx="1.461" cy="1.461" r="1.461" transform="translate(5.113 2.191)" fill="#ff6e80"/>
          <circle id="Elipse_13966" data-name="Elipse 13966" cx="1.461" cy="1.461" r="1.461" transform="translate(13.514 9.496)" fill="#ff6e80"/>
        </g>
        <path id="Trazado_917318" data-name="Trazado 917318" d="M218.416,422.854H209.65V417a2.91,2.91,0,0,1,2.911-2.911h2.945a2.91,2.91,0,0,1,2.91,2.911Z" transform="translate(-192.849 -374.642)" fill="#93bce8"/>
      </g>
      <g id="Grupo_1114043" data-name="Grupo 1114043" transform="translate(31.264 0)">
        <path id="Trazado_917319" data-name="Trazado 917319" d="M71.943,9.989V5.746a2.919,2.919,0,1,0-1.455,0v3.8A9.2,9.2,0,0,0,69.021,9.5a6.555,6.555,0,0,0-6.549-6.574H60.914A3.644,3.644,0,0,0,57.347,0H48.559a3.644,3.644,0,0,0-3.567,2.922H43.434A6.555,6.555,0,0,0,36.886,9.5a9.526,9.526,0,0,0-1.467.052v-3.8a2.919,2.919,0,1,0-1.455,0V9.986a5.1,5.1,0,0,0-2.351,2.274.728.728,0,1,0,1.292.669,3.644,3.644,0,0,1,3.247-1.977h.734v7.31h-.734a3.65,3.65,0,0,1-3.47-2.5.728.728,0,1,0-1.381.459,5.1,5.1,0,0,0,4.851,3.5h.734a6.555,6.555,0,0,0,6.549,6.575h5.139v1.962a2.178,2.178,0,0,0-1.534-.3A12.354,12.354,0,0,0,36.885,40.128v7.356a2.185,2.185,0,0,0,2.183,2.183H61.257a.728.728,0,1,0,0-1.455H58.064V46.745h1.463a.728.728,0,0,0,0-1.455H58.064v-2.2h.861a.733.733,0,0,1,.515.213l.608.608a2.2,2.2,0,0,0,1.544.639h.255a2.189,2.189,0,1,0,0-1.455h-.255a.733.733,0,0,1-.515-.213l-.608-.608a2.2,2.2,0,0,0-1.544-.639H57.763a3.66,3.66,0,0,0-1.526-1.707V38.585a2.189,2.189,0,1,0-1.455,0v.879c-.117-.011-.236-.018-.356-.018H51.588a3.45,3.45,0,0,0-.464.018v-3.07a2.189,2.189,0,1,0-1.455,0v3.538a3.661,3.661,0,0,0-1.526,1.707H46.379a.728.728,0,0,0,0,1.455h1.463v2.2h-.861a.733.733,0,0,1-.515-.213l-.607-.607a2.2,2.2,0,0,0-1.545-.641h-.255a2.189,2.189,0,1,0,0,1.455h.255a.731.731,0,0,1,.515.214l.608.608a2.2,2.2,0,0,0,1.544.639h.861v1.467H39.068a.728.728,0,0,1-.728-.728V40.128A10.9,10.9,0,0,1,47.3,29.389a.719.719,0,0,1,.55.13c.721.527,2.193,1.156,5.1,1.156s4.383-.629,5.105-1.156a.718.718,0,0,1,.55-.129,10.9,10.9,0,0,1,8.957,10.739v7.356a.728.728,0,0,1-.728.728H64.652a.728.728,0,1,0,0,1.455h2.186a2.185,2.185,0,0,0,2.183-2.183V40.128A12.354,12.354,0,0,0,58.868,27.957a2.177,2.177,0,0,0-1.535.3V26.292h5.139a6.555,6.555,0,0,0,6.549-6.575h.734a5.11,5.11,0,0,0,2.189-9.727Zm-2.192-7.07a1.464,1.464,0,1,1,1.464,1.464A1.465,1.465,0,0,1,69.751,2.919Zm-36.524,0a1.464,1.464,0,1,1,1.464,1.464,1.465,1.465,0,0,1-1.464-1.464ZM63.91,43.093a.733.733,0,1,1-.733.733A.734.734,0,0,1,63.91,43.093Zm-8.4-7.3a.733.733,0,1,1-.733.733A.734.734,0,0,1,55.51,35.788ZM50.4,33.6a.733.733,0,1,1-.733.733A.734.734,0,0,1,50.4,33.6ZM42,45.29a.733.733,0,1,1,.733-.733A.734.734,0,0,1,42,45.29Zm7.3-2.206A2.185,2.185,0,0,1,51.481,40.9h2.945a2.185,2.185,0,0,1,2.183,2.183v5.128H49.3ZM48.559,1.455h8.788a2.186,2.186,0,0,1,2.061,1.467H46.5a2.186,2.186,0,0,1,2.061-1.467Zm7.319,27.455a13.924,13.924,0,0,1-5.85,0V26.292h5.85Zm11.687-9.168a5.1,5.1,0,0,1-5.093,5.093H43.434a5.1,5.1,0,0,1-5.093-5.093V9.471a5.1,5.1,0,0,1,5.093-5.093H62.472a5.1,5.1,0,0,1,5.093,5.093Zm2.189-1.481h-.734v-7.31h.734a3.655,3.655,0,0,1,0,7.31Z" transform="translate(-31.264 0)"/>
        <path id="Trazado_917320" data-name="Trazado 917320" d="M156.368,79.624a.728.728,0,0,0-.429.935,5.848,5.848,0,0,1-5.483,7.88h-8.766a5.847,5.847,0,0,1,0-11.693h8.766a5.857,5.857,0,0,1,3.717,1.333.728.728,0,1,0,.925-1.123,7.316,7.316,0,0,0-4.642-1.665h-8.766a7.3,7.3,0,0,0,0,14.6h8.766a7.307,7.307,0,0,0,6.848-9.841.728.728,0,0,0-.935-.429Z" transform="translate(-124.382 -67.986)"/>
        <path id="Trazado_917321" data-name="Trazado 917321" d="M206.637,105.971a.9.9,0,0,0-1.661.018l-2.779,7.2a.728.728,0,1,0,1.358.524l.513-1.328h3.466l.507,1.326a.728.728,0,0,0,1.359-.52Zm-2.008,4.961,1.179-3.056,1.168,3.056Z" transform="translate(-185.57 -95.194)"/>
        <path id="Trazado_917322" data-name="Trazado 917322" d="M292.5,106.14v7.3a.728.728,0,0,0,1.455,0v-7.3a.728.728,0,0,0-1.455,0Z" transform="translate(-267.158 -95.185)"/>
      </g>
    </g>
  </g>
</svg>
