<svg id="Grupo_1113374" data-name="Grupo 1113374" xmlns="http://www.w3.org/2000/svg" width="122.486" height="122.486" viewBox="0 0 122.486 122.486">
  <g id="Rectángulo_402033" data-name="Rectángulo 402033" transform="translate(0)" fill="#fe9ab8" stroke="#fff" stroke-width="3">
    <rect width="122.486" height="122.486" rx="8" stroke="none"/>
    <rect x="1.5" y="1.5" width="119.486" height="119.486" rx="6.5" fill="none"/>
  </g>
  <g id="Grupo_1114228" data-name="Grupo 1114228" transform="translate(11.132 22.673)">
    <g id="Grupo_1114226" data-name="Grupo 1114226" transform="translate(14.72 1.203)">
      <g id="Grupo_1114225" data-name="Grupo 1114225" transform="translate(0)">
        <g id="Grupo_1114219" data-name="Grupo 1114219" transform="translate(0.321)">
          <path id="Trazado_917668" data-name="Trazado 917668" d="M91.835,33.221c0,5.628-3.252,8.988-8.887,8.988l-6.318,1.2H71L68.614,53.24H48.993l-1.8-9.829H36.278a13.038,13.038,0,1,1,3.979-25.457c.116-.3.664-.6.8-.893.162-.355-.086-.7.1-1.042A15.535,15.535,0,0,1,66.57,13.431a.562.562,0,0,0,.669.138,12.828,12.828,0,0,1,5.719-.963c5.745,0,9.32,4.207,11.064,9.357a12.961,12.961,0,0,1,.548,2.286c4.319,1.187,7.266,4.282,7.266,8.971Z" transform="translate(-23.223 -7.988)" fill="#f5f8f9"/>
          <path id="Trazado_917669" data-name="Trazado 917669" d="M341.465,57.27a10.2,10.2,0,0,1-10.2,10.191H324.73a12.654,12.654,0,0,0,3.826-5.548,13.653,13.653,0,0,0,.8-4.372c0-16.78-14.019-19.922-14.019-19.922a13.071,13.071,0,0,1,18.087,7.542c.118.349-.2.7-.114,1.064.1.4.6.808.661,1.222A10.194,10.194,0,0,1,341.465,57.27Z" transform="translate(-271.323 -32.037)" fill="#e6edf4"/>
        </g>
        <g id="Grupo_1114224" data-name="Grupo 1114224" transform="translate(0 16.855)">
          <g id="Grupo_1114220" data-name="Grupo 1114220" transform="translate(0 33.11)">
            <circle id="Elipse_13975" data-name="Elipse 13975" cx="3.675" cy="3.675" r="3.675" transform="translate(63.435)" fill="#8ac9fe"/>
            <circle id="Elipse_13976" data-name="Elipse 13976" cx="3.675" cy="3.675" r="3.675" transform="translate(0 0.325)" fill="#8ac9fe"/>
          </g>
          <g id="Grupo_1114221" data-name="Grupo 1114221" transform="translate(13.42 46.529)">
            <circle id="Elipse_13977" data-name="Elipse 13977" cx="3.675" cy="3.675" r="3.675" transform="translate(36.595)" fill="#60b7ff"/>
            <circle id="Elipse_13978" data-name="Elipse 13978" cx="2.664" cy="2.664" r="2.664" transform="translate(19.308 5.726)" fill="#26a6fe"/>
            <circle id="Elipse_13979" data-name="Elipse 13979" cx="3.675" cy="3.675" r="3.675" transform="translate(0 0.325)" fill="#60b7ff"/>
          </g>
          <g id="Grupo_1114223" data-name="Grupo 1114223" transform="translate(16.742)">
            <path id="Trazado_917670" data-name="Trazado 917670" d="M169.142,136.465a.724.724,0,0,0-.724-.724l-3.268.029a.723.723,0,0,1-.7-.547,15.409,15.409,0,0,0-1.207-4.1.723.723,0,0,1,.109-.883l2.3-2.3a.724.724,0,0,0,0-1.025l-3.213-3.213a.724.724,0,0,0-1.025,0l-2.3,2.3a.723.723,0,0,1-.883.109,14.323,14.323,0,0,0-3.831-1.59.723.723,0,0,1-.547-.7v-3.247a.724.724,0,0,0-.725-.724h-4.544a.724.724,0,0,0-.724.724v3.247a.723.723,0,0,1-.547.7,14.323,14.323,0,0,0-3.831,1.59.723.723,0,0,1-.883-.109l-2.3-2.3a.724.724,0,0,0-1.025,0l-3.213,3.213a.724.724,0,0,0,0,1.025l2.3,2.3a.723.723,0,0,1,.109.883,14.323,14.323,0,0,0-1.59,3.831.723.723,0,0,1-.7.547H132.93a.725.725,0,0,0-.725.724v4.544a.724.724,0,0,0,.725.724h3.247a.723.723,0,0,1,.7.547,14.323,14.323,0,0,0,1.59,3.831.723.723,0,0,1-.109.883l-2.3,2.3a.724.724,0,0,0,0,1.025l3.213,3.213a.724.724,0,0,0,1.025,0l2.3-2.3a.724.724,0,0,1,.883-.109,15.827,15.827,0,0,0,4.163,1.173.723.723,0,0,1,.547.7L148.16,156a.724.724,0,0,0,.724.724l3.911.161a.725.725,0,0,0,.724-.725v-3.247a.723.723,0,0,1,.547-.7,17.134,17.134,0,0,0,4.215-1.675.723.723,0,0,1,.883.109l2.3,2.3a.724.724,0,0,0,1.025,0l2.709-2.886a.724.724,0,0,0,0-1.025l-2.3-2.3a.723.723,0,0,1-.109-.883,17.508,17.508,0,0,0,1.85-4.2.723.723,0,0,1,.7-.547h3.247a.725.725,0,0,0,.724-.724ZM150.854,146.7a8.2,8.2,0,1,1,8.2-8.2A8.2,8.2,0,0,1,150.854,146.7Z" transform="translate(-132.205 -119.851)" fill="#8ac9fe"/>
            <g id="Grupo_1114222" data-name="Grupo 1114222" transform="translate(11.275 11.275)">
              <path id="Trazado_917671" data-name="Trazado 917671" d="M232.334,199.056h-3.247a.723.723,0,0,1-.7-.547,14.514,14.514,0,0,0-1.59-3.831,17.626,17.626,0,0,1,.238,2.8,17.2,17.2,0,0,1-17.2,17.2,17.629,17.629,0,0,1-2.8-.238,14.516,14.516,0,0,0,3.831,1.59.723.723,0,0,1,.547.7v3.247a.724.724,0,0,0,.724.724h4.544a.724.724,0,0,0,.724-.724V216.73a.723.723,0,0,1,.547-.7,14.322,14.322,0,0,0,3.831-1.59.723.723,0,0,1,.883.109l2.3,2.3a.724.724,0,0,0,1.025,0l3.213-3.213a.724.724,0,0,0,0-1.025l-2.3-2.3a.723.723,0,0,1-.109-.883,14.322,14.322,0,0,0,1.59-3.831.723.723,0,0,1,.7-.547h3.247a.724.724,0,0,0,.724-.724v-4.544A.725.725,0,0,0,232.334,199.056Z" transform="translate(-207.034 -194.678)" fill="#60b7ff"/>
            </g>
          </g>
        </g>
      </g>
    </g>
    <g id="Grupo_1114227" data-name="Grupo 1114227" transform="translate(13.589 0)">
      <path id="Trazado_917672" data-name="Trazado 917672" d="M228.24,2.259a14.461,14.461,0,0,1,10.8,5.379,1.129,1.129,0,0,0,1.408.289,11.857,11.857,0,0,1,5.607-1.389,11.987,11.987,0,0,1,11.514,8.638,11.6,11.6,0,0,0-1.5-.069,1.13,1.13,0,1,0,.047,2.26,9.159,9.159,0,0,1,9.309,9.105,8.995,8.995,0,0,1-1.992,5.682,1.13,1.13,0,0,0,1.764,1.413,11.361,11.361,0,0,0-5.17-17.837,14.256,14.256,0,0,0-19.817-10.2A16.714,16.714,0,0,0,228.311,0a1.13,1.13,0,0,0-.071,2.259Z" transform="translate(-194.967 0)"/>
      <path id="Trazado_917673" data-name="Trazado 917673" d="M16.775,25.785a1.129,1.129,0,0,0,1.359-.841,12.014,12.014,0,0,1,4.172-6.589A11.863,11.863,0,0,1,29.8,15.727a11.983,11.983,0,0,1,6.076,1.649,1.13,1.13,0,1,0,1.147-1.948,14.222,14.222,0,0,0-1.717-.859,14.59,14.59,0,0,1,8.666-7.556,1.13,1.13,0,0,0-.685-2.154,16.869,16.869,0,0,0-10.145,9A14.249,14.249,0,0,0,15.934,24.426a1.13,1.13,0,0,0,.841,1.359Z" transform="translate(-15.555 -4.083)"/>
      <path id="Trazado_917674" data-name="Trazado 917674" d="M81.829,145.46a4.775,4.775,0,0,0-2.5.7L76.262,143.1a3.934,3.934,0,0,0-2.8-1.16h-7.71l-2.123-2.129a15.417,15.417,0,0,0,1.474-3.553h2.933a1.857,1.857,0,0,0,1.855-1.855V133.26h5.04a11.358,11.358,0,0,0,4.168-.786,1.13,1.13,0,0,0-.826-2.1,9.111,9.111,0,0,1-3.342.63h-5.04v-1.142A1.857,1.857,0,0,0,68.036,128H65.1a15.421,15.421,0,0,0-1.475-3.553l2.074-2.075a1.854,1.854,0,0,0,0-2.625l-3.212-3.212a1.843,1.843,0,0,0-1.312-.543h0a1.838,1.838,0,0,0-1.308.543l-2.077,2.076a15.425,15.425,0,0,0-3.553-1.475V114.2a1.857,1.857,0,0,0-1.855-1.855H47.839a1.857,1.857,0,0,0-1.855,1.855v2.933a15.427,15.427,0,0,0-3.553,1.475l-2.075-2.074a1.839,1.839,0,0,0-1.31-.546h0a1.843,1.843,0,0,0-1.312.543l-3.212,3.212a1.854,1.854,0,0,0,0,2.623l2.076,2.077A15.426,15.426,0,0,0,35.12,128H32.186a1.857,1.857,0,0,0-1.855,1.855V131h-2.5a11.947,11.947,0,0,1-11.8-9.9,1.13,1.13,0,1,0-2.227.388A14.2,14.2,0,0,0,27.833,133.26h2.5V134.4a1.857,1.857,0,0,0,1.855,1.855H35.12a15.421,15.421,0,0,0,1.474,3.553l-2.364,2.455H26.761a3.935,3.935,0,0,0-2.8,1.16L20.9,146.49a4.809,4.809,0,1,0,1.6,1.6l3.065-3.065a1.689,1.689,0,0,1,1.2-.5h7.772l3.345,3.33v7.787a1.689,1.689,0,0,1-.5,1.2l-3.065,3.065a4.809,4.809,0,1,0,1.6,1.6l3.065-3.065a3.934,3.934,0,0,0,1.16-2.8V147.9l2.292-2.258a15.426,15.426,0,0,0,3.553,1.475v2.933a1.857,1.857,0,0,0,1.855,1.855h1.142v12.285a4.26,4.26,0,1,0,2.26,0V151.909h1.142a1.857,1.857,0,0,0,1.855-1.855v-2.933a15.427,15.427,0,0,0,3.553-1.475l2.292,2.258v7.412a3.935,3.935,0,0,0,1.16,2.8l3.065,3.065a4.808,4.808,0,1,0,1.6-1.6l-3.065-3.065a1.689,1.689,0,0,1-.5-1.2v-7.462l3.609-3.655H73.46a1.689,1.689,0,0,1,1.2.5l3.065,3.065a4.8,4.8,0,1,0,4.1-2.3Zm-63.435,7.675a2.545,2.545,0,1,1,2.545-2.545A2.547,2.547,0,0,1,18.394,153.135Zm13.42,13.42a2.545,2.545,0,1,1,2.544-2.545A2.547,2.547,0,0,1,31.814,166.554Zm20.3,1.747a2,2,0,1,1-2-2A2,2,0,0,1,52.112,168.3Zm18.842-4.617a2.544,2.544,0,1,1-2.545-2.545A2.547,2.547,0,0,1,70.954,163.684ZM61.18,145.837l-2.01-2.009a1.849,1.849,0,0,0-2.264-.282,13.17,13.17,0,0,1-3.53,1.465,1.851,1.851,0,0,0-1.4,1.8v2.842H48.245v-2.842a1.852,1.852,0,0,0-1.4-1.8,13.168,13.168,0,0,1-3.529-1.464,1.847,1.847,0,0,0-2.262.279l-2.013,2.011L36.4,143.2l2.009-2.01a1.848,1.848,0,0,0,.282-2.264,13.162,13.162,0,0,1-1.464-3.53,1.851,1.851,0,0,0-1.8-1.4H32.592v-3.734h2.842a1.852,1.852,0,0,0,1.8-1.4,13.159,13.159,0,0,1,1.464-3.529,1.848,1.848,0,0,0-.279-2.262L36.4,121.061l2.639-2.639,2.01,2.009a1.849,1.849,0,0,0,2.264.282,13.172,13.172,0,0,1,3.53-1.465,1.851,1.851,0,0,0,1.4-1.8V114.61h3.734v2.842a1.852,1.852,0,0,0,1.4,1.8,13.168,13.168,0,0,1,3.529,1.464,1.848,1.848,0,0,0,2.262-.279l2.013-2.011,2.639,2.639-2.009,2.01a1.849,1.849,0,0,0-.282,2.264,13.163,13.163,0,0,1,1.464,3.53,1.851,1.851,0,0,0,1.8,1.4h2.842V134H64.789a1.852,1.852,0,0,0-1.8,1.4,13.166,13.166,0,0,1-1.464,3.529,1.848,1.848,0,0,0,.279,2.262l2.011,2.013Zm20.648,6.972a2.545,2.545,0,1,1,2.545-2.545A2.547,2.547,0,0,1,81.829,152.809Z" transform="translate(-13.589 -95.421)"/>
      <path id="Trazado_917675" data-name="Trazado 917675" d="M202.28,181.67a9.335,9.335,0,0,0,0,18.669,9.225,9.225,0,0,0,4.133-.964,1.13,1.13,0,0,0-1-2.025,6.982,6.982,0,0,1-3.129.729A7.074,7.074,0,1,1,209.354,191a6.974,6.974,0,0,1-.728,3.126,1.13,1.13,0,1,0,2.025,1,9.215,9.215,0,0,0,.963-4.13A9.345,9.345,0,0,0,202.28,181.67Z" transform="translate(-165.92 -154.296)"/>
    </g>
  </g>
</svg>
