<svg xmlns="http://www.w3.org/2000/svg" width="74.861" height="74.861" viewBox="0 0 74.861 74.861">
  <g id="Grupo_1113871" data-name="Grupo 1113871" transform="translate(-1 -1)">
    <rect id="Rectángulo_412064" data-name="Rectángulo 412064" width="2" height="16" transform="translate(37.431 44.431)" fill="#f0ae42"/>
    <rect id="Rectángulo_412065" data-name="Rectángulo 412065" width="9" height="2" transform="translate(39.431 60.431)" fill="#f0ae42"/>
    <rect id="Rectángulo_412066" data-name="Rectángulo 412066" width="9" height="2" transform="translate(28.431 60.431)" fill="#f0ae42"/>
    <path id="Trazado_916831" data-name="Trazado 916831" d="M25.653,41.977H49.8a9.66,9.66,0,0,0,3.1-18.8,9.643,9.643,0,0,0-12.119-6.083,9.66,9.66,0,0,0-17.548,5.564c0,.105.012.208.016.313a9.66,9.66,0,0,0,2.4,19.006Z" transform="translate(3.118 2.491)" fill="#c0dafc"/>
    <path id="Trazado_916832" data-name="Trazado 916832" d="M55.747,35.976A9.66,9.66,0,0,0,49.5,24.421a9.643,9.643,0,0,0-12.119-6.083,9.691,9.691,0,0,0-4.907-3.622h0a9.635,9.635,0,0,1,10.867-3.622,9.66,9.66,0,0,1,17.545,5.564c0,.105-.012.208-.016.313a9.66,9.66,0,0,1-2.4,19.006Z" transform="translate(6.528 1.247)" fill="#78a0d4"/>
    <path id="Trazado_916833" data-name="Trazado 916833" d="M45.808,22.526V15.282H42.919a14.388,14.388,0,0,0-1.543-3.726l2.043-2.043L38.3,4.39,36.253,6.433a14.388,14.388,0,0,0-3.726-1.543V2H25.282V4.889a14.388,14.388,0,0,0-3.726,1.543L19.513,4.39,14.39,9.513l2.043,2.043a14.388,14.388,0,0,0-1.543,3.726H12v7.245h2.889a14.388,14.388,0,0,0,1.543,3.726L14.39,28.3l5.123,5.123,2.043-2.043a14.388,14.388,0,0,0,3.726,1.543v2.889h7.245V32.919a14.388,14.388,0,0,0,3.726-1.543L38.3,33.419,43.419,28.3l-2.043-2.043a14.388,14.388,0,0,0,1.543-3.726Z" transform="translate(2.282 0.207)" fill="#474747"/>
    <ellipse id="Elipse_13914" data-name="Elipse 13914" cx="8" cy="8.5" rx="8" ry="8.5" transform="translate(23.431 10.431)" fill="#f2f2f2"/>
    <path id="Trazado_916834" data-name="Trazado 916834" d="M28.564,55.7v-4.83H25.87a10.8,10.8,0,0,0-1.4-3.363L26.381,45.6l-3.415-3.415L21.059,44.09a10.8,10.8,0,0,0-3.363-1.4V40h-4.83v2.694A10.8,10.8,0,0,0,9.5,44.09L7.6,42.183,4.183,45.6,6.09,47.5a10.8,10.8,0,0,0-1.4,3.363H2V55.7H4.694a10.8,10.8,0,0,0,1.4,3.363L4.183,60.966,7.6,64.381,9.5,62.474a10.8,10.8,0,0,0,3.363,1.4v2.694H17.7V63.87a10.8,10.8,0,0,0,3.363-1.4l1.907,1.907,3.415-3.415-1.907-1.907a10.8,10.8,0,0,0,1.4-3.363Z" transform="translate(0.207 8.09)" fill="#474747"/>
    <circle id="Elipse_13915" data-name="Elipse 13915" cx="6" cy="6" r="6" transform="translate(9.431 55.431)" fill="#f2f2f2"/>
    <path id="Trazado_916835" data-name="Trazado 916835" d="M66.564,55.7v-4.83H63.87a10.8,10.8,0,0,0-1.4-3.363L64.381,45.6l-3.415-3.415L59.059,44.09a10.8,10.8,0,0,0-3.363-1.4V40h-4.83v2.694a10.8,10.8,0,0,0-3.363,1.4L45.6,42.183,42.183,45.6,44.09,47.5a10.8,10.8,0,0,0-1.4,3.363H40V55.7h2.694a10.8,10.8,0,0,0,1.4,3.363l-1.907,1.907L45.6,64.381,47.5,62.474a10.8,10.8,0,0,0,3.363,1.4v2.694H55.7V63.87a10.8,10.8,0,0,0,3.363-1.4l1.907,1.907,3.415-3.415-1.907-1.907a10.8,10.8,0,0,0,1.4-3.363Z" transform="translate(8.09 8.09)" fill="#474747"/>
    <circle id="Elipse_13916" data-name="Elipse 13916" cx="6" cy="6" r="6" transform="translate(55.431 55.431)" fill="#f2f2f2"/>
    <ellipse id="Elipse_13917" data-name="Elipse 13917" cx="3" cy="2" rx="3" ry="2" transform="translate(35.431 59.431)" fill="#b52f28"/>
    <path id="Trazado_916836" data-name="Trazado 916836" d="M27.66,27.319A9.66,9.66,0,1,0,18,17.66a9.66,9.66,0,0,0,9.66,9.66Zm0-16.9a7.245,7.245,0,1,1-7.245,7.245A7.245,7.245,0,0,1,27.66,10.415Z" transform="translate(3.526 1.452)"/>
    <path id="Trazado_916837" data-name="Trazado 916837" d="M14.245,45a7.245,7.245,0,1,0,7.245,7.245A7.245,7.245,0,0,0,14.245,45Zm0,12.074a4.83,4.83,0,1,1,4.83-4.83A4.83,4.83,0,0,1,14.245,57.074Z" transform="translate(1.245 9.127)"/>
    <path id="Trazado_916838" data-name="Trazado 916838" d="M74.654,57.75h-1.77a11.953,11.953,0,0,0-.811-1.955l1.253-1.253a1.207,1.207,0,0,0,0-1.707L69.91,49.418a1.207,1.207,0,0,0-1.707,0l-1.253,1.253a11.9,11.9,0,0,0-1.955-.811V48.09a1.207,1.207,0,0,0-1.207-1.207h-4.83A1.207,1.207,0,0,0,57.75,48.09v1.77a11.9,11.9,0,0,0-1.955.813l-1.253-1.255a1.207,1.207,0,0,0-1.707,0l-3.416,3.416a1.207,1.207,0,0,0,0,1.707l1.252,1.253a11.955,11.955,0,0,0-.81,1.955H48.09a1.207,1.207,0,0,0-1.207,1.207v1.207H41.831a3.622,3.622,0,0,0-2.193-2.193v-12.3H52.92a10.877,10.877,0,0,0,10.233-7.245h1.841A10.867,10.867,0,0,0,68.6,17.322a10.86,10.86,0,0,0-19.2-6.364,10.874,10.874,0,0,0-2.945-.287l.1-.1a1.207,1.207,0,0,0,0-1.707L41.431,3.743a1.207,1.207,0,0,0-1.707,0l-1.4,1.4a15.506,15.506,0,0,0-2.306-.954V2.207A1.207,1.207,0,0,0,34.808,1H27.564a1.207,1.207,0,0,0-1.207,1.207V4.191a15.506,15.506,0,0,0-2.306.954l-1.4-1.4a1.207,1.207,0,0,0-1.707,0L15.818,8.866a1.207,1.207,0,0,0,0,1.707l1.4,1.4a15.635,15.635,0,0,0-.954,2.306H14.282a1.207,1.207,0,0,0-1.207,1.207v7.245a1.207,1.207,0,0,0,1.207,1.207h1.984a15.635,15.635,0,0,0,.954,2.306l-1.4,1.4a1.207,1.207,0,0,0,0,1.707l2.5,2.5A10.854,10.854,0,0,0,28.771,45.675h8.452v12.3a3.622,3.622,0,0,0-2.193,2.193H29.979V58.957a1.207,1.207,0,0,0-1.207-1.207H27a11.954,11.954,0,0,0-.811-1.955l1.253-1.253a1.207,1.207,0,0,0,0-1.707l-3.416-3.416a1.207,1.207,0,0,0-1.707,0l-1.253,1.253a11.9,11.9,0,0,0-1.955-.811V48.09A1.207,1.207,0,0,0,17.9,46.883h-4.83a1.207,1.207,0,0,0-1.207,1.207v1.77a11.9,11.9,0,0,0-1.955.813L8.659,49.418a1.207,1.207,0,0,0-1.707,0L3.536,52.834a1.207,1.207,0,0,0,0,1.707l1.252,1.253a11.954,11.954,0,0,0-.81,1.955H2.207A1.207,1.207,0,0,0,1,58.957v4.83a1.207,1.207,0,0,0,1.207,1.207h1.77a11.954,11.954,0,0,0,.811,1.955L3.536,68.2a1.207,1.207,0,0,0,0,1.707l3.416,3.416a1.207,1.207,0,0,0,1.707,0l1.253-1.253a11.9,11.9,0,0,0,1.955.811v1.77a1.207,1.207,0,0,0,1.207,1.207H17.9a1.207,1.207,0,0,0,1.207-1.207v-1.77a11.9,11.9,0,0,0,1.955-.813l1.253,1.255a1.207,1.207,0,0,0,1.707,0l3.416-3.416a1.207,1.207,0,0,0,0-1.707l-1.252-1.253A11.954,11.954,0,0,0,27,64.994h1.77a1.207,1.207,0,0,0,1.207-1.207V62.579h5.052a3.6,3.6,0,0,0,6.8,0h5.052v1.207a1.207,1.207,0,0,0,1.207,1.207h1.77a11.954,11.954,0,0,0,.811,1.955L49.418,68.2a1.207,1.207,0,0,0,0,1.707l3.416,3.416a1.207,1.207,0,0,0,1.707,0l1.253-1.253a11.9,11.9,0,0,0,1.955.811v1.77a1.207,1.207,0,0,0,1.207,1.207h4.83a1.207,1.207,0,0,0,1.207-1.207v-1.77a11.9,11.9,0,0,0,1.955-.813L68.2,73.326a1.207,1.207,0,0,0,1.707,0l3.416-3.416a1.207,1.207,0,0,0,0-1.707l-1.252-1.253a11.954,11.954,0,0,0,.81-1.955h1.77a1.207,1.207,0,0,0,1.207-1.207v-4.83A1.207,1.207,0,0,0,74.654,57.75ZM49.49,13.489a1.2,1.2,0,0,0,1.358-.452A8.444,8.444,0,0,1,66.2,18l-.011.173a1.207,1.207,0,0,0,.908,1.207,8.452,8.452,0,0,1-2.1,16.632H63.716a10.81,10.81,0,0,0-6.753-11.288A10.926,10.926,0,0,0,49.3,18.2V15.489a1.207,1.207,0,0,0-1.207-1.207H46.106c-.121-.378-.261-.75-.411-1.117A8.522,8.522,0,0,1,49.49,13.489ZM17.172,21.526H15.489V16.7h1.683a1.207,1.207,0,0,0,1.169-.906,13.208,13.208,0,0,1,1.413-3.415,1.207,1.207,0,0,0-.186-1.467L18.379,9.72,21.795,6.3l1.189,1.189a1.207,1.207,0,0,0,1.467.186,13.2,13.2,0,0,1,3.415-1.414A1.207,1.207,0,0,0,28.771,5.1V3.415H33.6V5.1a1.207,1.207,0,0,0,.906,1.169A13.2,13.2,0,0,1,37.921,7.68a1.207,1.207,0,0,0,1.467-.186L40.577,6.3,43.993,9.72,42.8,10.909a1.207,1.207,0,0,0-.186,1.467,13.208,13.208,0,0,1,1.413,3.415A1.207,1.207,0,0,0,45.2,16.7h1.683v4.83H45.2a1.207,1.207,0,0,0-1.169.906,13.208,13.208,0,0,1-1.413,3.415,1.207,1.207,0,0,0,.186,1.467L43.993,28.5l-3.416,3.416L39.388,30.73a1.207,1.207,0,0,0-1.467-.186,13.208,13.208,0,0,1-3.415,1.413,1.207,1.207,0,0,0-.906,1.169v1.683h-4.83V33.125a1.207,1.207,0,0,0-.906-1.169,13.208,13.208,0,0,1-3.415-1.413,1.207,1.207,0,0,0-1.467.186l-1.189,1.189L18.379,28.5l1.189-1.189a1.207,1.207,0,0,0,.186-1.467,13.208,13.208,0,0,1-1.413-3.415A1.207,1.207,0,0,0,17.172,21.526Zm3.147,13.282a8.767,8.767,0,0,1,.075-.874l.547.546a1.207,1.207,0,0,0,1.707,0l1.4-1.4a15.635,15.635,0,0,0,2.306.954v1.984a1.207,1.207,0,0,0,1.207,1.207h7.245a1.207,1.207,0,0,0,1.207-1.207V34.032a15.635,15.635,0,0,0,2.306-.954l1.4,1.4a1.207,1.207,0,0,0,1.707,0l5.123-5.123a1.207,1.207,0,0,0,0-1.707l-1.4-1.4a15.636,15.636,0,0,0,.954-2.306H48.09A1.207,1.207,0,0,0,49.3,22.734V20.681a8.5,8.5,0,0,1,5.583,5.372,1.207,1.207,0,0,0,.755.755A8.452,8.452,0,0,1,52.92,43.26H28.771a8.462,8.462,0,0,1-8.452-8.452Zm7.245,27.771H26.079a1.207,1.207,0,0,0-1.178.939,9.554,9.554,0,0,1-1.24,2.987,1.207,1.207,0,0,0,.168,1.5l1.053,1.053-1.707,1.707-1.053-1.053a1.207,1.207,0,0,0-1.5-.167,9.61,9.61,0,0,1-2.986,1.246,1.207,1.207,0,0,0-.939,1.171v1.485H14.282V71.961a1.207,1.207,0,0,0-.939-1.177,9.61,9.61,0,0,1-2.986-1.24,1.207,1.207,0,0,0-1.5.167L7.805,70.763,6.1,69.056,7.151,68a1.207,1.207,0,0,0,.168-1.5,9.555,9.555,0,0,1-1.24-2.987A1.207,1.207,0,0,0,4.9,62.579H3.415V60.165H4.9a1.207,1.207,0,0,0,1.178-.939,9.554,9.554,0,0,1,1.24-2.987,1.207,1.207,0,0,0-.168-1.5L6.1,53.688l1.707-1.707,1.053,1.053a1.207,1.207,0,0,0,1.5.167,9.61,9.61,0,0,1,2.986-1.24,1.207,1.207,0,0,0,.939-1.177V49.3H16.7v1.485a1.207,1.207,0,0,0,.939,1.177,9.61,9.61,0,0,1,2.986,1.24,1.207,1.207,0,0,0,1.5-.167l1.053-1.053,1.707,1.707-1.053,1.053a1.207,1.207,0,0,0-.168,1.5,9.554,9.554,0,0,1,1.24,2.987,1.207,1.207,0,0,0,1.178.939h1.485Zm10.867,0a1.207,1.207,0,1,1,1.207-1.207A1.207,1.207,0,0,1,38.431,62.579Zm35.016,0H71.961a1.207,1.207,0,0,0-1.178.939,9.554,9.554,0,0,1-1.24,2.987,1.207,1.207,0,0,0,.168,1.5l1.053,1.053-1.707,1.707L68,69.711a1.207,1.207,0,0,0-1.5-.167,9.61,9.61,0,0,1-2.986,1.246,1.207,1.207,0,0,0-.939,1.171v1.485H60.165V71.961a1.207,1.207,0,0,0-.939-1.177,9.61,9.61,0,0,1-2.986-1.24,1.207,1.207,0,0,0-1.5.167l-1.053,1.053-1.707-1.707L53.033,68a1.207,1.207,0,0,0,.168-1.5,9.554,9.554,0,0,1-1.24-2.987,1.207,1.207,0,0,0-1.178-.939H49.3V60.165h1.485a1.207,1.207,0,0,0,1.178-.939,9.555,9.555,0,0,1,1.24-2.987,1.207,1.207,0,0,0-.168-1.5l-1.053-1.053,1.707-1.707,1.053,1.053a1.207,1.207,0,0,0,1.5.167,9.61,9.61,0,0,1,2.986-1.24,1.207,1.207,0,0,0,.939-1.177V49.3h2.415v1.485a1.207,1.207,0,0,0,.939,1.177A9.61,9.61,0,0,1,66.5,53.2a1.207,1.207,0,0,0,1.5-.167l1.053-1.053,1.707,1.707-1.053,1.053a1.207,1.207,0,0,0-.168,1.5,9.554,9.554,0,0,1,1.24,2.987,1.207,1.207,0,0,0,1.178.939h1.485Z" transform="translate(0)"/>
    <path id="Trazado_916839" data-name="Trazado 916839" d="M52.245,45a7.245,7.245,0,1,0,7.245,7.245A7.245,7.245,0,0,0,52.245,45Zm0,12.074a4.83,4.83,0,1,1,4.83-4.83A4.83,4.83,0,0,1,52.245,57.074Z" transform="translate(9.127 9.127)"/>
  </g>
</svg>
