<svg xmlns="http://www.w3.org/2000/svg" width="50" height="43.933" viewBox="0 0 50 43.933">
  <g id="Grupo_1114398" data-name="Grupo 1114398" transform="translate(0 -31.061)">
    <g id="Grupo_1114390" data-name="Grupo 1114390" transform="translate(1.517 62.912)">
      <path id="Trazado_919109" data-name="Trazado 919109" d="M18.317,369.3h-1.08a1.711,1.711,0,0,1-1.709-1.709v-8.664a1.711,1.711,0,0,1,1.709-1.709h1.08a1.711,1.711,0,0,1,1.709,1.709v8.664A1.711,1.711,0,0,1,18.317,369.3Zm-1.08-10.617a.244.244,0,0,0-.244.244v8.664a.244.244,0,0,0,.244.244h1.08a.244.244,0,0,0,.244-.244v-8.664a.244.244,0,0,0-.244-.244Z" transform="translate(-15.528 -357.216)" fill="#360742"/>
    </g>
    <g id="Grupo_1114391" data-name="Grupo 1114391" transform="translate(7.584 67.462)">
      <path id="Trazado_919110" data-name="Trazado 919110" d="M80.442,411.342h-1.08a1.711,1.711,0,0,1-1.709-1.709v-4.114a1.711,1.711,0,0,1,1.709-1.709h1.08a1.711,1.711,0,0,1,1.709,1.709v4.114a1.711,1.711,0,0,1-1.709,1.709Zm-1.08-6.067a.244.244,0,0,0-.244.244v4.114a.244.244,0,0,0,.244.244h1.08a.244.244,0,0,0,.244-.244v-4.114a.244.244,0,0,0-.244-.244Z" transform="translate(-77.653 -403.81)" fill="#360742"/>
    </g>
    <g id="Grupo_1114392" data-name="Grupo 1114392" transform="translate(13.651 67.462)">
      <path id="Trazado_919111" data-name="Trazado 919111" d="M142.568,411.342h-1.08a1.711,1.711,0,0,1-1.709-1.709v-4.114a1.711,1.711,0,0,1,1.709-1.709h1.08a1.711,1.711,0,0,1,1.709,1.709v4.114A1.711,1.711,0,0,1,142.568,411.342Zm-1.08-6.067a.244.244,0,0,0-.244.244v4.114a.244.244,0,0,0,.244.244h1.08a.244.244,0,0,0,.244-.244v-4.114a.244.244,0,0,0-.244-.244Z" transform="translate(-139.779 -403.81)" fill="#360742"/>
    </g>
    <g id="Grupo_1114393" data-name="Grupo 1114393" transform="translate(19.718 67.462)">
      <path id="Trazado_919112" data-name="Trazado 919112" d="M204.693,411.342h-1.08a1.711,1.711,0,0,1-1.709-1.709v-4.114a1.711,1.711,0,0,1,1.709-1.709h1.08a1.711,1.711,0,0,1,1.709,1.709v4.114A1.711,1.711,0,0,1,204.693,411.342Zm-1.08-6.067a.244.244,0,0,0-.244.244v4.114a.244.244,0,0,0,.244.244h1.08a.244.244,0,0,0,.244-.244v-4.114a.244.244,0,0,0-.244-.244Z" transform="translate(-201.904 -403.81)" fill="#360742"/>
    </g>
    <g id="Grupo_1114394" data-name="Grupo 1114394" transform="translate(25.785 62.912)">
      <path id="Trazado_919113" data-name="Trazado 919113" d="M266.818,369.3h-1.08a1.711,1.711,0,0,1-1.709-1.709v-8.664a1.711,1.711,0,0,1,1.709-1.709h1.08a1.711,1.711,0,0,1,1.709,1.709v8.664A1.711,1.711,0,0,1,266.818,369.3Zm-1.08-10.617a.244.244,0,0,0-.244.244v8.664a.244.244,0,0,0,.244.244h1.08a.244.244,0,0,0,.244-.244v-8.664a.244.244,0,0,0-.244-.244Z" transform="translate(-264.029 -357.216)" fill="#360742"/>
    </g>
    <g id="Grupo_1114395" data-name="Grupo 1114395" transform="translate(31.852 67.462)">
      <path id="Trazado_919114" data-name="Trazado 919114" d="M328.943,411.342h-1.08a1.711,1.711,0,0,1-1.709-1.709v-4.114a1.711,1.711,0,0,1,1.709-1.709h1.08a1.711,1.711,0,0,1,1.709,1.709v4.114A1.711,1.711,0,0,1,328.943,411.342Zm-1.08-6.067a.244.244,0,0,0-.244.244v4.114a.244.244,0,0,0,.244.244h1.08a.244.244,0,0,0,.244-.244v-4.114a.244.244,0,0,0-.244-.244Z" transform="translate(-326.154 -403.81)" fill="#360742"/>
    </g>
    <g id="Grupo_1114396" data-name="Grupo 1114396" transform="translate(37.919 67.462)">
      <path id="Trazado_919115" data-name="Trazado 919115" d="M391.068,411.342h-1.08a1.711,1.711,0,0,1-1.709-1.709v-4.114a1.711,1.711,0,0,1,1.709-1.709h1.08a1.711,1.711,0,0,1,1.709,1.709v4.114A1.711,1.711,0,0,1,391.068,411.342Zm-1.08-6.067a.244.244,0,0,0-.244.244v4.114a.244.244,0,0,0,.244.244h1.08a.244.244,0,0,0,.244-.244v-4.114a.244.244,0,0,0-.244-.244Z" transform="translate(-388.279 -403.81)" fill="#360742"/>
    </g>
    <g id="Grupo_1114397" data-name="Grupo 1114397" transform="translate(43.985 67.462)">
      <path id="Trazado_919116" data-name="Trazado 919116" d="M453.193,411.342h-1.08a1.711,1.711,0,0,1-1.709-1.709v-4.114a1.711,1.711,0,0,1,1.709-1.709h1.08a1.711,1.711,0,0,1,1.709,1.709v4.114A1.711,1.711,0,0,1,453.193,411.342Zm-1.08-6.067a.244.244,0,0,0-.244.244v4.114a.244.244,0,0,0,.244.244h1.08a.244.244,0,0,0,.244-.244v-4.114a.244.244,0,0,0-.244-.244Z" transform="translate(-450.404 -403.81)" fill="#360742"/>
    </g>
    <path id="Trazado_919117" data-name="Trazado 919117" d="M175.795,47.783a2.252,2.252,0,0,0,2.249,2.249h.556a3.168,3.168,0,0,0,2.641-1.413l1.436-2.154.422,1.014a4.159,4.159,0,0,0,4.056,2.547,4.215,4.215,0,0,0,2.832-1.338l1.339-1.412a2.249,2.249,0,1,0-3.294-3.064l-.987,1.041-1.37-3.287,2.685-4.028h.3a2.249,2.249,0,0,0,0-4.5h-1.009a3.167,3.167,0,0,0-2.641,1.413L183.6,36.976l-.9-2.152a2.243,2.243,0,0,0-2.076-1.384h-2.041a2.249,2.249,0,1,0-.043,4.5h.584l1.473,3.536-2.71,4.065A2.252,2.252,0,0,0,175.795,47.783ZM178.283,47a.732.732,0,0,0,.609-.326l3.141-4.712a.732.732,0,0,0,.067-.688l-1.812-4.349a.732.732,0,0,0-.676-.451H178.54a.784.784,0,0,1-.783-.823.816.816,0,0,1,.826-.745h2.041a.782.782,0,0,1,.724.483l1.423,3.415a.732.732,0,0,0,1.285.125l2.174-3.261a1.705,1.705,0,0,1,1.422-.761h1.009a.784.784,0,0,1,0,1.569h-.692a.732.732,0,0,0-.609.326l-3.12,4.681a.732.732,0,0,0-.067.688l1.727,4.144a1.12,1.12,0,0,0,1.339.644,1.267,1.267,0,0,0,.582-.391l1.275-1.345a.815.815,0,0,1,1.109-.087.784.784,0,0,1,.058,1.135l-1.339,1.412a2.757,2.757,0,0,1-1.847.883,2.69,2.69,0,0,1-2.626-1.648l-.949-2.277a.732.732,0,0,0-1.285-.125l-2.2,3.293a1.705,1.705,0,0,1-1.422.761h-.556a.784.784,0,1,1,0-1.569h.239Z" transform="translate(-158.627 -2.147)" fill="#360742"/>
    <path id="Trazado_919118" data-name="Trazado 919118" d="M49.47,224.448,42.2,219.6a1.192,1.192,0,0,0-1.853.992v2.6H9.656v-2.6A1.192,1.192,0,0,0,7.8,219.6L.531,224.448a1.192,1.192,0,0,0,0,1.983L7.8,231.28a1.192,1.192,0,0,0,1.853-.992v-2.6h3.21a.732.732,0,0,0,0-1.465H8.924a.732.732,0,0,0-.732.732v2.821L1.684,225.44,8.191,221.1v2.822a.732.732,0,0,0,.732.732H41.077a.732.732,0,0,0,.732-.732V221.1l6.507,4.338-6.507,4.338v-2.821a.732.732,0,0,0-.732-.732H16.284a.732.732,0,0,0,0,1.465h24.06v2.6a1.192,1.192,0,0,0,1.853.992l7.273-4.848A1.192,1.192,0,0,0,49.47,224.448Z" transform="translate(0 -169.945)" fill="#360742"/>
    <path id="Trazado_919119" data-name="Trazado 919119" d="M97.984,47.827A2.252,2.252,0,0,0,98.95,44.8a11.427,11.427,0,0,1,0-10.454,2.249,2.249,0,0,0-4-2.065c-.2.382-.382.779-.549,1.179a.732.732,0,1,0,1.353.562c.151-.363.318-.723.5-1.069a.784.784,0,0,1,1.393.72,12.892,12.892,0,0,0,0,11.8.784.784,0,1,1-1.393.72,14.447,14.447,0,0,1-1.416-8.942.732.732,0,1,0-1.446-.235,15.912,15.912,0,0,0,1.56,9.85A2.247,2.247,0,0,0,97.984,47.827Z" transform="translate(-84.085 0)" fill="#360742"/>
    <path id="Trazado_919120" data-name="Trazado 919120" d="M359.125,44.731a.732.732,0,0,0-1.341-.59c-.1.221-.2.441-.313.656a2.249,2.249,0,0,0,4,2.066,15.925,15.925,0,0,0,0-14.585,2.249,2.249,0,1,0-4,2.066,11.272,11.272,0,0,1,1.266,5.227,11.719,11.719,0,0,1-.082,1.388.733.733,0,0,0,1.455.174,13.2,13.2,0,0,0,.092-1.562,12.725,12.725,0,0,0-1.429-5.9.784.784,0,1,1,1.393-.72,14.461,14.461,0,0,1,0,13.24.784.784,0,0,1-1.393-.72C358.9,45.228,359.015,44.98,359.125,44.731Z" transform="translate(-322.334 -0.001)" fill="#360742"/>
  </g>
</svg>
