<svg xmlns="http://www.w3.org/2000/svg" width="120" height="120" viewBox="0 0 120 120">
  <g id="Grupo_1113925" data-name="Grupo 1113925" transform="translate(5 5)">
    <g id="Elipse_12108" data-name="Elipse 12108" fill="#fe9ab8" stroke="rgba(255,255,255,0.4)" stroke-width="5">
      <circle cx="55" cy="55" r="55" stroke="none"/>
      <circle cx="55" cy="55" r="57.5" fill="none"/>
    </g>
    <g id="Grupo_1113929" data-name="Grupo 1113929" transform="translate(14.785 -42.954)">
      <circle id="Elipse_13927" data-name="Elipse 13927" cx="28.276" cy="28.276" r="28.276" transform="translate(22.699 69.678)" fill="#f3f3f3"/>
      <path id="Trazado_916935" data-name="Trazado 916935" d="M311.856,76c-.794,0-1.579.034-2.356.1a28.276,28.276,0,0,1,0,56.355c.777.064,1.563.1,2.356.1a28.276,28.276,0,1,0,0-56.552Z" transform="translate(-260.881 -6.322)" fill="#e4e4e4"/>
      <path id="Trazado_916936" data-name="Trazado 916936" d="M348.621,89.516,324.5,104.276V76a28.257,28.257,0,0,1,24.121,13.516Z" transform="translate(-273.524 -6.322)" fill="#f78e36"/>
      <path id="Trazado_916937" data-name="Trazado 916937" d="M324.5,76.395a28.309,28.309,0,0,1,20.6,15.275l3.519-2.153A28.257,28.257,0,0,0,324.5,76Z" transform="translate(-273.524 -6.322)" fill="#f86f1b"/>
      <path id="Trazado_916938" data-name="Trazado 916938" d="M352.776,176.8a28.507,28.507,0,0,1-.2,3.415L324.5,176.8l24.121-14.76A28.134,28.134,0,0,1,352.776,176.8Z" transform="translate(-273.524 -78.846)" fill="#29cef6"/>
      <path id="Trazado_916939" data-name="Trazado 916939" d="M455.649,164.193A28.152,28.152,0,0,1,458.61,176.8q0,1.443-.143,2.849l4.651.566a28.507,28.507,0,0,0,.2-3.415,28.134,28.134,0,0,0-4.155-14.76Z" transform="translate(-384.071 -78.846)" fill="#22b5ed"/>
      <path id="Trazado_916940" data-name="Trazado 916940" d="M352.572,259.415a28.068,28.068,0,0,1-2.028,7.613L324.5,256Z" transform="translate(-273.524 -158.046)" fill="#ffc328"/>
      <path id="Trazado_916941" data-name="Trazado 916941" d="M464.505,280.6l4.051,1.715a28.069,28.069,0,0,0,2.028-7.613l-4.651-.566A28.126,28.126,0,0,1,464.505,280.6Z" transform="translate(-391.536 -173.334)" fill="#ffb200"/>
      <path id="Trazado_916942" data-name="Trazado 916942" d="M52.295,247.735H8.74l2.7-8.125A2.4,2.4,0,0,1,13.729,238H47.346a2.4,2.4,0,0,1,2.286,1.61Z" transform="translate(-7.367 -142.873)" fill="#29cef6"/>
      <path id="Trazado_916943" data-name="Trazado 916943" d="M231.5,239.61a2.4,2.4,0,0,0-2.286-1.61H224.5a2.4,2.4,0,0,1,2.286,1.61l2.663,8.125h4.713Z" transform="translate(-189.233 -142.873)" fill="#22b5ed"/>
      <path id="Trazado_916944" data-name="Trazado 916944" d="M48.029,304.851H10.956A3.456,3.456,0,0,1,7.5,301.395V289.456A3.456,3.456,0,0,1,10.956,286H48.029a3.456,3.456,0,0,1,3.456,3.456v11.939A3.456,3.456,0,0,1,48.029,304.851Z" transform="translate(-6.322 -183.333)" fill="#a9dbf5"/>
      <path id="Trazado_916945" data-name="Trazado 916945" d="M240.213,286H235.5a3.456,3.456,0,0,1,3.456,3.456v11.939a3.456,3.456,0,0,1-3.456,3.456h4.713a3.456,3.456,0,0,0,3.456-3.456V289.456A3.456,3.456,0,0,0,240.213,286Z" transform="translate(-198.505 -183.333)" fill="#88c3e0"/>
      <path id="Trazado_916946" data-name="Trazado 916946" d="M0,0H9.425V34.56H0Z" transform="translate(40.451 107.38) rotate(90)" fill="#43809f"/>
      <path id="Trazado_916947" data-name="Trazado 916947" d="M70.849,321.027a2.356,2.356,0,0,1-2.356-2.356V316h4.713v2.671A2.356,2.356,0,0,1,70.849,321.027Z" transform="translate(-57.733 -208.62)" fill="#f78e36"/>
      <path id="Trazado_916948" data-name="Trazado 916948" d="M120.856,321.027a2.356,2.356,0,0,1-2.356-2.356V316h4.713v2.671A2.356,2.356,0,0,1,120.856,321.027Z" transform="translate(-99.885 -208.62)" fill="#f78e36"/>
      <g id="Grupo_1113928" data-name="Grupo 1113928" transform="translate(0 68.5)">
        <path id="Trazado_916949" data-name="Trazado 916949" d="M50.976,68.5A29.459,29.459,0,0,0,21.792,93.949h-6.7a1.178,1.178,0,1,0,0,2.356H39.979a1.212,1.212,0,0,1,1.166.8l1.466,4.474a4.638,4.638,0,0,0-.9-.089H4.634a4.637,4.637,0,0,0-.928.093L5.194,97.11A1.213,1.213,0,0,1,6.362,96.3h3.67a1.178,1.178,0,1,0,0-2.356H6.362a3.566,3.566,0,0,0-3.4,2.416l-2.7,8.125A10.02,10.02,0,0,0,0,106.123v11.939A4.639,4.639,0,0,0,4.634,122.7H35a1.18,1.18,0,0,0,.1.069,29.526,29.526,0,0,0,24.7,3.3,1.178,1.178,0,0,0-.7-2.249A27.193,27.193,0,0,1,39.914,122.7h1.793a4.639,4.639,0,0,0,4.634-4.634V106.123a4.613,4.613,0,0,0-.29-1.614s0-.01,0-.014l-2.665-8.131a3.566,3.566,0,0,0-3.4-2.415H24.173A27.1,27.1,0,0,1,49.8,70.883V97.954a1.146,1.146,0,0,0,.725,1.088L75.456,109.6a27.081,27.081,0,0,1-11.919,12.372,1.178,1.178,0,1,0,1.094,2.087A29.459,29.459,0,0,0,50.976,68.5Zm-6.991,49.562a2.28,2.28,0,0,1-2.278,2.278H4.634a2.28,2.28,0,0,1-2.278-2.278V106.123a2.28,2.28,0,0,1,2.278-2.278H41.707a2.28,2.28,0,0,1,2.278,2.278Zm29.46-35.239-2.206,1.35a1.178,1.178,0,1,0,1.23,2.01l2.208-1.351a26.929,26.929,0,0,1,3.4,13.122c0,.7-.03,1.4-.083,2.1L54.477,97.193l13.707-8.388a1.178,1.178,0,0,0-1.23-2.01l-14.8,9.056V70.884a27.1,27.1,0,0,1,21.292,11.94Zm-14.3,17.312,18.56,2.258a27.049,27.049,0,0,1-1.338,5.034Z" transform="translate(0 -68.5)"/>
        <path id="Trazado_916950" data-name="Trazado 916950" d="M65.738,308.5H31.178A1.178,1.178,0,0,0,30,309.678V319.1a1.178,1.178,0,0,0,1.178,1.178h34.56a1.178,1.178,0,0,0,1.178-1.178v-9.425A1.178,1.178,0,0,0,65.738,308.5Zm-18.3,2.356v1.492a1.178,1.178,0,0,1-2.356,0v-1.492Zm-7.856,0v1.492a1.178,1.178,0,0,1-2.356,0v-1.492Zm24.978,7.069h-32.2v-7.069h2.512v1.492a3.535,3.535,0,0,0,7.069,0v-1.492h.787v1.492a3.535,3.535,0,0,0,7.069,0v-1.492H64.56Z" transform="translate(-25.287 -270.798)"/>
        <path id="Trazado_916951" data-name="Trazado 916951" d="M258.15,142.9h-2.471a1.178,1.178,0,0,0-1.178,1.178v8.507a1.178,1.178,0,0,0,1.178,1.178h.005s2.272-.01,2.9-.01a3.466,3.466,0,0,0,2.251-6.1,3.129,3.129,0,0,0-2.683-4.751Zm0,2.356a.779.779,0,1,1,0,1.559l-.893,0h-.4v-1.561Zm.432,6.141-1.725.005v-2.227h1.725a1.112,1.112,0,0,1,0,2.223Z" transform="translate(-214.521 -131.212)"/>
        <path id="Trazado_916952" data-name="Trazado 916952" d="M205.36,153.764a1.178,1.178,0,0,0,1.178-1.178v-7.329h1.181a1.178,1.178,0,1,0,0-2.356h-4.7a1.178,1.178,0,1,0,0,2.356h1.162v7.329A1.178,1.178,0,0,0,205.36,153.764Z" transform="translate(-170.135 -131.213)"/>
      </g>
    </g>
  </g>
</svg>
