<svg xmlns="http://www.w3.org/2000/svg" width="120" height="120" viewBox="0 0 120 120">
  <g id="Grupo_1113338" data-name="Grupo 1113338" transform="translate(-1236.5 -460)">
    <g id="Elipse_12108" data-name="Elipse 12108" transform="translate(1241.5 465)" fill="#fe9ab8" stroke="rgba(255,255,255,0.4)" stroke-width="5">
      <circle cx="55" cy="55" r="55" stroke="none"/>
      <circle cx="55" cy="55" r="57.5" fill="none"/>
    </g>
    <g id="Grupo_1114038" data-name="Grupo 1114038" transform="translate(1260.838 484.87)">
      <path id="Trazado_917277" data-name="Trazado 917277" d="M55.177,24.338c0,5.682-2.293,13.459-6.05,20.109-2.262,4-7.194,9.146-7.194,13.737H32V3c12.8,0,23.177,9.243,23.177,21.338Z" transform="translate(3.11 0.104)" fill="#dbe6fd"/>
      <path id="Trazado_917278" data-name="Trazado 917278" d="M32,20h9.933V33.244H32Z" transform="translate(3.11 1.866)" fill="#17afdc"/>
      <path id="Trazado_917279" data-name="Trazado 917279" d="M11,24.338c0,5.682,2.293,13.459,6.05,20.109,2.262,4,7.194,9.146,7.194,13.737h9.933V3C21.377,3,11,12.243,11,24.338Z" transform="translate(0.933 0.104)" fill="#fccc38"/>
      <path id="Trazado_917280" data-name="Trazado 917280" d="M42.161,57.408h-18.2A2.207,2.207,0,0,1,21.756,55.2v-.077a2.08,2.08,0,0,1,2.207-2.052h18.2a2.08,2.08,0,0,1,2.207,2.052V55.2A2.207,2.207,0,0,1,42.161,57.408Z" transform="translate(2.048 5.294)" fill="#5358a1"/>
      <rect id="Rectángulo_412095" data-name="Rectángulo 412095" width="23.177" height="4.492" rx="2" transform="translate(23.522 62.702)" fill="#5358a1"/>
      <path id="Trazado_917281" data-name="Trazado 917281" d="M31.569,12.126l-.484,2.3a13.117,13.117,0,0,0-2.1.566L27.4,13.231a15.412,15.412,0,0,0-3.241,1.894l.732,2.228a13.315,13.315,0,0,0-1.541,1.541l-2.228-.732A15.411,15.411,0,0,0,19.231,21.4L21,22.984a13.111,13.111,0,0,0-.566,2.1l-2.3.484a14.133,14.133,0,0,0,0,3.764l2.3.484a13.109,13.109,0,0,0,.566,2.1L19.231,33.5a15.414,15.414,0,0,0,1.894,3.241l2.228-.732a13.314,13.314,0,0,0,1.541,1.541l-.732,2.228A15.412,15.412,0,0,0,27.4,41.672l1.582-1.766a13.12,13.12,0,0,0,2.1.566l.484,2.3a15.534,15.534,0,0,0,1.882.126V12a15.533,15.533,0,0,0-1.882.126Z" transform="translate(1.659 1.037)" fill="#f4393d"/>
      <path id="Trazado_917282" data-name="Trazado 917282" d="M32.829,35.659a8.829,8.829,0,1,1,0-17.659" transform="translate(2.281 1.659)" fill="#f7edd3"/>
      <circle id="Elipse_13957" data-name="Elipse 13957" cx="2.207" cy="2.207" r="2.207" transform="translate(39.525 9.726)" fill="#fccc38"/>
      <circle id="Elipse_13958" data-name="Elipse 13958" cx="2.207" cy="2.207" r="2.207" transform="translate(48.354 15.244)" fill="#fccc38"/>
      <circle id="Elipse_13959" data-name="Elipse 13959" cx="2.207" cy="2.207" r="2.207" transform="translate(53.873 29.592)" fill="#fccc38"/>
      <circle id="Elipse_13960" data-name="Elipse 13960" cx="2.207" cy="2.207" r="2.207" transform="translate(41.732 42.836)" fill="#fccc38"/>
      <path id="Trazado_917283" data-name="Trazado 917283" d="M42.762,50.714,40.71,49.9a18.693,18.693,0,0,1,1.031-2.156l1.933,1.067a16.521,16.521,0,0,0-.911,1.9Z" transform="translate(4.013 4.743)"/>
      <path id="Trazado_917284" data-name="Trazado 917284" d="M44.586,47.319l-1.853-1.2c.414-.64.847-1.274,1.28-1.9l1.812,1.261c-.42.6-.839,1.216-1.239,1.834Z" transform="translate(4.223 4.378)"/>
      <path id="Trazado_917285" data-name="Trazado 917285" d="M46.874,43.984l-1.813-1.259c.435-.627.85-1.238,1.222-1.829l1.868,1.175C47.763,42.69,47.329,43.329,46.874,43.984Z" transform="translate(4.464 4.033)"/>
      <path id="Trazado_917286" data-name="Trazado 917286" d="M49.093,40.415l-1.947-1.041q.517-.968.992-1.963l1.992.951q-.5,1.038-1.037,2.053Z" transform="translate(4.681 3.671)"/>
      <path id="Trazado_917287" data-name="Trazado 917287" d="M50.9,36.649l-2.032-.864c.289-.678.562-1.361.819-2.044l2.066.776Q51.349,35.586,50.9,36.649Z" transform="translate(4.859 3.291)"/>
      <path id="Trazado_917288" data-name="Trazado 917288" d="M54.122,24.516l-2.2-.185c.057-.673.086-1.327.086-1.942v-.2l2.207-.017v.22C54.215,23.067,54.184,23.782,54.122,24.516Z" transform="translate(5.176 2.091)"/>
      <path id="Trazado_917289" data-name="Trazado 917289" d="M51.91,20.506a19.08,19.08,0,0,0-.368-2.092l2.149-.5a21.387,21.387,0,0,1,.411,2.333Z" transform="translate(5.136 1.65)"/>
      <path id="Trazado_917290" data-name="Trazado 917290" d="M51.078,16.8a19.28,19.28,0,0,0-.823-1.959l1.984-.966a21.262,21.262,0,0,1,.918,2.186Z" transform="translate(5.003 1.231)"/>
      <path id="Trazado_917291" data-name="Trazado 917291" d="M49.432,13.358A20.1,20.1,0,0,0,48.2,11.623l1.729-1.373A22.29,22.29,0,0,1,51.3,12.179Z" transform="translate(4.79 0.855)"/>
      <path id="Trazado_917292" data-name="Trazado 917292" d="M47.066,10.342A20.864,20.864,0,0,0,45.493,8.9L46.9,7.2a23.114,23.114,0,0,1,1.74,1.6Z" transform="translate(4.509 0.539)"/>
      <path id="Trazado_917293" data-name="Trazado 917293" d="M44.112,7.865c-.586-.394-1.2-.767-1.834-1.108l1.05-1.942c.693.375,1.371.785,2.016,1.218Z" transform="translate(4.176 0.292)"/>
      <path id="Trazado_917294" data-name="Trazado 917294" d="M40.715,6c-.647-.275-1.324-.525-2.011-.743l.668-2.1c.753.239,1.5.513,2.206.816Z" transform="translate(3.805 0.12)"/>
      <path id="Trazado_917295" data-name="Trazado 917295" d="M37.022,4.8c-.693-.154-1.405-.278-2.117-.37l.282-2.19c.777.1,1.555.237,2.312.4Z" transform="translate(3.411 0.025)"/>
      <path id="Trazado_917296" data-name="Trazado 917296" d="M55.251,28.485a3.306,3.306,0,0,0-3.108,2.207H45.318V26.277h4.415a1.1,1.1,0,0,0,1.1-1.1V20.555a3.311,3.311,0,1,0-2.207,0V24.07H45.318V21.863a1.1,1.1,0,0,0-1.1-1.1H42.007V15.037a3.311,3.311,0,1,0-2.207,0v5.722H35.385V3.139a1.1,1.1,0,0,0-1.1-1.1C20.665,2.035,10,11.893,10,24.476c0,5.978,2.373,13.892,6.193,20.653.686,1.214,1.581,2.49,2.529,3.841,2,2.856,4.233,6.067,4.475,8.862a3.137,3.137,0,0,0-1.326,2.62A3.278,3.278,0,0,0,22.6,62.5a3.4,3.4,0,0,0-1.013,2.443A3.315,3.315,0,0,0,24.9,68.256H43.662a3.332,3.332,0,0,0,3.311-3.389,3.3,3.3,0,0,0-1.016-2.377,3.407,3.407,0,0,0,.733-2.115,3.165,3.165,0,0,0-3.311-3.156h-8V36.21h2.207v3.311a1.1,1.1,0,0,0,1.1,1.1h3.311v1.307a3.311,3.311,0,1,0,2.207,0V39.521a1.1,1.1,0,0,0-1.1-1.1H39.8V36.21h4.415a1.1,1.1,0,0,0,1.1-1.1V32.9h6.825a3.305,3.305,0,1,0,3.108-4.415Zm-5.518-12.14a1.1,1.1,0,1,1-1.1,1.1A1.1,1.1,0,0,1,49.732,16.344ZM20.529,47.7c-.916-1.306-1.781-2.539-2.414-3.66-3.589-6.352-5.907-14.032-5.907-19.567,0-11.007,9.124-19.7,20.97-20.21v7.71c-.293.022-.592.049-.912.088a1.1,1.1,0,0,0-.946.868l-.336,1.6q-.416.1-.829.223l-1.1-1.227a1.1,1.1,0,0,0-1.255-.279,16.605,16.605,0,0,0-3.472,2.027,1.1,1.1,0,0,0-.384,1.225l.507,1.543c-.209.2-.412.4-.608.608L22.3,18.146a1.11,1.11,0,0,0-1.225.384A16.564,16.564,0,0,0,19.045,22a1.1,1.1,0,0,0,.279,1.255l1.227,1.1q-.124.409-.221.82l-1.716.343a1.1,1.1,0,0,0-.888,1.082v3.764a1.1,1.1,0,0,0,.888,1.082l1.716.343q.1.411.221.82l-1.228,1.1a1.1,1.1,0,0,0-.279,1.255,16.571,16.571,0,0,0,2.029,3.474,1.109,1.109,0,0,0,1.225.384l1.542-.507c.2.208.4.412.608.608l-.507,1.541a1.1,1.1,0,0,0,.384,1.225,16.569,16.569,0,0,0,3.473,2.03,1.106,1.106,0,0,0,1.255-.279l1.1-1.227q.413.124.829.223l.336,1.6a1.1,1.1,0,0,0,.946.869c.32.039.619.066.912.088V57.219H25.356c-.451-3.253-2.755-6.561-4.827-9.516Zm3.819-19.218a9.945,9.945,0,0,0,8.829,9.868v3.8l-.183-.869a1.1,1.1,0,0,0-.884-.86,11.967,11.967,0,0,1-1.923-.518,1.121,1.121,0,0,0-.373-.065,1.1,1.1,0,0,0-.822.368l-1.038,1.158a14.3,14.3,0,0,1-1.661-.975l.479-1.458a1.1,1.1,0,0,0-.336-1.188,12.094,12.094,0,0,1-1.412-1.412,1.109,1.109,0,0,0-1.186-.334l-1.458.48a14.342,14.342,0,0,1-.976-1.662l1.159-1.038a1.106,1.106,0,0,0,.3-1.2,12,12,0,0,1-.518-1.923,1.1,1.1,0,0,0-.87-.886l-1.543-.308V27.508l1.543-.308a1.1,1.1,0,0,0,.87-.886,12.047,12.047,0,0,1,.518-1.924,1.1,1.1,0,0,0-.3-1.2L21.4,22.158A14.489,14.489,0,0,1,22.38,20.5l1.458.48a1.11,1.11,0,0,0,1.186-.334,12.343,12.343,0,0,1,1.414-1.415,1.1,1.1,0,0,0,.334-1.185l-.479-1.458a14.386,14.386,0,0,1,1.661-.975l1.038,1.158a1.108,1.108,0,0,0,1.2.3,11.936,11.936,0,0,1,1.923-.518,1.1,1.1,0,0,0,.884-.859l.183-.869v3.794a9.945,9.945,0,0,0-8.829,9.868Zm8.829-7.638V36.122a7.715,7.715,0,0,1,0-15.275Zm10.485,45.2H24.9a1.124,1.124,0,0,1-1.1-1.181,1.1,1.1,0,0,1,1.1-1.1H43.662a1.124,1.124,0,0,1,1.1,1.181,1.1,1.1,0,0,1-1.1,1.1Zm-.282-6.622a1.011,1.011,0,0,1,1.1,1.026,1.1,1.1,0,0,1-1.1,1.1h-18.2a1.124,1.124,0,0,1-1.1-1.181,1,1,0,0,1,1.1-.948Zm-.269-15.49a1.1,1.1,0,1,1-1.1,1.1A1.1,1.1,0,0,1,43.11,43.936ZM40.9,10.826a1.1,1.1,0,1,1-1.1,1.1,1.1,1.1,0,0,1,1.1-1.1ZM43.11,34H35.385V22.966H43.11Zm12.14-1.1a1.1,1.1,0,1,1,1.1-1.1A1.1,1.1,0,0,1,55.251,32.9Z" transform="translate(0.829 0.004)"/>
      <g id="Grupo_1114037" data-name="Grupo 1114037" transform="translate(2 2)">
        <path id="Trazado_917297" data-name="Trazado 917297" d="M4,56H6.207v2.207H4Z" transform="translate(-1.793 3.598)" fill="#fccc38"/>
        <path id="Trazado_917298" data-name="Trazado 917298" d="M4,60H6.207v2.207H4Z" transform="translate(-1.793 4.013)" fill="#fccc38"/>
        <path id="Trazado_917299" data-name="Trazado 917299" d="M6,58H8.207v2.207H6Z" transform="translate(-1.585 3.806)" fill="#fccc38"/>
        <path id="Trazado_917300" data-name="Trazado 917300" d="M2,58H4.207v2.207H2Z" transform="translate(-2 3.806)" fill="#fccc38"/>
        <path id="Trazado_917301" data-name="Trazado 917301" d="M59,2h2.207V4.207H59Z" transform="translate(3.91 -2)" fill="#fccc38"/>
        <path id="Trazado_917302" data-name="Trazado 917302" d="M59,6h2.207V8.207H59Z" transform="translate(3.91 -1.585)" fill="#fccc38"/>
        <path id="Trazado_917303" data-name="Trazado 917303" d="M61,4h2.207V6.207H61Z" transform="translate(4.117 -1.793)" fill="#fccc38"/>
        <path id="Trazado_917304" data-name="Trazado 917304" d="M57,4h2.207V6.207H57Z" transform="translate(3.702 -1.793)" fill="#fccc38"/>
      </g>
    </g>
  </g>
</svg>
