<svg xmlns="http://www.w3.org/2000/svg" width="100" height="100" viewBox="0 0 100 100">
  <g id="Grupo_1113348" data-name="Grupo 1113348" transform="translate(0.242)">
    <g id="Grupo_1098742" data-name="Grupo 1098742" transform="translate(0)">
      <rect id="Rectángulo_400898" data-name="Rectángulo 400898" width="100" height="100" rx="50" transform="translate(-0.242)" fill="#fff" opacity="0.859"/>
      <g id="Rectángulo_400907" data-name="Rectángulo 400907" transform="translate(-0.242)" fill="none" stroke="#fe9ab8" stroke-linecap="round" stroke-width="3" stroke-dasharray="0 7">
        <rect width="100" height="100" rx="50" stroke="none"/>
        <rect x="1.5" y="1.5" width="97" height="97" rx="48.5" fill="none"/>
      </g>
    </g>
    <g id="Grupo_1107006" data-name="Grupo 1107006" transform="translate(8.156 8.156)">
      <rect id="Rectángulo_400898-2" data-name="Rectángulo 400898" width="84" height="84" rx="42" transform="translate(-0.399 -0.157)" fill="#ffebf1" opacity="0.859"/>
      <rect id="Rectángulo_400907-2" data-name="Rectángulo 400907" width="84" height="84" rx="42" transform="translate(-0.398 -0.157)" fill="none"/>
    </g>
    <g id="Grupo_1114085" data-name="Grupo 1114085" transform="translate(-20.11 19.924)">
      <path id="Trazado_917450" data-name="Trazado 917450" d="M118.289,292.033h27.258a2.278,2.278,0,0,1,2.271,2.271v13.629a2.278,2.278,0,0,1-2.271,2.272H118.289a2.278,2.278,0,0,1-2.271-2.272V294.3A2.278,2.278,0,0,1,118.289,292.033Z" transform="translate(-62.05 -258.866)" fill="#a4fbc4" fill-rule="evenodd"/>
      <g id="Grupo_1114084" data-name="Grupo 1114084" transform="translate(46.017 -0.001)">
        <path id="Trazado_917451" data-name="Trazado 917451" d="M90.311,26.353H59.646V18.175a10.222,10.222,0,0,1,20.444,0v1.82a2.274,2.274,0,0,0,2.271,2.271h3.407a2.274,2.274,0,0,0,2.271-2.271A18.368,18.368,0,0,0,69.868,0C60.143-.2,51.489,8.45,51.7,18.175c0,0,0,8.177,0,8.177H49.424a3.411,3.411,0,0,0-3.407,3.407V54.746a3.411,3.411,0,0,0,3.407,3.407H90.311a3.411,3.411,0,0,0,3.407-3.407V29.76a3.411,3.411,0,0,0-3.407-3.407ZM53.967,18.175c1.173-22.224,32.885-20.5,31.8,1.82H82.361v-1.82c-.007-11.027-13.5-16.693-21.314-8.82a12.4,12.4,0,0,0-3.673,8.82v8.178H53.967Zm37.48,36.571a1.137,1.137,0,0,1-1.136,1.136H49.424a1.137,1.137,0,0,1-1.136-1.136V29.76a1.137,1.137,0,0,1,1.136-1.136H90.311a1.137,1.137,0,0,1,1.136,1.136Z" transform="translate(-46.017 0.001)" fill="#020288"/>
        <path id="Trazado_917452" data-name="Trazado 917452" d="M162.917,326.844l-1.231-.5a1.108,1.108,0,0,1-.613-.606,1.123,1.123,0,0,1,1.5-1.414l.616.25a1.136,1.136,0,0,0,.855-2.1l-.616-.25a3.4,3.4,0,0,0-4.453,4.388c.616,1.473,1.731,1.8,3.088,2.341a1.1,1.1,0,1,1-.886,2.019l-.616-.25a1.136,1.136,0,0,0-.855,2.1l.616.25a3.439,3.439,0,0,0,4.446-1.818A3.375,3.375,0,0,0,162.917,326.844Z" transform="translate(-145.91 -285.392)" fill="#020288"/>
        <path id="Trazado_917453" data-name="Trazado 917453" d="M228.639,326.844l-1.231-.5a1.108,1.108,0,0,1-.613-.605,1.123,1.123,0,0,1,1.5-1.414l.616.25a1.136,1.136,0,0,0,.855-2.1l-.616-.25a3.4,3.4,0,0,0-4.453,4.387c.616,1.473,1.731,1.8,3.088,2.341a1.1,1.1,0,1,1-.886,2.019l-.616-.25a1.136,1.136,0,0,0-.855,2.1l.616.25a3.439,3.439,0,0,0,4.446-1.818A3.375,3.375,0,0,0,228.639,326.844Z" transform="translate(-204.168 -285.392)" fill="#020288"/>
        <path id="Trazado_917454" data-name="Trazado 917454" d="M302.857,331.176h-2.9v-7.95a1.136,1.136,0,0,0-2.272,0v9.086a1.136,1.136,0,0,0,1.136,1.136h4.038a1.136,1.136,0,0,0,0-2.271Z" transform="translate(-269.1 -285.516)" fill="#020288"/>
      </g>
    </g>
  </g>
</svg>
