<svg xmlns="http://www.w3.org/2000/svg" width="120" height="120" viewBox="0 0 120 120">
  <g id="Grupo_1113473" data-name="Grupo 1113473" transform="translate(-1236.5 -460)">
    <g id="Elipse_12108" data-name="Elipse 12108" transform="translate(1241.5 465)" fill="#fe9ab8" stroke="rgba(255,255,255,0.4)" stroke-width="5">
      <circle cx="55" cy="55" r="55" stroke="none"/>
      <circle cx="55" cy="55" r="57.5" fill="none"/>
    </g>
    <g id="Grupo_1114377" data-name="Grupo 1114377" transform="translate(1262.5 486)">
      <path id="Trazado_919059" data-name="Trazado 919059" d="M18.574,42.246H28.25v4.681H18.574Z" transform="translate(-24.67 29.614) rotate(-45)" fill="#f4a01e"/>
      <g id="Grupo_1114372" data-name="Grupo 1114372">
        <path id="Trazado_919060" data-name="Trazado 919060" d="M22.52,50.536l-5.058-5.058a.715.715,0,0,0-1.012,0l-13.2,13.2a4.292,4.292,0,0,0,0,6.069h0a4.292,4.292,0,0,0,6.069,0l13.2-13.2a.715.715,0,0,0,0-1.012Z" fill="#c7cad0"/>
      </g>
      <g id="Grupo_1114373" data-name="Grupo 1114373">
        <path id="Trazado_919061" data-name="Trazado 919061" d="M22.513,51.55,9.319,64.744A4.289,4.289,0,0,1,2.37,59.959c9.169-1.163,15.116-8.318,17.715-11.848l2.428,2.428a.708.708,0,0,1,0,1.012Z" fill="#a3a6a8"/>
      </g>
      <circle id="Elipse_13987" data-name="Elipse 13987" cx="23.568" cy="23.568" r="23.568" transform="translate(18.86 2.002)" fill="#fac41d"/>
      <g id="Grupo_1114374" data-name="Grupo 1114374">
        <circle id="Elipse_13988" data-name="Elipse 13988" cx="17.499" cy="17.499" r="17.499" transform="translate(24.929 8.071)" fill="#fff"/>
      </g>
      <g id="Grupo_1114375" data-name="Grupo 1114375">
        <path id="Trazado_919062" data-name="Trazado 919062" d="M54.8,37.945a17.5,17.5,0,0,1-29.434-8.488A17.5,17.5,0,0,0,53.837,12.3c.327.288.654.586.961.894a17.5,17.5,0,0,1,0,24.753Z" fill="#dfe1e6"/>
      </g>
      <g id="Grupo_1114376" data-name="Grupo 1114376">
        <path id="Trazado_919063" data-name="Trazado 919063" d="M59.8,8.2a24.567,24.567,0,0,0-36.944,32.22l-4.52,4.52-.167-.167a1.755,1.755,0,0,0-2.425,0l-13.2,13.2a5.292,5.292,0,1,0,7.483,7.483l13.2-13.2a1.715,1.715,0,0,0,0-2.425l-.167-.167,4.52-4.52A24.567,24.567,0,0,0,59.8,8.2ZM8.616,64.038a3.371,3.371,0,0,1-4.655,0,3.29,3.29,0,0,1,0-4.655l13-13,4.655,4.655Zm13.031-15.79-1.9-1.9,4.385-4.385c.3.331.6.658.921.975s.644.623.975.921Zm36.739-6.72a22.568,22.568,0,1,1,0-31.916,22.563,22.563,0,0,1,0,31.916Z" fill="#231f20"/>
        <path id="Trazado_919064" data-name="Trazado 919064" d="M55.509,12.489a18.5,18.5,0,1,0,0,26.162,18.489,18.489,0,0,0,0-26.162ZM54.095,37.237a16.5,16.5,0,1,1,0-23.334,16.5,16.5,0,0,1,0,23.334Z" fill="#231f20"/>
        <path id="Trazado_919065" data-name="Trazado 919065" d="M42.428,13.516a1,1,0,0,0,0,2A10.066,10.066,0,0,1,52.482,25.57a1,1,0,0,0,2,0A12.068,12.068,0,0,0,42.428,13.516Z" fill="#231f20"/>
      </g>
    </g>
  </g>
</svg>
