<svg xmlns="http://www.w3.org/2000/svg" width="100" height="100" viewBox="0 0 100 100">
  <g id="Grupo_1113350" data-name="Grupo 1113350" transform="translate(0.242)">
    <g id="Grupo_1098742" data-name="Grupo 1098742" transform="translate(0)">
      <rect id="Rectángulo_400898" data-name="Rectángulo 400898" width="100" height="100" rx="50" transform="translate(-0.242)" fill="#fff" opacity="0.859"/>
      <g id="Rectángulo_400907" data-name="Rectángulo 400907" transform="translate(-0.242)" fill="none" stroke="#fe9ab8" stroke-linecap="round" stroke-width="3" stroke-dasharray="0 7">
        <rect width="100" height="100" rx="50" stroke="none"/>
        <rect x="1.5" y="1.5" width="97" height="97" rx="48.5" fill="none"/>
      </g>
    </g>
    <g id="Grupo_1107006" data-name="Grupo 1107006" transform="translate(8.156 8.156)">
      <rect id="Rectángulo_400898-2" data-name="Rectángulo 400898" width="84" height="84" rx="42" transform="translate(-0.399 -0.157)" fill="#ffebf1" opacity="0.859"/>
      <rect id="Rectángulo_400907-2" data-name="Rectángulo 400907" width="84" height="84" rx="42" transform="translate(-0.398 -0.157)" fill="none"/>
    </g>
    <g id="Grupo_1114090" data-name="Grupo 1114090" transform="translate(22.908 23.15)">
      <g id="Grupo_1114089" data-name="Grupo 1114089" transform="translate(0 0)">
        <path id="Trazado_917464" data-name="Trazado 917464" d="M40.622,11.75V3.189A3.193,3.193,0,0,0,37.433,0H3.189A3.193,3.193,0,0,0,0,3.189V11.75a3.2,3.2,0,0,0,2.14,3.012V17.3A3.2,3.2,0,0,0,0,20.311v8.561a3.2,3.2,0,0,0,2.14,3.012v2.537A3.194,3.194,0,0,0,0,37.433v8.561a3.193,3.193,0,0,0,3.189,3.189h25.3a1.049,1.049,0,0,0,0-2.1H3.189A1.093,1.093,0,0,1,2.1,45.994V37.433a1.093,1.093,0,0,1,1.091-1.091H37.433a1.093,1.093,0,0,1,1.091,1.091v3.379a1.049,1.049,0,1,0,2.1,0V37.433a3.2,3.2,0,0,0-2.14-3.012V31.884a3.2,3.2,0,0,0,2.14-3.012V20.311a3.2,3.2,0,0,0-2.14-3.012V14.762a3.194,3.194,0,0,0,2.14-3.012ZM2.1,3.189A1.093,1.093,0,0,1,3.189,2.1H37.433a1.093,1.093,0,0,1,1.091,1.091V11.75a1.093,1.093,0,0,1-1.091,1.091H3.189A1.093,1.093,0,0,1,2.1,11.75V3.189Zm2.14,13.933V14.939H36.384v2.183ZM36.384,32.061v2.183H4.238V32.061Zm2.14-3.189a1.093,1.093,0,0,1-1.091,1.091H3.189A1.093,1.093,0,0,1,2.1,28.872V20.311A1.093,1.093,0,0,1,3.189,19.22H37.433a1.093,1.093,0,0,1,1.091,1.091Z" transform="translate(0 0)" fill="#020288"/>
        <path id="Trazado_917465" data-name="Trazado 917465" d="M41.921,83.723H71.884a1.049,1.049,0,0,0,0-2.1H41.921A1.049,1.049,0,0,0,41.921,83.723Z" transform="translate(-36.592 -73.064)" fill="#020288"/>
        <path id="Trazado_917466" data-name="Trazado 917466" d="M41.866,42.966a1.049,1.049,0,1,0-1.049-1.049A1.049,1.049,0,0,0,41.866,42.966Z" transform="translate(-36.536 -36.588)" fill="#020288"/>
        <path id="Trazado_917467" data-name="Trazado 917467" d="M87.78,42.966a1.049,1.049,0,1,0-1.049-1.049A1.049,1.049,0,0,0,87.78,42.966Z" transform="translate(-77.635 -36.588)" fill="#020288"/>
        <path id="Trazado_917468" data-name="Trazado 917468" d="M133.7,42.966a1.049,1.049,0,1,0-1.049-1.049A1.049,1.049,0,0,0,133.7,42.966Z" transform="translate(-118.734 -36.588)" fill="#020288"/>
        <path id="Trazado_917469" data-name="Trazado 917469" d="M71.884,244.877H41.921a1.049,1.049,0,0,0,0,2.1H71.884A1.049,1.049,0,0,0,71.884,244.877Z" transform="translate(-36.592 -219.194)" fill="#020288"/>
        <path id="Trazado_917470" data-name="Trazado 917470" d="M41.866,206.217a1.049,1.049,0,1,0-1.049-1.049A1.049,1.049,0,0,0,41.866,206.217Z" transform="translate(-36.536 -182.717)" fill="#020288"/>
        <path id="Trazado_917471" data-name="Trazado 917471" d="M87.78,206.217a1.049,1.049,0,1,0-1.049-1.049A1.049,1.049,0,0,0,87.78,206.217Z" transform="translate(-77.635 -182.717)" fill="#020288"/>
        <path id="Trazado_917472" data-name="Trazado 917472" d="M133.7,206.217a1.049,1.049,0,1,0-1.049-1.049A1.049,1.049,0,0,0,133.7,206.217Z" transform="translate(-118.734 -182.717)" fill="#020288"/>
        <path id="Trazado_917473" data-name="Trazado 917473" d="M67.819,408.128H41.862a1.049,1.049,0,0,0,0,2.1H67.819A1.049,1.049,0,0,0,67.819,408.128Z" transform="translate(-36.532 -365.323)" fill="#020288"/>
        <path id="Trazado_917474" data-name="Trazado 917474" d="M41.866,369.469a1.049,1.049,0,1,0-1.049-1.049A1.049,1.049,0,0,0,41.866,369.469Z" transform="translate(-36.536 -328.847)" fill="#020288"/>
        <path id="Trazado_917475" data-name="Trazado 917475" d="M88.886,368.364a1.049,1.049,0,1,0-1.049,1.049A1.049,1.049,0,0,0,88.886,368.364Z" transform="translate(-77.692 -328.791)" fill="#020288"/>
        <path id="Trazado_917476" data-name="Trazado 917476" d="M134.8,368.364a1.049,1.049,0,1,0-1.049,1.049A1.049,1.049,0,0,0,134.8,368.364Z" transform="translate(-118.791 -328.791)" fill="#020288"/>
      </g>
      <path id="Trazado_917477" data-name="Trazado 917477" d="M250.537,386.984h20.582a3.621,3.621,0,0,0,0-7.241,4.441,4.441,0,0,0-5.747-4.218,8.748,8.748,0,0,0-15.393,4.261A3.623,3.623,0,0,0,250.537,386.984Z" transform="translate(-221.041 -333.285)" fill="#b2f0fb" fill-rule="evenodd"/>
    </g>
  </g>
</svg>
