<svg id="Grupo_1113407" data-name="Grupo 1113407" xmlns="http://www.w3.org/2000/svg" width="122.486" height="122.486" viewBox="0 0 122.486 122.486">
  <g id="Rectángulo_402033" data-name="Rectángulo 402033" transform="translate(0)" fill="#fe9ab8" stroke="#fff" stroke-width="3">
    <rect width="122.486" height="122.486" rx="8" stroke="none"/>
    <rect x="1.5" y="1.5" width="119.486" height="119.486" rx="6.5" fill="none"/>
  </g>
  <g id="Grupo_1114213" data-name="Grupo 1114213" transform="translate(-4.843 22.676)">
    <g id="Grupo_1114211" data-name="Grupo 1114211" transform="translate(33.537 1.123)">
      <path id="Trazado_917606" data-name="Trazado 917606" d="M425.012,136.5H425l-.448.263v7.759h6.8l.372-.317v-.994A6.731,6.731,0,0,0,425.012,136.5Z" transform="translate(-366.612 -117.061)" fill="#ffa90f"/>
      <path id="Trazado_917607" data-name="Trazado 917607" d="M165.47,8.537l-.48-1.08H132.048a2.489,2.489,0,0,0-2.489,2.489v4.3l1.035.848h27.617l9.067,8.813V35.127h6.453l.718-.524V16.916l-1.119-.495Z" transform="translate(-116.058 -7.457)" fill="#62ddfc"/>
      <g id="Grupo_1114210" data-name="Grupo 1114210" transform="translate(13.501 0)">
        <path id="Trazado_917608" data-name="Trazado 917608" d="M137.279,9.946a2.489,2.489,0,0,1,2.489-2.489h-7.72a2.489,2.489,0,0,0-2.489,2.489v4.3l1.035.848h7.72l-1.035-.848v-4.3Z" transform="translate(-129.559 -7.457)" fill="#00d2fc"/>
      </g>
      <path id="Trazado_917609" data-name="Trazado 917609" d="M46.667,136.5h-.138a6.6,6.6,0,0,0-6.584,6.584v1.121l.651.18h6.579v-7.462Z" transform="translate(-39.945 -117.061)" fill="#ffa90f"/>
      <path id="Trazado_917610" data-name="Trazado 917610" d="M364.741,7.457v6.97a2.489,2.489,0,0,0,2.489,2.489h6.97Z" transform="translate(-315.81 -7.457)" fill="#00d2fc"/>
      <path id="Trazado_917611" data-name="Trazado 917611" d="M120.575,53.923l-.58-1.425H87.053a2.489,2.489,0,0,0-2.489,2.489V72.859l.976.976h41.233l2.68-.976v-10.9l-1.4-.651Z" transform="translate(-77.842 -45.712)" fill="#dbedff"/>
      <path id="Trazado_917612" data-name="Trazado 917612" d="M92.285,54.986A2.489,2.489,0,0,1,94.774,52.5h-7.72a2.489,2.489,0,0,0-2.489,2.489V72.858l.976.976h7.72l-.976-.976Z" transform="translate(-77.843 -45.712)" fill="#b5dcff"/>
      <path id="Trazado_917613" data-name="Trazado 917613" d="M319.746,52.5v6.97a2.489,2.489,0,0,0,2.489,2.489h6.97Z" transform="translate(-277.593 -45.712)" fill="#b5dcff"/>
      <path id="Trazado_917614" data-name="Trazado 917614" d="M368.809,14.427v-2.9l-4.068-4.068v6.97a2.489,2.489,0,0,0,2.489,2.489H371.3a2.489,2.489,0,0,1-2.489-2.489Z" transform="translate(-315.81 -7.457)" fill="#00c2fb"/>
      <path id="Trazado_917615" data-name="Trazado 917615" d="M323.814,59.468v-2.9L319.746,52.5v6.97a2.489,2.489,0,0,0,2.489,2.489H326.3A2.489,2.489,0,0,1,323.814,59.468Z" transform="translate(-277.593 -45.712)" fill="#8bcaff"/>
      <path id="Trazado_917616" data-name="Trazado 917616" d="M105.057,187.649H39.945v45.727a2,2,0,0,0,2,2h61.11a2,2,0,0,0,2-2Z" transform="translate(-39.945 -160.503)" fill="#ffd086"/>
      <path id="Trazado_917617" data-name="Trazado 917617" d="M49.542,233.376V187.649h-9.6v45.727a2,2,0,0,0,2,2h9.6A2,2,0,0,1,49.542,233.376Z" transform="translate(-39.945 -160.503)" fill="#ffc365"/>
      <path id="Trazado_917618" data-name="Trazado 917618" d="M281.3,320H257.327a1.281,1.281,0,0,0-1.281,1.281v18.874a1.281,1.281,0,0,0,1.281,1.281H281.3a1.281,1.281,0,0,0,1.281-1.281V321.283A1.281,1.281,0,0,0,281.3,320Z" transform="translate(-223.49 -272.916)" fill="#dbedff"/>
      <path id="Trazado_917619" data-name="Trazado 917619" d="M262.063,340.157V321.283A1.281,1.281,0,0,1,263.344,320h-6.017a1.281,1.281,0,0,0-1.281,1.281v18.874a1.281,1.281,0,0,0,1.281,1.281h6.017A1.28,1.28,0,0,1,262.063,340.157Z" transform="translate(-223.49 -272.916)" fill="#b5dcff"/>
    </g>
    <g id="Grupo_1114212" data-name="Grupo 1114212" transform="translate(32.4 0)">
      <path id="Trazado_917620" data-name="Trazado 917620" d="M39.122,19.507A7.724,7.724,0,0,0,32.4,27.155V74a3.134,3.134,0,0,0,3.131,3.131H96.641A3.134,3.134,0,0,0,99.772,74V53.552a1.13,1.13,0,0,0-2.26,0V74a.872.872,0,0,1-.871.871H35.531A.872.872,0,0,1,34.66,74v-44.6H97.512V48.28a1.13,1.13,0,1,0,2.26,0v-21a7.853,7.853,0,0,0-6.722-7.76V10.589a1.135,1.135,0,0,0-.331-.8L83.26.331a1.141,1.141,0,0,0-.8-.331H49.519A3.623,3.623,0,0,0,45.9,3.619V6.786h-3.16A3.623,3.623,0,0,0,39.122,10.4Zm0,7.639H34.66a5.464,5.464,0,0,1,4.462-5.355ZM93.05,21.814a5.591,5.591,0,0,1,4.461,5.333H93.05ZM83.591,3.858l5.6,5.6H84.95A1.361,1.361,0,0,1,83.591,8.1ZM48.16,3.619A1.361,1.361,0,0,1,49.519,2.26H81.331V8.1a3.623,3.623,0,0,0,3.619,3.619h5.84V27.147H86.272V17.374a1.135,1.135,0,0,0-.331-.8L76.482,7.116a1.143,1.143,0,0,0-.8-.331H48.16ZM82.414,16.244H78.171a1.361,1.361,0,0,1-1.359-1.359V10.643ZM41.382,10.4a1.361,1.361,0,0,1,1.359-1.359H74.553v5.84A3.623,3.623,0,0,0,78.172,18.5h5.84v8.642H41.382Z" transform="translate(-32.4 0)"/>
      <path id="Trazado_917621" data-name="Trazado 917621" d="M300.68,425.126H284.711a1.13,1.13,0,1,0,0,2.26H300.68a1.13,1.13,0,0,0,0-2.26Z" transform="translate(-245.74 -361.08)"/>
      <path id="Trazado_917622" data-name="Trazado 917622" d="M300.68,397.5H284.711a1.13,1.13,0,1,0,0,2.26H300.68a1.13,1.13,0,0,0,0-2.26Z" transform="translate(-245.74 -337.615)"/>
      <path id="Trazado_917623" data-name="Trazado 917623" d="M300.68,369.873H284.711a1.13,1.13,0,1,0,0,2.26H300.68a1.13,1.13,0,1,0,0-2.26Z" transform="translate(-245.74 -314.151)"/>
      <path id="Trazado_917624" data-name="Trazado 917624" d="M300.68,342.246H284.711a1.13,1.13,0,1,0,0,2.26H300.68a1.13,1.13,0,1,0,0-2.26Z" transform="translate(-245.74 -290.686)"/>
      <path id="Trazado_917625" data-name="Trazado 917625" d="M150.8,149.617H119.72a1.13,1.13,0,0,0,0,2.26H150.8a1.13,1.13,0,0,0,0-2.26Z" transform="translate(-105.605 -127.077)"/>
      <path id="Trazado_917626" data-name="Trazado 917626" d="M119.719,124.251H145.88a1.13,1.13,0,0,0,0-2.26H119.719a1.13,1.13,0,1,0,0,2.26Z" transform="translate(-105.604 -103.613)"/>
      <path id="Trazado_917627" data-name="Trazado 917627" d="M260.263,312.545H250.91a2.413,2.413,0,0,0-2.41,2.41v18.874a2.413,2.413,0,0,0,2.41,2.41h23.978a2.413,2.413,0,0,0,2.41-2.41V314.955a2.413,2.413,0,0,0-2.41-2.41h-9.353a1.13,1.13,0,1,0,0,2.26h9.353a.151.151,0,0,1,.151.151v18.874a.151.151,0,0,1-.151.151H250.91a.151.151,0,0,1-.151-.151V314.955a.151.151,0,0,1,.151-.151h9.353a1.13,1.13,0,0,0,0-2.26Z" transform="translate(-215.944 -265.459)"/>
    </g>
  </g>
</svg>
