<svg id="Grupo_1113983" data-name="Grupo 1113983" xmlns="http://www.w3.org/2000/svg" width="50" height="50" viewBox="0 0 50 50">
  <path id="Trazado_917021" data-name="Trazado 917021" d="M34.993,6.734c0-.023.007-.045.007-.068C35,2.333,25.984,0,17.5,0S0,2.333,0,6.667v30c0,2.858,4.713,6.083,15,6.6v.072C15,47.667,24.016,50,32.5,50S50,47.667,50,43.333v-30C50,9.426,42.659,7.143,34.993,6.734Zm13.34,6.6c0,2.365-6.5,5-15.833,5s-15.833-2.635-15.833-5,6.5-5,15.833-5S48.333,10.968,48.333,13.333ZM17.5,1.667c9.333,0,15.833,2.635,15.833,5v.007c-.278-.007-.557-.007-.833-.007-7.283,0-14.953,1.723-16.98,4.951-8.306-.346-13.853-2.8-13.853-4.951C1.667,4.3,8.167,1.667,17.5,1.667ZM1.667,9.6c2.6,2.11,7.906,3.377,13.338,3.661,0,.024-.005.047-.005.072v8.26c-8.009-.427-13.333-2.839-13.333-4.927Zm0,9.99C4.272,21.7,9.583,22.976,15,23.263V31.6c-8.008-.429-13.333-2.841-13.333-4.929Zm0,17.076V29.583C3.839,31.406,8.2,32.927,15,33.265V41.6C6.992,41.167,1.667,38.755,1.667,36.667ZM32.5,48.333c-9.333,0-15.833-2.635-15.833-5V36.3C19.659,38.72,26.223,40,32.5,40s12.841-1.28,15.833-3.7v7.032C48.333,45.7,41.833,48.333,32.5,48.333Zm0-10c-9.333,0-15.833-2.635-15.833-5V26.3C19.659,28.72,26.223,30,32.5,30s12.841-1.28,15.833-3.7v7.032C48.333,35.7,41.833,38.333,32.5,38.333Zm0-10c-9.333,0-15.833-2.635-15.833-5V16.3C19.659,18.72,26.223,20,32.5,20s12.841-1.28,15.833-3.7v7.032C48.333,25.7,41.833,28.333,32.5,28.333Z" fill="#523dbf"/>
  <path id="Trazado_917022" data-name="Trazado 917022" d="M4.577,19.107q.5.234,1.054.453a1,1,0,1,0,.738-1.86q-.5-.2-.946-.407a1,1,0,1,0-.846,1.813Z" transform="translate(0 -2.988)" fill="#523dbf"/>
  <path id="Trazado_917023" data-name="Trazado 917023" d="M9.776,20.822q.5.116,1.026.221a.967.967,0,0,0,.2.02,1,1,0,0,0,.2-1.98c-.331-.067-.655-.137-.974-.21a1,1,0,1,0-.448,1.949Z" transform="translate(-1.58 -3.262)" fill="#523dbf"/>
  <path id="Trazado_917024" data-name="Trazado 917024" d="M24.369,25.7q-.495-.2-.946-.407a1,1,0,1,0-.846,1.813q.5.234,1.054.453a1,1,0,1,0,.738-1.859Z" transform="translate(-3.86 -4.377)" fill="#523dbf"/>
  <path id="Trazado_917025" data-name="Trazado 917025" d="M29.2,27.083c-.331-.067-.655-.137-.974-.21a1,1,0,1,0-.448,1.949q.5.116,1.026.221a.967.967,0,0,0,.2.02,1,1,0,0,0,.2-1.98Z" transform="translate(-4.737 -4.646)" fill="#523dbf"/>
</svg>
