<svg xmlns="http://www.w3.org/2000/svg" width="48.318" height="48.971" viewBox="0 0 48.318 48.971">
  <g id="Grupo_1114399" data-name="Grupo 1114399" transform="translate(-3.416 0)">
    <path id="Trazado_919121" data-name="Trazado 919121" d="M377.242,119.6l-1.476,1.477-.751-.752A.717.717,0,1,0,374,121.338l1.259,1.259a.718.718,0,0,0,1.015,0l1.984-1.984a.718.718,0,0,0-1.015-1.015Z" transform="translate(-334.943 -107.968)" fill="#360742"/>
    <path id="Trazado_919122" data-name="Trazado 919122" d="M51.734,12.756V4.828a1.439,1.439,0,0,0-1.767-1.4h0c-1.553.361-5.409.9-7.665-1.919a1.442,1.442,0,0,0-2.245,0A5.526,5.526,0,0,1,38.64,2.766C28.7-2.156,3.416-.264,3.416,6.5V42.466c0,4.225,9.913,6.5,19.241,6.5s19.241-2.28,19.241-6.5V32.277a.717.717,0,1,0-1.435,0v1.2c0,1.171-1.84,2.445-4.922,3.407-7.1,2.22-18.667,2.218-25.768,0-3.082-.963-4.922-2.237-4.922-3.407v-6.4c6.2,5.151,29.274,5.263,35.612-.008v1.863a.717.717,0,0,0,1.435,0v-3.5a3.163,3.163,0,0,0,.675-.24,37.045,37.045,0,0,0,3.581-2,.717.717,0,1,0-.773-1.209,35.245,35.245,0,0,1-3.511,1.955V17.745a5.058,5.058,0,0,0,4.271-4.271H50.3v2.848c0,1.113-.779,2.367-2.314,3.729a.717.717,0,1,0,.952,1.074c1.856-1.646,2.8-3.262,2.8-4.8V12.756ZM40.463,36.068v6.4c0,1.171-1.84,2.445-4.922,3.407-7.1,2.22-18.667,2.218-25.768,0-3.082-.963-4.922-2.237-4.922-3.407v-6.4c6.248,5.19,29.366,5.189,35.612,0ZM40.435,3.2V7.768a5.058,5.058,0,0,0-4.271,4.271h-4.1l.006-7.213c2.916.678,6.144.421,8.367-1.622ZM22.657,1.428c5.525,0,10.723.784,14.12,2.09a9.971,9.971,0,0,1-4.384-.09,1.439,1.439,0,0,0-1.767,1.4V11C18.173,12.882,4.851,9.842,4.851,6.5c0-2.339,7.236-5.07,17.806-5.07ZM4.851,9.091c4.41,3.665,17.035,4.636,25.775,3.357v3.874a5.532,5.532,0,0,0,1.446,3.423c-12.667,2.39-27.221-.778-27.221-4.255Zm4.922,18.8c-3.082-.963-4.922-2.237-4.922-3.407v-6.4c4.439,3.687,18.4,5.025,28.4,2.889a28.963,28.963,0,0,0,6.541,4.22,3.133,3.133,0,0,0,.36.149C37.286,29.335,20.055,31.1,9.773,27.889Zm30.662-3.979c-2.706-1.288-8.374-4.594-8.374-7.589V13.474h4.1a5.056,5.056,0,0,0,4.271,4.271Zm.717-7.55a3.6,3.6,0,1,1,3.6-3.6A3.609,3.609,0,0,1,41.153,16.361ZM50.3,12.039H46.141A5.056,5.056,0,0,0,41.87,7.768V3.152c2.778,2.611,6.748,2.063,8.422,1.674l.007,0Z" transform="translate(0 0)" fill="#360742"/>
  </g>
</svg>
