<svg xmlns="http://www.w3.org/2000/svg" width="100" height="100" viewBox="0 0 100 100">
  <g id="Grupo_1100965" data-name="Grupo 1100965" transform="translate(0.242)">
    <g id="Grupo_1098742" data-name="Grupo 1098742" transform="translate(0)">
      <rect id="Rectángulo_400898" data-name="Rectángulo 400898" width="100" height="100" rx="50" transform="translate(-0.242)" fill="#fff" opacity="0.859"/>
      <g id="Rectángulo_400907" data-name="Rectángulo 400907" transform="translate(-0.242)" fill="none" stroke="#fe9ab8" stroke-linecap="round" stroke-width="3" stroke-dasharray="0 7">
        <rect width="100" height="100" rx="50" stroke="none"/>
        <rect x="1.5" y="1.5" width="97" height="97" rx="48.5" fill="none"/>
      </g>
    </g>
    <g id="Grupo_1107006" data-name="Grupo 1107006" transform="translate(8.156 8.156)">
      <rect id="Rectángulo_400898-2" data-name="Rectángulo 400898" width="84" height="84" rx="42" transform="translate(-0.399 -0.157)" fill="#ffebf1" opacity="0.859"/>
      <rect id="Rectángulo_400907-2" data-name="Rectángulo 400907" width="84" height="84" rx="42" transform="translate(-0.398 -0.157)" fill="none"/>
    </g>
    <g id="Grupo_1114082" data-name="Grupo 1114082" transform="translate(0.166 23.742)">
      <path id="Trazado_917446" data-name="Trazado 917446" d="M129.638,128.053V142H152.2v-6.009c-2.827-.389-4.756-1.169-4.756-2.067V118.075c0-.9,1.929-1.677,4.756-2.067V110H129.638Z" transform="translate(-93.007 -98.717)" fill="#a4fbc4" fill-rule="evenodd"/>
      <path id="Trazado_917447" data-name="Trazado 917447" d="M69.825,16.718a25.3,25.3,0,0,0-5.5-.7V3.077A3.081,3.081,0,0,0,61.249,0H34.58A3.081,3.081,0,0,0,31.5,3.077v21.13H29.374a1.026,1.026,0,0,0,0,2.051H31.5V28.31H27.026a1.026,1.026,0,0,0-.725,1.751l2.051,2.051A1.026,1.026,0,0,0,29.8,30.662l-.3-.3h2V49.44a3.081,3.081,0,0,0,3.077,3.077H61.249a3.081,3.081,0,0,0,3.077-3.077V38.553c2.392-.119,8.737-.437,8.859-3.342,0,0,0-15.852,0-15.852,0-1.756-2.528-2.422-3.359-2.64Zm1.308,7.805c-2.692,1.905-12.966,1.908-15.666,0V21.573a27.05,27.05,0,0,0,15.666,0ZM55.467,26.857a27.049,27.049,0,0,0,15.666,0v2.951c-2.692,1.905-12.966,1.908-15.666,0Zm15.513-7.5c-3.089,1.752-12.267,1.754-15.361,0C58.709,17.607,67.885,17.6,70.981,19.358ZM34.58,2.051H61.249a1.027,1.027,0,0,1,1.026,1.026V4.1H54.069a1.026,1.026,0,0,0-1.026,1.026,1.027,1.027,0,0,1-1.026,1.026H43.811a1.027,1.027,0,0,1-1.026-1.026A1.026,1.026,0,0,0,41.76,4.1H33.554V3.077A1.027,1.027,0,0,1,34.58,2.051ZM46.515,28.31H33.554V26.259H48.863a1.026,1.026,0,0,0,.725-1.751l-2.051-2.051a1.026,1.026,0,1,0-1.451,1.451l.3.3H33.554V6.154H40.91a3.082,3.082,0,0,0,2.9,2.051h8.206a3.082,3.082,0,0,0,2.9-2.051h7.356v9.862c-2.393.119-8.737.437-8.859,3.342,0,0,0,15.852,0,15.852.113,2.9,6.465,3.224,8.859,3.342v7.811H33.554v-16H46.515a1.026,1.026,0,0,0,0-2.051ZM61.249,50.466H34.58a1.027,1.027,0,0,1-1.026-1.026V48.415h28.72V49.44A1.027,1.027,0,0,1,61.249,50.466ZM68.8,35.99c-3.272.75-10.629.888-13.329-.9V32.141a27.049,27.049,0,0,0,15.666,0v2.951A5.479,5.479,0,0,1,68.8,35.99Z" fill="#020288"/>
    </g>
  </g>
</svg>
