<svg xmlns="http://www.w3.org/2000/svg" width="120" height="120" viewBox="0 0 120 120">
  <g id="Grupo_1113471" data-name="Grupo 1113471" transform="translate(-1236.5 -460)">
    <g id="Elipse_12108" data-name="Elipse 12108" transform="translate(1241.5 465)" fill="#fe9ab8" stroke="rgba(255,255,255,0.4)" stroke-width="5">
      <circle cx="55" cy="55" r="55" stroke="none"/>
      <circle cx="55" cy="55" r="57.5" fill="none"/>
    </g>
    <g id="Grupo_1114371" data-name="Grupo 1114371" transform="translate(1206.619 471.649)">
      <path id="Trazado_919049" data-name="Trazado 919049" d="M115.446,29.256l-12.94-12.94a1.078,1.078,0,0,0-.763-.316H65.078A1.078,1.078,0,0,0,64,17.078V79.623A1.078,1.078,0,0,0,65.078,80.7h49.6a1.078,1.078,0,0,0,1.078-1.078v-49.6a1.078,1.078,0,0,0-.316-.763Zm-12.625-9.574,9.259,9.259h-9.259ZM66.157,78.545V18.157h34.508V30.019a1.078,1.078,0,0,0,1.078,1.078H113.6V78.545Z" fill="#360742"/>
      <path id="Trazado_919050" data-name="Trazado 919050" d="M228.313,224a4.313,4.313,0,1,0,4.313,4.313A4.313,4.313,0,0,0,228.313,224Zm0,6.47a2.157,2.157,0,1,1,2.157-2.157A2.157,2.157,0,0,1,228.313,230.47Z" transform="translate(-138.433 -179.963)" fill="#360742"/>
      <path id="Trazado_919051" data-name="Trazado 919051" d="M138.054,74.784h-6.47a1.078,1.078,0,0,0-1.078,1.078v4.659l-4.158,2.6-2.629-2.629a1.078,1.078,0,0,0-1.525,0L120.8,81.884h0V80.175a1.078,1.078,0,0,0-1.078-1.078h-1.078v-6.47h4.313a1.078,1.078,0,0,0,1.078-1.078v-6.47A1.078,1.078,0,0,0,122.957,64H112.173a1.078,1.078,0,0,0-1.078,1.078v6.47a1.078,1.078,0,0,0,1.078,1.078h4.313V79.1h-1.078a1.078,1.078,0,0,0-1.078,1.078v1.708h0l-1.393-1.393a1.078,1.078,0,0,0-1.525,0l-2.629,2.629L104.424,80.4a4.313,4.313,0,1,0-5.191,2.877v8.763H97.076A1.078,1.078,0,0,0,96,93.116v6.47a1.078,1.078,0,0,0,1.078,1.078h6.47a1.078,1.078,0,0,0,1.078-1.078v-6.47a1.078,1.078,0,0,0-1.078-1.078H101.39V83.274a4.311,4.311,0,0,0,1.888-1.05l4.985,3.114,1.306,1.306H107.86a1.078,1.078,0,0,0-1.078,1.078v4.313a1.078,1.078,0,0,0,1.078,1.078h1.709l-1.393,1.393a1.078,1.078,0,0,0,0,1.525l3.235,3.235a1.078,1.078,0,0,0,1.525,0l1.393-1.393h0v1.709a1.078,1.078,0,0,0,1.078,1.078h4.313a1.078,1.078,0,0,0,1.078-1.078V97.878h0l1.393,1.393a1.078,1.078,0,0,0,1.393.111l4.308,5.54a6.445,6.445,0,0,0-1.7,4.37h-4.313v-2.157a1.078,1.078,0,0,0-1.078-1.078h-6.47a1.078,1.078,0,0,0-1.078,1.078v6.47a1.078,1.078,0,0,0,1.078,1.078h6.47a1.078,1.078,0,0,0,1.078-1.078v-2.157h4.684a6.472,6.472,0,1,0,3.034-7.853l-4.463-5.739,1.821-1.821a1.078,1.078,0,0,0,0-1.525l-1.393-1.393h1.709a1.078,1.078,0,0,0,1.078-1.078V87.724a1.078,1.078,0,0,0-1.078-1.078h-1.708l1.306-1.306,3.83-2.393a1.076,1.076,0,0,0,.886.466h6.47a1.078,1.078,0,0,0,1.078-1.078v-6.47A1.078,1.078,0,0,0,138.054,74.784Zm-24.8-8.627h8.627V70.47h-8.627ZM102.468,98.508H98.155V94.194h4.313Zm-2.157-17.254a2.157,2.157,0,1,1,2.157-2.157A2.157,2.157,0,0,1,100.311,81.254Zm19.411,31.273h-4.313v-4.313h4.313Zm17.254-3.235a4.313,4.313,0,1,1-4.313-4.313A4.313,4.313,0,0,1,136.976,109.291ZM126.192,88.8v2.157H124.8a1.078,1.078,0,0,0-1.034.771,6.443,6.443,0,0,1-.454,1.123,1.078,1.078,0,0,0,.195,1.259l1.161,1.161-1.71,1.71L121.8,95.822a1.078,1.078,0,0,0-1.259-.195,6.443,6.443,0,0,1-1.123.454,1.078,1.078,0,0,0-.771,1.034v1.393h-2.157V97.115a1.078,1.078,0,0,0-.771-1.034,6.443,6.443,0,0,1-1.123-.454,1.078,1.078,0,0,0-1.259.195l-1.161,1.161-1.71-1.71,1.161-1.161a1.078,1.078,0,0,0,.195-1.259,6.444,6.444,0,0,1-.454-1.123,1.078,1.078,0,0,0-1.034-.771h-1.393V88.8h1.393a1.078,1.078,0,0,0,1.034-.771,6.444,6.444,0,0,1,.454-1.123,1.078,1.078,0,0,0-.195-1.259l-1.161-1.161,1.71-1.71,1.161,1.161a1.078,1.078,0,0,0,1.259.195,6.433,6.433,0,0,1,1.123-.454,1.078,1.078,0,0,0,.771-1.034V81.254h2.157v1.393a1.078,1.078,0,0,0,.771,1.034,6.433,6.433,0,0,1,1.123.454,1.078,1.078,0,0,0,1.259-.195l1.161-1.161,1.71,1.71-1.161,1.161a1.078,1.078,0,0,0-.195,1.259,6.443,6.443,0,0,1,.454,1.123,1.078,1.078,0,0,0,1.034.771Zm10.784-7.549h-4.313V76.94h4.313Z" transform="translate(-27.684 -41.53)" fill="#360742"/>
      <path id="Trazado_919052" data-name="Trazado 919052" d="M110.019,392H97.078a1.078,1.078,0,0,0,0,2.157h12.94a1.078,1.078,0,0,0,0-2.157Z" transform="translate(-27.687 -325.317)" fill="#360742"/>
      <path id="Trazado_919053" data-name="Trazado 919053" d="M110.019,424H97.078a1.078,1.078,0,0,0,0,2.157h12.94a1.078,1.078,0,0,0,0-2.157Z" transform="translate(-27.687 -353.003)" fill="#360742"/>
      <path id="Trazado_919054" data-name="Trazado 919054" d="M97.078,362.157h2.157a1.078,1.078,0,0,0,0-2.157H97.078a1.078,1.078,0,0,0,0,2.157Z" transform="translate(-27.687 -297.63)" fill="#360742"/>
      <path id="Trazado_919055" data-name="Trazado 919055" d="M151.549,360h-6.47a1.078,1.078,0,0,0,0,2.157h6.47a1.078,1.078,0,0,0,0-2.157Z" transform="translate(-69.216 -297.63)" fill="#360742"/>
      <path id="Trazado_919056" data-name="Trazado 919056" d="M97.078,98.157h10.784a1.078,1.078,0,0,0,0-2.157H97.078a1.078,1.078,0,0,0,0,2.157Z" transform="translate(-27.687 -69.216)" fill="#360742"/>
      <path id="Trazado_919057" data-name="Trazado 919057" d="M97.078,66.157h2.157a1.078,1.078,0,0,0,0-2.157H97.078a1.078,1.078,0,0,0,0,2.157Z" transform="translate(-27.687 -41.53)" fill="#360742"/>
      <path id="Trazado_919058" data-name="Trazado 919058" d="M145.078,66.157h4.313a1.078,1.078,0,1,0,0-2.157h-4.313a1.078,1.078,0,1,0,0,2.157Z" transform="translate(-69.216 -41.53)" fill="#360742"/>
    </g>
  </g>
</svg>
