<svg xmlns="http://www.w3.org/2000/svg" width="60" height="60" viewBox="0 0 60 60">
  <g id="database" transform="translate(-2 -2)">
    <rect id="Rect치ngulo_412102" data-name="Rect치ngulo 412102" width="40" height="12" rx="6" transform="translate(12 33)" fill="#c6c5ca"/>
    <path id="Trazado_917323" data-name="Trazado 917323" d="M52,39a6.009,6.009,0,0,1-6,6H42a6,6,0,0,0,0-12h4A6,6,0,0,1,52,39Z" fill="#898890"/>
    <rect id="Rect치ngulo_412103" data-name="Rect치ngulo 412103" width="40" height="12" rx="6" transform="translate(12 49)" fill="#c6c5ca"/>
    <path id="Trazado_917324" data-name="Trazado 917324" d="M52,55a6.009,6.009,0,0,1-6,6H42a6,6,0,1,0,0-12h4A6,6,0,0,1,52,55Z" fill="#898890"/>
    <path id="Trazado_917325" data-name="Trazado 917325" d="M44,53h4v4H44Z" fill="#57a4ff"/>
    <path id="Trazado_917326" data-name="Trazado 917326" d="M44,37h4v4H44Z" fill="#57a4ff"/>
    <path id="Trazado_917327" data-name="Trazado 917327" d="M46,49H43V45h3a5.361,5.361,0,0,0,.99-.09L47,45v4l-.01.09A5.361,5.361,0,0,0,46,49Z" fill="#898890"/>
    <path id="Trazado_917328" data-name="Trazado 917328" d="M36,53h4v4H36Z" fill="#ffde55"/>
    <path id="Trazado_917329" data-name="Trazado 917329" d="M36,37h4v4H36Z" fill="#ffde55"/>
    <path id="Trazado_917330" data-name="Trazado 917330" d="M19,45h4v4H19Z" fill="#898890"/>
    <path id="Trazado_917331" data-name="Trazado 917331" d="M19,45h4v2H19Z" fill="#57565c"/>
    <path id="Trazado_917332" data-name="Trazado 917332" d="M43,45h4v2H43Z" fill="#57565c"/>
    <g id="Grupo_1114046" data-name="Grupo 1114046">
      <path id="Trazado_917333" data-name="Trazado 917333" d="M19,18v6c0,1.66-4.03,3-9,3s-7-1.34-7-3V18c0,1.66,2.03,3,7,3S19,19.66,19,18Z" fill="#ffde55"/>
      <path id="Trazado_917334" data-name="Trazado 917334" d="M19,12v6c0,1.66-4.03,3-9,3s-7-1.34-7-3V12c0,1.66,2.03,3,7,3S19,13.66,19,12Z" fill="#ffde55"/>
      <path id="Trazado_917335" data-name="Trazado 917335" d="M19,6v6c0,1.66-4.03,3-9,3s-7-1.34-7-3V6c0,1.66,2.03,3,7,3S19,7.66,19,6Z" fill="#ffde55"/>
    </g>
    <path id="Trazado_917336" data-name="Trazado 917336" d="M19,18v6c0,1.66-4.03,3-9,3-.69,0-1.36-.03-2-.08,4.01-.3,7-1.49,7-2.92V20.5C17.41,19.96,19,19.04,19,18Z" fill="#ebbf00"/>
    <path id="Trazado_917337" data-name="Trazado 917337" d="M19,12v6c0,1.04-1.59,1.96-4,2.5v-6C17.41,13.96,19,13.04,19,12Z" fill="#ebbf00"/>
    <path id="Trazado_917338" data-name="Trazado 917338" d="M19,6v6c0,1.04-1.59,1.96-4,2.5v-6C17.41,7.96,19,7.04,19,6Z" fill="#ebbf00"/>
    <path id="Trazado_917339" data-name="Trazado 917339" d="M10,9C5.03,9,3,7.66,3,6s2.03-3,7-3c4.12,0,7.59.92,8.66,2.18A1.261,1.261,0,0,1,19,6C19,7.66,14.97,9,10,9Z" fill="#c6c5ca"/>
    <path id="Trazado_917340" data-name="Trazado 917340" d="M19,6c0,1.66-4.03,3-9,3-.69,0-1.36-.03-2-.08,4.01-.3,7-1.49,7-2.92a1.261,1.261,0,0,0-.34-.82c-.89-1.05-3.44-1.86-6.64-2.1C8.66,3.03,9.32,3,10,3c4.12,0,7.59.92,8.66,2.18A1.261,1.261,0,0,1,19,6Z" fill="#898890"/>
    <path id="Trazado_917341" data-name="Trazado 917341" d="M40,18v6c0,1.66-4.03,3-9,3s-7-1.34-7-3V18c0,1.66,2.03,3,7,3S40,19.66,40,18Z" fill="#ffde55"/>
    <path id="Trazado_917342" data-name="Trazado 917342" d="M40,12v6c0,1.66-4.03,3-9,3s-7-1.34-7-3V12c0,1.66,2.03,3,7,3S40,13.66,40,12Z" fill="#ffde55"/>
    <path id="Trazado_917343" data-name="Trazado 917343" d="M40,6v6c0,1.66-4.03,3-9,3s-7-1.34-7-3V6c0,1.66,2.03,3,7,3S40,7.66,40,6Z" fill="#ffde55"/>
    <path id="Trazado_917344" data-name="Trazado 917344" d="M40,18v6c0,1.66-4.03,3-9,3-.69,0-1.36-.03-2-.08,4.01-.3,7-1.49,7-2.92V20.5C38.41,19.96,40,19.04,40,18Z" fill="#ebbf00"/>
    <path id="Trazado_917345" data-name="Trazado 917345" d="M40,12v6c0,1.04-1.59,1.96-4,2.5v-6C38.41,13.96,40,13.04,40,12Z" fill="#ebbf00"/>
    <path id="Trazado_917346" data-name="Trazado 917346" d="M40,6v6c0,1.04-1.59,1.96-4,2.5v-6C38.41,7.96,40,7.04,40,6Z" fill="#ebbf00"/>
    <path id="Trazado_917347" data-name="Trazado 917347" d="M31,9c-4.97,0-7-1.34-7-3s2.03-3,7-3c4.12,0,7.59.92,8.66,2.18A1.261,1.261,0,0,1,40,6C40,7.66,35.97,9,31,9Z" fill="#c6c5ca"/>
    <path id="Trazado_917348" data-name="Trazado 917348" d="M40,6c0,1.66-4.03,3-9,3-.69,0-1.36-.03-2-.08,4.01-.3,7-1.49,7-2.92a1.261,1.261,0,0,0-.34-.82c-.89-1.05-3.44-1.86-6.64-2.1C29.66,3.03,30.32,3,31,3c4.12,0,7.59.92,8.66,2.18A1.261,1.261,0,0,1,40,6Z" fill="#898890"/>
    <path id="Trazado_917349" data-name="Trazado 917349" d="M61,18v6c0,1.66-4.03,3-9,3s-7-1.34-7-3V18c0,1.66,2.03,3,7,3S61,19.66,61,18Z" fill="#ffde55"/>
    <path id="Trazado_917350" data-name="Trazado 917350" d="M61,12v6c0,1.66-4.03,3-9,3s-7-1.34-7-3V12c0,1.66,2.03,3,7,3S61,13.66,61,12Z" fill="#ffde55"/>
    <path id="Trazado_917351" data-name="Trazado 917351" d="M61,6v6c0,1.66-4.03,3-9,3s-7-1.34-7-3V6c0,1.66,2.03,3,7,3S61,7.66,61,6Z" fill="#ffde55"/>
    <path id="Trazado_917352" data-name="Trazado 917352" d="M61,18v6c0,1.66-4.03,3-9,3-.69,0-1.36-.03-2-.08,4.01-.3,7-1.49,7-2.92V20.5C59.41,19.96,61,19.04,61,18Z" fill="#ebbf00"/>
    <path id="Trazado_917353" data-name="Trazado 917353" d="M61,12v6c0,1.04-1.59,1.96-4,2.5v-6C59.41,13.96,61,13.04,61,12Z" fill="#ebbf00"/>
    <path id="Trazado_917354" data-name="Trazado 917354" d="M61,6v6c0,1.04-1.59,1.96-4,2.5v-6C59.41,7.96,61,7.04,61,6Z" fill="#ebbf00"/>
    <path id="Trazado_917355" data-name="Trazado 917355" d="M52,9c-4.97,0-7-1.34-7-3s2.03-3,7-3c4.12,0,7.59.92,8.66,2.18A1.261,1.261,0,0,1,61,6C61,7.66,56.97,9,52,9Z" fill="#c6c5ca"/>
    <path id="Trazado_917356" data-name="Trazado 917356" d="M61,6c0,1.66-4.03,3-9,3-.69,0-1.36-.03-2-.08,4.01-.3,7-1.49,7-2.92a1.261,1.261,0,0,0-.34-.82c-.89-1.05-3.44-1.86-6.64-2.1C50.66,3.03,51.32,3,52,3c4.12,0,7.59.92,8.66,2.18A1.261,1.261,0,0,1,61,6Z" fill="#898890"/>
    <path id="Trazado_917357" data-name="Trazado 917357" d="M32,2c-5.47,0-9,1.57-9,4V24c0,2.43,3.53,4,9,4s9-1.57,9-4V6C41,3.57,37.47,2,32,2Zm7,22c0,.68-2.11,2-7,2s-7-1.32-7-2V20.69A15.576,15.576,0,0,0,32,22a15.576,15.576,0,0,0,7-1.31Zm0-6c0,.68-2.11,2-7,2s-7-1.32-7-2V14.69A15.576,15.576,0,0,0,32,16a15.576,15.576,0,0,0,7-1.31Zm0-6c0,.68-2.11,2-7,2s-7-1.32-7-2V8.69A15.576,15.576,0,0,0,32,10a15.576,15.576,0,0,0,7-1.31ZM32,8c-4.89,0-7-1.32-7-2s2.11-2,7-2,7,1.32,7,2S36.89,8,32,8Z"/>
    <path id="Trazado_917358" data-name="Trazado 917358" d="M53,2c-5.47,0-9,1.57-9,4V24c0,2.43,3.53,4,9,4s9-1.57,9-4V6C62,3.57,58.47,2,53,2Zm7,22c0,.68-2.11,2-7,2s-7-1.32-7-2V20.69A15.576,15.576,0,0,0,53,22a15.576,15.576,0,0,0,7-1.31Zm0-6c0,.68-2.11,2-7,2s-7-1.32-7-2V14.69A15.576,15.576,0,0,0,53,16a15.576,15.576,0,0,0,7-1.31Zm0-6c0,.68-2.11,2-7,2s-7-1.32-7-2V8.69A15.576,15.576,0,0,0,53,10a15.576,15.576,0,0,0,7-1.31ZM53,8c-4.89,0-7-1.32-7-2s2.11-2,7-2,7,1.32,7,2S57.89,8,53,8Z"/>
    <path id="Trazado_917359" data-name="Trazado 917359" d="M11,2C5.53,2,2,3.57,2,6V24c0,2.43,3.53,4,9,4s9-1.57,9-4V6C20,3.57,16.47,2,11,2Zm7,22c0,.68-2.11,2-7,2s-7-1.32-7-2V20.69A15.576,15.576,0,0,0,11,22a15.576,15.576,0,0,0,7-1.31Zm0-6c0,.68-2.11,2-7,2s-7-1.32-7-2V14.69A15.576,15.576,0,0,0,11,16a15.576,15.576,0,0,0,7-1.31Zm0-6c0,.68-2.11,2-7,2s-7-1.32-7-2V8.69A15.576,15.576,0,0,0,11,10a15.576,15.576,0,0,0,7-1.31ZM11,8C6.11,8,4,6.68,4,6s2.11-2,7-2,7,1.32,7,2S15.89,8,11,8Z"/>
    <path id="Trazado_917360" data-name="Trazado 917360" d="M13,46H7a1,1,0,0,1-1-1V30H4V45a3,3,0,0,0,3,3h6Z"/>
    <path id="Trazado_917361" data-name="Trazado 917361" d="M58,45a1,1,0,0,1-1,1H53v2h4a3,3,0,0,0,3-3V30H58Z"/>
    <path id="Trazado_917362" data-name="Trazado 917362" d="M44,42h4a1,1,0,0,0,1-1V37a1,1,0,0,0-1-1H44a1,1,0,0,0-1,1v4A1,1,0,0,0,44,42Zm1-4h2v2H45Z"/>
    <path id="Trazado_917363" data-name="Trazado 917363" d="M36,42h4a1,1,0,0,0,1-1V37a1,1,0,0,0-1-1H36a1,1,0,0,0-1,1v4A1,1,0,0,0,36,42Zm1-4h2v2H37Z"/>
    <path id="Trazado_917364" data-name="Trazado 917364" d="M19,36H33v2H19Z"/>
    <path id="Trazado_917365" data-name="Trazado 917365" d="M15,36h2v2H15Z"/>
    <path id="Trazado_917366" data-name="Trazado 917366" d="M19,40H33v2H19Z"/>
    <path id="Trazado_917367" data-name="Trazado 917367" d="M15,40h2v2H15Z"/>
    <path id="Trazado_917368" data-name="Trazado 917368" d="M48,48.29V45.71A7,7,0,0,0,46,32H18a7,7,0,0,0,0,14v2a7,7,0,0,0,0,14H46a7,7,0,0,0,2-13.71ZM13,39a5,5,0,0,1,5-5H46a5,5,0,0,1,0,10H18A5,5,0,0,1,13,39Zm33,7v2H44V46Zm-4,0v2H24V46ZM22,46v2H20V46ZM46,60H18a5,5,0,0,1,0-10H46a5,5,0,0,1,0,10Z"/>
    <path id="Trazado_917369" data-name="Trazado 917369" d="M48,52H44a1,1,0,0,0-1,1v4a1,1,0,0,0,1,1h4a1,1,0,0,0,1-1V53A1,1,0,0,0,48,52Zm-1,4H45V54h2Z"/>
    <path id="Trazado_917370" data-name="Trazado 917370" d="M40,52H36a1,1,0,0,0-1,1v4a1,1,0,0,0,1,1h4a1,1,0,0,0,1-1V53A1,1,0,0,0,40,52Zm-1,4H37V54h2Z"/>
    <path id="Trazado_917371" data-name="Trazado 917371" d="M19,52H33v2H19Z"/>
    <path id="Trazado_917372" data-name="Trazado 917372" d="M15,52h2v2H15Z"/>
    <path id="Trazado_917373" data-name="Trazado 917373" d="M19,56H33v2H19Z"/>
    <path id="Trazado_917374" data-name="Trazado 917374" d="M15,56h2v2H15Z"/>
  </g>
</svg>
