<svg xmlns="http://www.w3.org/2000/svg" width="80.712" height="80.701" viewBox="0 0 80.712 80.701">
  <g id="Grupo_1113872" data-name="Grupo 1113872" transform="translate(-0.995 -1)">
    <path id="Trazado_916840" data-name="Trazado 916840" d="M21,11H49.636v2.6H21Z" transform="translate(6.034 3.016)" fill="#f0ae42"/>
    <path id="Trazado_916841" data-name="Trazado 916841" d="M13,63.842V32.6A2.6,2.6,0,0,1,15.6,30H59.858a2.6,2.6,0,0,1,2.6,2.6V63.842Z" transform="translate(3.621 8.747)" fill="#939393"/>
    <path id="Trazado_916842" data-name="Trazado 916842" d="M17,34H56.049V62.636H17Z" transform="translate(4.828 9.954)" fill="#ccc"/>
    <path id="Trazado_916843" data-name="Trazado 916843" d="M50.842,54.826V34H17V57.429H48.239A2.6,2.6,0,0,0,50.842,54.826Z" transform="translate(4.828 9.954)" fill="#f2f2f2"/>
    <path id="Trazado_916844" data-name="Trazado 916844" d="M11.6,56H66.271a2.6,2.6,0,0,1,2.6,2.6,5.206,5.206,0,0,1-5.206,5.206H14.206A5.206,5.206,0,0,1,9,58.6,2.6,2.6,0,0,1,11.6,56Z" transform="translate(2.415 16.589)" fill="#686868"/>
    <path id="Trazado_916845" data-name="Trazado 916845" d="M49.636,34.921V29.715h-2.9a11.64,11.64,0,0,0-1.5-3.625l2.055-2.055L43.6,20.353l-2.055,2.055a11.64,11.64,0,0,0-3.625-1.5V18H32.715v2.9a11.64,11.64,0,0,0-3.625,1.5l-2.055-2.055-3.681,3.681,2.055,2.055a11.64,11.64,0,0,0-1.5,3.625H21v5.206h2.9a11.64,11.64,0,0,0,1.5,3.625L23.353,40.6l3.681,3.681,2.055-2.055a11.641,11.641,0,0,0,3.625,1.5v2.9h5.206v-2.9a11.641,11.641,0,0,0,3.625-1.5L43.6,44.282,47.282,40.6l-2.055-2.055a11.64,11.64,0,0,0,1.5-3.625Z" transform="translate(6.034 5.128)" fill="#474747"/>
    <circle id="Elipse_13918" data-name="Elipse 13918" cx="6.508" cy="6.508" r="6.508" transform="translate(34.844 30.937)" fill="#f2f2f2"/>
    <circle id="Elipse_13919" data-name="Elipse 13919" cx="13.016" cy="13.016" r="13.016" transform="translate(2.303 2.302)" fill="#4d8c28"/>
    <path id="Trazado_916846" data-name="Trazado 916846" d="M25.431,13.714a13,13,0,0,0-5.915-10.9,13,13,0,0,0-11.6,23.1,12.985,12.985,0,0,0,17.516-12.2Z" transform="translate(0.302 0.303)" fill="#559b2d"/>
    <circle id="Elipse_13920" data-name="Elipse 13920" cx="13.016" cy="13.016" r="13.016" transform="translate(54.368 2.302)" fill="#b52f28"/>
    <path id="Trazado_916847" data-name="Trazado 916847" d="M65.431,13.714a13,13,0,0,0-5.915-10.9,13,13,0,0,0-11.6,23.1,12.985,12.985,0,0,0,17.516-12.2Z" transform="translate(12.367 0.303)" fill="#d23f34"/>
    <path id="Trazado_916848" data-name="Trazado 916848" d="M6,14.81l5.206,5.206L21.619,9.6,19.016,7l-7.81,7.81-2.6-2.6Z" transform="translate(1.51 1.81)" fill="#f2f2f2"/>
    <path id="Trazado_916849" data-name="Trazado 916849" d="M60.016,9.6,57.413,7l-3.9,3.9L49.6,7,47,9.6l3.9,3.9-3.9,3.9,2.6,2.6,3.9-3.9,3.9,3.9,2.6-2.6-3.9-3.9Z" transform="translate(13.876 1.81)" fill="#f2f2f2"/>
    <path id="Trazado_916850" data-name="Trazado 916850" d="M12.111,52.334H6.9a3.9,3.9,0,0,1-3.9-3.9V25H5.6V48.429a1.3,1.3,0,0,0,1.3,1.3h5.206Z" transform="translate(0.605 7.239)" fill="#f0ae42"/>
    <path id="Trazado_916851" data-name="Trazado 916851" d="M59.206,52.334H54v-2.6h5.206a1.3,1.3,0,0,0,1.3-1.3V25h2.6V48.429A3.9,3.9,0,0,1,59.206,52.334Z" transform="translate(15.988 7.239)" fill="#f0ae42"/>
    <path id="Trazado_916852" data-name="Trazado 916852" d="M66.573,66.462h-1.3V36.524a3.9,3.9,0,0,0-3.9-3.9H54.858v-2.6a1.3,1.3,0,0,0-1.3-1.3H51.649a12.831,12.831,0,0,0-.876-2.107l1.352-1.351a1.3,1.3,0,0,0,0-1.84l-3.682-3.682a1.3,1.3,0,0,0-1.84,0l-1.351,1.351a12.831,12.831,0,0,0-2.107-.875V18.3a1.3,1.3,0,0,0-1.3-1.3H36.636a1.3,1.3,0,0,0-1.3,1.3V20.21a12.832,12.832,0,0,0-2.107.876l-1.351-1.352a1.3,1.3,0,0,0-1.84,0l-3.682,3.682a1.3,1.3,0,0,0,0,1.84l1.35,1.351a12.887,12.887,0,0,0-.873,2.107H24.921a1.3,1.3,0,0,0-1.3,1.3v2.6H17.111a3.9,3.9,0,0,0-3.9,3.9V66.462H11.9a3.9,3.9,0,0,0-3.9,3.9,6.516,6.516,0,0,0,6.508,6.508H63.97a6.516,6.516,0,0,0,6.508-6.508,3.9,3.9,0,0,0-3.9-3.9ZM54.858,35.223h6.508a1.3,1.3,0,0,1,1.3,1.3V66.462h-2.6V39.128a1.3,1.3,0,0,0-1.3-1.3H51.15a12.586,12.586,0,0,0,.5-1.3h1.908A1.3,1.3,0,0,0,54.858,35.223Zm-28.505,6.6,3.682,3.682a1.3,1.3,0,0,0,1.84,0l1.351-1.351a12.831,12.831,0,0,0,2.107.875v1.908a1.3,1.3,0,0,0,1.3,1.3h5.206a1.3,1.3,0,0,0,1.3-1.3V45.029a12.831,12.831,0,0,0,2.107-.876L46.6,45.505a1.3,1.3,0,0,0,1.84,0l3.682-3.682a1.282,1.282,0,0,0,.286-1.394h5.05V66.462H21.016V40.429h5.05a1.282,1.282,0,0,0,.288,1.394Zm-.13-10.505h1.6a1.3,1.3,0,0,0,1.27-1.013,10.3,10.3,0,0,1,1.337-3.22,1.3,1.3,0,0,0-.181-1.614l-1.135-1.135,1.84-1.84L32.09,23.63a1.3,1.3,0,0,0,1.615.18,10.36,10.36,0,0,1,3.219-1.337A1.3,1.3,0,0,0,37.937,21.2V19.6h2.6v1.6a1.3,1.3,0,0,0,1.013,1.269,10.36,10.36,0,0,1,3.219,1.337,1.3,1.3,0,0,0,1.615-.18L47.522,22.5l1.84,1.84-1.135,1.135a1.3,1.3,0,0,0-.181,1.614,10.306,10.306,0,0,1,1.337,3.22,1.3,1.3,0,0,0,1.269,1.013h1.6v2.6h-1.6a1.3,1.3,0,0,0-1.269,1.013,10.306,10.306,0,0,1-1.337,3.22,1.3,1.3,0,0,0,.181,1.614L49.363,40.9l-1.84,1.84-1.135-1.135a1.3,1.3,0,0,0-1.615-.18,10.36,10.36,0,0,1-3.219,1.343,1.3,1.3,0,0,0-1.013,1.263v1.6h-2.6v-1.6a1.3,1.3,0,0,0-1.013-1.269,10.36,10.36,0,0,1-3.219-1.337,1.3,1.3,0,0,0-1.615.18l-1.135,1.135-1.84-1.84,1.135-1.135a1.3,1.3,0,0,0,.181-1.614,10.3,10.3,0,0,1-1.337-3.22,1.3,1.3,0,0,0-1.27-1.013h-1.6ZM15.81,36.524a1.3,1.3,0,0,1,1.3-1.3h6.508a1.3,1.3,0,0,0,1.3,1.3h1.908a12.888,12.888,0,0,0,.5,1.3H19.715a1.3,1.3,0,0,0-1.3,1.3V66.462h-2.6ZM63.97,74.271H14.508a3.9,3.9,0,0,1-3.9-3.9,1.3,1.3,0,0,1,1.3-1.3H66.573a1.3,1.3,0,0,1,1.3,1.3A3.9,3.9,0,0,1,63.97,74.271Z" transform="translate(2.113 4.826)"/>
    <path id="Trazado_916853" data-name="Trazado 916853" d="M33.81,38.619A7.81,7.81,0,1,0,26,30.81a7.81,7.81,0,0,0,7.81,7.81Zm0-13.016A5.206,5.206,0,1,1,28.6,30.81,5.206,5.206,0,0,1,33.81,25.6Z" transform="translate(7.542 6.636)"/>
    <path id="Trazado_916854" data-name="Trazado 916854" d="M15.319,29.636A14.331,14.331,0,0,0,29.571,16.62H53.13a14.318,14.318,0,1,0,0-2.6H29.571A14.318,14.318,0,1,0,15.319,29.636ZM67.384,3.6A11.715,11.715,0,1,1,55.67,15.318,11.715,11.715,0,0,1,67.384,3.6Zm-52.065,0A11.715,11.715,0,1,1,3.6,15.318,11.715,11.715,0,0,1,15.319,3.6Z" transform="translate(0 0)"/>
    <path id="Trazado_916855" data-name="Trazado 916855" d="M11.508,21.619a1.3,1.3,0,0,0,.92-.381L22.841,10.825a1.3,1.3,0,0,0,0-1.84l-2.6-2.6a1.3,1.3,0,0,0-1.84,0l-6.889,6.889L9.825,11.588a1.3,1.3,0,0,0-1.84,0l-2.6,2.6a1.3,1.3,0,0,0,0,1.84l5.206,5.206a1.3,1.3,0,0,0,.92.381ZM8.9,14.349l1.683,1.683a1.3,1.3,0,0,0,1.84,0l6.889-6.889.763.763-8.572,8.572L8.142,15.111Z" transform="translate(1.208 1.508)"/>
    <path id="Trazado_916856" data-name="Trazado 916856" d="M46.381,18.635l2.6,2.6a1.3,1.3,0,0,0,1.84,0l2.985-2.985,2.985,2.985a1.3,1.3,0,0,0,1.84,0l2.6-2.6a1.3,1.3,0,0,0,0-1.84L58.253,13.81l2.985-2.985a1.3,1.3,0,0,0,0-1.84l-2.6-2.6a1.3,1.3,0,0,0-1.84,0L53.81,9.366,50.825,6.381a1.3,1.3,0,0,0-1.84,0l-2.6,2.6a1.3,1.3,0,0,0,0,1.84l2.985,2.985-2.985,2.985A1.3,1.3,0,0,0,46.381,18.635Zm5.745-3.9a1.3,1.3,0,0,0,0-1.84L49.142,9.9l.763-.763,2.985,2.985a1.3,1.3,0,0,0,1.84,0l2.985-2.985.763.763-2.985,2.985a1.3,1.3,0,0,0,0,1.84l2.985,2.985-.763.763L54.73,15.493a1.3,1.3,0,0,0-1.84,0L49.9,18.477l-.763-.763Z" transform="translate(13.575 1.508)"/>
    <path id="Trazado_916857" data-name="Trazado 916857" d="M12.111,49.731H6.9a1.3,1.3,0,0,1-1.3-1.3V25H3V48.429a3.9,3.9,0,0,0,3.9,3.9h5.206Z" transform="translate(0.605 7.239)"/>
    <path id="Trazado_916858" data-name="Trazado 916858" d="M60.508,48.429a1.3,1.3,0,0,1-1.3,1.3H54v2.6h5.206a3.9,3.9,0,0,0,3.9-3.9V25h-2.6Z" transform="translate(15.988 7.239)"/>
  </g>
</svg>
