<svg xmlns="http://www.w3.org/2000/svg" width="120" height="120" viewBox="0 0 120 120">
  <g id="Grupo_1113474" data-name="Grupo 1113474" transform="translate(-1236.5 -460)">
    <g id="Elipse_12108" data-name="Elipse 12108" transform="translate(1241.5 465)" fill="#fe9ab8" stroke="rgba(255,255,255,0.4)" stroke-width="5">
      <circle cx="55" cy="55" r="55" stroke="none"/>
      <circle cx="55" cy="55" r="57.5" fill="none"/>
    </g>
    <g id="Grupo_1114379" data-name="Grupo 1114379" transform="translate(1265.284 488.784)">
      <path id="Trazado_919066" data-name="Trazado 919066" d="M18.048,163,10,169.463v29.875a5,5,0,0,0,5,5H64.994a5,5,0,0,0,5-5V169.463L61.946,163.2" transform="translate(-8.781 -143.124)" fill="#72d8ff"/>
      <rect id="Rectángulo_412416" data-name="Rectángulo 412416" width="42.922" height="46.466" transform="translate(9.755 1.219)" fill="#edf2fa"/>
      <path id="Trazado_919067" data-name="Trazado 919067" d="M48.167,237.9H31.16L10,216v29.875a5,5,0,0,0,5,5H64.994a5,5,0,0,0,5-5V216Z" transform="translate(-8.781 -189.661)" fill="#feda9b"/>
      <path id="Trazado_919068" data-name="Trazado 919068" d="M44.055,356.634l17.679-16.06a12.143,12.143,0,0,1,16.33,0l17.679,16.06Z" transform="translate(-38.683 -296.274)" fill="#ffb954"/>
      <g id="Grupo_1114378" data-name="Grupo 1114378" transform="translate(16.954 9.097)">
        <path id="Trazado_919069" data-name="Trazado 919069" d="M317.346,81.367a3.964,3.964,0,0,0-5.605-5.605Z" transform="translate(-290.682 -74.6)" fill="#ff5d5d"/>
        <path id="Trazado_919070" data-name="Trazado 919070" d="M152.782,197.725l-4.59,4.59a5.361,5.361,0,0,1-7.581,0h0a5.361,5.361,0,0,1,0-7.581l4.59-4.59Z" transform="translate(-139.04 -176.055)" fill="#ff5d5d"/>
      </g>
      <path id="Trazado_919071" data-name="Trazado 919071" d="M228.238,252.336l5.372,5.372-3.262,3.262-5.374-5.374Z" transform="translate(-197.541 -221.566)" fill="#6a80ff"/>
      <path id="Trazado_919072" data-name="Trazado 919072" d="M197.142,57.188,189.559,49.6l8.31-19.517L216.652,48.87Z" transform="translate(-166.444 -26.418)" fill="#4dbaf6"/>
      <path id="Trazado_919073" data-name="Trazado 919073" d="M256.127,51l5.007-2.135L242.351,30.087,240.218,35.1Z" transform="translate(-210.926 -26.418)" fill="#fff"/>
      <path id="Trazado_919074" data-name="Trazado 919074" d="M188.357,56.357a1.219,1.219,0,1,0,.862-.357A1.229,1.229,0,0,0,188.357,56.357Z" transform="translate(-165.076 -49.171)"/>
      <path id="Trazado_919075" data-name="Trazado 919075" d="M112.094,58.439h4.9a1.219,1.219,0,1,0,0-2.439h-4.9a1.219,1.219,0,0,0,0,2.439Z" transform="translate(-97.355 -49.171)"/>
      <path id="Trazado_919076" data-name="Trazado 919076" d="M112.094,114.439h5.877a1.219,1.219,0,1,0,0-2.439h-5.877a1.219,1.219,0,0,0,0,2.439Z" transform="translate(-97.355 -98.343)"/>
      <path id="Trazado_919077" data-name="Trazado 919077" d="M61.962,25.378h0l-8.048-6.267L53.9,19.1V17.8a1.219,1.219,0,1,0-2.439,0V34.346c0,.007,0,.015,0,.022l-10.09,10.09L40.2,43.4a13.332,13.332,0,0,0-6.435-3.227L36.932,37a1.22,1.22,0,0,0,0-1.725l-4.1-4.1,17.85-7.61a1.219,1.219,0,0,0,.384-1.984l-5.829-5.829a5.185,5.185,0,0,0-7.126-7.126L32.287,2.806a1.219,1.219,0,0,0-1.984.384l-8.218,19.3-4.423,4.423a6.58,6.58,0,1,0,9.306,9.306l.465-.465,4.177,4.177c-.131,0-.262-.006-.394-.006A13.335,13.335,0,0,0,22.231,43.4l-1.168,1.061-10.09-10.09c0-.007,0-.015,0-.022V2.439H24.63A1.219,1.219,0,0,0,24.63,0H9.755A1.219,1.219,0,0,0,8.536,1.219V18.9l-.032.023L.456,25.388h0a1.216,1.216,0,0,0-.456.95V56.214a6.226,6.226,0,0,0,6.219,6.219H56.214a6.226,6.226,0,0,0,6.219-6.219V26.339A1.216,1.216,0,0,0,61.962,25.378ZM29.706,10.817,43.062,24.172,30.978,29.325l-6.418-6.418Zm11.11-.5a2.74,2.74,0,0,1,2.6,3.619l-3.475-3.475A2.745,2.745,0,0,1,40.816,10.316ZM31.839,5.808l5.31,5.31v0h0l5.6,5.6h0l5.312,5.312-2.589,1.1L30.736,8.4Zm-9.524,29.9a4.141,4.141,0,0,1-2.928-7.07l3.728-3.728,5.857,5.857-3.728,3.727A4.114,4.114,0,0,1,22.315,35.708Zm8.38-3.216,3.65,3.65L32.807,37.68l-3.65-3.65ZM53.9,22.187l5.478,4.266L53.9,31.931ZM23.871,45.2a10.882,10.882,0,0,1,14.69,0L54.844,59.994H7.588l4.027-3.658h8.951a1.219,1.219,0,1,0,0-2.439H14.3ZM8.536,22.027v9.9L3.043,26.438Zm-6.1,34.186V29.283L19.256,46.1,4.552,59.457a1.247,1.247,0,0,0-.1.1A3.783,3.783,0,0,1,2.439,56.214Zm55.538,3.342a1.226,1.226,0,0,0-.1-.1L43.177,46.1,59.994,29.283V56.214A3.783,3.783,0,0,1,57.977,59.556Z" transform="translate(0)"/>
      <path id="Trazado_919078" data-name="Trazado 919078" d="M383.22,7.761a1.216,1.216,0,0,0,.862-.357l4.926-4.926A1.219,1.219,0,0,0,387.283.753l-4.926,4.926a1.219,1.219,0,0,0,.862,2.082Z" transform="translate(-335.42 -0.348)"/>
      <path id="Trazado_919079" data-name="Trazado 919079" d="M345.631,4.888a1.219,1.219,0,0,0,1.219-1.219V1.219a1.219,1.219,0,0,0-2.439,0V3.669A1.219,1.219,0,0,0,345.631,4.888Z" transform="translate(-302.415)"/>
      <path id="Trazado_919080" data-name="Trazado 919080" d="M405.68,77.521h-2.531a1.219,1.219,0,1,0,0,2.439h2.531a1.219,1.219,0,1,0,0-2.439Z" transform="translate(-352.918 -68.068)"/>
      <path id="Trazado_919081" data-name="Trazado 919081" d="M200.879,444.439a1.218,1.218,0,1,0-.863-.357A1.23,1.23,0,0,0,200.879,444.439Z" transform="translate(-175.314 -388.103)"/>
    </g>
  </g>
</svg>
