<svg xmlns="http://www.w3.org/2000/svg" width="100" height="100" viewBox="0 0 100 100">
  <g id="Grupo_1113349" data-name="Grupo 1113349" transform="translate(0.242)">
    <g id="Grupo_1098742" data-name="Grupo 1098742" transform="translate(0)">
      <rect id="Rectángulo_400898" data-name="Rectángulo 400898" width="100" height="100" rx="50" transform="translate(-0.242)" fill="#fff" opacity="0.859"/>
      <g id="Rectángulo_400907" data-name="Rectángulo 400907" transform="translate(-0.242)" fill="none" stroke="#fe9ab8" stroke-linecap="round" stroke-width="3" stroke-dasharray="0 7">
        <rect width="100" height="100" rx="50" stroke="none"/>
        <rect x="1.5" y="1.5" width="97" height="97" rx="48.5" fill="none"/>
      </g>
    </g>
    <g id="Grupo_1107006" data-name="Grupo 1107006" transform="translate(8.156 8.156)">
      <rect id="Rectángulo_400898-2" data-name="Rectángulo 400898" width="84" height="84" rx="42" transform="translate(-0.399 -0.157)" fill="#ffebf1" opacity="0.859"/>
      <rect id="Rectángulo_400907-2" data-name="Rectángulo 400907" width="84" height="84" rx="42" transform="translate(-0.398 -0.157)" fill="none"/>
    </g>
    <g id="Grupo_1114088" data-name="Grupo 1114088" transform="translate(23.077 19.84)">
      <g id="Grupo_1114086" data-name="Grupo 1114086" transform="translate(0 5)">
        <path id="Trazado_917455" data-name="Trazado 917455" d="M50.235,5H3.127A3.13,3.13,0,0,0,0,8.127V43.562a3.13,3.13,0,0,0,3.127,3.127H15.245a1.042,1.042,0,1,0,0-2.084H3.127a1.043,1.043,0,0,1-1.042-1.042V15.422H13.549a5.22,5.22,0,0,0,5.106-4.169H51.277V43.562A1.043,1.043,0,0,1,50.235,44.6H38.117a1.042,1.042,0,0,0,0,2.084H50.235a3.13,3.13,0,0,0,3.127-3.127V8.127A3.13,3.13,0,0,0,50.235,5ZM17.718,9.169a1.042,1.042,0,0,0-1.042,1.042,3.13,3.13,0,0,1-3.127,3.127H2.084V8.127A1.043,1.043,0,0,1,3.127,7.084H50.235a1.043,1.043,0,0,1,1.042,1.042V9.169Z" transform="translate(0 -5)" fill="#020288"/>
        <path id="Trazado_917456" data-name="Trazado 917456" d="M121.042,45a1.042,1.042,0,1,0,1.042,1.042A1.042,1.042,0,0,0,121.042,45Z" transform="translate(-107.493 -40.831)" fill="#020288"/>
        <path id="Trazado_917457" data-name="Trazado 917457" d="M81.041,45a1.042,1.042,0,1,0,1.042,1.042A1.042,1.042,0,0,0,81.041,45Z" transform="translate(-71.661 -40.831)" fill="#020288"/>
        <path id="Trazado_917458" data-name="Trazado 917458" d="M41.04,45a1.042,1.042,0,1,0,1.042,1.042A1.042,1.042,0,0,0,41.04,45Z" transform="translate(-35.828 -40.831)" fill="#020288"/>
        <path id="Trazado_917459" data-name="Trazado 917459" d="M81.095,119.83h25.27a3.655,3.655,0,0,0,6.992,0H115.7a1.042,1.042,0,1,0,0-2.084h-2.341a3.655,3.655,0,0,0-6.992,0H81.095A1.042,1.042,0,0,0,81.095,119.83Zm28.766-2.606a1.563,1.563,0,1,1-1.563,1.563A1.565,1.565,0,0,1,109.86,117.224Z" transform="translate(-71.715 -103.676)" fill="#020288"/>
        <path id="Trazado_917460" data-name="Trazado 917460" d="M81.094,189.83h2.341a3.655,3.655,0,0,0,6.992,0H115.7a1.042,1.042,0,0,0,0-2.084H90.427a3.655,3.655,0,0,0-6.992,0H81.094A1.042,1.042,0,0,0,81.094,189.83Zm5.837-2.606a1.563,1.563,0,1,1-1.563,1.563A1.565,1.565,0,0,1,86.931,187.224Z" transform="translate(-71.715 -166.38)" fill="#020288"/>
      </g>
      <path id="Trazado_917461" data-name="Trazado 917461" d="M148.508,292.73a12.531,12.531,0,0,0,12.507-12.507c-.64-16.567-24.376-16.562-25.013,0A12.531,12.531,0,0,0,148.508,292.73Z" transform="translate(-121.827 -235.411)" fill="#ffbebc" fill-rule="evenodd"/>
      <g id="Grupo_1114087" data-name="Grupo 1114087" transform="translate(17.065 35.433)">
        <path id="Trazado_917462" data-name="Trazado 917462" d="M182.915,305.466l-1.288-3.965a1.042,1.042,0,0,0-1.251-.687l-1.812.466a7.326,7.326,0,0,0-1.973-1.435l-.117-1.866a1.042,1.042,0,0,0-1.04-.977h-4.169a1.042,1.042,0,0,0-1.04.977l-.117,1.866a7.323,7.323,0,0,0-1.973,1.435l-1.812-.466a1.042,1.042,0,0,0-1.251.687l-1.288,3.965a1.042,1.042,0,0,0,.608,1.291l1.739.688a7.29,7.29,0,0,0,.754,2.321l-1,1.578a1.042,1.042,0,0,0,.267,1.4l3.373,2.45a1.042,1.042,0,0,0,1.416-.179l1.191-1.441a7.357,7.357,0,0,0,2.44,0l1.191,1.441a1.042,1.042,0,0,0,1.416.179l3.373-2.45a1.042,1.042,0,0,0,.267-1.4l-1-1.578a7.288,7.288,0,0,0,.754-2.32l1.739-.688A1.042,1.042,0,0,0,182.915,305.466Zm-3.7.274a1.042,1.042,0,0,0-.658.915,5.2,5.2,0,0,1-.833,2.565,1.042,1.042,0,0,0-.006,1.127l.818,1.287-1.788,1.3-.971-1.175a1.044,1.044,0,0,0-1.073-.343,5.267,5.267,0,0,1-2.7,0,1.041,1.041,0,0,0-1.073.343l-.971,1.175-1.788-1.3.818-1.287a1.042,1.042,0,0,0-.006-1.127,5.2,5.2,0,0,1-.833-2.565,1.042,1.042,0,0,0-.658-.915l-1.418-.561.683-2.1,1.478.38a1.042,1.042,0,0,0,1.069-.353,5.228,5.228,0,0,1,2.183-1.588,1.042,1.042,0,0,0,.667-.908l.1-1.521h2.211l.1,1.521a1.042,1.042,0,0,0,.667.908A5.228,5.228,0,0,1,177.4,303.1a1.042,1.042,0,0,0,1.069.353l1.478-.38.683,2.1Z" transform="translate(-163.734 -297.002)" fill="#020288"/>
        <path id="Trazado_917463" data-name="Trazado 917463" d="M229.128,357a3.127,3.127,0,1,0,3.127,3.127A3.13,3.13,0,0,0,229.128,357Zm0,4.169a1.042,1.042,0,1,1,1.042-1.042A1.043,1.043,0,0,1,229.128,361.171Z" transform="translate(-219.512 -350.749)" fill="#020288"/>
      </g>
    </g>
  </g>
</svg>
