<svg xmlns="http://www.w3.org/2000/svg" width="72.204" height="72.183" viewBox="0 0 72.204 72.183">
  <g id="Grupo_1113870" data-name="Grupo 1113870" transform="translate(-1 -1.017)">
    <path id="Trazado_916817" data-name="Trazado 916817" d="M57.735,47.28a13.975,13.975,0,0,0-8.227-20.045,13.941,13.941,0,0,0-18.375-8.981,13.914,13.914,0,0,0-8.973-3.267c-.382,0-.762.015-1.137.045a13.921,13.921,0,0,1,15.461-3.766,13.966,13.966,0,0,1,22.857,9.158,13.975,13.975,0,0,1-1.6,26.855Z" transform="translate(3.295 1.149)" fill="#78a0d4"/>
    <path id="Trazado_916818" data-name="Trazado 916818" d="M48.583,53.6a13.975,13.975,0,0,0,4.056-27.348,13.941,13.941,0,0,0-18.375-8.981,13.966,13.966,0,0,0-22.857,9.158A13.968,13.968,0,0,0,15.975,53.6Z" transform="translate(0.164 2.136)" fill="#c0dafc"/>
    <path id="Trazado_916819" data-name="Trazado 916819" d="M43.3,32.317H40.975V31.152a5.823,5.823,0,0,0-11.646,0v1.165H27V31.152a8.152,8.152,0,0,1,16.3,0Z" transform="translate(4.279 3.618)" fill="#f2f2f2"/>
    <path id="Trazado_916820" data-name="Trazado 916820" d="M51.6,44.152V66.279H12V36H25.975l8.152,8.152Z" transform="translate(1.81 5.757)" fill="#f4a93c"/>
    <path id="Trazado_916821" data-name="Trazado 916821" d="M44.608,60.456v-16.3H34.127L25.975,36H12V62.785H42.279A2.329,2.329,0,0,0,44.608,60.456Z" transform="translate(1.81 5.757)" fill="#f6b940"/>
    <path id="Trazado_916822" data-name="Trazado 916822" d="M46.8,43.658V39H27l4.658,4.658Z" transform="translate(4.279 6.251)" fill="#f2f2f2"/>
    <path id="Trazado_916823" data-name="Trazado 916823" d="M18,47H43.621v4.658H18Z" transform="translate(2.798 7.568)" fill="#f9d266"/>
    <path id="Trazado_916824" data-name="Trazado 916824" d="M41.291,48.165V47H18v2.329H40.127A1.165,1.165,0,0,0,41.291,48.165Z" transform="translate(2.798 7.568)" fill="#fce797"/>
    <path id="Trazado_916825" data-name="Trazado 916825" d="M14.81,32.279l2.9-2.369A27.033,27.033,0,0,0,27.621,8.987a14.92,14.92,0,0,1-11.46-5.367L14.81,2l-1.35,1.62A14.921,14.921,0,0,1,2,8.987,27.033,27.033,0,0,0,11.915,29.91Z" transform="translate(0.165 0.162)" fill="#559b2d"/>
    <path id="Trazado_916826" data-name="Trazado 916826" d="M7,16.987l4.658,4.658,9.317-9.317L18.646,10l-6.987,6.987L9.329,14.658Z" transform="translate(0.987 1.478)" fill="#f2f2f2"/>
    <circle id="Elipse_13911" data-name="Elipse 13911" cx="2.329" cy="2.329" r="2.329" transform="translate(37.102 25.453)" fill="#b52f28"/>
    <circle id="Elipse_13912" data-name="Elipse 13912" cx="2.329" cy="2.329" r="2.329" transform="translate(30.114 34.77)" fill="#d23f34"/>
    <circle id="Elipse_13913" data-name="Elipse 13913" cx="2.329" cy="2.329" r="2.329" transform="translate(44.089 34.77)" fill="#d23f34"/>
    <path id="Trazado_916827" data-name="Trazado 916827" d="M17,47.165v4.658a1.165,1.165,0,0,0,1.165,1.165H43.785a1.165,1.165,0,0,0,1.165-1.165V47.165A1.165,1.165,0,0,0,43.785,46H18.165A1.165,1.165,0,0,0,17,47.165Zm2.329,1.165H42.621v2.329H19.329Z" transform="translate(2.633 7.403)"/>
    <path id="Trazado_916828" data-name="Trazado 916828" d="M73.2,34.77a15.146,15.146,0,0,0-9.511-14.044A15.13,15.13,0,0,0,39.554,11.1a15.145,15.145,0,0,0-10.714.447c.068-.794.116-1.593.116-2.4a1.165,1.165,0,0,0-1.165-1.165A13.718,13.718,0,0,1,17.226,3.036l-1.357-1.62a1.2,1.2,0,0,0-1.789,0l-1.35,1.619A13.714,13.714,0,0,1,2.165,7.985,1.165,1.165,0,0,0,1,9.149,28.073,28.073,0,0,0,8.755,28.564,15.117,15.117,0,0,0,12.646,56.48V72.036A1.165,1.165,0,0,0,13.81,73.2h39.6a1.165,1.165,0,0,0,1.165-1.165V55.725a15.132,15.132,0,0,0,7.22-6.289A15.213,15.213,0,0,0,73.2,34.77ZM14.52,4.526l.455-.545.455.546A16.035,16.035,0,0,0,26.6,10.271a25.758,25.758,0,0,1-9.463,18.9l-2.158,1.767-2.158-1.767a25.758,25.758,0,0,1-9.463-18.9A16.033,16.033,0,0,0,14.52,4.526ZM52.241,70.872H14.975V42.922H27.3l7.811,7.811a1.165,1.165,0,0,0,.823.341h16.3ZM49.912,48.745H36.419L34.09,46.416H49.912Zm4.658,4.418V49.909a1.165,1.165,0,0,0-1.165-1.165H52.241V45.251a1.165,1.165,0,0,0-1.165-1.165H31.761l-3.153-3.153a1.165,1.165,0,0,0-.823-.341H13.81a1.165,1.165,0,0,0-1.165,1.165V54.078a12.794,12.794,0,0,1-2.124-23.814c.271.233.539.48.815.709l2.9,2.369a1.165,1.165,0,0,0,1.474,0l2.9-2.369a28.106,28.106,0,0,0,9.077-13.479,12.751,12.751,0,0,1,6,2.8,1.165,1.165,0,0,0,1.165.2,12.774,12.774,0,0,1,16.842,8.232,1.165,1.165,0,0,0,.777.777A12.81,12.81,0,0,1,54.57,53.163ZM63.1,46.54a15.114,15.114,0,0,0-9.377-19.079,15.1,15.1,0,0,0-19.078-9.372,15.03,15.03,0,0,0-6.363-2.845c.068-.305.123-.613.181-.92a12.83,12.83,0,0,1,10.891-.815,1.165,1.165,0,0,0,1.165-.194,12.8,12.8,0,0,1,20.952,8.392,1.165,1.165,0,0,0,.777.974A12.8,12.8,0,0,1,63.1,46.545Z"/>
    <path id="Trazado_916829" data-name="Trazado 916829" d="M11.823,22.975a1.164,1.164,0,0,0,.823-.341l9.317-9.317a1.165,1.165,0,0,0,0-1.647L19.634,9.341a1.165,1.165,0,0,0-1.647,0l-6.164,6.164L10.317,14A1.165,1.165,0,0,0,8.67,14L6.341,16.329a1.165,1.165,0,0,0,0,1.647L11,22.634a1.165,1.165,0,0,0,.823.341ZM9.494,16.47,11,17.975a1.165,1.165,0,0,0,1.647,0l6.164-6.164.682.682-7.67,7.67L8.811,17.152Z" transform="translate(0.823 1.314)"/>
    <path id="Trazado_916830" data-name="Trazado 916830" d="M43.553,30.508a8.132,8.132,0,0,0-4.619-6.387,3.474,3.474,0,0,0-6.913,0A8.132,8.132,0,0,0,27.4,30.508a3.483,3.483,0,1,0,2.329.047,5.823,5.823,0,0,1,2.85-4.113,3.494,3.494,0,0,0,5.8,0,5.823,5.823,0,0,1,2.847,4.109,3.5,3.5,0,1,0,2.329-.047ZM28.491,34.976a1.165,1.165,0,1,1,1.165-1.165A1.165,1.165,0,0,1,28.491,34.976Zm6.987-9.317a1.165,1.165,0,1,1,1.165-1.165A1.165,1.165,0,0,1,35.478,25.659Zm6.987,9.317a1.165,1.165,0,1,1,1.165-1.165A1.165,1.165,0,0,1,42.466,34.976Z" transform="translate(3.953 3.288)"/>
  </g>
</svg>
