<svg xmlns="http://www.w3.org/2000/svg" width="120" height="120" viewBox="0 0 120 120">
  <g id="Grupo_1113304" data-name="Grupo 1113304" transform="translate(-1236.5 -460)">
    <g id="Elipse_12108" data-name="Elipse 12108" transform="translate(1241.5 465)" fill="#fe9ab8" stroke="rgba(255,255,255,0.4)" stroke-width="5">
      <circle cx="55" cy="55" r="55" stroke="none"/>
      <circle cx="55" cy="55" r="57.5" fill="none"/>
    </g>
    <g id="Grupo_1113919" data-name="Grupo 1113919" transform="translate(1258.339 481.839)">
      <path id="Trazado_916903" data-name="Trazado 916903" d="M373.379,379.7l-14.968-14.968a.894.894,0,0,1,0-1.265l5.06-5.06a.894.894,0,0,1,1.265,0L379.7,373.379a.894.894,0,0,1,0,1.265l-5.06,5.06A.894.894,0,0,1,373.379,379.7Z" transform="translate(-304.761 -304.761)" fill="#f78e36"/>
      <path id="Trazado_916904" data-name="Trazado 916904" d="M375.8,358.412l-3.162,3.162a.894.894,0,0,1,1.265,0l14.968,14.968a.894.894,0,0,1,0,1.265l3.162-3.162a.894.894,0,0,0,0-1.265l-14.968-14.968A.894.894,0,0,0,375.8,358.412Z" transform="translate(-317.087 -304.761)" fill="#f86f1b"/>
      <path id="Trazado_916905" data-name="Trazado 916905" d="M0,0H4.472V9.747H0Z" transform="translate(47.696 50.869) rotate(-45)" fill="#4380a0"/>
      <path id="Trazado_916906" data-name="Trazado 916906" d="M0,0H8.944V4.472H0Z" transform="translate(56.431 62.768) rotate(-45)" fill="#7be492"/>
      <path id="Trazado_916907" data-name="Trazado 916907" d="M0,0H4.472V4.472H0Z" transform="translate(59.593 59.606) rotate(-45)" fill="#45d987"/>
      <ellipse id="Elipse_13925" data-name="Elipse 13925" cx="29.068" cy="29.068" rx="29.068" ry="29.068" transform="translate(1.118 1.118)" fill="#43809f"/>
      <path id="Trazado_916908" data-name="Trazado 916908" d="M189.736,7.5q-1.129,0-2.236.085a29.07,29.07,0,0,1,0,57.967q1.107.084,2.236.085a29.068,29.068,0,0,0,0-58.136Z" transform="translate(-159.55 -6.382)" fill="#3a7190"/>
      <ellipse id="Elipse_13926" data-name="Elipse 13926" cx="24.596" cy="24.596" rx="24.596" ry="24.596" transform="translate(5.59 5.59)" fill="#f3f3f3"/>
      <path id="Trazado_916909" data-name="Trazado 916909" d="M189.736,37.5c-.754,0-1.5.036-2.236.1a24.6,24.6,0,0,1,0,48.987c.737.067,1.482.1,2.236.1a24.6,24.6,0,1,0,0-49.192Z" transform="translate(-159.55 -31.91)" fill="#e4e4e4"/>
      <g id="Grupo_1113911" data-name="Grupo 1113911" transform="translate(17.143 11.329)">
        <path id="Trazado_916910" data-name="Trazado 916910" d="M123.944,127.714H115V114.6a.6.6,0,0,1,.6-.6h7.752a.6.6,0,0,1,.6.6Z" transform="translate(-115 -108.335)" fill="#29cef6"/>
        <path id="Trazado_916911" data-name="Trazado 916911" d="M145,114v13.714h4.472V114.6a.6.6,0,0,0-.6-.6Z" transform="translate(-140.528 -108.335)" fill="#22b5ed"/>
        <path id="Trazado_916912" data-name="Trazado 916912" d="M243.944,160.05H235V152.6a.6.6,0,0,1,.6-.6h7.752a.6.6,0,0,1,.6.6Z" transform="translate(-217.112 -140.671)" fill="#7be492"/>
        <path id="Trazado_916913" data-name="Trazado 916913" d="M265,152v8.05h4.472V152.6a.6.6,0,0,0-.6-.6Z" transform="translate(-242.64 -140.671)" fill="#45d987"/>
        <path id="Trazado_916914" data-name="Trazado 916914" d="M183.944,95.379H175V76.6a.6.6,0,0,1,.6-.6h7.752a.6.6,0,0,1,.6.6Z" transform="translate(-166.056 -76)" fill="#f78e36"/>
        <path id="Trazado_916915" data-name="Trazado 916915" d="M205,76V95.379h4.472V76.6a.6.6,0,0,0-.6-.6Z" transform="translate(-191.584 -76)" fill="#f86f1b"/>
      </g>
      <g id="Grupo_1113912" data-name="Grupo 1113912" transform="translate(0)">
        <path id="Trazado_916916" data-name="Trazado 916916" d="M75.733,67.828l-1.089-1.089a1.118,1.118,0,1,0-1.581,1.581l.931.931-4.743,4.743L61.187,65.93l4.743-4.743,3.762,3.762a1.118,1.118,0,1,0,1.581-1.581l-4.55-4.55,0,0-3.162-3.162,0,0L60.765,52.86a2.012,2.012,0,0,0-2.846,0l-.158.158-4-4a30.088,30.088,0,0,0,5.927-12.432h7.877a1.118,1.118,0,1,0,0-2.236H60.084q.148-1.067.22-2.156h12.59a1.118,1.118,0,0,0,0-2.236H60.37q-.008-1.085-.09-2.156h7.285a1.118,1.118,0,0,0,0-2.236H60.024a29.821,29.821,0,0,0-6.157-14.1,1.118,1.118,0,0,0-1.753,1.388,27.659,27.659,0,0,1,6.022,17.334A27.95,27.95,0,1,1,48.979,9.5a1.118,1.118,0,1,0,1.5-1.655,30.187,30.187,0,1,0-26,51.988v7.543a1.118,1.118,0,1,0,2.236,0v-7.2q1.067.123,2.156.17V72.63a1.118,1.118,0,1,0,2.236,0V60.357q1.088-.033,2.156-.141v7.156a1.118,1.118,0,1,0,2.236,0V59.9a30.068,30.068,0,0,0,13.514-6.143l4,4-.158.158a2.012,2.012,0,0,0,0,2.846l2.792,2.792,0,0,3.162,3.162,0,0,9.01,9.01a2.012,2.012,0,0,0,2.846,0l5.059-5.059a2.012,2.012,0,0,0,0-2.846ZM52.3,50.714,56.18,54.6,54.6,56.18,50.714,52.3q.82-.761,1.582-1.582Zm7.31,13.635-1.581-1.581,4.743-4.743,1.581,1.581Zm-.264-9.75,1.845,1.845-4.743,4.743L54.6,59.342Z" transform="translate(0 0)"/>
        <path id="Trazado_916917" data-name="Trazado 916917" d="M40.137,76.18a26.225,26.225,0,0,0,15.569,5.248,25.714,25.714,0,1,0,0-51.428,25.411,25.411,0,0,0-18.122,7.541A25.979,25.979,0,0,0,29.992,55.7a25.132,25.132,0,0,0,6.469,17.114,1.118,1.118,0,1,0,1.663-1.5,22.9,22.9,0,0,1-5.9-15.595,23.753,23.753,0,0,1,6.94-16.607,23.189,23.189,0,0,1,16.538-6.884,23.478,23.478,0,0,1,.013,46.956,24,24,0,0,1-14.239-4.8,1.118,1.118,0,0,0-1.343,1.787Z" transform="translate(-25.52 -25.528)"/>
        <path id="Trazado_916918" data-name="Trazado 916918" d="M110.986,68.5h-7.752a1.716,1.716,0,0,0-1.714,1.714v3.95h-7.23a1.716,1.716,0,0,0-1.714,1.714v12h-1.5a1.118,1.118,0,1,0,0,2.236h32.061a1.118,1.118,0,1,0,0-2.236h-1.5V81.543a1.716,1.716,0,0,0-1.714-1.714H112.7V70.214A1.716,1.716,0,0,0,110.986,68.5ZM94.812,76.4h6.708V87.879H94.812Zm8.944-5.665h6.708V87.879h-6.708Zm15.652,11.329v5.814H112.7V82.065Z" transform="translate(-76.552 -58.289)"/>
        <path id="Trazado_916919" data-name="Trazado 916919" d="M141.231,238.1h-5.263l-2.391-6.112a1.118,1.118,0,0,0-2.089.019l-3.268,8.811-2.284-6.473a1.118,1.118,0,0,0-2.031-.173l-2.193,3.928h-5.25a1.118,1.118,0,1,0,0,2.236h5.906a1.118,1.118,0,0,0,.976-.573l1.306-2.34,2.488,7.052a1.118,1.118,0,0,0,1.045.746h.009a1.118,1.118,0,0,0,1.048-.729l3.322-8.957,1.6,4.09a1.118,1.118,0,0,0,1.041.711h6.027a1.118,1.118,0,1,0,0-2.236Z" transform="translate(-98.15 -196.805)"/>
      </g>
    </g>
  </g>
</svg>
