<svg xmlns="http://www.w3.org/2000/svg" width="376" height="187" viewBox="0 0 376 187">
  <g id="Grupo_1114018" data-name="Grupo 1114018" transform="translate(-914.711 -4147)">
    <rect id="Rectángulo_411486" data-name="Rectángulo 411486" width="376" height="187" rx="10" transform="translate(914.711 4147)" fill="#fe9ab8"/>
    <g id="_248801920_79d1f750-4d39-419b-b110-dec6d3721d69" data-name="248801920_79d1f750-4d39-419b-b110-dec6d3721d69" transform="translate(753.287 3912.97)">
      <path id="Trazado_917034" data-name="Trazado 917034" d="M485.846,594.7a15.039,15.039,0,0,1-15.04,15.04H225.449a12.025,12.025,0,1,1,0-24.051H274.4a2.887,2.887,0,0,0,0-5.774H237.362a7.146,7.146,0,1,1,0-14.292h30.218a16.635,16.635,0,1,0,0-33.269H236.3a7.791,7.791,0,1,1,0-15.582h60.095a7.791,7.791,0,0,0,0-15.582h-16.87a4.981,4.981,0,0,1,0-9.962H315.25a7.821,7.821,0,1,1,0-15.641h64.412a7.821,7.821,0,1,1,0,15.641H374.15a2.881,2.881,0,1,0,0,5.762h51.342a10.67,10.67,0,0,1,0,21.34H411.539a4.624,4.624,0,0,0-2.43.686,4.682,4.682,0,0,0-.854.674,4.642,4.642,0,0,0,3.283,7.925H454.7a3.921,3.921,0,0,1,0,7.842H424.063a8.452,8.452,0,1,0,0,16.9h32.611a9.1,9.1,0,0,1,0,18.2h-20.7a4.55,4.55,0,1,0,0,9.1h34.833A15.039,15.039,0,0,1,485.846,594.7Z" transform="translate(0 -197.97)" fill="#e8edfc" opacity="0.75"/>
      <path id="Trazado_917048" data-name="Trazado 917048" d="M491.237,2038.06c-38.942.008-137.419.008-176.353,0H219.932" transform="translate(-5.949 -1626.296)" fill="none" stroke="#428dff" stroke-linecap="round" stroke-linejoin="round" stroke-miterlimit="10" stroke-width="1.5"/>
      <path id="Trazado_917049" data-name="Trazado 917049" d="M2077.524,2133.29H2034.28" transform="translate(-1664.531 -1713.351)" fill="none" stroke="#428dff" stroke-linecap="round" stroke-linejoin="round" stroke-miterlimit="10" stroke-width="1.5"/>
      <path id="Trazado_917050" data-name="Trazado 917050" d="M2626.13,2133.262c2.154,0,4.341,0,6.484,0" transform="translate(-2205.57 -1713.323)" fill="none" stroke="#428dff" stroke-linecap="round" stroke-linejoin="round" stroke-miterlimit="10" stroke-width="1.5"/>
      <line id="Línea_44246" data-name="Línea 44246" x2="18.674" transform="translate(430.938 419.937)" fill="none" stroke="#428dff" stroke-linecap="round" stroke-linejoin="round" stroke-miterlimit="10" stroke-width="1.5"/>
      <path id="Trazado_917051" data-name="Trazado 917051" d="M634.45,593.375a100.065,100.065,0,0,1,200.13,0" transform="translate(-384.88 -214.166)" fill="none" stroke="#428dff" stroke-linecap="round" stroke-linejoin="round" stroke-miterlimit="10" stroke-width="1.5" stroke-dasharray="50.584"/>
      <circle id="Elipse_13931" data-name="Elipse 13931" cx="20.114" cy="20.114" r="20.114" transform="translate(258.765 288.338)" fill="#e8edfc"/>
      <circle id="Elipse_13932" data-name="Elipse 13932" cx="20.114" cy="20.114" r="20.114" transform="translate(329.521 259.03)" fill="#e8edfc"/>
      <circle id="Elipse_13933" data-name="Elipse 13933" cx="20.114" cy="20.114" r="20.114" transform="translate(221.124 379.208) rotate(-45)" fill="#e8edfc"/>
      <circle id="Elipse_13934" data-name="Elipse 13934" cx="20.114" cy="20.114" r="20.114" transform="translate(421.253 379.209) rotate(-45)" fill="#e8edfc"/>
      <circle id="Elipse_13935" data-name="Elipse 13935" cx="20.114" cy="20.114" r="20.114" transform="translate(329.521 259.03)" fill="none" stroke="#428dff" stroke-linecap="round" stroke-linejoin="round" stroke-miterlimit="10" stroke-width="1.5"/>
      <circle id="Elipse_13936" data-name="Elipse 13936" cx="20.114" cy="20.114" r="20.114" transform="translate(258.765 288.338)" fill="none" stroke="#428dff" stroke-linecap="round" stroke-linejoin="round" stroke-miterlimit="10" stroke-width="1.5"/>
      <circle id="Elipse_13937" data-name="Elipse 13937" cx="20.114" cy="20.114" r="20.114" transform="translate(221.124 379.208) rotate(-45)" fill="none" stroke="#428dff" stroke-linecap="round" stroke-linejoin="round" stroke-miterlimit="10" stroke-width="1.5"/>
      <circle id="Elipse_13938" data-name="Elipse 13938" cx="20.114" cy="20.114" r="20.114" transform="translate(421.253 379.209) rotate(-45)" fill="none" stroke="#428dff" stroke-linecap="round" stroke-linejoin="round" stroke-miterlimit="10" stroke-width="1.5"/>
      <circle id="Elipse_13939" data-name="Elipse 13939" cx="20.114" cy="20.114" r="20.114" transform="translate(400.278 288.338)" fill="#e8edfc"/>
      <circle id="Elipse_13940" data-name="Elipse 13940" cx="20.114" cy="20.114" r="20.114" transform="translate(400.278 288.338)" fill="none" stroke="#428dff" stroke-linecap="round" stroke-linejoin="round" stroke-miterlimit="10" stroke-width="1.5"/>
      <g id="Grupo_1113987" data-name="Grupo 1113987" transform="translate(409.075 297.111)">
        <path id="Trazado_917052" data-name="Trazado 917052" d="M2500.366,719.9a8.5,8.5,0,0,1-4.868-1.913q-.332-.273-.64-.58-.287-.287-.543-.6a7.4,7.4,0,1,1,6.05,3.089Z" transform="translate(-2492.348 -702.776)" fill="#e8edfc"/>
        <path id="Trazado_917053" data-name="Trazado 917053" d="M2586.281,734.289q-.28,0-.555-.022a7.063,7.063,0,0,0,0-14.083q.275-.022.555-.022a7.063,7.063,0,1,1,0,14.126Z" transform="translate(-2577.709 -718.654)" fill="#cad9fc"/>
        <path id="Trazado_917054" data-name="Trazado 917054" d="M2586.281,719.732c-.186,0-.371-.006-.554-.018a8.572,8.572,0,0,0,0-17.108q.276-.018.555-.018a8.572,8.572,0,0,1,0,17.143Z" transform="translate(-2577.709 -702.589)" fill="#a4c3fd"/>
        <path id="Trazado_917055" data-name="Trazado 917055" d="M2516.431,734.5a7.063,7.063,0,1,1,6.508-7.042A7.073,7.073,0,0,1,2516.431,734.5Z" transform="translate(-2508.415 -718.884)" fill="#e8edfc"/>
        <path id="Trazado_917056" data-name="Trazado 917056" d="M2656.775,875.694l1.179-1.179-.549-.549-.631.63-.853-.853q-.279.274-.578.519Z" transform="translate(-2641.35 -859.049)" fill="#a4c2f7"/>
        <path id="Trazado_917057" data-name="Trazado 917057" d="M2662.931,867.6l.631-.63-.88-.88q-.255.309-.543.6l-.062.061Z" transform="translate(-2647.506 -852.053)" fill="#e8edfc"/>
        <path id="Trazado_917058" data-name="Trazado 917058" d="M2669.534,885.388l2.345-2.345-.245-.222-.63.63-.743-.828a.616.616,0,0,1-.129-.226l-1.208,1.208-.111.11a.614.614,0,0,0-.023.844Z" transform="translate(-2653.5 -866.961)" fill="#c6d8fb"/>
        <path id="Trazado_917059" data-name="Trazado 917059" d="M2686.955,880.7l.63-.63-.577-.523a.614.614,0,0,0-.846.02l-.079.079a.611.611,0,0,0,.129.226Z" transform="translate(-2669.451 -864.208)" fill="#fff"/>
        <path id="Trazado_917060" data-name="Trazado 917060" d="M2684.3,896.349a1.535,1.535,0,0,1-.69-.445l-3.356-3.741,1.752-1.752-.553-.5-2.345,2.345,3.356,3.741a1.541,1.541,0,0,0,1.837.354Z" transform="translate(-2663.075 -873.827)" fill="#cad9fc"/>
        <path id="Trazado_917061" data-name="Trazado 917061" d="M2696.511,901.693a1.644,1.644,0,0,0,.435-.312l.53-.529a1.5,1.5,0,0,0,.443-1.042,1.55,1.55,0,0,0-.518-1.169l-3.183-2.885-1.752,1.752,3.356,3.741A1.537,1.537,0,0,0,2696.511,901.693Z" transform="translate(-2675.284 -879.171)" fill="#e8edfc"/>
        <path id="Trazado_917062" data-name="Trazado 917062" d="M2506.981,717.222a8.572,8.572,0,0,0-6.061-14.633q-.279,0-.555.018a8.573,8.573,0,0,0-6.049,14.019q.255.309.543.6.307.308.64.58a8.5,8.5,0,0,0,4.868,1.913q.275.018.554.018A8.516,8.516,0,0,0,2506.981,717.222Z" transform="translate(-2492.348 -702.589)" fill="none" stroke="#428dff" stroke-linecap="round" stroke-linejoin="round" stroke-miterlimit="10" stroke-width="1.5"/>
        <path id="Trazado_917063" data-name="Trazado 917063" d="M2524.044,727.225a7.071,7.071,0,0,0-7.063-7.063q-.28,0-.555.022a7.063,7.063,0,0,0,0,14.083q.275.022.555.022A7.071,7.071,0,0,0,2524.044,727.225Z" transform="translate(-2508.409 -718.653)" fill="none" stroke="#428dff" stroke-linecap="round" stroke-linejoin="round" stroke-miterlimit="10" stroke-width="1.5"/>
        <path id="Trazado_917064" data-name="Trazado 917064" d="M2655.34,867.267q.3-.246.578-.519l.062-.061q.287-.287.543-.6l.88.88.549.549-1.179,1.179Z" transform="translate(-2641.347 -852.054)" fill="none" stroke="#428dff" stroke-linecap="round" stroke-linejoin="round" stroke-miterlimit="10" stroke-width="1.5"/>
        <path id="Trazado_917065" data-name="Trazado 917065" d="M2668.791,881.806a.614.614,0,0,1,.023-.844l.111-.11,1.208-1.208.079-.079a.614.614,0,0,1,.846-.02l.577.523.245.222-2.345,2.345Z" transform="translate(-2653.499 -864.207)" fill="none" stroke="#428dff" stroke-linecap="round" stroke-linejoin="round" stroke-miterlimit="10" stroke-width="1.5"/>
        <path id="Trazado_917066" data-name="Trazado 917066" d="M2683.564,896.509a1.537,1.537,0,0,1-1.1-.514l-3.355-3.741,2.345-2.345.553.5,3.183,2.885a1.55,1.55,0,0,1,.518,1.169,1.5,1.5,0,0,1-.443,1.042l-.53.529a1.643,1.643,0,0,1-.435.312A1.539,1.539,0,0,1,2683.564,896.509Z" transform="translate(-2663.077 -873.827)" fill="none" stroke="#428dff" stroke-linecap="round" stroke-linejoin="round" stroke-miterlimit="10" stroke-width="1.5"/>
      </g>
      <g id="Grupo_1113988" data-name="Grupo 1113988" transform="translate(238.66 368.299)">
        <path id="Trazado_917067" data-name="Trazado 917067" d="M527.734,1548.151a10.951,10.951,0,0,1-3.994,3.993,10.786,10.786,0,0,1-2.631,1.091,10.92,10.92,0,0,1-12.273-5.084h0a10.908,10.908,0,0,1,0-10.911,10.95,10.95,0,0,1,3.994-3.994,10.938,10.938,0,0,1,8.28-1.091l-1.287,4.8a5.943,5.943,0,0,0-7.272,4.2h0a5.93,5.93,0,0,0,.594,4.5,5.985,5.985,0,0,0,2.173,2.172,5.872,5.872,0,0,0,1.431.594h0a5.953,5.953,0,0,0,6.678-2.767Z" transform="translate(-507.375 -1531.786)" fill="#cad9fc"/>
        <path id="Trazado_917068" data-name="Trazado 917068" d="M676.954,1558.247a10.913,10.913,0,0,1-.37,2.824l-4.805-1.288a5.943,5.943,0,0,0,0-3.073h0a5.871,5.871,0,0,0-.594-1.431,5.976,5.976,0,0,0-2.173-2.173l2.488-4.309a10.894,10.894,0,0,1,5.454,9.449Z" transform="translate(-655.135 -1547.338)" fill="#cad9fc"/>
        <line id="Línea_44247" data-name="Línea 44247" x1="0.001" transform="translate(20.359 16.366)" fill="#cad9fc"/>
        <line id="Línea_44248" data-name="Línea 44248" y1="0.001" transform="translate(12.447 5.175)" fill="#cad9fc"/>
      </g>
      <g id="Grupo_1113989" data-name="Grupo 1113989" transform="translate(238.66 368.299)">
        <path id="Trazado_917069" data-name="Trazado 917069" d="M527.734,1548.151a10.951,10.951,0,0,1-3.994,3.993,10.786,10.786,0,0,1-2.631,1.091,10.92,10.92,0,0,1-12.273-5.084h0a10.908,10.908,0,0,1,0-10.911,10.95,10.95,0,0,1,3.994-3.994,10.938,10.938,0,0,1,8.28-1.091l-1.287,4.8a5.943,5.943,0,0,0-7.272,4.2h0a5.93,5.93,0,0,0,.594,4.5,5.985,5.985,0,0,0,2.173,2.172,5.872,5.872,0,0,0,1.431.594h0a5.953,5.953,0,0,0,6.678-2.767Z" transform="translate(-507.375 -1531.786)" fill="none" stroke="#428dff" stroke-linecap="round" stroke-linejoin="round" stroke-miterlimit="10" stroke-width="1.5"/>
        <path id="Trazado_917070" data-name="Trazado 917070" d="M676.954,1558.247a10.913,10.913,0,0,1-.37,2.824l-4.805-1.288a5.943,5.943,0,0,0,0-3.073h0a5.871,5.871,0,0,0-.594-1.431,5.976,5.976,0,0,0-2.173-2.173l2.488-4.309a10.894,10.894,0,0,1,5.454,9.449Z" transform="translate(-655.135 -1547.338)" fill="none" stroke="#428dff" stroke-linecap="round" stroke-linejoin="round" stroke-miterlimit="10" stroke-width="1.5"/>
        <line id="Línea_44249" data-name="Línea 44249" x1="0.001" transform="translate(20.359 16.366)" fill="none" stroke="#428dff" stroke-linecap="round" stroke-linejoin="round" stroke-miterlimit="10" stroke-width="1.5"/>
        <line id="Línea_44250" data-name="Línea 44250" y1="0.001" transform="translate(12.447 5.175)" fill="none" stroke="#428dff" stroke-linecap="round" stroke-linejoin="round" stroke-miterlimit="10" stroke-width="1.5"/>
      </g>
      <g id="Grupo_1113990" data-name="Grupo 1113990" transform="translate(269.307 295.814)">
        <path id="Trazado_917071" data-name="Trazado 917071" d="M1046.121,689.918v20.423a2.429,2.429,0,0,1-2.426,2.426h-1.443a2.429,2.429,0,0,0,2.427-2.426V689.918a2.43,2.43,0,0,0-2.427-2.426h1.443A2.429,2.429,0,0,1,1046.121,689.918Z" transform="translate(-1026.978 -687.492)" fill="#cad9fc"/>
        <path id="Trazado_917072" data-name="Trazado 917072" d="M882.04,689.918v20.423a2.429,2.429,0,0,1-2.426,2.426H866.765a2.429,2.429,0,0,1-2.426-2.426V689.918a2.429,2.429,0,0,1,2.426-2.426h12.849A2.43,2.43,0,0,1,882.04,689.918Z" transform="translate(-864.339 -687.492)" fill="#e8edfc"/>
        <path id="Trazado_917073" data-name="Trazado 917073" d="M1033.554,718.773v3.7a.726.726,0,0,1-.726.726h-1.419a.727.727,0,0,0,.726-.726v-3.7a.727.727,0,0,0-.726-.726h1.419A.727.727,0,0,1,1033.554,718.773Z" transform="translate(-1017.065 -715.424)" fill="#a4c2f7"/>
        <path id="Trazado_917074" data-name="Trazado 917074" d="M906.489,718.773v3.7a.726.726,0,0,1-.726.726H894.689a.726.726,0,0,1-.726-.726v-3.7a.727.727,0,0,1,.726-.726h11.074A.727.727,0,0,1,906.489,718.773Z" transform="translate(-891.42 -715.424)" fill="#cad9fc"/>
        <path id="Trazado_917075" data-name="Trazado 917075" d="M1032.659,805.2v3.562a.811.811,0,0,1-.81.81h-1.419a.811.811,0,0,0,.81-.81V805.2a.811.811,0,0,0-.81-.81h1.419A.811.811,0,0,1,1032.659,805.2Z" transform="translate(-1016.17 -794.351)" fill="#cad9fc"/>
        <path id="Trazado_917076" data-name="Trazado 917076" d="M1000.213,805.2v3.562a.811.811,0,0,1-.81.81h-2.1a.811.811,0,0,1-.81-.81V805.2a.811.811,0,0,1,.81-.81h2.1A.811.811,0,0,1,1000.213,805.2Z" transform="translate(-985.144 -794.351)" fill="#e8edfc"/>
        <path id="Trazado_917077" data-name="Trazado 917077" d="M930.137,805.2v3.562a.811.811,0,0,1-.81.81h-1.419a.811.811,0,0,0,.81-.81V805.2a.811.811,0,0,0-.81-.81h1.419A.811.811,0,0,1,930.137,805.2Z" transform="translate(-922.45 -794.351)" fill="#cad9fc"/>
        <path id="Trazado_917078" data-name="Trazado 917078" d="M897.687,805.2v3.562a.811.811,0,0,1-.81.81h-2.1a.811.811,0,0,1-.81-.81V805.2a.811.811,0,0,1,.81-.81h2.1A.811.811,0,0,1,897.687,805.2Z" transform="translate(-891.42 -794.351)" fill="#e8edfc"/>
        <path id="Trazado_917079" data-name="Trazado 917079" d="M1032.659,891.836V895.4a.811.811,0,0,1-.81.81h-1.419a.811.811,0,0,0,.81-.81v-3.562a.811.811,0,0,0-.81-.81h1.419A.811.811,0,0,1,1032.659,891.836Z" transform="translate(-1016.17 -873.552)" fill="#cad9fc"/>
        <path id="Trazado_917080" data-name="Trazado 917080" d="M1000.213,891.836V895.4a.811.811,0,0,1-.81.81h-2.1a.811.811,0,0,1-.81-.81v-3.562a.811.811,0,0,1,.81-.81h2.1A.811.811,0,0,1,1000.213,891.836Z" transform="translate(-985.144 -873.552)" fill="#e8edfc"/>
        <path id="Trazado_917081" data-name="Trazado 917081" d="M930.137,891.836V895.4a.811.811,0,0,1-.81.81h-1.419a.811.811,0,0,0,.81-.81v-3.562a.811.811,0,0,0-.81-.81h1.419A.811.811,0,0,1,930.137,891.836Z" transform="translate(-922.45 -873.552)" fill="#cad9fc"/>
        <path id="Trazado_917082" data-name="Trazado 917082" d="M897.687,891.836V895.4a.811.811,0,0,1-.81.81h-2.1a.811.811,0,0,1-.81-.81v-3.562a.811.811,0,0,1,.81-.81h2.1A.811.811,0,0,1,897.687,891.836Z" transform="translate(-891.42 -873.552)" fill="#e8edfc"/>
        <line id="Línea_44251" data-name="Línea 44251" x2="2.549" transform="translate(3.917 12.627)" fill="none" stroke="red" stroke-linecap="round" stroke-linejoin="round" stroke-miterlimit="10" stroke-width="1.5"/>
        <line id="Línea_44252" data-name="Línea 44252" x2="2.549" transform="translate(12.645 12.627)" fill="none" stroke="red" stroke-linecap="round" stroke-linejoin="round" stroke-miterlimit="10" stroke-width="1.5"/>
        <line id="Línea_44253" data-name="Línea 44253" x2="2.549" transform="translate(12.645 19.164)" fill="none" stroke="red" stroke-linecap="round" stroke-linejoin="round" stroke-miterlimit="10" stroke-width="1.5"/>
        <line id="Línea_44254" data-name="Línea 44254" x2="2.549" transform="translate(12.645 20.966)" fill="none" stroke="red" stroke-linecap="round" stroke-linejoin="round" stroke-miterlimit="10" stroke-width="1.5"/>
        <line id="Línea_44255" data-name="Línea 44255" y2="2.549" transform="translate(5.191 11.352)" fill="none" stroke="red" stroke-linecap="round" stroke-linejoin="round" stroke-miterlimit="10" stroke-width="1.5"/>
        <line id="Línea_44256" data-name="Línea 44256" x2="1.802" y2="1.802" transform="translate(4.29 19.164)" fill="none" stroke="red" stroke-linecap="round" stroke-linejoin="round" stroke-miterlimit="10" stroke-width="1.5"/>
        <line id="Línea_44257" data-name="Línea 44257" x1="1.802" y2="1.802" transform="translate(4.29 19.164)" fill="none" stroke="red" stroke-linecap="round" stroke-linejoin="round" stroke-miterlimit="10" stroke-width="1.5"/>
        <path id="Trazado_917083" data-name="Trazado 917083" d="M881.056,687.492H866.765a2.429,2.429,0,0,0-2.426,2.426v20.423a2.429,2.429,0,0,0,2.426,2.426h14.292a2.429,2.429,0,0,0,2.426-2.426V689.918A2.429,2.429,0,0,0,881.056,687.492Z" transform="translate(-864.339 -687.492)" fill="none" stroke="#428dff" stroke-linecap="round" stroke-linejoin="round" stroke-miterlimit="10" stroke-width="1.5"/>
        <path id="Trazado_917084" data-name="Trazado 917084" d="M907.182,718.047H894.689a.727.727,0,0,0-.726.726v3.7a.726.726,0,0,0,.726.726h12.493a.726.726,0,0,0,.726-.726v-3.7A.727.727,0,0,0,907.182,718.047Z" transform="translate(-891.42 -715.424)" fill="none" stroke="#428dff" stroke-linecap="round" stroke-linejoin="round" stroke-miterlimit="10" stroke-width="1.5"/>
        <path id="Trazado_917085" data-name="Trazado 917085" d="M1000.826,804.387H997.3a.811.811,0,0,0-.81.81v3.562a.811.811,0,0,0,.81.81h3.523a.811.811,0,0,0,.81-.81V805.2A.812.812,0,0,0,1000.826,804.387Z" transform="translate(-985.146 -794.351)" fill="none" stroke="#428dff" stroke-linecap="round" stroke-linejoin="round" stroke-miterlimit="10" stroke-width="1.5"/>
        <path id="Trazado_917086" data-name="Trazado 917086" d="M898.3,804.387h-3.523a.811.811,0,0,0-.81.81v3.562a.811.811,0,0,0,.81.81H898.3a.811.811,0,0,0,.81-.81V805.2A.811.811,0,0,0,898.3,804.387Z" transform="translate(-891.42 -794.351)" fill="none" stroke="#428dff" stroke-linecap="round" stroke-linejoin="round" stroke-miterlimit="10" stroke-width="1.5"/>
        <path id="Trazado_917087" data-name="Trazado 917087" d="M1000.826,891.026H997.3a.811.811,0,0,0-.81.81V895.4a.811.811,0,0,0,.81.81h3.523a.811.811,0,0,0,.81-.81v-3.562A.812.812,0,0,0,1000.826,891.026Z" transform="translate(-985.146 -873.552)" fill="none" stroke="#428dff" stroke-linecap="round" stroke-linejoin="round" stroke-miterlimit="10" stroke-width="1.5"/>
        <path id="Trazado_917088" data-name="Trazado 917088" d="M898.3,891.026h-3.523a.811.811,0,0,0-.81.81V895.4a.811.811,0,0,0,.81.81H898.3a.811.811,0,0,0,.81-.81v-3.562A.811.811,0,0,0,898.3,891.026Z" transform="translate(-891.42 -873.552)" fill="none" stroke="#428dff" stroke-linecap="round" stroke-linejoin="round" stroke-miterlimit="10" stroke-width="1.5"/>
        <line id="Línea_44258" data-name="Línea 44258" x2="2.549" transform="translate(3.917 12.627)" fill="none" stroke="#428dff" stroke-linecap="round" stroke-linejoin="round" stroke-miterlimit="10" stroke-width="1.5"/>
        <line id="Línea_44259" data-name="Línea 44259" x2="2.549" transform="translate(12.645 12.627)" fill="none" stroke="#428dff" stroke-linecap="round" stroke-linejoin="round" stroke-miterlimit="10" stroke-width="1.5"/>
        <line id="Línea_44260" data-name="Línea 44260" x2="2.549" transform="translate(12.645 19.164)" fill="none" stroke="#428dff" stroke-linecap="round" stroke-linejoin="round" stroke-miterlimit="10" stroke-width="1.5"/>
        <line id="Línea_44261" data-name="Línea 44261" x2="2.549" transform="translate(12.645 20.966)" fill="none" stroke="#428dff" stroke-linecap="round" stroke-linejoin="round" stroke-miterlimit="10" stroke-width="1.5"/>
        <line id="Línea_44262" data-name="Línea 44262" y2="2.549" transform="translate(5.191 11.352)" fill="none" stroke="#428dff" stroke-linecap="round" stroke-linejoin="round" stroke-miterlimit="10" stroke-width="1.5"/>
        <line id="Línea_44263" data-name="Línea 44263" x2="1.802" y2="1.802" transform="translate(4.29 19.164)" fill="none" stroke="#428dff" stroke-linecap="round" stroke-linejoin="round" stroke-miterlimit="10" stroke-width="1.5"/>
        <line id="Línea_44264" data-name="Línea 44264" x1="1.802" y2="1.802" transform="translate(4.29 19.164)" fill="none" stroke="#428dff" stroke-linecap="round" stroke-linejoin="round" stroke-miterlimit="10" stroke-width="1.5"/>
      </g>
      <g id="Grupo_1113993" data-name="Grupo 1113993" transform="translate(336.442 267.549)">
        <path id="Trazado_917089" data-name="Trazado 917089" d="M1646.33,619.864h26.385" transform="translate(-1646.33 -597.404)" fill="none" stroke="#428dff" stroke-linecap="round" stroke-linejoin="round" stroke-miterlimit="10" stroke-width="1.5"/>
        <g id="Grupo_1113992" data-name="Grupo 1113992" transform="translate(3.358 17.374)">
          <rect id="Rectángulo_412071" data-name="Rectángulo 412071" width="3.014" height="5.085" fill="#e3e7f2"/>
          <g id="Grupo_1113991" data-name="Grupo 1113991">
            <rect id="Rectángulo_412072" data-name="Rectángulo 412072" width="3.014" height="5.085" fill="none" stroke="#428dff" stroke-linecap="round" stroke-linejoin="round" stroke-miterlimit="10" stroke-width="1.5"/>
          </g>
        </g>
        <rect id="Rectángulo_412073" data-name="Rectángulo 412073" width="3.014" height="13.266" transform="translate(8.91 9.194)" fill="#e3e7f2"/>
        <rect id="Rectángulo_412074" data-name="Rectángulo 412074" width="3.014" height="13.266" transform="translate(8.91 9.194)" fill="none" stroke="#428dff" stroke-linecap="round" stroke-linejoin="round" stroke-miterlimit="10" stroke-width="1.5"/>
        <rect id="Rectángulo_412075" data-name="Rectángulo 412075" width="3.014" height="8.987" transform="translate(14.462 13.473)" fill="#e3e7f2"/>
        <rect id="Rectángulo_412076" data-name="Rectángulo 412076" width="3.014" height="8.987" transform="translate(14.462 13.473)" fill="none" stroke="#428dff" stroke-linecap="round" stroke-linejoin="round" stroke-miterlimit="10" stroke-width="1.5"/>
        <rect id="Rectángulo_412077" data-name="Rectángulo 412077" width="3.014" height="13.266" transform="translate(20.014 9.194)" fill="#e3e7f2"/>
        <rect id="Rectángulo_412078" data-name="Rectángulo 412078" width="3.014" height="13.266" transform="translate(20.014 9.194)" fill="none" stroke="#428dff" stroke-linecap="round" stroke-linejoin="round" stroke-miterlimit="10" stroke-width="1.5"/>
        <circle id="Elipse_13941" data-name="Elipse 13941" cx="1.761" cy="1.761" r="1.761" transform="translate(2.374 9.463) rotate(-45)" fill="none" stroke="#428dff" stroke-linecap="round" stroke-linejoin="round" stroke-miterlimit="10" stroke-width="1.5"/>
        <circle id="Elipse_13942" data-name="Elipse 13942" cx="1.761" cy="1.761" r="1.761" transform="translate(7.926 3.318) rotate(-45)" fill="none" stroke="#428dff" stroke-linecap="round" stroke-linejoin="round" stroke-miterlimit="10" stroke-width="1.5"/>
        <circle id="Elipse_13943" data-name="Elipse 13943" cx="1.761" cy="1.761" r="1.761" transform="translate(13.477 7.1) rotate(-45)" fill="none" stroke="#428dff" stroke-linecap="round" stroke-linejoin="round" stroke-miterlimit="10" stroke-width="1.5"/>
        <circle id="Elipse_13944" data-name="Elipse 13944" cx="1.761" cy="1.761" r="1.761" transform="translate(19.04 2.606) rotate(-47.711)" fill="none" stroke="#428dff" stroke-linecap="round" stroke-linejoin="round" stroke-miterlimit="10" stroke-width="1.5"/>
        <line id="Línea_44265" data-name="Línea 44265" y1="3.579" x2="3.148" transform="translate(6.001 4.538)" fill="none" stroke="#428dff" stroke-linecap="round" stroke-linejoin="round" stroke-miterlimit="10" stroke-width="1.5"/>
        <path id="Trazado_917090" data-name="Trazado 917090" d="M1787.38,402.546l2.551,2" transform="translate(-1775.271 -398.744)" fill="none" stroke="#428dff" stroke-linecap="round" stroke-linejoin="round" stroke-miterlimit="10" stroke-width="1.5"/>
        <line id="Línea_44266" data-name="Línea 44266" y1="2.32" x2="2.875" transform="translate(17.32 3.649)" fill="none" stroke="#428dff" stroke-linecap="round" stroke-linejoin="round" stroke-miterlimit="10" stroke-width="1.5"/>
      </g>
      <path id="Trazado_917091" data-name="Trazado 917091" d="M1047.732,1547.265a4.629,4.629,0,0,0,.664-2.395v-39.223a4.665,4.665,0,0,0-4.66-4.66H1016.29a4.665,4.665,0,0,0-4.659,4.66v39.223a4.629,4.629,0,0,0,.664,2.395Z" transform="translate(-729.679 -1135.333)" fill="#1a1a1a" opacity="0.1"/>
      <g id="Grupo_1113994" data-name="Grupo 1113994" transform="translate(279.854 363.229)">
        <path id="Trazado_917092" data-name="Trazado 917092" d="M1336.318,1477.391v39.222a4.664,4.664,0,0,1-4.66,4.659h-2.771a4.665,4.665,0,0,0,4.66-4.659v-39.222a4.666,4.666,0,0,0-4.66-4.66h2.771A4.665,4.665,0,0,1,1336.318,1477.391Z" transform="translate(-1299.552 -1472.731)" fill="#cad9fc"/>
        <path id="Trazado_917093" data-name="Trazado 917093" d="M1021.2,1477.391v39.222a4.665,4.665,0,0,1-4.66,4.659H991.865a4.664,4.664,0,0,1-4.659-4.659v-39.222a4.665,4.665,0,0,1,4.659-4.66h24.676A4.666,4.666,0,0,1,1021.2,1477.391Z" transform="translate(-987.206 -1472.731)" fill="#e8edfc"/>
        <path id="Trazado_917094" data-name="Trazado 917094" d="M1312.183,1532.8v7.115a1.4,1.4,0,0,1-1.395,1.393h-2.726a1.4,1.4,0,0,0,1.395-1.393V1532.8a1.4,1.4,0,0,0-1.395-1.395h2.726A1.4,1.4,0,0,1,1312.183,1532.8Z" transform="translate(-1280.515 -1526.369)" fill="#a4c2f7"/>
        <path id="Trazado_917095" data-name="Trazado 917095" d="M1068.147,1532.8v7.115a1.4,1.4,0,0,1-1.395,1.393h-21.268a1.4,1.4,0,0,1-1.395-1.393V1532.8a1.4,1.4,0,0,1,1.395-1.395h21.268A1.4,1.4,0,0,1,1068.147,1532.8Z" transform="translate(-1039.206 -1526.369)" fill="#cad9fc"/>
        <path id="Trazado_917096" data-name="Trazado 917096" d="M1310.465,1698.773v6.84a1.557,1.557,0,0,1-1.556,1.556h-2.726a1.557,1.557,0,0,0,1.556-1.556v-6.84a1.558,1.558,0,0,0-1.556-1.556h2.726A1.558,1.558,0,0,1,1310.465,1698.773Z" transform="translate(-1278.797 -1677.944)" fill="#cad9fc"/>
        <path id="Trazado_917097" data-name="Trazado 917097" d="M1248.14,1698.773v6.84a1.558,1.558,0,0,1-1.556,1.556h-4.041a1.557,1.557,0,0,1-1.556-1.556v-6.84a1.558,1.558,0,0,1,1.556-1.556h4.041A1.558,1.558,0,0,1,1248.14,1698.773Z" transform="translate(-1219.2 -1677.944)" fill="#e8edfc"/>
        <path id="Trazado_917098" data-name="Trazado 917098" d="M1113.565,1698.773v6.84a1.557,1.557,0,0,1-1.556,1.556h-2.726a1.557,1.557,0,0,0,1.556-1.556v-6.84a1.557,1.557,0,0,0-1.556-1.556h2.726A1.558,1.558,0,0,1,1113.565,1698.773Z" transform="translate(-1098.802 -1677.944)" fill="#cad9fc"/>
        <path id="Trazado_917099" data-name="Trazado 917099" d="M1051.25,1698.773v6.84a1.558,1.558,0,0,1-1.556,1.556h-4.041a1.557,1.557,0,0,1-1.556-1.556v-6.84a1.557,1.557,0,0,1,1.556-1.556h4.041A1.558,1.558,0,0,1,1051.25,1698.773Z" transform="translate(-1039.213 -1677.944)" fill="#e8edfc"/>
        <path id="Trazado_917100" data-name="Trazado 917100" d="M1310.465,1865.163V1872a1.558,1.558,0,0,1-1.556,1.556h-2.726a1.557,1.557,0,0,0,1.556-1.556v-6.84a1.558,1.558,0,0,0-1.556-1.556h2.726A1.558,1.558,0,0,1,1310.465,1865.163Z" transform="translate(-1278.797 -1830.049)" fill="#cad9fc"/>
        <path id="Trazado_917101" data-name="Trazado 917101" d="M1248.14,1865.163V1872a1.558,1.558,0,0,1-1.556,1.556h-4.041a1.558,1.558,0,0,1-1.556-1.556v-6.84a1.558,1.558,0,0,1,1.556-1.556h4.041A1.558,1.558,0,0,1,1248.14,1865.163Z" transform="translate(-1219.2 -1830.049)" fill="#e8edfc"/>
        <path id="Trazado_917102" data-name="Trazado 917102" d="M1113.565,1865.163V1872a1.558,1.558,0,0,1-1.556,1.556h-2.726a1.557,1.557,0,0,0,1.556-1.556v-6.84a1.558,1.558,0,0,0-1.556-1.556h2.726A1.558,1.558,0,0,1,1113.565,1865.163Z" transform="translate(-1098.802 -1830.049)" fill="#cad9fc"/>
        <path id="Trazado_917103" data-name="Trazado 917103" d="M1051.25,1865.163V1872a1.558,1.558,0,0,1-1.556,1.556h-4.041A1.558,1.558,0,0,1,1044.1,1872v-6.84a1.558,1.558,0,0,1,1.556-1.556h4.041A1.558,1.558,0,0,1,1051.25,1865.163Z" transform="translate(-1039.213 -1830.049)" fill="#e8edfc"/>
        <line id="Línea_44267" data-name="Línea 44267" x2="4.894" transform="translate(7.522 24.249)" fill="none" stroke="red" stroke-linecap="round" stroke-linejoin="round" stroke-miterlimit="10" stroke-width="1.5"/>
        <line id="Línea_44268" data-name="Línea 44268" x2="4.895" transform="translate(24.285 24.249)" fill="none" stroke="red" stroke-linecap="round" stroke-linejoin="round" stroke-miterlimit="10" stroke-width="1.5"/>
        <line id="Línea_44269" data-name="Línea 44269" x2="4.895" transform="translate(24.285 36.803)" fill="none" stroke="red" stroke-linecap="round" stroke-linejoin="round" stroke-miterlimit="10" stroke-width="1.5"/>
        <line id="Línea_44270" data-name="Línea 44270" x2="4.895" transform="translate(24.285 40.265)" fill="none" stroke="red" stroke-linecap="round" stroke-linejoin="round" stroke-miterlimit="10" stroke-width="1.5"/>
        <line id="Línea_44271" data-name="Línea 44271" y2="4.895" transform="translate(9.97 21.801)" fill="none" stroke="red" stroke-linecap="round" stroke-linejoin="round" stroke-miterlimit="10" stroke-width="1.5"/>
        <line id="Línea_44272" data-name="Línea 44272" x2="3.461" y2="3.462" transform="translate(8.239 36.803)" fill="none" stroke="red" stroke-linecap="round" stroke-linejoin="round" stroke-miterlimit="10" stroke-width="1.5"/>
        <line id="Línea_44273" data-name="Línea 44273" x1="3.461" y2="3.462" transform="translate(8.239 36.803)" fill="none" stroke="red" stroke-linecap="round" stroke-linejoin="round" stroke-miterlimit="10" stroke-width="1.5"/>
        <path id="Trazado_917104" data-name="Trazado 917104" d="M1019.306,1472.73H991.86a4.665,4.665,0,0,0-4.659,4.66v39.223a4.664,4.664,0,0,0,4.659,4.659h27.447a4.664,4.664,0,0,0,4.66-4.659V1477.39A4.665,4.665,0,0,0,1019.306,1472.73Z" transform="translate(-987.201 -1472.73)" fill="none" stroke="#428dff" stroke-linecap="round" stroke-linejoin="round" stroke-miterlimit="10" stroke-width="1.5"/>
        <path id="Trazado_917105" data-name="Trazado 917105" d="M1069.478,1531.41h-23.994a1.4,1.4,0,0,0-1.395,1.395v7.115a1.4,1.4,0,0,0,1.395,1.393h23.994a1.4,1.4,0,0,0,1.395-1.393V1532.8A1.4,1.4,0,0,0,1069.478,1531.41Z" transform="translate(-1039.206 -1526.372)" fill="none" stroke="#428dff" stroke-linecap="round" stroke-linejoin="round" stroke-miterlimit="10" stroke-width="1.5"/>
        <path id="Trazado_917106" data-name="Trazado 917106" d="M1249.31,1697.22h-6.767a1.558,1.558,0,0,0-1.556,1.556v6.84a1.558,1.558,0,0,0,1.556,1.556h6.767a1.558,1.558,0,0,0,1.556-1.556v-6.84A1.557,1.557,0,0,0,1249.31,1697.22Z" transform="translate(-1219.199 -1677.947)" fill="none" stroke="#428dff" stroke-linecap="round" stroke-linejoin="round" stroke-miterlimit="10" stroke-width="1.5"/>
        <path id="Trazado_917107" data-name="Trazado 917107" d="M1052.42,1697.22h-6.767a1.558,1.558,0,0,0-1.556,1.556v6.84a1.558,1.558,0,0,0,1.556,1.556h6.767a1.558,1.558,0,0,0,1.556-1.556v-6.84A1.558,1.558,0,0,0,1052.42,1697.22Z" transform="translate(-1039.212 -1677.947)" fill="none" stroke="#428dff" stroke-linecap="round" stroke-linejoin="round" stroke-miterlimit="10" stroke-width="1.5"/>
        <path id="Trazado_917108" data-name="Trazado 917108" d="M1249.31,1863.61h-6.767a1.558,1.558,0,0,0-1.556,1.556v6.84a1.558,1.558,0,0,0,1.556,1.556h6.767a1.557,1.557,0,0,0,1.556-1.556v-6.84A1.557,1.557,0,0,0,1249.31,1863.61Z" transform="translate(-1219.199 -1830.052)" fill="none" stroke="#428dff" stroke-linecap="round" stroke-linejoin="round" stroke-miterlimit="10" stroke-width="1.5"/>
        <path id="Trazado_917109" data-name="Trazado 917109" d="M1052.42,1863.61h-6.767a1.558,1.558,0,0,0-1.556,1.556v6.84a1.558,1.558,0,0,0,1.556,1.556h6.767a1.557,1.557,0,0,0,1.556-1.556v-6.84A1.558,1.558,0,0,0,1052.42,1863.61Z" transform="translate(-1039.212 -1830.052)" fill="none" stroke="#428dff" stroke-linecap="round" stroke-linejoin="round" stroke-miterlimit="10" stroke-width="1.5"/>
        <line id="Línea_44274" data-name="Línea 44274" x2="4.894" transform="translate(7.522 24.249)" fill="none" stroke="#428dff" stroke-linecap="round" stroke-linejoin="round" stroke-miterlimit="10" stroke-width="1.5"/>
        <line id="Línea_44275" data-name="Línea 44275" x2="4.895" transform="translate(24.285 24.249)" fill="none" stroke="#428dff" stroke-linecap="round" stroke-linejoin="round" stroke-miterlimit="10" stroke-width="1.5"/>
        <line id="Línea_44276" data-name="Línea 44276" x2="4.895" transform="translate(24.285 36.803)" fill="none" stroke="#428dff" stroke-linecap="round" stroke-linejoin="round" stroke-miterlimit="10" stroke-width="1.5"/>
        <line id="Línea_44277" data-name="Línea 44277" x2="4.895" transform="translate(24.285 40.265)" fill="none" stroke="#428dff" stroke-linecap="round" stroke-linejoin="round" stroke-miterlimit="10" stroke-width="1.5"/>
        <line id="Línea_44278" data-name="Línea 44278" y2="4.895" transform="translate(9.97 21.801)" fill="none" stroke="#428dff" stroke-linecap="round" stroke-linejoin="round" stroke-miterlimit="10" stroke-width="1.5"/>
        <line id="Línea_44279" data-name="Línea 44279" x2="3.461" y2="3.462" transform="translate(8.239 36.803)" fill="none" stroke="#428dff" stroke-linecap="round" stroke-linejoin="round" stroke-miterlimit="10" stroke-width="1.5"/>
        <line id="Línea_44280" data-name="Línea 44280" x1="3.461" y2="3.462" transform="translate(8.239 36.803)" fill="none" stroke="#428dff" stroke-linecap="round" stroke-linejoin="round" stroke-miterlimit="10" stroke-width="1.5"/>
      </g>
      <g id="Grupo_1113995" data-name="Grupo 1113995" transform="translate(300.698 336.99)">
        <path id="Trazado_917110" data-name="Trazado 917110" d="M1338.873,1957.983a4,4,0,0,0,.387-1.722v-5.982H1229.99v5.982a4,4,0,0,0,.387,1.722Z" transform="translate(-1229.99 -1883.041)" fill="#1a1a1a" opacity="0.1"/>
        <path id="Trazado_917111" data-name="Trazado 917111" d="M1372.441,1234.342v-61.114a6.122,6.122,0,0,0-6.123-6.122h-89.388a6.122,6.122,0,0,0-6.123,6.122v61.114h101.633Z" transform="translate(-1267.304 -1167.106)" fill="#1a1a1a" opacity="0.1"/>
      </g>
      <g id="Grupo_1113997" data-name="Grupo 1113997" transform="translate(298.172 334.532)">
        <g id="Grupo_1113996" data-name="Grupo 1113996" transform="translate(0 0)">
          <path id="Trazado_917112" data-name="Trazado 917112" d="M2319.88,1921.65v5.982a4.018,4.018,0,0,1-4.019,4.018h-10.392a4.018,4.018,0,0,0,4.018-4.018v-5.982Z" transform="translate(-2210.61 -1854.412)" fill="#cad9fc"/>
          <path id="Trazado_917113" data-name="Trazado 917113" d="M1299.436,1921.65v5.982a4.018,4.018,0,0,1-4.018,4.018h-90.841a4.018,4.018,0,0,1-4.018-4.018v-5.982Z" transform="translate(-1200.559 -1854.412)" fill="#e8edfc"/>
          <path id="Trazado_917114" data-name="Trazado 917114" d="M1299.437,1921.65H1200.56v5.982a4.018,4.018,0,0,0,4.018,4.018h101.233a4.019,4.019,0,0,0,4.019-4.018v-5.982Z" transform="translate(-1200.56 -1854.412)" fill="none" stroke="#428dff" stroke-linecap="round" stroke-linejoin="round" stroke-miterlimit="10" stroke-width="1.5"/>
          <path id="Trazado_917115" data-name="Trazado 917115" d="M1680.417,1926.645h-21.411a5,5,0,0,1-5-5h31.412A5,5,0,0,1,1680.417,1926.645Z" transform="translate(-1615.077 -1854.407)" fill="#cad9fc"/>
          <path id="Trazado_917116" data-name="Trazado 917116" d="M1680.417,1926.645h-21.411a5,5,0,0,1-5-5h31.412A5,5,0,0,1,1680.417,1926.645Z" transform="translate(-1615.077 -1854.407)" fill="none" stroke="#428dff" stroke-linecap="round" stroke-linejoin="round" stroke-miterlimit="10" stroke-width="1.5"/>
          <path id="Trazado_917117" data-name="Trazado 917117" d="M2293.341,1144.591v61.114h-6.26v-61.114a6.122,6.122,0,0,0-6.123-6.122h6.26A6.123,6.123,0,0,1,2293.341,1144.591Z" transform="translate(-2188.203 -1138.469)" fill="#cad9fc"/>
          <path id="Trazado_917118" data-name="Trazado 917118" d="M1336.753,1144.591v61.114H1241.38v-61.114a6.122,6.122,0,0,1,6.122-6.122h83.128A6.123,6.123,0,0,1,1336.753,1144.591Z" transform="translate(-1237.875 -1138.469)" fill="#e8edfc"/>
          <path id="Trazado_917119" data-name="Trazado 917119" d="M1336.894,1138.47h-89.388a6.122,6.122,0,0,0-6.123,6.122v61.114h101.633v-61.114A6.124,6.124,0,0,0,1336.894,1138.47Z" transform="translate(-1237.879 -1138.47)" fill="none" stroke="#428dff" stroke-linecap="round" stroke-linejoin="round" stroke-miterlimit="10" stroke-width="1.5"/>
          <path id="Trazado_917120" data-name="Trazado 917120" d="M1294.24,1249.487V1192.91a1.586,1.586,0,0,1,1.584-1.584h89.388a1.586,1.586,0,0,1,1.585,1.584v56.576Z" transform="translate(-1286.197 -1186.788)" fill="none" stroke="#428dff" stroke-linecap="round" stroke-linejoin="round" stroke-miterlimit="10" stroke-width="1.5"/>
        </g>
      </g>
      <path id="Trazado_917121" data-name="Trazado 917121" d="M1520.977,953.239h-57.911a5.858,5.858,0,0,0-5.858,5.858v63.58a5.858,5.858,0,0,0,5.858,5.858h57.911a5.858,5.858,0,0,0,5.858-5.858V959.1A5.858,5.858,0,0,0,1520.977,953.239Z" transform="translate(-1137.002 -634.61)" fill="#1a1a1a" opacity="0.1"/>
      <g id="Grupo_1114013" data-name="Grupo 1114013" transform="translate(317.994 316.453)">
        <g id="Grupo_1113999" data-name="Grupo 1113999">
          <path id="Trazado_917122" data-name="Trazado 917122" d="M2128.9,933.748v3.958H2124.1v-3.958a5.858,5.858,0,0,0-5.858-5.858h4.806A5.858,5.858,0,0,1,2128.9,933.748Z" transform="translate(-2059.277 -927.89)" fill="#7facfa"/>
          <path id="Trazado_917123" data-name="Trazado 917123" d="M2128.9,1042.226v59.622a5.858,5.858,0,0,1-5.858,5.858h-4.806a5.858,5.858,0,0,0,5.858-5.858v-59.622h4.806Z" transform="translate(-2059.277 -1032.41)" fill="#cad9fc"/>
          <path id="Trazado_917124" data-name="Trazado 917124" d="M1496.271,933.748v3.958H1431.45v-3.958a5.858,5.858,0,0,1,5.858-5.858h53.105A5.859,5.859,0,0,1,1496.271,933.748Z" transform="translate(-1431.449 -927.89)" fill="#a4c2f7"/>
          <path id="Trazado_917125" data-name="Trazado 917125" d="M1496.271,1042.226v59.622a5.858,5.858,0,0,1-5.858,5.858h-53.1a5.858,5.858,0,0,1-5.858-5.858v-59.622h64.821Z" transform="translate(-1431.45 -1032.41)" fill="#e8edfc"/>
          <path id="Trazado_917126" data-name="Trazado 917126" d="M1501.071,933.748v3.958h-69.627v-3.958a5.858,5.858,0,0,1,5.858-5.858h57.911A5.858,5.858,0,0,1,1501.071,933.748Z" transform="translate(-1431.444 -927.89)" fill="none" stroke="#428dff" stroke-linecap="round" stroke-linejoin="round" stroke-miterlimit="10" stroke-width="1.5"/>
          <path id="Trazado_917127" data-name="Trazado 917127" d="M1501.071,1042.226v59.622a5.858,5.858,0,0,1-5.858,5.858H1437.3a5.858,5.858,0,0,1-5.858-5.858v-59.622h69.627Z" transform="translate(-1431.444 -1032.41)" fill="none" stroke="#428dff" stroke-linecap="round" stroke-linejoin="round" stroke-miterlimit="10" stroke-width="1.5"/>
          <g id="Grupo_1113998" data-name="Grupo 1113998" transform="translate(7.939 3.691)">
            <circle id="Elipse_13945" data-name="Elipse 13945" cx="1.217" cy="1.217" r="1.217" fill="#428dff"/>
            <circle id="Elipse_13946" data-name="Elipse 13946" cx="1.217" cy="1.217" r="1.217" transform="translate(3.464)" fill="#428dff"/>
            <circle id="Elipse_13947" data-name="Elipse 13947" cx="1.217" cy="1.217" r="1.217" transform="translate(6.927)" fill="#428dff"/>
          </g>
        </g>
        <g id="Grupo_1114012" data-name="Grupo 1114012" transform="translate(4.054 18.328)">
          <path id="Trazado_917128" data-name="Trazado 917128" d="M1478.67,1440.02h61.518" transform="translate(-1478.67 -1414.38)" fill="none" stroke="#428dff" stroke-linecap="round" stroke-linejoin="round" stroke-miterlimit="10" stroke-width="1.5"/>
          <g id="Grupo_1114001" data-name="Grupo 1114001" transform="translate(4.635 15.926)">
            <rect id="Rectángulo_412079" data-name="Rectángulo 412079" width="5.758" height="9.714" fill="#a4c2f7"/>
            <g id="Grupo_1114000" data-name="Grupo 1114000">
              <rect id="Rectángulo_412080" data-name="Rectángulo 412080" width="5.758" height="9.714" fill="none" stroke="#428dff" stroke-linecap="round" stroke-linejoin="round" stroke-miterlimit="10" stroke-width="1.5"/>
            </g>
          </g>
          <g id="Grupo_1114003" data-name="Grupo 1114003" transform="translate(13.933)">
            <rect id="Rectángulo_412081" data-name="Rectángulo 412081" width="5.758" height="25.639" fill="#a4c2f7"/>
            <g id="Grupo_1114002" data-name="Grupo 1114002">
              <rect id="Rectángulo_412082" data-name="Rectángulo 412082" width="5.758" height="25.639" fill="none" stroke="#428dff" stroke-linecap="round" stroke-linejoin="round" stroke-miterlimit="10" stroke-width="1.5"/>
            </g>
          </g>
          <g id="Grupo_1114005" data-name="Grupo 1114005" transform="translate(23.231 3.491)">
            <rect id="Rectángulo_412083" data-name="Rectángulo 412083" width="5.758" height="22.149" fill="#a4c2f7"/>
            <g id="Grupo_1114004" data-name="Grupo 1114004">
              <rect id="Rectángulo_412084" data-name="Rectángulo 412084" width="5.758" height="22.149" fill="none" stroke="#428dff" stroke-linecap="round" stroke-linejoin="round" stroke-miterlimit="10" stroke-width="1.5"/>
            </g>
          </g>
          <g id="Grupo_1114007" data-name="Grupo 1114007" transform="translate(32.529 18.365)">
            <rect id="Rectángulo_412085" data-name="Rectángulo 412085" width="5.758" height="7.275" fill="#a4c2f7"/>
            <g id="Grupo_1114006" data-name="Grupo 1114006">
              <rect id="Rectángulo_412086" data-name="Rectángulo 412086" width="5.758" height="7.275" fill="none" stroke="#428dff" stroke-linecap="round" stroke-linejoin="round" stroke-miterlimit="10" stroke-width="1.5"/>
            </g>
          </g>
          <g id="Grupo_1114009" data-name="Grupo 1114009" transform="translate(41.827 7.485)">
            <rect id="Rectángulo_412087" data-name="Rectángulo 412087" width="5.758" height="18.155" fill="#a4c2f7"/>
            <g id="Grupo_1114008" data-name="Grupo 1114008">
              <rect id="Rectángulo_412088" data-name="Rectángulo 412088" width="5.758" height="18.155" fill="none" stroke="#428dff" stroke-linecap="round" stroke-linejoin="round" stroke-miterlimit="10" stroke-width="1.5"/>
            </g>
          </g>
          <g id="Grupo_1114011" data-name="Grupo 1114011" transform="translate(51.126 10.592)">
            <rect id="Rectángulo_412089" data-name="Rectángulo 412089" width="5.758" height="15.047" fill="#a4c2f7"/>
            <g id="Grupo_1114010" data-name="Grupo 1114010">
              <rect id="Rectángulo_412090" data-name="Rectángulo 412090" width="5.758" height="15.047" fill="none" stroke="#428dff" stroke-linecap="round" stroke-linejoin="round" stroke-miterlimit="10" stroke-width="1.5"/>
            </g>
          </g>
        </g>
        <line id="Línea_44281" data-name="Línea 44281" x2="58.291" transform="translate(5.09 50.154)" fill="none" stroke="#428dff" stroke-linecap="round" stroke-linejoin="round" stroke-miterlimit="10" stroke-width="1.5"/>
        <path id="Trazado_917129" data-name="Trazado 917129" d="M1933.36,1555.971c6.8,0,13.518,0,20.29-.008" transform="translate(-1890.269 -1502.041)" fill="none" stroke="#428dff" stroke-linecap="round" stroke-linejoin="round" stroke-miterlimit="10" stroke-width="1.5"/>
        <path id="Trazado_917130" data-name="Trazado 917130" d="M1628.47,1555.96c8.12.011,16.14.011,24.259.009" transform="translate(-1611.555 -1502.039)" fill="none" stroke="#428dff" stroke-linecap="round" stroke-linejoin="round" stroke-miterlimit="10" stroke-width="1.5"/>
        <path id="Trazado_917131" data-name="Trazado 917131" d="M1490.73,1555.96c3.255.011,6.579.011,9.81,0" transform="translate(-1485.64 -1502.039)" fill="none" stroke="#428dff" stroke-linecap="round" stroke-linejoin="round" stroke-miterlimit="10" stroke-width="1.5"/>
        <path id="Trazado_917132" data-name="Trazado 917132" d="M1884.56,1599.843h24.479" transform="translate(-1845.659 -1542.153)" fill="none" stroke="#428dff" stroke-linecap="round" stroke-linejoin="round" stroke-miterlimit="10" stroke-width="1.5"/>
        <path id="Trazado_917133" data-name="Trazado 917133" d="M1683.02,1599.84H1698.3" transform="translate(-1661.422 -1542.152)" fill="none" stroke="#428dff" stroke-linecap="round" stroke-linejoin="round" stroke-miterlimit="10" stroke-width="1.5"/>
        <path id="Trazado_917134" data-name="Trazado 917134" d="M1490.73,1599.84h14.406" transform="translate(-1485.64 -1542.152)" fill="none" stroke="#428dff" stroke-linecap="round" stroke-linejoin="round" stroke-miterlimit="10" stroke-width="1.5"/>
        <path id="Trazado_917135" data-name="Trazado 917135" d="M1888.85,1643.654c8.019-.01,16.111-.01,24.111,0" transform="translate(-1849.581 -1582.198)" fill="none" stroke="#428dff" stroke-linecap="round" stroke-linejoin="round" stroke-miterlimit="10" stroke-width="1.5"/>
        <path id="Trazado_917136" data-name="Trazado 917136" d="M1490.73,1643.654c10.77-.01,21.463-.01,32.25,0" transform="translate(-1485.64 -1582.198)" fill="none" stroke="#428dff" stroke-linecap="round" stroke-linejoin="round" stroke-miterlimit="10" stroke-width="1.5"/>
        <path id="Trazado_917137" data-name="Trazado 917137" d="M2012.89,1687.449c4.451-.02,9-.02,13.463,0" transform="translate(-1962.972 -1622.226)" fill="none" stroke="#428dff" stroke-linecap="round" stroke-linejoin="round" stroke-miterlimit="10" stroke-width="1.5"/>
        <path id="Trazado_917138" data-name="Trazado 917138" d="M1689.09,1687.406c8.623-.006,17.149-.006,25.78.014" transform="translate(-1666.971 -1622.196)" fill="none" stroke="#428dff" stroke-linecap="round" stroke-linejoin="round" stroke-miterlimit="10" stroke-width="1.5"/>
        <path id="Trazado_917139" data-name="Trazado 917139" d="M1490.73,1687.424c4.99-.02,10.047-.02,15.063-.014" transform="translate(-1485.64 -1622.2)" fill="none" stroke="#428dff" stroke-linecap="round" stroke-linejoin="round" stroke-miterlimit="10" stroke-width="1.5"/>
        <path id="Trazado_917140" data-name="Trazado 917140" d="M1760.56,1731.22c8.051-.031,16-.031,24.054-.02" transform="translate(-1732.305 -1662.228)" fill="none" stroke="#428dff" stroke-linecap="round" stroke-linejoin="round" stroke-miterlimit="10" stroke-width="1.5"/>
        <path id="Trazado_917141" data-name="Trazado 917141" d="M1490.73,1731.256c7.085-.031,14.093-.031,21.147,0" transform="translate(-1485.64 -1662.264)" fill="none" stroke="#428dff" stroke-linecap="round" stroke-linejoin="round" stroke-miterlimit="10" stroke-width="1.5"/>
      </g>
      <path id="Trazado_917142" data-name="Trazado 917142" d="M2212.477,1535.31h-33.262a3.68,3.68,0,0,0-3.682,3.682v33.263a3.682,3.682,0,0,0,3.682,3.682h33.262a3.682,3.682,0,0,0,3.682-3.682v-33.263A3.682,3.682,0,0,0,2212.477,1535.31Z" transform="translate(-1793.657 -1166.708)" fill="#1a1a1a" opacity="0.1"/>
      <g id="Grupo_1114014" data-name="Grupo 1114014" transform="translate(379.965 367.165)">
        <path id="Trazado_917143" data-name="Trazado 917143" d="M2562.529,1522.258v4.818H2560.2v-4.818a3.681,3.681,0,0,0-3.682-3.682h2.324A3.682,3.682,0,0,1,2562.529,1522.258Z" transform="translate(-2521.904 -1518.576)" fill="#7facfa"/>
        <path id="Trazado_917144" data-name="Trazado 917144" d="M2562.529,1617.57v28.445a3.682,3.682,0,0,1-3.682,3.682h-2.324a3.682,3.682,0,0,0,3.682-3.682V1617.57Z" transform="translate(-2521.904 -1609.071)" fill="#cad9fc"/>
        <path id="Trazado_917145" data-name="Trazado 917145" d="M2191.585,1522.258v4.818h-38.3v-4.818a3.682,3.682,0,0,1,3.682-3.682H2187.9A3.682,3.682,0,0,1,2191.585,1522.258Z" transform="translate(-2153.284 -1518.576)" fill="#a4c2f7"/>
        <path id="Trazado_917146" data-name="Trazado 917146" d="M2191.585,1617.57v28.445a3.682,3.682,0,0,1-3.682,3.682h-30.938a3.682,3.682,0,0,1-3.682-3.682V1617.57Z" transform="translate(-2153.284 -1609.071)" fill="#e8edfc"/>
        <path id="Trazado_917147" data-name="Trazado 917147" d="M2193.915,1522.258v4.818h-40.625v-4.818a3.682,3.682,0,0,1,3.682-3.682h33.262A3.682,3.682,0,0,1,2193.915,1522.258Z" transform="translate(-2153.289 -1518.576)" fill="none" stroke="#428dff" stroke-linecap="round" stroke-linejoin="round" stroke-miterlimit="10" stroke-width="1.5"/>
        <path id="Trazado_917148" data-name="Trazado 917148" d="M2193.914,1617.57v28.446a3.682,3.682,0,0,1-3.682,3.682H2156.97a3.682,3.682,0,0,1-3.682-3.682V1617.57Z" transform="translate(-2153.288 -1609.071)" fill="none" stroke="#428dff" stroke-linecap="round" stroke-linejoin="round" stroke-miterlimit="10" stroke-width="1.5"/>
        <path id="Trazado_917149" data-name="Trazado 917149" d="M2265.571,1685.84v11.117l-7.891,7.83a11.116,11.116,0,0,1,7.891-18.947Z" transform="translate(-2245.769 -1671.48)" fill="#a4c2f7"/>
        <path id="Trazado_917150" data-name="Trazado 917150" d="M2379.989,1815.319h0a11.116,11.116,0,0,1-11.117,11.117,11.274,11.274,0,0,1-1.415-.089,11.119,11.119,0,0,0,9.706-11.028h2.826Z" transform="translate(-2349.07 -1789.843)" fill="#7fabfa"/>
        <path id="Trazado_917151" data-name="Trazado 917151" d="M2420.8,1670.412h-2.826a11.12,11.12,0,0,0-8.291-10.754v-.363A11.117,11.117,0,0,1,2420.8,1670.412Z" transform="translate(-2387.674 -1647.215)" fill="#7fabfa"/>
        <path id="Trazado_917152" data-name="Trazado 917152" d="M2308.2,1815.32h0a11.119,11.119,0,0,1-9.706,11.028h0a11.082,11.082,0,0,1-6.462-3.185l-.013-.014,7.891-7.83h8.291Z" transform="translate(-2280.11 -1789.844)" fill="#e3e7f2"/>
        <path id="Trazado_917153" data-name="Trazado 917153" d="M2417.977,1674.274h-8.291V1663.52A11.121,11.121,0,0,1,2417.977,1674.274Z" transform="translate(-2387.673 -1651.076)" fill="#e3e7f2"/>
        <path id="Trazado_917154" data-name="Trazado 917154" d="M2265.573,1685.84v11.117l-7.891,7.83a11.116,11.116,0,0,1,7.891-18.946Z" transform="translate(-2245.77 -1671.48)" fill="none" stroke="#428dff" stroke-linecap="round" stroke-linejoin="round" stroke-miterlimit="10" stroke-width="1.5"/>
        <path id="Trazado_917155" data-name="Trazado 917155" d="M2311.029,1815.32h0a11.116,11.116,0,0,1-11.117,11.117,11.29,11.29,0,0,1-1.415-.089h0a11.083,11.083,0,0,1-6.462-3.185l-.013-.014,7.891-7.83Z" transform="translate(-2280.11 -1789.844)" fill="none" stroke="#428dff" stroke-linecap="round" stroke-linejoin="round" stroke-miterlimit="10" stroke-width="1.5"/>
        <path id="Trazado_917156" data-name="Trazado 917156" d="M2420.8,1670.423h-11.117v-11.117A11.117,11.117,0,0,1,2420.8,1670.423Z" transform="translate(-2387.671 -1647.224)" fill="none" stroke="#428dff" stroke-linecap="round" stroke-linejoin="round" stroke-miterlimit="10" stroke-width="1.5"/>
        <circle id="Elipse_13948" data-name="Elipse 13948" cx="0.985" cy="0.985" r="0.985" transform="matrix(0.231, -0.973, 0.973, 0.231, 4.468, 4.979)" fill="#428dff"/>
        <circle id="Elipse_13949" data-name="Elipse 13949" cx="0.985" cy="0.985" r="0.985" transform="translate(7.297 5.01) rotate(-77.978)" fill="#428dff"/>
        <circle id="Elipse_13950" data-name="Elipse 13950" cx="0.985" cy="0.985" r="0.985" transform="translate(9.861 4.25) rotate(-45)" fill="#428dff"/>
      </g>
      <g id="Grupo_1114017" data-name="Grupo 1114017" transform="translate(438.923 368.431)">
        <path id="Trazado_917157" data-name="Trazado 917157" d="M2860.98,1540.7a10.774,10.774,0,1,1-8.045-7.067,10.707,10.707,0,0,1,1.457.405" transform="translate(-2840.013 -1533.407)" fill="none" stroke="#428dff" stroke-linecap="round" stroke-linejoin="round" stroke-miterlimit="10" stroke-width="1.5"/>
        <path id="Trazado_917158" data-name="Trazado 917158" d="M2894.753,1579.471a7.111,7.111,0,0,1-2.257,8.2,7.235,7.235,0,0,1-9.783-.725,8.366,8.366,0,0,1-1.63-2.718,7.14,7.14,0,0,1,.725-6.039,7.221,7.221,0,0,1,9.289-2.706" transform="translate(-2877.222 -1571.212)" fill="none" stroke="#428dff" stroke-linecap="round" stroke-linejoin="round" stroke-miterlimit="10" stroke-width="1.5"/>
        <path id="Trazado_917159" data-name="Trazado 917159" d="M2940.08,1618.773a3.237,3.237,0,0,1,.291-.2c.022-.015.046-.028.07-.042s.055-.032.083-.047l.079-.041.079-.039c.073-.036.147-.068.224-.1l.075-.029c.025-.01.051-.019.076-.028q.077-.028.156-.051" transform="translate(-2931.489 -1610.915)" fill="none" stroke="#428dff" stroke-linecap="round" stroke-linejoin="round" stroke-miterlimit="10" stroke-width="1.5"/>
        <path id="Trazado_917160" data-name="Trazado 917160" d="M2956.06,1616.5q.122-.029.246-.047l.052-.008c.037-.005.075-.01.112-.014l.065-.007q.075-.007.149-.011l.094,0h.164l.069,0a3.63,3.63,0,0,1,.925.155" transform="translate(-2946.097 -1609.275)" fill="none" stroke="#428dff" stroke-linecap="round" stroke-linejoin="round" stroke-miterlimit="10" stroke-width="1.5"/>
        <path id="Trazado_917161" data-name="Trazado 917161" d="M2924.079,1628.86q-.124.124-.236.259l-.055.068c-.06.077-.118.156-.172.237-.014.022-.029.044-.042.065s-.027.044-.041.066c-.041.067-.079.134-.115.2-.012.023-.024.046-.035.07s-.023.047-.033.07-.022.047-.033.071-.021.048-.031.072-.02.048-.029.073-.019.049-.028.074c-.019.049-.035.1-.051.149-.008.025-.016.05-.023.075s-.011.036-.016.054c-.014.051-.027.1-.039.153s-.025.115-.036.173a.009.009,0,0,0,0,0c-.016.089-.028.179-.037.269-.012.123-.019.247-.019.373,0,.031,0,.063,0,.094s0,.063,0,.094c0,.049.006.1.011.149,0,.022,0,.043.006.065s.009.072.013.108c0,.019,0,.037.009.056a3.555,3.555,0,0,0,.161.641c.009.025.018.051.028.076s.019.05.029.075c.04.1.084.2.133.293.009.019.019.038.03.057.033.063.068.124.1.184l.046.075.049.073.05.072.051.071a3.724,3.724,0,0,0,.344.4c.08.08.165.158.253.23.04.033.08.065.122.1l.052.039.042.03.057.04c.056.038.113.075.171.11.085.052.173.1.262.144l.019.01.063.03c.021.011.042.021.064.03l.083.036.068.027.074.028c.049.018.1.035.148.051.091.029.184.054.279.076.058.014.118.026.178.037h0c.089.016.179.028.27.037.123.012.248.019.373.019h.094l.092,0,.147-.01.068-.007.1-.013a3.559,3.559,0,0,0,.7-.17c.026-.008.052-.017.077-.028l.075-.029a3.678,3.678,0,0,0,.391-.185l.059-.033c.028-.016.056-.032.083-.05l.075-.046c.025-.015.05-.031.073-.049.072-.049.143-.1.211-.153l0,0,.068-.055c.045-.037.089-.075.132-.115s.086-.08.127-.121l.061-.063.06-.064c.055-.06.107-.122.157-.186.017-.02.033-.04.048-.062s.032-.041.046-.062.031-.042.046-.063a3.563,3.563,0,0,0,.2-.332c.025-.045.05-.092.072-.138.012-.024.023-.047.034-.071s.022-.047.032-.071l.031-.072c.041-.1.076-.194.108-.295s.055-.187.077-.283c.013-.057.025-.115.036-.173a0,0,0,0,0,0,0c.016-.089.028-.179.037-.27.012-.123.019-.247.019-.373" transform="translate(-2915.884 -1620.658)" fill="none" stroke="#428dff" stroke-linecap="round" stroke-linejoin="round" stroke-miterlimit="10" stroke-width="1.5"/>
        <path id="Trazado_917162" data-name="Trazado 917162" d="M2935.855,1624.85a3.719,3.719,0,0,0-.4.344A3.493,3.493,0,0,1,2935.855,1624.85Z" transform="translate(-2927.264 -1616.992)" fill="none" stroke="#428dff" stroke-linecap="round" stroke-linejoin="round" stroke-miterlimit="10" stroke-width="1.5"/>
        <path id="Trazado_917163" data-name="Trazado 917163" d="M2953.508,1617.47c-.082.019-.161.039-.24.063C2953.347,1617.509,2953.427,1617.488,2953.508,1617.47Z" transform="translate(-2943.545 -1610.246)" fill="none" stroke="#428dff" stroke-linecap="round" stroke-linejoin="round" stroke-miterlimit="10" stroke-width="1.5"/>
        <path id="Trazado_917164" data-name="Trazado 917164" d="M2940.08,1618.773a3.237,3.237,0,0,1,.291-.2c.022-.015.046-.028.07-.042s.055-.032.083-.047l.079-.041c.026-.014.052-.026.079-.039.073-.036.147-.068.224-.1l.075-.029.076-.028c.051-.018.1-.035.156-.051" transform="translate(-2931.489 -1610.915)" fill="none" stroke="#428dff" stroke-linecap="round" stroke-linejoin="round" stroke-miterlimit="10" stroke-width="1.5"/>
        <path id="Trazado_917165" data-name="Trazado 917165" d="M2956.06,1616.494c.054-.012.109-.023.164-.033l.082-.014.052-.008c.037-.005.075-.01.112-.014l.065-.007q.075-.007.149-.011l.094,0c.055,0,.109,0,.164,0l.069,0q.146,0,.289.022" transform="translate(-2946.097 -1609.27)" fill="none" stroke="#428dff" stroke-linecap="round" stroke-linejoin="round" stroke-miterlimit="10" stroke-width="1.5"/>
        <path id="Trazado_917166" data-name="Trazado 917166" d="M2924.074,1628.86a3.348,3.348,0,0,0-.235.259c-.019.022-.038.045-.055.068-.06.077-.118.156-.171.237l-.042.065-.041.066c-.04.067-.079.135-.114.2l-.036.07c-.011.023-.022.047-.033.07s-.022.048-.033.071l-.031.072-.029.073c-.01.025-.019.049-.028.074-.018.049-.035.1-.051.149-.008.025-.016.05-.023.075l-.016.054c-.014.051-.027.1-.039.153s-.025.115-.036.173a.009.009,0,0,0,0,0c-.016.089-.029.179-.038.269a3.54,3.54,0,0,0-.018.468c0,.031,0,.062,0,.094,0,.049.006.1.011.149,0,.022,0,.043.007.065s.009.072.013.108c0,.019.005.037.008.056s.009.055.014.082a3.708,3.708,0,0,0,.147.559c.009.026.018.051.028.076l.029.075c.04.1.085.2.133.293.009.019.019.038.03.057.032.063.068.124.1.184.015.025.03.05.047.075s.031.049.048.073.032.049.05.073.034.048.052.071a3.5,3.5,0,0,0,.344.4q.12.121.252.23c.04.033.08.065.122.1l.052.039.042.03.057.04q.084.057.171.11c.085.051.173.1.262.144l.019.01.064.03.064.03.083.036.068.027.074.028c.049.018.1.035.148.051.091.029.184.054.278.076.059.014.118.027.178.037h0c.089.016.179.029.27.037a3.459,3.459,0,0,0,.468.018l.093,0,.146-.01.068-.007.1-.013c.048-.007.1-.015.143-.023a3.647,3.647,0,0,0,.56-.147l.077-.028.075-.029a3.7,3.7,0,0,0,.391-.185l.059-.033c.028-.016.055-.032.083-.05s.05-.03.075-.047.049-.031.073-.048q.109-.073.211-.154l0,0c.023-.017.046-.036.069-.055.045-.037.089-.075.132-.115s.086-.079.127-.121l.061-.063.06-.064c.055-.06.108-.122.158-.186.016-.02.032-.04.048-.062l.047-.062c.016-.021.03-.042.045-.063a3.82,3.82,0,0,0,.2-.332c.024-.045.049-.092.072-.138l.034-.071.032-.071.031-.072c.04-.1.076-.194.108-.295s.055-.187.077-.283c.013-.057.025-.115.036-.173a.009.009,0,0,0,0,0c.016-.089.029-.179.037-.27a3.622,3.622,0,0,0-.039-1.02" transform="translate(-2915.88 -1620.658)" fill="none" stroke="#428dff" stroke-linecap="round" stroke-linejoin="round" stroke-miterlimit="10" stroke-width="1.5"/>
        <g id="Grupo_1114016" data-name="Grupo 1114016" transform="translate(10.774 0)">
          <path id="Trazado_917167" data-name="Trazado 917167" d="M2965.51,1606.772q2.435-2.41,4.9-4.9" transform="translate(-2965.51 -1595.991)" fill="none" stroke="#428dff" stroke-linecap="round" stroke-linejoin="round" stroke-miterlimit="10" stroke-width="1.5"/>
          <g id="Grupo_1114015" data-name="Grupo 1114015" transform="translate(4.895)">
            <path id="Trazado_917168" data-name="Trazado 917168" d="M3028.285,1536.959l-1.419,1.419a1.662,1.662,0,0,1-1,.478l-3.338.353.353-3.338a1.664,1.664,0,0,1,.478-1l1.419-1.419a.433.433,0,0,1,.732.227l.4,2.149,2.149.4A.433.433,0,0,1,3028.285,1536.959Z" transform="translate(-3022.526 -1533.324)" fill="none" stroke="#428dff" stroke-linecap="round" stroke-linejoin="round" stroke-miterlimit="10" stroke-width="1.5"/>
          </g>
        </g>
      </g>
    </g>
  </g>
</svg>
