<svg xmlns="http://www.w3.org/2000/svg" width="32" height="23.042" viewBox="0 0 32 23.042">
  <g id="Grupo_1114026" data-name="Grupo 1114026" transform="translate(-0.001 0)">
    <path id="Trazado_917198" data-name="Trazado 917198" d="M82.35,50.339A1.038,1.038,0,0,0,83.387,49.3V35.889a1.038,1.038,0,0,0-1.037-1.037H59.42a1.038,1.038,0,0,0-1.037,1.037V49.3a1.038,1.038,0,0,0,1.037,1.037ZM59.311,49.3V38.463H75.6a.464.464,0,0,0,0-.928H59.311V35.888a.11.11,0,0,1,.109-.109H82.35a.11.11,0,0,1,.109.109v1.647H77.8a.464.464,0,0,0,0,.928h4.655V49.3a.11.11,0,0,1-.109.11H59.42A.11.11,0,0,1,59.311,49.3Zm0,0" transform="translate(-54.733 -32.674)" fill="#523dbf"/>
    <path id="Trazado_917199" data-name="Trazado 917199" d="M31.239,18.863h-.407V2.3a2.3,2.3,0,0,0-2.3-2.3H3.77A2.286,2.286,0,0,0,1.816,1.088a.464.464,0,0,0,.788.489A1.363,1.363,0,0,1,3.77.927H28.534A1.372,1.372,0,0,1,29.9,2.3V18.863H29.77a.464.464,0,0,0,0,.927h1.3v.189a2.136,2.136,0,0,1-2.134,2.134H3.062A2.136,2.136,0,0,1,.929,19.98v-.188l26.711.092h0a.464.464,0,0,0,0-.928L2.4,18.869V3.422a.464.464,0,0,0-.928,0V18.866l-.708,0A.763.763,0,0,0,0,19.625v.354a3.065,3.065,0,0,0,3.061,3.061H28.94A3.065,3.065,0,0,0,32,19.98v-.354a.763.763,0,0,0-.762-.762Zm0,0" fill="#523dbf"/>
    <path id="Trazado_917200" data-name="Trazado 917200" d="M122.392,106.4h.387v1.139c0,.156.06.264.228.264s.228-.108.228-.264v-1.7c0-.162-.078-.2-.174-.2-.255,0-.162.342-.495.414l-.111.024c-.156.03-.216.06-.216.171s.054.159.153.159Zm0,0" transform="translate(-114.598 -99.031)" fill="#523dbf"/>
    <path id="Trazado_917201" data-name="Trazado 917201" d="M154.457,107.8c.632,0,.8-.582.8-1.112,0-.707-.315-1.058-.8-1.058s-.8.351-.8,1.058C153.656,107.221,153.824,107.8,154.457,107.8Zm0-1.811c.264,0,.363.276.363.725,0,.537-.132.726-.363.726s-.363-.189-.363-.726c0-.45.1-.725.363-.725Zm0,0" transform="translate(-144.052 -99.031)" fill="#523dbf"/>
    <path id="Trazado_917202" data-name="Trazado 917202" d="M193.406,107.8c.633,0,.8-.582.8-1.112,0-.707-.315-1.058-.8-1.058s-.8.351-.8,1.058C192.605,107.221,192.773,107.8,193.406,107.8Zm0-1.811c.264,0,.363.276.363.725,0,.537-.132.726-.363.726s-.363-.189-.363-.726c0-.45.1-.725.363-.725Zm0,0" transform="translate(-180.567 -99.031)" fill="#523dbf"/>
    <path id="Trazado_917203" data-name="Trazado 917203" d="M229.407,106.4h.387v1.139c0,.156.06.264.228.264s.228-.108.228-.264v-1.7c0-.162-.078-.2-.174-.2-.255,0-.162.342-.495.414l-.111.024c-.156.03-.216.06-.216.171s.054.159.153.159Zm0,0" transform="translate(-214.924 -99.031)" fill="#523dbf"/>
    <path id="Trazado_917204" data-name="Trazado 917204" d="M261.473,107.8c.633,0,.8-.582.8-1.112,0-.707-.315-1.058-.8-1.058s-.8.351-.8,1.058C260.672,107.221,260.84,107.8,261.473,107.8Zm0-1.811c.264,0,.363.276.363.725,0,.537-.132.726-.363.726s-.363-.189-.363-.726c0-.45.1-.725.363-.725Zm0,0" transform="translate(-244.379 -99.031)" fill="#523dbf"/>
    <path id="Trazado_917205" data-name="Trazado 917205" d="M297.47,106.4h.387v1.139c0,.156.06.264.228.264s.228-.108.228-.264v-1.7c0-.162-.078-.2-.174-.2-.255,0-.162.342-.495.414l-.111.024c-.156.03-.216.06-.216.171s.054.159.153.159Zm0,0" transform="translate(-278.733 -99.031)" fill="#523dbf"/>
    <path id="Trazado_917206" data-name="Trazado 917206" d="M329.535,107.8c.632,0,.8-.582.8-1.112,0-.707-.315-1.058-.8-1.058s-.8.351-.8,1.058C328.734,107.221,328.9,107.8,329.535,107.8Zm0-1.811c.264,0,.363.276.363.725,0,.537-.132.726-.363.726s-.363-.189-.363-.726c0-.45.1-.725.363-.725Zm0,0" transform="translate(-308.188 -99.031)" fill="#523dbf"/>
    <path id="Trazado_917207" data-name="Trazado 917207" d="M368.484,107.8c.633,0,.8-.582.8-1.112,0-.707-.315-1.058-.8-1.058s-.8.351-.8,1.058C367.683,107.221,367.851,107.8,368.484,107.8Zm0-1.811c.264,0,.363.276.363.725,0,.537-.132.726-.363.726s-.363-.189-.363-.726c0-.45.1-.725.363-.725Zm0,0" transform="translate(-344.702 -99.031)" fill="#523dbf"/>
    <path id="Trazado_917208" data-name="Trazado 917208" d="M124.539,159.3c0,.531.168,1.112.8,1.112s.8-.582.8-1.112c0-.708-.315-1.058-.8-1.058s-.8.351-.8,1.058Zm1.163.027c0,.537-.132.725-.363.725s-.363-.189-.363-.725c0-.45.1-.726.363-.726S125.7,158.882,125.7,159.332Zm0,0" transform="translate(-116.754 -148.356)" fill="#523dbf"/>
    <path id="Trazado_917209" data-name="Trazado 917209" d="M161.955,160.417c.168,0,.228-.108.228-.264v-1.7c0-.162-.078-.2-.174-.2-.255,0-.162.342-.495.414l-.111.024c-.156.03-.216.06-.216.171s.054.159.153.159h.387v1.139c0,.156.06.264.228.264Zm0,0" transform="translate(-151.113 -148.357)" fill="#523dbf"/>
    <path id="Trazado_917210" data-name="Trazado 917210" d="M193.406,160.417c.633,0,.8-.582.8-1.112,0-.708-.315-1.058-.8-1.058s-.8.351-.8,1.058C192.605,159.835,192.773,160.417,193.406,160.417Zm0-1.811c.264,0,.363.276.363.725,0,.537-.132.726-.363.726s-.363-.189-.363-.726C193.043,158.882,193.142,158.606,193.406,158.606Zm0,0" transform="translate(-180.567 -148.356)" fill="#523dbf"/>
    <path id="Trazado_917211" data-name="Trazado 917211" d="M229.407,159.013h.387v1.139c0,.156.06.264.228.264s.228-.108.228-.264v-1.7c0-.162-.078-.2-.174-.2-.255,0-.162.342-.495.414l-.111.024c-.156.03-.216.06-.216.171S229.308,159.013,229.407,159.013Zm0,0" transform="translate(-214.924 -148.356)" fill="#523dbf"/>
    <path id="Trazado_917212" data-name="Trazado 917212" d="M261.473,160.417c.633,0,.8-.582.8-1.112,0-.708-.315-1.058-.8-1.058s-.8.351-.8,1.058C260.672,159.835,260.84,160.417,261.473,160.417Zm0-1.811c.264,0,.363.276.363.725,0,.537-.132.726-.363.726s-.363-.189-.363-.726C261.11,158.882,261.209,158.606,261.473,158.606Zm0,0" transform="translate(-244.379 -148.356)" fill="#523dbf"/>
    <path id="Trazado_917213" data-name="Trazado 917213" d="M299.617,159.3c0,.531.168,1.112.8,1.112s.8-.582.8-1.112c0-.708-.315-1.058-.8-1.058S299.617,158.6,299.617,159.3Zm1.163.027c0,.537-.132.725-.363.725s-.363-.189-.363-.725c0-.45.1-.726.363-.726S300.78,158.882,300.78,159.332Zm0,0" transform="translate(-280.89 -148.356)" fill="#523dbf"/>
    <path id="Trazado_917214" data-name="Trazado 917214" d="M338.566,159.3c0,.531.168,1.112.8,1.112s.8-.582.8-1.112c0-.708-.315-1.058-.8-1.058S338.566,158.6,338.566,159.3Zm1.163.027c0,.537-.132.725-.363.725s-.363-.189-.363-.725c0-.45.1-.726.363-.726S339.729,158.882,339.729,159.332Zm0,0" transform="translate(-317.405 -148.356)" fill="#523dbf"/>
    <path id="Trazado_917215" data-name="Trazado 917215" d="M375.982,160.417c.168,0,.228-.108.228-.264v-1.7c0-.162-.078-.2-.174-.2-.255,0-.162.342-.495.414l-.111.024c-.156.03-.216.06-.216.171s.054.159.153.159h.387v1.139c0,.156.06.264.228.264Zm0,0" transform="translate(-351.763 -148.357)" fill="#523dbf"/>
    <path id="Trazado_917216" data-name="Trazado 917216" d="M122.392,211.627h.387v1.139c0,.156.06.264.228.264s.228-.108.228-.264v-1.7c0-.162-.078-.2-.174-.2-.255,0-.162.342-.495.414l-.111.024c-.156.03-.216.06-.216.171S122.293,211.627,122.392,211.627Zm0,0" transform="translate(-114.598 -197.681)" fill="#523dbf"/>
    <path id="Trazado_917217" data-name="Trazado 917217" d="M154.457,213.03c.632,0,.8-.582.8-1.112,0-.707-.315-1.058-.8-1.058s-.8.351-.8,1.058C153.656,212.448,153.824,213.03,154.457,213.03Zm0-1.811c.264,0,.363.276.363.726,0,.537-.132.726-.363.726s-.363-.189-.363-.726C154.094,211.495,154.193,211.219,154.457,211.219Zm0,0" transform="translate(-144.052 -197.681)" fill="#523dbf"/>
    <path id="Trazado_917218" data-name="Trazado 917218" d="M190.458,211.627h.387v1.139c0,.156.06.264.228.264s.228-.108.228-.264v-1.7c0-.162-.078-.2-.174-.2-.255,0-.162.342-.495.414l-.111.024c-.156.03-.216.06-.216.171S190.359,211.627,190.458,211.627Zm0,0" transform="translate(-178.41 -197.681)" fill="#523dbf"/>
    <path id="Trazado_917219" data-name="Trazado 917219" d="M222.523,213.03c.633,0,.8-.582.8-1.112,0-.707-.315-1.058-.8-1.058s-.8.351-.8,1.058C221.722,212.448,221.89,213.03,222.523,213.03Zm0-1.811c.264,0,.363.276.363.726,0,.537-.132.726-.363.726s-.363-.189-.363-.726C222.16,211.495,222.259,211.219,222.523,211.219Zm0,0" transform="translate(-207.864 -197.681)" fill="#523dbf"/>
    <path id="Trazado_917220" data-name="Trazado 917220" d="M261.473,213.03c.633,0,.8-.582.8-1.112,0-.707-.315-1.058-.8-1.058s-.8.351-.8,1.058C260.672,212.448,260.84,213.03,261.473,213.03Zm0-1.811c.264,0,.363.276.363.726,0,.537-.132.726-.363.726s-.363-.189-.363-.726C261.11,211.495,261.209,211.219,261.473,211.219Zm0,0" transform="translate(-244.379 -197.681)" fill="#523dbf"/>
    <path id="Trazado_917221" data-name="Trazado 917221" d="M297.47,211.627h.387v1.139c0,.156.06.264.228.264s.228-.108.228-.264v-1.7c0-.162-.078-.2-.174-.2-.255,0-.162.342-.495.414l-.111.024c-.156.03-.216.06-.216.171S297.371,211.627,297.47,211.627Zm0,0" transform="translate(-278.733 -197.681)" fill="#523dbf"/>
    <path id="Trazado_917222" data-name="Trazado 917222" d="M329.535,213.03c.632,0,.8-.582.8-1.112,0-.707-.315-1.058-.8-1.058s-.8.351-.8,1.058C328.734,212.448,328.9,213.03,329.535,213.03Zm0-1.811c.264,0,.363.276.363.726,0,.537-.132.726-.363.726s-.363-.189-.363-.726C329.172,211.495,329.271,211.219,329.535,211.219Zm0,0" transform="translate(-308.188 -197.681)" fill="#523dbf"/>
    <path id="Trazado_917223" data-name="Trazado 917223" d="M368.484,213.03c.633,0,.8-.582.8-1.112,0-.707-.315-1.058-.8-1.058s-.8.351-.8,1.058C367.683,212.448,367.851,213.03,368.484,213.03Zm0-1.811c.264,0,.363.276.363.726,0,.537-.132.726-.363.726s-.363-.189-.363-.726C368.121,211.495,368.22,211.219,368.484,211.219Zm0,0" transform="translate(-344.702 -197.681)" fill="#523dbf"/>
  </g>
</svg>
