<svg xmlns="http://www.w3.org/2000/svg" width="32" height="34.066" viewBox="0 0 32 34.066">
  <g id="Grupo_1114025" data-name="Grupo 1114025" transform="translate(-15.527)">
    <path id="Trazado_917195" data-name="Trazado 917195" d="M423.612,279.42l-.563.563a.166.166,0,0,1-.235,0l-.417-.417v-1.361h.534a.5.5,0,0,0,0-1H422.4v-7.561l.417-.417a.166.166,0,0,1,.235,0l.563.563a.5.5,0,0,0,.706-.706l-.563-.563a1.166,1.166,0,0,0-1.647,0l-.21.21-.21-.21a1.166,1.166,0,0,0-1.647,0l-.563.563a.5.5,0,0,0,.706.706l.563-.563a.166.166,0,0,1,.235,0l.417.417v7.562h-.534a.5.5,0,0,0,0,1h.534v1.361l-.417.417a.166.166,0,0,1-.235,0l-.563-.563a.5.5,0,0,0-.706.706l.563.563a1.166,1.166,0,0,0,1.647,0l.21-.21.21.21a1.166,1.166,0,0,0,1.647,0l.563-.563a.5.5,0,0,0-.706-.706Z" transform="translate(-376.937 -250.338)" fill="#523dbf"/>
    <path id="Trazado_917196" data-name="Trazado 917196" d="M114.791,48.595a8.766,8.766,0,1,0-8.766-8.766A8.767,8.767,0,0,0,114.791,48.595ZM119.6,45.93v-3.7a.833.833,0,0,0-.832-.832H115.3a.833.833,0,0,0-.832.832v.736a.5.5,0,0,1-.5.5h-.57V39.294h9.139c.012.178.018.356.018.534A7.712,7.712,0,0,1,119.6,45.93Zm-4.811-13.87a7.777,7.777,0,0,1,7.617,6.236h-9.173a.833.833,0,0,0-.832.832v4.5a.833.833,0,0,0,.832.832h.736a1.5,1.5,0,0,0,1.5-1.5v-.57H118.6v4.2a7.769,7.769,0,1,1-3.813-14.538Z" transform="translate(-84.477 -28.995)" fill="#523dbf"/>
    <path id="Trazado_917197" data-name="Trazado 917197" d="M43.892,15.466h.736a.833.833,0,0,0,.832-.832v-4.5a.833.833,0,0,0-.832-.832H41.035A10.83,10.83,0,0,0,24.058,1.99a.5.5,0,0,0,.577.814,9.835,9.835,0,1,1,2.65,17.385,1.487,1.487,0,0,0-1.832.833l-1.49,3.461-2.29-1.322,2.252-3.02a1.49,1.49,0,0,0-.2-2.007,9.866,9.866,0,0,1-.778-13.811.5.5,0,1,0-.749-.659,10.837,10.837,0,0,0,.859,15.211.5.5,0,0,1,.067.669l-3.3,4.426a.5.5,0,0,0,.8.6l.448-.6,2.494,1.44-2.711,6.3a2.256,2.256,0,1,1-3.882-2.241L19.2,26.471a.5.5,0,0,0-.8-.6l-2.231,2.992a3.255,3.255,0,1,0,5.6,3.232l4.6-10.682a.493.493,0,0,1,.607-.278,10.861,10.861,0,0,0,7.152-.168V27.9h-.57a1.5,1.5,0,0,0-1.5,1.5v.736a.833.833,0,0,0,.832.832h7.6a.833.833,0,0,0,.832-.832V29.4a1.5,1.5,0,0,0-1.5-1.5h-.57V22.152a.5.5,0,0,0-1,0v5.917a.833.833,0,0,0,.832.832h.736a.5.5,0,0,1,.5.5v.57H33.059V29.4a.5.5,0,0,1,.5-.5h.736a.833.833,0,0,0,.832-.832V20.536a10.858,10.858,0,0,0,3.136-2.347v1.634a.5.5,0,0,0,1,0V16.937A10.9,10.9,0,0,0,40.84,13.4h1.555v.57a1.5,1.5,0,0,0,1.5,1.5ZM41.035,12.4a10.706,10.706,0,0,0,.1-2.1h3.329v4.169h-.57a.5.5,0,0,1-.5-.5v-.736a.833.833,0,0,0-.832-.832Z" transform="translate(0 0)" fill="#523dbf"/>
  </g>
</svg>
