<svg xmlns="http://www.w3.org/2000/svg" width="85" height="85" viewBox="0 0 85 85">
  <g id="Grupo_1113507" data-name="Grupo 1113507" transform="translate(-179.571 -520)">
    <rect id="Rectángulo_411463" data-name="Rectángulo 411463" width="85" height="85" transform="translate(179.571 520)" fill="#dcd8f2"/>
    <g id="Grupo_1113506" data-name="Grupo 1113506" transform="translate(192.856 510.252)">
      <path id="Trazado_916560" data-name="Trazado 916560" d="M163.389,201.107V178.283A2.289,2.289,0,0,0,161.107,176H138.283A2.289,2.289,0,0,0,136,178.283v22.824Z" transform="translate(-120.481 -132.882)" fill="#fe9ab8" fill-rule="evenodd"/>
      <g id="Grupo_1113505" data-name="Grupo 1113505" transform="translate(0 26.001)">
        <path id="Trazado_916561" data-name="Trazado 916561" d="M52.723,37.413H16.661V35.13H47.473a3.424,3.424,0,1,0,0-6.847H16.661V27.142A1.141,1.141,0,0,0,15.52,26H10.955a3.427,3.427,0,0,0-3.424,3.424v7.988H5.706A5.712,5.712,0,0,0,0,43.119V72.789A5.712,5.712,0,0,0,5.706,78.5H52.723a5.712,5.712,0,0,0,5.706-5.706V43.119A5.712,5.712,0,0,0,52.723,37.413Zm-5.25-6.847a1.141,1.141,0,0,1,0,2.282H16.661V30.566ZM9.814,29.425a1.142,1.142,0,0,1,1.141-1.141h3.424v9.129H9.814ZM5.706,39.7H52.723a3.427,3.427,0,0,1,3.424,3.424V68.227a5.676,5.676,0,0,0-3.424-1.144H5.706a5.676,5.676,0,0,0-3.424,1.144V43.119A3.427,3.427,0,0,1,5.706,39.7ZM52.723,76.213H5.706a3.424,3.424,0,0,1,0-6.847H52.723A3.424,3.424,0,0,1,52.723,76.213Z" transform="translate(0 -26.001)" fill="#020288"/>
        <path id="Trazado_916562" data-name="Trazado 916562" d="M56.76,426H52.2a1.141,1.141,0,0,0,0,2.282H56.76a1.141,1.141,0,1,0,0-2.282Z" transform="translate(-45.235 -380.354)" fill="#020288"/>
        <path id="Trazado_916563" data-name="Trazado 916563" d="M142.143,426a1.141,1.141,0,1,0,1.141,1.141A1.141,1.141,0,0,0,142.143,426Z" transform="translate(-124.91 -380.354)" fill="#020288"/>
        <path id="Trazado_916564" data-name="Trazado 916564" d="M192.143,426a1.141,1.141,0,1,0,1.141,1.141A1.141,1.141,0,0,0,192.143,426Z" transform="translate(-169.204 -380.354)" fill="#020288"/>
        <path id="Trazado_916565" data-name="Trazado 916565" d="M242.143,426a1.141,1.141,0,1,0,1.141,1.141A1.141,1.141,0,0,0,242.143,426Z" transform="translate(-213.498 -380.354)" fill="#020288"/>
        <path id="Trazado_916566" data-name="Trazado 916566" d="M292.143,426a1.141,1.141,0,1,0,1.141,1.141A1.141,1.141,0,0,0,292.143,426Z" transform="translate(-257.793 -380.354)" fill="#020288"/>
        <path id="Trazado_916567" data-name="Trazado 916567" d="M342.142,426a1.141,1.141,0,1,0,1.141,1.141A1.141,1.141,0,0,0,342.142,426Z" transform="translate(-302.086 -380.354)" fill="#020288"/>
        <path id="Trazado_916568" data-name="Trazado 916568" d="M392.142,426a1.141,1.141,0,1,0,1.141,1.141A1.141,1.141,0,0,0,392.142,426Z" transform="translate(-346.38 -380.354)" fill="#020288"/>
        <path id="Trazado_916569" data-name="Trazado 916569" d="M442.142,426a1.141,1.141,0,1,0,1.141,1.141A1.141,1.141,0,0,0,442.142,426Z" transform="translate(-390.674 -380.354)" fill="#020288"/>
        <path id="Trazado_916570" data-name="Trazado 916570" d="M191.38,240.624a7.988,7.988,0,0,1,11.3,0,1.141,1.141,0,1,0,1.614-1.614,10.271,10.271,0,0,0-14.525,0,1.141,1.141,0,1,0,1.614,1.614Z" transform="translate(-167.815 -212.037)" fill="#020288"/>
        <path id="Trazado_916571" data-name="Trazado 916571" d="M222.042,276a5.668,5.668,0,0,0-4.035,1.671,1.141,1.141,0,0,0,1.614,1.614,3.44,3.44,0,0,1,4.842,0,1.141,1.141,0,0,0,1.614-1.614A5.668,5.668,0,0,0,222.042,276Z" transform="translate(-192.827 -247.471)" fill="#020288"/>
        <path id="Trazado_916572" data-name="Trazado 916572" d="M247.138,316a1.141,1.141,0,1,0,1.142,1.141A1.141,1.141,0,0,0,247.138,316Z" transform="translate(-217.924 -282.907)" fill="#020288"/>
      </g>
    </g>
  </g>
</svg>
